<svg xmlns="http://www.w3.org/2000/svg" width="67" height="67" viewBox="0 0 67 67">
    <defs>
        <filter id="4epmjxnzua">
            <feColorMatrix in="SourceGraphic" values="0 0 0 0 1.000000 0 0 0 0 1.000000 0 0 0 0 1.000000 0 0 0 1.000000 0"/>
        </filter>
        <filter id="df3wrqt4ob">
            <feColorMatrix in="SourceGraphic" values="0 0 0 0 0.952941 0 0 0 0 0.643137 0 0 0 0 0.443137 0 0 0 1.000000 0"/>
        </filter>
    </defs>
    <g fill="none" fill-rule="evenodd">
        <circle cx="33.5" cy="33.5" r="33.5" fill="#FFE8E8"/>
        <g filter="url(#4epmjxnzua)">
            <path fill="#000" fill-rule="nonzero" d="M34.994 32.206l-7.388-2.319C26.075 29.407 25 27.812 25 26.02 25 23.8 26.6 22 28.563 22h4.612c1.387 0 2.706.537 3.756 1.531.194.181.488.2.688.019l.743-.675c.213-.194.225-.525.025-.725-1.425-1.375-3.293-2.156-5.206-2.156H32V16.5c0-.275-.225-.5-.5-.5h-1c-.275 0-.5.225-.5.5V20h-1.438C25.494 20 23 22.7 23 26.019c0 2.662 1.65 5.037 4.006 5.775l7.388 2.319C35.93 34.592 37 36.186 37 37.98 37 40.194 35.4 42 33.437 42h-4.612c-1.388 0-2.706-.538-3.756-1.531-.194-.181-.488-.2-.688-.019l-.737.675c-.207.188-.225.525-.019.719C25.05 43.219 26.919 44 28.831 44H30v3.5c0 .275.225.5.5.5h1c.275 0 .5-.225.5-.5V44h1.437C36.508 44 39 41.3 39 37.981c0-2.656-1.65-5.031-4.006-5.775z"/>
        </g>
        <g filter="url(#df3wrqt4ob)">
            <path fill="#000" fill-rule="nonzero" d="M39.994 32.206l-7.388-2.319C31.075 29.407 30 27.812 30 26.02 30 23.8 31.6 22 33.562 22h4.613c1.387 0 2.706.537 3.756 1.531.194.181.488.2.688.019l.743-.675c.213-.194.225-.525.025-.725-1.425-1.375-3.293-2.156-5.206-2.156H37V16.5c0-.275-.225-.5-.5-.5h-1c-.275 0-.5.225-.5.5V20h-1.438C30.494 20 28 22.7 28 26.019c0 2.662 1.65 5.037 4.006 5.775l7.388 2.319C40.93 34.592 42 36.186 42 37.98 42 40.194 40.4 42 38.437 42h-4.612c-1.388 0-2.706-.538-3.756-1.531-.194-.181-.488-.2-.688-.019l-.737.675c-.206.188-.225.525-.019.719C30.05 43.219 31.919 44 33.831 44H35v3.5c0 .275.225.5.5.5h1c.275 0 .5-.225.5-.5V44h1.438C41.505 44 44 41.3 44 37.981c0-2.656-1.65-5.031-4.006-5.775z"/>
        </g>
        <path fill="#000" fill-rule="nonzero" d="M37.772 32.206l-7.388-2.319c-1.531-.48-2.606-2.075-2.606-3.868 0-2.219 1.6-4.019 3.562-4.019h4.613c1.387 0 2.706.537 3.756 1.531.194.181.488.2.688.019l.743-.675c.213-.194.225-.525.025-.725-1.425-1.375-3.293-2.156-5.206-2.156h-1.181V16.5c0-.275-.225-.5-.5-.5h-1c-.275 0-.5.225-.5.5V20H31.34c-3.068 0-5.562 2.7-5.562 6.019 0 2.662 1.65 5.037 4.006 5.775l7.388 2.319c1.537.48 2.606 2.074 2.606 3.868 0 2.213-1.6 4.019-3.563 4.019h-4.612c-1.388 0-2.706-.538-3.756-1.531-.194-.181-.488-.2-.688-.019l-.737.675c-.207.188-.225.525-.02.719C27.829 43.219 29.698 44 31.61 44h1.169v3.5c0 .275.225.5.5.5h1c.275 0 .5-.225.5-.5V44h1.437c3.069 0 5.563-2.7 5.563-6.019 0-2.656-1.65-5.031-4.006-5.775z"/>
    </g>
</svg>
