<?xml version="1.0" encoding="UTF-8"?>
<svg width="61px" height="82px" viewBox="0 0 61 82" version="1.1" xmlns="http://www.w3.org/2000/svg" xmlns:xlink="http://www.w3.org/1999/xlink">
    <title>calculator</title>
    <g id="In-Between-Dashboard" stroke="none" stroke-width="1" fill="none" fill-rule="evenodd">
        <g id="In-Between-Dashboard_Option-2" transform="translate(-424.000000, -757.000000)" fill-rule="nonzero">
            <g id="office-visit-estimator" transform="translate(34.000000, 736.000000)">
                <g id="calculator" transform="translate(390.000000, 21.000000)">
                    <path d="M56.4187269,82 L4.58127308,82 C2.05102417,82 0,79.9524023 0,77.4267383 L0,4.57326172 C0,2.04759766 2.05102417,0 4.58127308,0 L56.4187269,0 C58.9489758,0 61,2.04759766 61,4.57326172 L61,77.4265781 C61,79.9524023 58.9489758,82 56.4187269,82 Z" id="Path" fill="#60C29C"></path>
                    <path d="M56.4506953,0 L53.0172488,0 C53.3827226,0.6585625 53.5917468,1.41674219 53.5917468,2.22441016 L53.5917468,75.0777266 C53.5917468,77.6035508 51.5548755,79.6509883 49.0424421,79.6509883 L1,79.6509883 C1.77762761,81.0520352 3.26581025,82 4.97496595,82 L56.4506953,82 C58.963288,82 61,79.9524023 61,77.4267383 L61,4.57326172 C61,2.04759766 58.963288,0 56.4506953,0 Z" id="Path" fill="#218380"></path>
                    <path d="M53.5913429,30 L7.40865714,30 C6.07844762,30 5,28.9124898 5,27.571102 L5,8.42889796 C5,7.0875102 6.07844762,6 7.40865714,6 L53.5913429,6 C54.9215524,6 56,7.0875102 56,8.42889796 L56,27.571102 C56,28.9124898 54.9215524,30 53.5913429,30 Z" id="Path" fill="#DFECFF"></path>
                    <path d="M53.5858785,6 L48.257513,6 C48.3319959,6.23395918 48.373213,6.48293878 48.373213,6.74187755 L48.373213,25.8840816 C48.373213,27.2254694 47.2923188,28.3129796 45.9590915,28.3129796 L5,28.3129796 C5.31172463,29.2914286 6.22255773,30 7.29842151,30 L53.5858785,30 C54.9191058,30 56,28.9124898 56,27.571102 L56,8.42889796 C56,7.0875102 54.9191058,6 53.5858785,6 Z" id="Path" fill="#4AB8FF" opacity="0.263881138"></path>
                    <path d="M24.8109756,16.3109756 L20.6890244,16.3109756 L20.6890244,12.1890244 C20.6890244,11.5323659 20.1566585,11 19.5,11 C18.8433415,11 18.3109756,11.5323659 18.3109756,12.1890244 L18.3109756,16.3109756 L14.1890244,16.3109756 C13.5323659,16.3109756 13,16.8433415 13,17.5 C13,18.1566585 13.5323659,18.6890244 14.1890244,18.6890244 L18.3109756,18.6890244 L18.3109756,22.8109756 C18.3109756,23.4676341 18.8433415,24 19.5,24 C20.1566585,24 20.6890244,23.4676341 20.6890244,22.8109756 L20.6890244,18.6890244 L24.8109756,18.6890244 C25.4676341,18.6890244 26,18.1566585 26,17.5 C26,16.8433415 25.4677927,16.3109756 24.8109756,16.3109756 Z" id="Path" fill="#1A2F52"></path>
                    <g id="Group" transform="translate(5.000000, 36.000000)" fill="#FFFFFF">
                        <path d="M7.18931004,9 L1.58954585,9 C0.756318777,9 0.0809475983,8.30316667 0.0809475983,7.44383333 L0.0809475983,1.6675 C0.0809475983,0.808 0.756480349,0.111333333 1.58954585,0.111333333 L7.18931004,0.111333333 C8.02253712,0.111333333 8.6979083,0.808166667 8.6979083,1.6675 L8.6979083,7.44383333 C8.6979083,8.30316667 8.02253712,9 7.18931004,9 Z" id="Path"></path>
                        <path d="M21.2819476,9 L15.6821834,9 C14.8489563,9 14.1735852,8.30316667 14.1735852,7.44383333 L14.1735852,1.6675 C14.1735852,0.808 14.8491179,0.111333333 15.6821834,0.111333333 L21.2819476,0.111333333 C22.1151747,0.111333333 22.7905459,0.808166667 22.7905459,1.6675 L22.7905459,7.44383333 C22.7907074,8.30316667 22.1151747,9 21.2819476,9 Z" id="Path"></path>
                        <path d="M35.3745852,9 L29.774821,9 C28.9415939,9 28.2662227,8.30316667 28.2662227,7.44383333 L28.2662227,1.6675 C28.2662227,0.808 28.9417555,0.111333333 29.774821,0.111333333 L35.3745852,0.111333333 C36.2078122,0.111333333 36.8831834,0.808166667 36.8831834,1.6675 L36.8831834,7.44383333 C36.883345,8.30316667 36.2078122,9 35.3745852,9 Z" id="Path"></path>
                    </g>
                    <path d="M54.4243419,45 L48.5756581,45 C47.7053926,45 47,44.2944386 47,43.4243419 L47,37.5756581 C47,36.7053926 47.7055614,36 48.5756581,36 L54.4243419,36 C55.2946074,36 56,36.7055614 56,37.5756581 L56,43.4243419 C56,44.2944386 55.2944386,45 54.4243419,45 Z" id="Path" fill="#FBE812"></path>
                    <g id="Group" transform="translate(5.000000, 50.000000)" fill="#FFFFFF">
                        <path d="M7.18931004,8.68531469 L1.58954585,8.68531469 C0.756318777,8.68531469 0.0809475983,8.01284615 0.0809475983,7.18355944 L0.0809475983,1.6091958 C0.0809475983,0.779748252 0.756480349,0.107440559 1.58954585,0.107440559 L7.18931004,0.107440559 C8.02253712,0.107440559 8.6979083,0.779909091 8.6979083,1.6091958 L8.6979083,7.18355944 C8.6979083,8.01284615 8.02253712,8.68531469 7.18931004,8.68531469 Z" id="Path"></path>
                        <path d="M21.2819476,8.68531469 L15.6821834,8.68531469 C14.8489563,8.68531469 14.1735852,8.01284615 14.1735852,7.18355944 L14.1735852,1.6091958 C14.1735852,0.779748252 14.8491179,0.107440559 15.6821834,0.107440559 L21.2819476,0.107440559 C22.1151747,0.107440559 22.7905459,0.779909091 22.7905459,1.6091958 L22.7905459,7.18355944 C22.7907074,8.01284615 22.1151747,8.68531469 21.2819476,8.68531469 Z" id="Path"></path>
                        <path d="M35.3745852,8.68531469 L29.774821,8.68531469 C28.9415939,8.68531469 28.2662227,8.01284615 28.2662227,7.18355944 L28.2662227,1.6091958 C28.2662227,0.779748252 28.9417555,0.107440559 29.774821,0.107440559 L35.3745852,0.107440559 C36.2078122,0.107440559 36.8831834,0.779909091 36.8831834,1.6091958 L36.8831834,7.18355944 C36.883345,8.01284615 36.2078122,8.68531469 35.3745852,8.68531469 Z" id="Path"></path>
                        <path d="M7.18931004,23 L1.58954585,23 C0.756318777,23 0.0809475983,22.3275315 0.0809475983,21.4982448 L0.0809475983,15.9238811 C0.0809475983,15.0944336 0.756480349,14.4221259 1.58954585,14.4221259 L7.18931004,14.4221259 C8.02253712,14.4221259 8.6979083,15.0945944 8.6979083,15.9238811 L8.6979083,21.4982448 C8.6979083,22.3275315 8.02253712,23 7.18931004,23 Z" id="Path"></path>
                        <path d="M21.2819476,23 L15.6821834,23 C14.8489563,23 14.1735852,22.3275315 14.1735852,21.4982448 L14.1735852,15.9238811 C14.1735852,15.0944336 14.8491179,14.4221259 15.6821834,14.4221259 L21.2819476,14.4221259 C22.1151747,14.4221259 22.7905459,15.0945944 22.7905459,15.9238811 L22.7905459,21.4982448 C22.7907074,22.3275315 22.1151747,23 21.2819476,23 Z" id="Path"></path>
                        <path d="M35.3745852,23 L29.774821,23 C28.9415939,23 28.2662227,22.3275315 28.2662227,21.4982448 L28.2662227,15.9238811 C28.2662227,15.0944336 28.9417555,14.4221259 29.774821,14.4221259 L35.3745852,14.4221259 C36.2078122,14.4221259 36.8831834,15.0945944 36.8831834,15.9238811 L36.8831834,21.4982448 C36.883345,22.3275315 36.2078122,23 35.3745852,23 Z" id="Path"></path>
                    </g>
                    <path d="M54.4243419,50 L48.5756581,50 C47.7053926,50 47,50.675463 47,51.5088034 L47,71.4911966 C47,72.324537 47.7053926,73 48.5756581,73 L54.4243419,73 C55.2946074,73 56,72.3243754 56,71.4911966 L56,51.5088034 C56,50.675463 55.2944386,50 54.4243419,50 Z" id="Path" fill="#FBE812"></path>
                    <path d="M40.7060194,24.0123639 C38.4965851,23.9757302 37,22.750139 37,21.8537599 C37,21.4146469 37.3741861,20.8110097 37.8195775,20.8110097 C38.4075387,20.8110097 38.8886123,22.0915514 40.7060194,22.2377588 L40.7060194,17.9390312 C39.1025467,17.3537108 37.3206627,16.6951231 37.3206627,14.3536781 C37.3206627,12.0488666 39.013341,11.1341707 40.7060194,10.9513296 L40.7060194,10.4207961 C40.7060194,10.2013214 40.9197945,10 41.2227753,10 C41.4900739,10 41.7572131,10.2011579 41.7572131,10.4207961 L41.7572131,10.914696 C42.9688178,10.9513296 44.6793373,11.3354921 44.6793373,12.2317077 C44.6793373,12.5792366 44.4298799,13.2742943 43.8952828,13.2742943 C43.4677326,13.2742943 43.0045001,12.6889739 41.7572131,12.5975534 L41.7572131,16.3109607 C43.3073216,16.896281 45,17.7012397 45,20.1890557 C45,22.4390802 43.6815077,23.6829883 41.7572131,23.9572499 L41.7572131,24.5792039 C41.7572131,24.7986786 41.4899146,25 41.2227753,25 C40.9197945,25 40.7060194,24.7988421 40.7060194,24.5792039 L40.7060194,24.0123639 L40.7060194,24.0123639 Z M40.812907,15.9635953 L40.812907,12.6345141 C39.8150774,12.7625683 39.1023874,13.2198345 39.1023874,14.1710006 C39.1023874,15.2137507 39.8686008,15.5979132 40.812907,15.9635953 Z M41.6503256,18.341674 L41.6503256,22.2014523 C42.6124729,22.0186112 43.2182752,21.4331273 43.2182752,20.3905407 C43.2182752,19.2380532 42.5234265,18.7258365 41.6503256,18.341674 Z" id="Shape" fill="#1A2F52"></path>
                </g>
            </g>
        </g>
    </g>
</svg>