<svg xmlns="http://www.w3.org/2000/svg" width="104" height="118" viewBox="0 0 104 118">
    <g fill="none" fill-rule="evenodd">
        <path fill="#D8E8FF" d="M95.443 0c-2.42 0-4.604.998-6.16 2.601H29V17h75V8.5c0-4.694-3.831-8.5-8.557-8.5"/>
        <path fill="#EEE" d="M25.27 0c-4.766 0-8.629 3.84-8.629 8.578l-.013 89.663v2.181c0 4.737-3.863 8.578-8.628 8.578h69.73c4.765 0 8.629-3.84 8.629-8.578l.013-91.844C86.372 3.841 90.235 0 95 0H25.27"/>
        <path fill="#FFF" d="M3 114.532c-.81 0-1.467.66-1.467 1.468 0 .809.658 1.468 1.467 1.468.81 0 1.467-.66 1.467-1.468 0-.809-.658-1.468-1.467-1.468zM3 118c-1.103 0-2-.897-2-2s.897-2 2-2 2 .897 2 2-.897 2-2 2z"/>
        <path fill="#D8E8FF" d="M69.411 100.5h-.148V92H0v8.5c0 4.694 3.845 8.5 8.589 8.5H78c-4.744 0-8.589-3.806-8.589-8.5"/>
        <path fill="#FF6F61" d="M74 46.5C74 58.926 64.15 69 52 69S30 58.926 30 46.5 39.85 24 52 24s22 10.074 22 22.5"/>
        <path fill="#FEFEFE" d="M63.562 38.613l-3.175-3.174c-.584-.585-1.531-.585-2.116 0l-5.713 5.713c-.584.584-1.532.584-2.116 0l-5.713-5.713c-.585-.585-1.532-.585-2.116 0l-3.175 3.174c-.584.584-.584 1.532 0 2.116l5.713 5.713c.585.584.585 1.532 0 2.116l-5.713 5.713c-.584.585-.584 1.532 0 2.117l3.175 3.174c.584.584 1.531.584 2.116 0l5.713-5.713c.584-.585 1.532-.585 2.116 0l5.713 5.713c.585.584 1.532.584 2.116 0l3.175-3.174c.584-.585.584-1.532 0-2.117l-5.713-5.713c-.585-.584-.585-1.532 0-2.116l5.713-5.713c.584-.584.584-1.532 0-2.116"/>
    </g>
</svg>
