<svg xmlns="http://www.w3.org/2000/svg" xmlns:xlink="http://www.w3.org/1999/xlink" width="264" height="263" viewBox="0 0 264 263">
    <defs>
        <filter id="665u6la9ka">
            <feColorMatrix in="SourceGraphic" values="0 0 0 0 0.952941 0 0 0 0 0.643137 0 0 0 0 0.443137 0 0 0 1.000000 0"/>
        </filter>
        <path id="o0rixiwznb" d="M0.041 0.057L10.886 0.057 10.886 10.902 0.041 10.902z"/>
    </defs>
    <g fill="none" fill-rule="evenodd">
        <g>
            <g>
                <g>
                    <g>
                        <path fill="#F2C66D" d="M233.272 12.548l-2.896-.977.979-2.894c.19-.561-.113-1.17-.674-1.358l-.774-.263c-.56-.189-1.169.113-1.358.673l-.979 2.894-2.894-.978c-.56-.189-1.169.112-1.358.673l-.261.775c-.19.561.11 1.17.672 1.36l2.895.975-.978 2.896c-.19.56.111 1.167.672 1.357l.775.262c.56.19 1.168-.112 1.358-.672l.978-2.895 2.896.978c.56.189 1.167-.111 1.358-.673l.26-.774c.19-.56-.11-1.17-.671-1.359" transform="translate(-1141 -92) translate(0 -183) translate(575 275) translate(566)"/>
                        <g filter="url(#665u6la9ka)" transform="translate(-1141 -92) translate(0 -183) translate(575 275) translate(566)">
                            <g transform="translate(91)">
                                <mask id="y3fdnl7nsc" fill="#fff">
                                    <use xlink:href="#o0rixiwznb"/>
                                </mask>
                                <path fill="#FEFEFE" d="M10.168 5.527l-2.855-.963.965-2.854c.187-.553-.111-1.152-.664-1.338L6.85.112c-.553-.185-1.153.111-1.34.664L4.548 3.63l-2.853-.963C1.14 2.48.54 2.775.354 3.328l-.257.764c-.187.553.109 1.154.663 1.34l2.854.964-.965 2.853c-.187.553.11 1.152.664 1.34l.763.258c.553.186 1.152-.11 1.339-.663l.964-2.854 2.855.964c.552.186 1.151-.11 1.339-.663l.256-.764c.188-.553-.108-1.153-.661-1.34" mask="url(#y3fdnl7nsc)"/>
                            </g>
                        </g>
                        <path fill="#F2C66D" d="M263.272 190.548l-2.896-.978.979-2.893c.19-.561-.112-1.17-.673-1.358l-.775-.263c-.56-.189-1.168.113-1.358.673l-.979 2.894-2.894-.978c-.56-.189-1.168.112-1.358.673l-.261.775c-.19.561.11 1.17.672 1.359l2.895.976-.978 2.895c-.19.561.111 1.168.672 1.358l.776.263c.56.189 1.167-.113 1.357-.673l.978-2.895 2.896.977c.56.19 1.167-.11 1.358-.672l.26-.774c.19-.561-.11-1.169-.671-1.359M252 92c0 1.657-1.344 3-3 3-1.657 0-3-1.343-3-3 0-1.656 1.343-3 3-3 1.656 0 3 1.344 3 3" transform="translate(-1141 -92) translate(0 -183) translate(575 275) translate(566)"/>
                        <path fill="#E1F2FC" d="M169 36c0 1.657-1.344 3-3 3-1.657 0-3-1.343-3-3s1.343-3 3-3c1.656 0 3 1.343 3 3M52 62c0 1.657-1.344 3-3 3-1.657 0-3-1.343-3-3 0-1.656 1.343-3 3-3 1.656 0 3 1.344 3 3M23 144c0 1.656-1.344 3-3 3-1.657 0-3-1.344-3-3 0-1.657 1.343-3 3-3 1.656 0 3 1.343 3 3" transform="translate(-1141 -92) translate(0 -183) translate(575 275) translate(566)"/>
                        <path fill="#9AAAB9" d="M257 250c0 7.18-57.531 13-128.5 13S0 257.18 0 250s57.531-13 128.5-13S257 242.82 257 250" opacity=".562" transform="translate(-1141 -92) translate(0 -183) translate(575 275) translate(566)"/>
                        <path fill="#F2C66D" d="M145 195.436c0-4.658 3.747-8.436 8.37-8.436h83.26c4.623 0 8.37 3.778 8.37 8.436v42.127c0 4.66-3.747 8.437-8.37 8.437h-83.26c-4.623 0-8.37-3.776-8.37-8.437v-42.127z" transform="translate(-1141 -92) translate(0 -183) translate(575 275) translate(566)"/>
                        <path fill="#F2C66D" d="M224.468 233.113c-12.248 7.29-26.548 9.106-40.1 4.493-5.416-1.843-11.273-4.242-15.414-8.357-4.429-4.4-7.289-10.354-8.134-16.558-.879-6.453-.786-13.584 1.522-19.74.757-2.018 1.934-4.06 3.382-5.951H153.37c-4.623 0-8.371 3.778-8.371 8.436v42.127c0 4.66 3.748 8.437 8.37 8.437h83.26c4.623 0 8.37-3.776 8.37-8.437v-27.66c-4.352 9.7-11.083 17.585-20.532 23.21" transform="translate(-1141 -92) translate(0 -183) translate(575 275) translate(566)"/>
                        <path fill="#FDF2DB" d="M229.19 197.575c0-.192.008-.384.018-.575H160.79c.011.19.018.383.018.575 0 5.694-4.838 10.31-10.808 10.31v25.232c5.97 0 10.808 4.615 10.808 10.309 0 .193-.007.385-.018.574h68.418c-.01-.19-.017-.381-.017-.574 0-5.694 4.84-10.31 10.809-10.31v-25.231c-5.97 0-10.81-4.616-10.81-10.31" transform="translate(-1141 -92) translate(0 -183) translate(575 275) translate(566)"/>
                        <path fill="#FFF" d="M223.94 235.94c-12.028 6.775-26.073 8.463-39.382 4.175-5.32-1.712-11.072-3.942-15.14-7.767-4.349-4.088-7.157-9.622-7.987-15.388-.864-5.998-.773-12.625 1.494-18.345.214-.538.466-1.076.744-1.615h-2.879c.011.19.018.383.018.575 0 5.694-4.838 10.31-10.808 10.31v25.232c5.97 0 10.808 4.615 10.808 10.309 0 .193-.007.385-.018.574h68.418c-.01-.189-.017-.381-.017-.574 0-5.694 4.84-10.31 10.809-10.31v-11.653c-4.047 5.816-9.352 10.698-16.06 14.477" opacity=".6" transform="translate(-1141 -92) translate(0 -183) translate(575 275) translate(566)"/>
                        <path fill="#F2C66D" d="M217 219c0 11.046-9.402 20-21 20s-21-8.954-21-20c0-11.043 9.402-20 21-20s21 8.957 21 20" transform="translate(-1141 -92) translate(0 -183) translate(575 275) translate(566)"/>
                        <path fill="#BCDBB7" d="M198.556 220.329c-1.667-2.398-4.185-2.988-6.85-2.807-1.831.125-4.246.833-5.716-.71-.966-1.015-.363-2.631.331-3.69.942-1.436 2.564-1.721 4.136-1.938 1.893-.26 4.095-.469 5.94.047 2.207.618 3.143-3.02.94-3.635-1.581-.442-3.28-.463-4.922-.362v-1.726c0-.834-.633-1.508-1.415-1.508-.78 0-1.415.674-1.415 1.508v2.008c-1.475.224-2.938.625-4.186 1.489-3.327 2.299-4.873 7.751-1.548 10.828 1.85 1.712 4.213 1.795 6.532 1.581 2.24-.207 4.806-.623 5.865 2.068.829 2.103-.88 3.718-2.592 4.396-2.825 1.117-5.735.639-8.676.759-2.274.092-2.28 3.863 0 3.77 1.545-.063 3.078.013 4.605-.023v1.108c0 .833.635 1.508 1.415 1.508.782 0 1.415-.675 1.415-1.508v-1.358c.311-.055.625-.12.936-.198 2.388-.605 4.686-2.017 5.934-4.325 1.278-2.36.726-5.188-.73-7.282" transform="translate(-1141 -92) translate(0 -183) translate(575 275) translate(566)"/>
                        <path fill="#F2C66D" d="M131.355 201.58c-1.325-4.275 1.172-8.784 5.578-10.07l79.354-23.166c4.406-1.284 9.052 1.138 10.376 5.414l11.982 38.663c1.325 4.275-1.172 8.783-5.578 10.07l-79.353 23.164c-4.407 1.287-9.052-1.136-10.376-5.413l-11.983-38.661z" transform="translate(-1141 -92) translate(0 -183) translate(575 275) translate(566)"/>
                        <path fill="#F2C66D" d="M217.81 210.03c-9.6 10.102-22.713 15.752-36.94 15.288-5.686-.185-11.95-.758-17.068-3.383-5.473-2.808-9.892-7.48-12.461-12.94-2.673-5.682-4.613-12.256-4.164-18.55.147-2.064.688-4.268 1.53-6.406l-11.774 3.439c-4.406 1.286-6.903 5.798-5.578 10.076l11.983 38.684c1.324 4.28 5.97 6.704 10.375 5.417l79.354-23.179c4.406-1.287 6.903-5.797 5.578-10.076l-7.867-25.4c-1.39 10.118-5.562 19.233-12.969 27.03" transform="translate(-1141 -92) translate(0 -183) translate(575 275) translate(566)"/>
                        <path fill="#FDF2DB" d="M207.873 173.573c-.059-.19-.11-.382-.159-.573l-65.653 19.442c.067.185.132.373.19.564 1.723 5.642-1.522 11.588-7.251 13.285l7.635 24.995c5.728-1.696 11.768 1.5 13.491 7.14.06.191.11.383.158.574l65.654-19.443c-.068-.186-.132-.372-.192-.565-1.721-5.64 1.525-11.587 7.254-13.283l-7.636-24.994c-5.729 1.695-11.769-1.502-13.491-7.142" transform="translate(-1141 -92) translate(0 -183) translate(575 275) translate(566)"/>
                        <path fill="#FFF" d="M214.442 217.917c-9.492 9.408-22.459 14.669-36.527 14.236-5.623-.172-11.818-.705-16.878-3.15-5.411-2.614-9.782-6.965-12.322-12.049-2.643-5.29-4.561-11.411-4.117-17.273.042-.55.121-1.114.224-1.681l-2.76.759c.066.172.13.347.19.524 1.722 5.24-1.523 10.763-7.252 12.338l7.635 23.215c5.728-1.576 11.768 1.393 13.491 6.631.06.178.11.355.158.533l65.654-18.058c-.068-.172-.132-.345-.192-.525-1.721-5.237 1.525-10.76 7.254-12.336l-3.527-10.722c-2.123 6.42-5.737 12.31-11.03 17.558" opacity=".691" transform="translate(-1141 -92) translate(0 -183) translate(575 275) translate(566)"/>
                        <path fill="#F2C66D" d="M202.105 203.241c3.339 10.575-2.954 21.727-14.058 24.906-11.102 3.181-22.812-2.813-26.152-13.388s2.954-21.726 14.057-24.907c11.104-3.18 22.813 2.814 26.153 13.39" transform="translate(-1141 -92) translate(0 -183) translate(575 275) translate(566)"/>
                        <path fill="#BCDBB7" d="M194.533 202.912c-2.772-1.855-5.947-1.638-9.039-.606-2.124.707-4.744 2.185-6.997 1.116-1.48-.7-1.308-2.502-.84-3.777.635-1.73 2.46-2.535 4.245-3.25 2.152-.865 4.687-1.776 7.04-1.852 2.818-.089 2.712-4.01-.1-3.92-2.016.064-4.033.587-5.941 1.213l-.577-1.719c-.278-.83-1.251-1.3-2.176-1.05-.922.25-1.448 1.125-1.169 1.953l.67 2c-1.672.694-3.268 1.56-4.456 2.818-3.168 3.352-3.177 9.276 1.782 11.277 2.758 1.113 5.582.442 8.255-.512 2.577-.922 5.475-2.154 7.625.184 1.68 1.83.199 3.984-1.6 5.206-2.97 2.015-6.57 2.468-10.008 3.525-2.656.82-1.408 4.577 1.259 3.755 1.806-.555 3.643-.97 5.44-1.492l.369 1.102c.278.83 1.251 1.3 2.176 1.05.924-.25 1.448-1.124 1.17-1.953l-.454-1.353c.35-.153.7-.319 1.042-.496 2.622-1.364 4.87-3.503 5.576-6.2.723-2.758-.873-5.4-3.292-7.02" transform="translate(-1141 -92) translate(0 -183) translate(575 275) translate(566)"/>
                        <path fill="#F2C66D" d="M113.413 207.599c-2.556-3.838-1.548-9.045 2.245-11.63l68.34-46.541c3.792-2.582 8.939-1.567 11.494 2.271l23.095 34.704c2.555 3.84 1.55 9.042-2.246 11.627l-68.338 46.54c-3.793 2.584-8.94 1.57-11.494-2.27L113.413 207.6z" transform="translate(-1141 -92) translate(0 -183) translate(575 275) translate(566)"/>
                        <path fill="#F2C66D" d="M199.294 196.969c-6.056 12.167-16.798 21.152-30.449 24.725-5.457 1.43-11.58 2.66-17.235 1.64-6.047-1.086-11.659-4.217-15.752-8.608-4.26-4.569-8.093-10.18-9.572-16.2-.487-1.976-.64-4.194-.488-6.434l-10.14 6.539c-3.793 2.447-4.8 7.377-2.245 11.01l23.096 32.856c2.554 3.635 7.7 4.596 11.494 2.15l68.338-44.066c3.796-2.447 4.801-7.373 2.246-11.008L203.423 168c1.746 9.868.542 19.58-4.13 28.969" transform="translate(-1141 -92) translate(0 -183) translate(575 275) translate(566)"/>
                        <path fill="#FDF2DB" d="M185.035 161.502c-.113-.166-.221-.335-.325-.502l-57.115 37.683c.121.158.24.318.353.485 3.355 4.884 2.036 11.507-2.948 14.797l14.869 21.644c4.982-3.289 11.742-1.994 15.098 2.89.112.165.218.332.322.501l57.116-37.685c-.12-.158-.24-.317-.354-.484-3.354-4.883-2.034-11.509 2.949-14.796l-14.867-21.644c-4.984 3.289-11.744 1.994-15.098-2.89" transform="translate(-1141 -92) translate(0 -183) translate(575 275) translate(566)"/>
                        <path fill="#FFF" d="M203.257 194.615c-6.05 12.642-16.78 21.978-30.415 25.69-5.451 1.485-11.568 2.763-17.216 1.704-6.04-1.129-11.646-4.382-15.735-8.944-4.255-4.746-8.084-10.576-9.562-16.832-.138-.589-.246-1.2-.331-1.823l-2.403 1.608c.121.16.24.323.353.493 3.355 4.964 2.036 11.696-2.948 15.04l14.869 22.002c4.982-3.343 11.741-2.027 15.098 2.937.112.168.218.338.322.51l57.116-38.307c-.12-.16-.24-.322-.354-.492-3.354-4.963-2.034-11.698 2.949-15.04L208.132 173c.05 7.338-1.503 14.564-4.875 21.615" opacity=".691" transform="translate(-1141 -92) translate(0 -183) translate(575 275) translate(566)"/>
                        <path fill="#F2C66D" d="M187.418 189.832c6.477 9.163 3.928 21.59-5.691 27.758-9.62 6.166-22.67 3.741-29.145-5.42-6.476-9.162-3.93-21.59 5.69-27.759 9.62-6.168 22.67-3.741 29.146 5.42" transform="translate(-1141 -92) translate(0 -183) translate(575 275) translate(566)"/>
                        <path fill="#FFF" d="M176.93 197.104c-3.019-.911-5.76.013-8.178 1.602-1.662 1.092-3.529 2.945-5.848 2.573-1.521-.242-1.918-1.797-1.895-2.978.034-1.603 1.4-2.705 2.761-3.722 1.64-1.23 3.604-2.588 5.662-3.202 2.465-.734 1.175-4.003-1.285-3.27-1.763.524-3.387 1.436-4.884 2.407l-1.033-1.31c-.499-.631-1.504-.799-2.245-.375-.74.426-.937 1.282-.438 1.914l1.202 1.524c-1.266.976-2.413 2.076-3.08 3.41-1.779 3.558.021 8.538 5.016 9.06 2.778.293 5.07-.932 7.142-2.36 1.998-1.374 4.185-3.087 6.8-1.624 2.045 1.145 1.392 3.301.173 4.748-2.01 2.387-5.055 3.61-7.773 5.302-2.1 1.308.152 4.173 2.258 2.861 1.428-.891 2.926-1.668 4.355-2.527l.664.841c.498.633 1.502.8 2.243.375.742-.426.938-1.284.44-1.917l-.815-1.03c.263-.211.521-.43.77-.66 1.902-1.759 3.238-4.081 3.038-6.515-.201-2.486-2.418-4.332-5.05-5.127" transform="translate(-1141 -92) translate(0 -183) translate(575 275) translate(566)"/>
                        <path fill="#7E7F7E" d="M54.864 250c-4.343 0-7.864-3.359-7.864-7.505V91.505C47 87.362 50.52 84 54.864 84h118.268c4.344 0 7.868 3.361 7.868 7.506v150.99c0 4.145-3.524 7.504-7.868 7.504H54.864z" transform="translate(-1141 -92) translate(0 -183) translate(575 275) translate(566)"/>
                        <path fill="#FDF2DB" d="M171 238.668L62.531 242 57 87.333 165.472 84z" transform="translate(-1141 -92) translate(0 -183) translate(575 275) translate(566)"/>
                        <path fill="#F5F4EB" d="M165.314 241L60 239.358 62.685 87 168 88.641z" transform="translate(-1141 -92) translate(0 -183) translate(575 275) translate(566)"/>
                        <path fill="#FEFEFE" d="M162.576 246L56 240.83 64.423 86 171 91.17z" transform="translate(-1141 -92) translate(0 -183) translate(575 275) translate(566)"/>
                        <path fill="#F2C66D" d="M147.94 75.696h-16.963c-3.414 0-6.185-2.81-6.185-6.276 0-4.648-3.713-8.42-8.294-8.42s-8.294 3.772-8.294 8.42c0 3.466-2.767 6.276-6.183 6.276H85.058C81.71 75.696 79 78.45 79 81.847V101h75V81.847c0-3.397-2.714-6.151-6.06-6.151" transform="translate(-1141 -92) translate(0 -183) translate(575 275) translate(566)"/>
                        <path fill="#F3A471" d="M79 98L154 98 154 90 79 90z" transform="translate(-1141 -92) translate(0 -183) translate(575 275) translate(566)"/>
                        <path fill="#F8FBFF" d="M120 68c0 2.21-1.79 4-4.001 4-2.206 0-3.999-1.79-3.999-4s1.793-4 3.999-4c2.212 0 4.001 1.79 4.001 4" transform="translate(-1141 -92) translate(0 -183) translate(575 275) translate(566)"/>
                        <path fill="#FF6F61" d="M136 158.499c0 11.873-9.853 21.501-22.003 21.501C101.848 180 92 170.372 92 158.499c0-11.87 9.848-21.499 21.997-21.499 12.15 0 22.003 9.628 22.003 21.499" transform="translate(-1141 -92) translate(0 -183) translate(575 275) translate(566)"/>
                        <path fill="#FEFEFE" d="M107 172L118 172 118 146 107 146z" transform="translate(-1141 -92) translate(0 -183) translate(575 275) translate(566)"/>
                        <path fill="#FEFEFE" d="M100 165L125 165 125 153 100 153z" transform="translate(-1141 -92) translate(0 -183) translate(575 275) translate(566)"/>
                        <path fill="#525252" d="M14.296 253C8.61 253 4 248.873 4 243.784v-79.568C4 159.126 8.61 155 14.296 155h51.409C71.392 155 76 159.125 76 164.216v79.568c0 5.089-4.608 9.216-10.295 9.216H14.296z" transform="translate(-1141 -92) translate(0 -183) translate(575 275) translate(566)"/>
                        <path fill="#434467" d="M12.37 166.02c.16-2.391.359-4.81.63-7.02-.604 1.746-1 4.64-1 7.92V174c.077-2.698.197-5.369.37-7.98" transform="translate(-1141 -92) translate(0 -183) translate(575 275) translate(566)"/>
                        <path fill="#525252" d="M70.119 220.099c-4.411 2.413-9.445 3.862-14.502 4.379-9.434.962-19.079-.972-27.532-4.99-6.51-3.091-12.524-7.427-16.772-13.082-4.727-6.294-6.31-13.55-7.175-21.112-.049-.43-.094-.86-.138-1.294v58.526C4 247.757 8.481 252 14.01 252h49.981c5.53 0 10.009-4.243 10.009-9.474V217.33c-1.163 1.068-2.463 1.991-3.881 2.768" opacity=".315" transform="translate(-1141 -92) translate(0 -183) translate(575 275) translate(566)"/>
                        <path fill="#D4F2F1" d="M62.092 162H15.907c-2.154 0-3.907 1.62-3.907 3.614v10.773c0 1.992 1.753 3.613 3.907 3.613h46.185c2.154 0 3.908-1.621 3.908-3.613v-10.773c0-1.993-1.754-3.614-3.908-3.614" transform="translate(-1141 -92) translate(0 -183) translate(575 275) translate(566)"/>
                        <path fill="#3FA49E" d="M15.767 163.864h46.465c1.78 0 3.285 1.325 3.768 3.136v-.649c0-2.4-1.754-4.351-3.908-4.351H15.907c-2.154 0-3.907 1.951-3.907 4.351V167c.482-1.81 1.987-3.136 3.767-3.136" transform="translate(-1141 -92) translate(0 -183) translate(575 275) translate(566)"/>
                        <path fill="#727E8D" d="M24 196.742c0 1.248-1.104 2.258-2.465 2.258h-7.071c-1.361 0-2.464-1.01-2.464-2.258v-6.484c0-1.246 1.103-2.258 2.464-2.258h7.071c1.361 0 2.465 1.012 2.465 2.258v6.484zM24 212.74c0 1.248-1.104 2.26-2.465 2.26h-7.071c-1.361 0-2.464-1.012-2.464-2.26v-6.48c0-1.247 1.103-2.26 2.464-2.26h7.071c1.361 0 2.465 1.013 2.465 2.26v6.48zM27 229.74c0 1.248-1.012 2.26-2.26 2.26H18.26C17.01 232 16 230.988 16 229.74v-6.482c0-1.247 1.01-2.258 2.259-2.258h6.482c1.247 0 2.259 1.01 2.259 2.258v6.482zM26 244.741c0 1.248-1.196 2.259-2.67 2.259h-7.66c-1.475 0-2.67-1.011-2.67-2.259v-6.482c0-1.248 1.195-2.259 2.67-2.259h7.66c1.474 0 2.67 1.011 2.67 2.26v6.481zM40 196.742c0 1.248-1.01 2.258-2.259 2.258H31.26c-1.248 0-2.259-1.01-2.259-2.258v-6.484c0-1.246 1.011-2.258 2.26-2.258h6.481c1.248 0 2.259 1.012 2.259 2.258v6.484zM40 212.74c0 1.248-1.01 2.26-2.259 2.26H31.26c-1.248 0-2.259-1.012-2.259-2.26v-6.48c0-1.247 1.011-2.26 2.26-2.26h6.481c1.248 0 2.259 1.013 2.259 2.26v6.48zM40 229.74c0 1.248-1.01 2.26-2.259 2.26H31.26c-1.248 0-2.259-1.012-2.259-2.26v-6.482c0-1.247 1.011-2.258 2.26-2.258h6.481c1.248 0 2.259 1.01 2.259 2.258v6.482zM40 244.741c0 1.248-1.01 2.259-2.259 2.259H31.26c-1.248 0-2.259-1.011-2.259-2.259v-6.482c0-1.248 1.011-2.259 2.26-2.259h6.481c1.248 0 2.259 1.011 2.259 2.26v6.481zM55 196.742c0 1.248-1.103 2.258-2.464 2.258h-7.072c-1.36 0-2.464-1.01-2.464-2.258v-6.484c0-1.246 1.103-2.258 2.464-2.258h7.072c1.36 0 2.464 1.012 2.464 2.258v6.484zM55 212.74c0 1.248-1.103 2.26-2.464 2.26h-7.072c-1.36 0-2.464-1.012-2.464-2.26v-6.48c0-1.247 1.103-2.26 2.464-2.26h7.072c1.36 0 2.464 1.013 2.464 2.26v6.48zM54 244.741c0 1.248-1.011 2.259-2.259 2.259H45.26C44.01 247 43 245.989 43 244.741v-6.482c0-1.248 1.011-2.259 2.259-2.259h6.482c1.248 0 2.259 1.011 2.259 2.26v6.481z" transform="translate(-1141 -92) translate(0 -183) translate(575 275) translate(566)"/>
                        <path fill="#3FA49E" d="M71 196.742c0 1.248-1.103 2.258-2.465 2.258h-7.07c-1.363 0-2.465-1.01-2.465-2.258v-6.484c0-1.246 1.102-2.258 2.465-2.258h7.07c1.362 0 2.465 1.012 2.465 2.258v6.484z" transform="translate(-1141 -92) translate(0 -183) translate(575 275) translate(566)"/>
                        <path fill="#FF6F61" d="M71 212.74c0 1.248-1.103 2.26-2.465 2.26h-7.07c-1.363 0-2.465-1.012-2.465-2.26v-6.48c0-1.247 1.102-2.26 2.465-2.26h7.07c1.362 0 2.465 1.013 2.465 2.26v6.48z" transform="translate(-1141 -92) translate(0 -183) translate(575 275) translate(566)"/>
                        <path fill="#F2C66D" d="M68.535 218h-7.07c-1.363 0-2.465.98-2.465 2.188v21.623c0 1.209 1.102 2.189 2.465 2.189h7.07c1.362 0 2.465-.98 2.465-2.189v-21.623c0-1.209-1.103-2.188-2.465-2.188" transform="translate(-1141 -92) translate(0 -183) translate(575 275) translate(566)"/>
                        <path fill="#667387" d="M15.095 207.215c-.755-1.053-1.451-2.128-2.095-3.215v7.584c0 1.886 1.544 3.416 3.45 3.416H22c-2.545-2.37-4.875-4.96-6.905-7.785M26 229.74c0 1.248-1.288 2.26-2.875 2.26h-8.25c-1.589 0-2.875-1.012-2.875-2.26v-6.482c0-1.247 1.286-2.258 2.875-2.258h8.25c1.587 0 2.875 1.01 2.875 2.258v6.482zM26 244.74c0 1.248-1.288 2.26-2.875 2.26h-8.25c-1.589 0-2.875-1.012-2.875-2.26v-6.482c0-1.247 1.286-2.258 2.875-2.258h8.25c1.587 0 2.875 1.01 2.875 2.258v6.482zM31.56 223.12c-.77-.354-1.532-.73-2.284-1.12-.176.293-.276.631-.276.99v5.939c0 1.143 1.011 2.071 2.26 2.071h6.481c1.248 0 2.259-.928 2.259-2.071v-2.81c-2.91-.75-5.743-1.76-8.44-3M40 244.741c0 1.248-1.01 2.259-2.259 2.259H31.26c-1.248 0-2.259-1.011-2.259-2.259v-6.482c0-1.248 1.011-2.259 2.26-2.259h6.481c1.248 0 2.259 1.011 2.259 2.26v6.481zM55 244.741c0 1.248-1.103 2.259-2.464 2.259h-7.072c-1.36 0-2.464-1.011-2.464-2.259v-6.482c0-1.248 1.103-2.259 2.464-2.259h7.072c1.36 0 2.464 1.011 2.464 2.26v6.481zM55 229.741c0 1.248-1.103 2.259-2.464 2.259h-7.072c-1.36 0-2.464-1.011-2.464-2.259v-6.482c0-1.248 1.103-2.259 2.464-2.259h7.072c1.36 0 2.464 1.011 2.464 2.26v6.481z" transform="translate(-1141 -92) translate(0 -183) translate(575 275) translate(566)"/>
                        <path fill="#FCCF33" d="M59 223.538v19.01c0 1.354 1.102 2.452 2.465 2.452h7.07c1.362 0 2.465-1.098 2.465-2.453V220c-3.74 1.867-7.855 3.04-12 3.538" transform="translate(-1141 -92) translate(0 -183) translate(575 275) translate(566)"/>
                        <g fill="#FEFEFE">
                            <path d="M4.27 17.873L.053 17.873 11.572.128 15.79.128zM28.405 17.873L24.188 17.873 35.709.128 39.926.128zM18.845 17.873L16.383 17.873 27.903.128 30.365.128zM14.557 17.873L6.688 17.873 18.209.128 26.077.128z" transform="translate(-1141 -92) translate(0 -183) translate(575 275) translate(566) translate(28 162)"/>
                        </g>
                        <path fill="#B7B7BC" d="M87.501 175L85 175.401 94.056 215 96 212.166z" transform="translate(-1141 -92) translate(0 -183) translate(575 275) translate(566)"/>
                        <path fill="#B7B7BC" d="M82 173.531L85.41 173 88 184 83.651 180.547zM90 208L89.316 207.23 89 201.58 89.553 200z" transform="translate(-1141 -92) translate(0 -183) translate(575 275) translate(566)"/>
                        <path fill="#3F4040" d="M95 241.77c-.12-2.739-.487-6.162-1.269-10.435L81.386 164 74 165.478l12.343 67.338c.784 4.268 1.653 7.593 2.513 10.184L95 241.77zM90 244.919c.395 4.187.722 5.081.722 5.081s.235-1.41.278-6l-1 .919z" transform="translate(-1141 -92) translate(0 -183) translate(575 275) translate(566)"/>
                        <path fill="#3F4040" d="M84 169.578L82.837 165c-1.562.154-3.225.355-4.945.603-1.723.248-3.366.528-4.892.82L74.163 171c1.526-.293 3.168-.57 4.89-.82 1.722-.251 3.385-.449 4.947-.602" transform="translate(-1141 -92) translate(0 -183) translate(575 275) translate(566)"/>
                        <path fill="#B7B7BC" d="M85 172.107L83.836 166c-1.562.204-3.224.47-4.946.803-1.723.333-3.365.702-4.89 1.094L75.163 174c1.526-.39 3.169-.762 4.89-1.092 1.721-.332 3.385-.6 4.947-.8M94.523 252.736c.56-.082 1.103-.151 1.649-.227.764-2.32 1.397-6.726.004-14.509-1.62.166-3.338.383-5.116.648-1.777.264-3.476.561-5.06.873 2.396 7.633 5.072 11.544 6.883 13.479.543-.089 1.08-.18 1.64-.264M77 198.36l.675.64c1.601-.074 3.327-.145 5.134-.207 1.807-.063 3.553-.114 5.191-.153l-.674-.64c-1.64.039-3.386.09-5.193.152-1.806.063-3.531.133-5.133.208" transform="translate(-1141 -92) translate(0 -183) translate(575 275) translate(566)"/>
                        <path fill="#FEFEFE" d="M75 170l.17.878c.109.573.28 1.412.474 2.482.386 2.141.981 5.194 1.63 8.867.327 1.837.68 3.826 1.052 5.93l1.151 6.62 2.46 14.396c.812 4.906 1.674 9.8 2.46 14.39.424 2.289.793 4.51 1.197 6.602.196 1.047.384 2.067.591 3.048.203.977.375 1.936.585 2.831.416 1.8.9 3.42 1.31 4.88l1.059 3.772c.296 1.043.49 1.877.64 2.438L90 248l-1.125-3.213-1.3-3.678c-.503-1.416-1.098-3.026-1.596-4.835-.48-1.814-.972-3.774-1.42-5.865-.477-2.088-.926-4.298-1.385-6.585-.435-2.293-.922-4.654-1.338-7.068-.436-2.41-.868-4.862-1.288-7.314l-1.2-7.33c-.39-2.417-.745-4.804-1.093-7.11-.693-4.613-1.29-8.932-1.776-12.635-.493-3.701-.84-6.797-1.104-8.96-.134-1.082-.215-1.935-.28-2.516C75.032 170.31 75 170 75 170" transform="translate(-1141 -92) translate(0 -183) translate(575 275) translate(566)"/>
                    </g>
                </g>
            </g>
        </g>
    </g>
</svg>
