<svg xmlns="http://www.w3.org/2000/svg" xmlns:xlink="http://www.w3.org/1999/xlink" width="120" height="120" viewBox="0 0 82 82">
    <g fill="none" fill-rule="evenodd" transform="translate(2.052 3)">
        <use fill="#000" filter="url(#prefix__a)" xlink:href="#prefix__b"/>
        <use fill="#fa806d" xlink:href="#prefix__b"/>
        <g fill="#fff" fill-rule="nonzero">
            <path d="M18 20.571c5.681 0 10.286-4.604 10.286-10.285C28.286 4.604 23.68 0 18 0 12.319 0 7.714 4.604 7.714 10.286 7.714 15.967 12.32 20.57 18 20.57zm0-18c4.25 0 7.714 3.464 7.714 7.715C25.714 14.536 22.251 18 18 18c-4.25 0-7.714-3.463-7.714-7.714S13.749 2.57 18 2.57zm7.53 20.58c-2.717-.08-3.56 1.278-7.53 1.278-3.962 0-4.805-1.358-7.521-1.278C4.66 23.32 0 28.085 0 33.943V40.5c0 .354.29.643.643.643h1.286c.353 0 .642-.29.642-.643v-6.557c0-4.364 3.424-7.907 7.715-8.18v6.565c-1.857.554-3.215 2.274-3.215 4.315 0 2.483 2.017 4.5 4.5 4.5s4.5-2.017 4.5-4.5c0-2.041-1.358-3.76-3.214-4.315v-6.18c1.672.547 3.391.844 5.143.844 1.752 0 3.471-.297 5.143-.844v5.529c-2.266.602-3.857 2.772-3.857 5.19v2.347c0 .338.136.667.377.908l.828.828c.25.25.659.25.908 0l.908-.908c.25-.25.25-.659 0-.908l-.458-.458v-2.033c0-1.56 1.398-2.797 3.005-2.54 1.262.21 2.138 1.399 2.138 2.676v1.897l-.458.458c-.25.249-.25.659 0 .908l.908.908c.25.25.659.25.908 0l.828-.828c.24-.24.377-.57.377-.908v-2.571c0-2.387-1.647-4.38-3.857-4.95V25.77c4.291.273 7.715 3.816 7.715 8.18V40.5c0 .354.289.643.642.643h1.286c.354 0 .643-.29.643-.643v-6.557C36 28.085 31.339 23.32 25.529 23.15zM13.5 36.643c0 1.06-.868 1.928-1.929 1.928-1.06 0-1.928-.867-1.928-1.928 0-1.06.868-1.929 1.928-1.929 1.061 0 1.929.868 1.929 1.929z" transform="translate(19.948 16)"/>
        </g>
    </g>
</svg>
