<svg xmlns="http://www.w3.org/2000/svg" width="102" height="94" viewBox="0 0 102 94">
    <defs>
        <filter id="ut53vu7vea">
            <feColorMatrix in="SourceGraphic" values="0 0 0 0 0.023529 0 0 0 0 0.654902 0 0 0 0 0.490196 0 0 0 1.000000 0"/>
        </filter>
    </defs>
    <g fill="none" fill-rule="evenodd">
        <g>
            <g>
                <g>
                    <g fill-rule="nonzero">
                        <path fill="#DFECFF" d="M94 80.044V94H0V80.044c0-3.692 2.291-7.019 5.775-8.35L25.595 64l15.471 16.78 4.855-9.761v-.02L47 68.813 48.099 71l4.856 9.781L68.405 64l19.84 7.693C91.708 73.046 94 76.352 94 80.043" transform="translate(-1635 -194) translate(1282 177) translate(353 17) translate(8)"/>
                        <path fill="#E8CAAB" d="M60.98 60.143H61V52.05c-1.036 1.567-2.24 3.158-3.64 4.749l-1.934 2.126c-1.777 1.927-4.303 3.051-6.929 3.051h-2.96c-2.626 0-5.155-1.122-6.93-3.051L36.675 56.8C35.258 55.195 34.04 53.583 33 52v8.129l.032.016 12.179 6.85L47.007 68l1.796-1.004 12.177-6.853z" transform="translate(-1635 -194) translate(1282 177) translate(353 17) translate(8)"/>
                        <g fill="#40596B" opacity=".1">
                            <path d="M.187 9.356l-.035-.012c-.02-.008-.04-.014-.06-.02-.02-.01-.041-.012-.069-.022l7.349 5.533 11.54-6.598h.012L18.932.16c-.02.03-2.74 3.643-3.594 4.72l-1.91 2.135c-1.753 1.934-4.247 3.061-6.84 3.061H3.667c-.59 0-1.17-.065-1.737-.187C1.33 9.772.75 9.59.187 9.356" transform="translate(-1635 -194) translate(1282 177) translate(353 17) translate(8) translate(42 52)"/>
                        </g>
                        <g fill="#E8CAAB">
                            <path d="M8.806 6.099c.305 3.506-1.395 6.52-3.795 6.726-2.404.211-4.599-2.463-4.91-5.968C-.201 3.35 1.498.34 3.902.13 6.303-.08 8.5 2.591 8.806 6.1M44.916 6.86c-.305 3.506-2.504 6.178-4.906 5.967-2.404-.21-4.105-3.22-3.795-6.726.305-3.506 2.503-6.18 4.905-5.969 2.404.207 4.104 3.22 3.796 6.729" transform="translate(-1635 -194) translate(1282 177) translate(353 17) translate(8) translate(25 30)"/>
                        </g>
                        <path fill="#FFE6CC" d="M67.676 35.868c-.374 3.917-2.257 12.548-9.81 21.005l-1.938 2.105C54.148 60.888 51.616 62 48.985 62h-2.967c-2.63 0-5.164-1.11-6.943-3.022l-1.938-2.105c-7.556-8.457-9.415-17.09-9.813-21.005-.534-5.398-.317-12.258 0-14.031C29.124 11.45 38.146 5 47.502 5c9.354 0 18.374 6.45 20.174 16.837.316 1.773.534 8.635 0 14.03" transform="translate(-1635 -194) translate(1282 177) translate(353 17) translate(8)"/>
                        <path fill="#132259" d="M31.594 9.806S31.731-3.384 50.86.831c0 0 9.491 2.989 15.598 11.831 0 0 5.73 8.342 2.614 15.358C68.06 30.3 66.974 32.906 67.1 35c0 0-1.061-4.445-1.694-8.149-.53-3.103-1.863-6.01-3.909-8.396l-.06-.072c-3.313-3.846-8.497-5.644-13.4-4.377-2.339.606-5 1.787-7.928 3.881 0 0-7.969-5.362-11.908 4.024 0 0-1.755 6.86-1.507 12.278 0-.002-10.969-23.023 4.901-24.383" transform="translate(-1635 -194) translate(1282 177) translate(353 17) translate(8)"/>
                        <path fill="#ACB3BA" d="M73.52 68.863c-.04-.338-.117-3.44-.758-4.692-1.084-2.11-3.025-3.52-5.369-3.878L60.943 59v1.313h-.02L60 60.83l7.073 1.432c1.702.258 3.127 1.273 3.886 2.802.5.974.705 2.03.543 3.065l-.042.517c-8.473 7.299-10.877 13.882-10.977 14.18-.637 1.89-.6 3.38.102 4.455.783 1.213 2.061 1.352 2.221 1.372l.2-1.989c-.02 0-.5-.081-.759-.497-.32-.52-.282-1.472.14-2.687.02-.042 1.203-3.28 4.808-7.659 1.002-.497 2.121-.595 3.205-.278 1.042.318 1.92 1.016 2.464 1.947.398 5.75-.48 9.13-.501 9.15-.383 1.233-.903 2.049-1.482 2.268-.46.2-.884-.02-.884-.04l-.5.873-.521.861c.082.06.7.398 1.522.398.34 0 .705-.06 1.084-.219 1.202-.455 2.125-1.65 2.722-3.56.082-.298 1.943-7.24-.783-18.358m-2.66 5.15c-.603-.178-1.244-.256-1.847-.236.865-.937 1.823-1.89 2.906-2.862.3 1.39.52 2.723.681 3.978-.52-.382-1.103-.678-1.74-.88" transform="translate(-1635 -194) translate(1282 177) translate(353 17) translate(8)"/>
                        <g fill="#F8B64C">
                            <path d="M2.328 1.859c-.166.794-.98 1.311-1.817 1.155C-.32 2.858.272-.02 1.11.136c.837.156 1.384.929 1.22 1.723M5.702 2.846c-.354.737-.016 1.606.76 1.944.776.338 2.064-2.327 1.288-2.666-.77-.338-1.69-.014-2.048.722" transform="translate(-1635 -194) translate(1282 177) translate(353 17) translate(8) translate(62 86)"/>
                        </g>
                        <path fill="#ACB3BA" d="M33.106 60.3l-.031-.015V59l-4.156.877c-4.436.936-8.167 3.836-10.247 7.954-2.077 4.122-2.227 8.921-.406 13.169l1.761-.792c-1.584-3.7-1.461-7.88.354-11.47 1.809-3.587 5.062-6.115 8.922-6.928L34 60.819l-.894-.519z" transform="translate(-1635 -194) translate(1282 177) translate(353 17) translate(8)"/>
                        <g fill="#CDD6E0">
                            <path d="M42.924 3.022L28.46 21.952 21.5 7.891 23.284 6.894 35.378.089 35.397.089 35.417.069zM.076 3.022L14.563 21.952 21.5 7.891 19.716 6.894 7.622.089 7.583.069z" transform="translate(-1635 -194) translate(1282 177) translate(353 17) translate(8) translate(26 60)"/>
                        </g>
                        <path fill="#4AB8FF" d="M40 94L43.987 84.821 42.267 82.267 41.007 80.351 45.9 70.257 46.988 68 48.096 70.257 48.096 70.277 52.993 80.351 51.709 82.249 49.99 84.821 54 94z" transform="translate(-1635 -194) translate(1282 177) translate(353 17) translate(8)"/>
                        <path fill="#218380" d="M53 80.12L51.715 81.982 47.008 72.445 42.261 82 41 80.12 45.899 70.215 46.988 68 48.097 70.215 48.097 70.234z" transform="translate(-1635 -194) translate(1282 177) translate(353 17) translate(8)"/>
                        <path fill="#D02683" d="M25 84.499C25 86.983 22.982 89 20.498 89S16 86.983 16 84.499C16 82.015 18.015 80 20.498 80S25 82.015 25 84.499" transform="translate(-1635 -194) translate(1282 177) translate(353 17) translate(8)"/>
                        <path fill="#F2F2F2" d="M23 84c0 1.657-1.34 3-2.997 3C18.343 87 17 85.655 17 84s1.345-3 3.003-3C21.659 81 23 82.343 23 84" transform="translate(-1635 -194) translate(1282 177) translate(353 17) translate(8)"/>
                        <path fill="#ACB3BA" d="M22 83.999C22 85.106 21.105 86 20.004 86 18.897 86 18 85.105 18 83.999c0-1.104.899-1.999 2.004-1.999 1.101 0 1.996.895 1.996 1.999" transform="translate(-1635 -194) translate(1282 177) translate(353 17) translate(8)"/>
                    </g>
                    <g transform="translate(-1635 -194) translate(1282 177) translate(353 17) translate(0 35)">
                        <circle cx="14" cy="14" r="14" fill="#CDEDE5"/>
                        <g filter="url(#ut53vu7vea)">
                            <g>
                                <path fill="#000" fill-rule="nonzero" d="M19.463.187L6.22 13.43 1.537 8.749c-.222-.222-.581-.222-.803 0L.2 9.284c-.221.221-.221.58 0 .802l5.619 5.619c.221.222.58.222.802 0L20.8 1.525c.222-.222.222-.581 0-.803l-.534-.535c-.222-.222-.581-.222-.803 0z" transform="translate(7 2) translate(0 2.625)"/>
                            </g>
                        </g>
                    </g>
                </g>
            </g>
        </g>
    </g>
</svg>
