<svg width="95" height="95" xmlns="http://www.w3.org/2000/svg">

 <g>
  <title>background</title>
  <rect fill="none" id="canvas_background" height="97" width="97" y="-1" x="-1"/>
 </g>
 <g>
  <title>Layer 1</title>
  <g id="svg_1" fill-rule="evenodd" fill="none">
   <g id="svg_2">
    <g id="svg_5" fill-rule="nonzero">
     <path id="svg_6" transform="translate(1282,177) translate(353,17) translate(8,0) " d="m-1548.68994,-113.34767l0,13.956l-94,0l0,-13.956c0,-3.692 2.291,-7.019 5.775,-8.35l19.82,-7.694l15.471,16.78l4.855,-9.761l0,-0.02l1.079,-2.186l1.099,2.187l4.856,9.781l15.45,-16.781l19.84,7.693c3.463,1.353 5.755,4.659 5.755,8.35" fill="#DFECFF"/>
     <path id="svg_7" transform="translate(1282,177) translate(353,17) translate(8,0) " d="m-1581.70994,-133.24867l0.02,0l0,-8.093c-1.036,1.567 -2.24,3.158 -3.64,4.749l-1.934,2.126c-1.777,1.927 -4.303,3.051 -6.929,3.051l-2.96,0c-2.626,0 -5.155,-1.122 -6.93,-3.051l-1.932,-2.125c-1.417,-1.605 -2.635,-3.217 -3.675,-4.8l0,8.129l0.032,0.016l12.179,6.85l1.796,1.005l1.796,-1.004l12.177,-6.853z" fill="#E8CAAB"/>
     <g id="svg_8" opacity="0.1" fill="#40596B">
      <path id="svg_9" transform="translate(1282,177) translate(353,17) translate(8,0) translate(42,52) " d="m-1642.50294,-184.03567l-0.035,-0.012c-0.02,-0.008 -0.04,-0.014 -0.06,-0.02c-0.02,-0.01 -0.041,-0.012 -0.069,-0.022l7.349,5.533l11.54,-6.598l0.012,0l0.008,-8.077c-0.02,0.03 -2.74,3.643 -3.594,4.72l-1.91,2.135c-1.753,1.934 -4.247,3.061 -6.84,3.061l-2.921,0c-0.59,0 -1.17,-0.065 -1.737,-0.187c-0.6,-0.117 -1.18,-0.299 -1.743,-0.533"/>
     </g>
     <g id="svg_10" fill="#E8CAAB">
      <path id="svg_11" transform="translate(1282,177) translate(353,17) translate(8,0) translate(25,30) " d="m-1633.88394,-187.29267c0.305,3.506 -1.395,6.52 -3.795,6.726c-2.404,0.211 -4.599,-2.463 -4.91,-5.968c-0.302,-3.507 1.397,-6.517 3.801,-6.727c2.401,-0.21 4.598,2.461 4.904,5.97m36.11,0.76c-0.305,3.506 -2.504,6.178 -4.906,5.967c-2.404,-0.21 -4.105,-3.22 -3.795,-6.726c0.305,-3.506 2.503,-6.18 4.905,-5.969c2.404,0.207 4.104,3.22 3.796,6.729"/>
     </g>
     <path id="svg_12" transform="translate(8,0) " d="m59.98606,36.47633c-0.374,3.917 -2.257,12.548 -9.81,21.005l-1.938,2.105c-1.78,1.91 -4.312,3.022 -6.943,3.022l-2.967,0c-2.63,0 -5.164,-1.11 -6.943,-3.022l-1.938,-2.105c-7.556,-8.457 -9.415,-17.09 -9.813,-21.005c-0.534,-5.398 -0.317,-12.258 0,-14.031c1.8,-10.387 10.822,-16.837 20.178,-16.837c9.354,0 18.374,6.45 20.174,16.837c0.316,1.773 0.534,8.635 0,14.03" fill="#FFE6CC"/>
     <path id="svg_13" transform="translate(1282,177) translate(353,17) translate(8,0) " d="m-1611.09594,-183.58567s0.137,-13.19 19.266,-8.975c0,0 9.491,2.989 15.598,11.831c0,0 5.73,8.342 2.614,15.358c-1.012,2.28 -2.098,4.886 -1.972,6.98c0,0 -1.061,-4.445 -1.694,-8.149c-0.53,-3.103 -1.863,-6.01 -3.909,-8.396l-0.06,-0.072c-3.313,-3.846 -8.497,-5.644 -13.4,-4.377c-2.339,0.606 -5,1.787 -7.928,3.881c0,0 -7.969,-5.362 -11.908,4.024c0,0 -1.755,6.86 -1.507,12.278c0,-0.002 -10.969,-23.023 4.901,-24.383" fill="#132259"/>
     <path id="svg_14" transform="translate(1282,177) translate(353,17) translate(8,0) " d="m-1569.16994,-124.52867c-0.04,-0.338 -0.117,-3.44 -0.758,-4.692c-1.084,-2.11 -3.025,-3.52 -5.369,-3.878l-6.45,-1.293l0,1.313l-0.02,0l-0.923,0.517l7.073,1.432c1.702,0.258 3.127,1.273 3.886,2.802c0.5,0.974 0.705,2.03 0.543,3.065l-0.042,0.517c-8.473,7.299 -10.877,13.882 -10.977,14.18c-0.637,1.89 -0.6,3.38 0.102,4.455c0.783,1.213 2.061,1.352 2.221,1.372l0.2,-1.989c-0.02,0 -0.5,-0.081 -0.759,-0.497c-0.32,-0.52 -0.282,-1.472 0.14,-2.687c0.02,-0.042 1.203,-3.28 4.808,-7.659c1.002,-0.497 2.121,-0.595 3.205,-0.278c1.042,0.318 1.92,1.016 2.464,1.947c0.398,5.75 -0.48,9.13 -0.501,9.15c-0.383,1.233 -0.903,2.049 -1.482,2.268c-0.46,0.2 -0.884,-0.02 -0.884,-0.04l-0.5,0.873l-0.521,0.861c0.082,0.06 0.7,0.398 1.522,0.398c0.34,0 0.705,-0.06 1.084,-0.219c1.202,-0.455 2.125,-1.65 2.722,-3.56c0.082,-0.298 1.943,-7.24 -0.783,-18.358m-2.66,5.15c-0.603,-0.178 -1.244,-0.256 -1.847,-0.236c0.865,-0.937 1.823,-1.89 2.906,-2.862c0.3,1.39 0.52,2.723 0.681,3.978c-0.52,-0.382 -1.103,-0.678 -1.74,-0.88" fill="#ACB3BA"/>
     <g id="svg_15" fill="#F8B64C">
      <path id="svg_16" transform="translate(1282,177) translate(353,17) translate(8,0) translate(62,86) " d="m-1640.36194,-191.53267c-0.166,0.794 -0.98,1.311 -1.817,1.155c-0.831,-0.156 -0.239,-3.034 0.599,-2.878c0.837,0.156 1.384,0.929 1.22,1.723m3.372,0.987c-0.354,0.737 -0.016,1.606 0.76,1.944c0.776,0.338 2.064,-2.327 1.288,-2.666c-0.77,-0.338 -1.69,-0.014 -2.048,0.722"/>
     </g>
     <path id="svg_17" transform="translate(1282,177) translate(353,17) translate(8,0) " d="m-1609.58394,-133.09167l-0.031,-0.015l0,-1.285l-4.156,0.877c-4.436,0.936 -8.167,3.836 -10.247,7.954c-2.077,4.122 -2.227,8.921 -0.406,13.169l1.761,-0.792c-1.584,-3.7 -1.461,-7.88 0.354,-11.47c1.809,-3.587 5.062,-6.115 8.922,-6.928l4.697,-0.991l-0.894,-0.519z" fill="#ACB3BA"/>
     <g id="svg_18" fill="#CDD6E0">
      <path id="svg_19" transform="translate(1282,177) translate(353,17) translate(8,0) translate(26,60) " d="m-1599.76594,-190.36967l-14.464,18.93l-6.96,-14.061l1.784,-0.997l12.094,-6.805l0.019,0l0.02,-0.02l7.507,2.953zm-42.848,0l14.487,18.93l6.937,-14.061l-1.784,-0.997l-12.094,-6.805l-0.039,-0.02l-7.507,2.953z"/>
     </g>
     <path id="svg_20" transform="translate(1282,177) translate(353,17) translate(8,0) " d="m-1602.68994,-99.39167l3.987,-9.179l-1.72,-2.554l-1.26,-1.916l4.893,-10.094l1.088,-2.257l1.108,2.257l0,0.02l4.897,10.074l-1.284,1.898l-1.719,2.572l4.01,9.179l-14,0z" fill="#4AB8FF"/>
     <path id="svg_21" transform="translate(1282,177) translate(353,17) translate(8,0) " d="m-1589.68994,-113.27167l-1.285,1.862l-4.707,-9.537l-4.747,9.555l-1.261,-1.88l4.899,-9.905l1.089,-2.215l1.109,2.215l0,0.019l4.903,9.886z" fill="#218380"/>
     <path id="svg_22" transform="translate(1282,177) translate(353,17) translate(8,0) " d="m-1617.68994,-108.89267c0,2.484 -2.018,4.501 -4.502,4.501s-4.498,-2.017 -4.498,-4.501c0,-2.484 2.015,-4.499 4.498,-4.499s4.502,2.015 4.502,4.499" fill="#D02683"/>
     <path id="svg_23" transform="translate(1282,177) translate(353,17) translate(8,0) " d="m-1619.68994,-109.39167c0,1.657 -1.34,3 -2.997,3c-1.66,0 -3.003,-1.345 -3.003,-3s1.345,-3 3.003,-3c1.656,0 2.997,1.343 2.997,3" fill="#F2F2F2"/>
     <path id="svg_24" transform="translate(1282,177) translate(353,17) translate(8,0) " d="m-1620.68994,-109.39267c0,1.107 -0.895,2.001 -1.996,2.001c-1.107,0 -2.004,-0.895 -2.004,-2.001c0,-1.104 0.899,-1.999 2.004,-1.999c1.101,0 1.996,0.895 1.996,1.999" fill="#ACB3BA"/>
    </g>
   </g>
  </g>
 </g>
</svg>