<svg xmlns="http://www.w3.org/2000/svg" width="98" height="114" viewBox="0 0 98 114">
    <g fill="none" fill-rule="evenodd">
        <g>
            <g>
                <g>
                    <g transform="translate(-80 -1051) translate(34 967) translate(34 72) translate(12 12)">
                        <rect width="98" height="114" fill="#F3F5F7" rx="5"/>
                        <g fill-rule="nonzero">
                            <path fill="#DFECFF" d="M98 83.579V98H0V83.579c0-3.815 2.389-7.253 6.02-8.63L26.686 67l16.129 17.34 5.061-10.087v-.02L49 71.973l1.145 2.26L55.21 84.34 71.315 67 92 74.95C95.611 76.348 98 79.764 98 83.579" transform="translate(0 16)"/>
                            <path fill="#E8CAAB" d="M63.979 61.652H64v-8.598c-1.11 1.665-2.4 3.355-3.9 5.046l-2.072 2.259c-1.904 2.048-4.61 3.242-7.424 3.242h-3.172c-2.813 0-5.522-1.192-7.424-3.242l-2.072-2.26C36.42 56.396 35.115 54.683 34 53v8.637l.034.017 13.049 7.28L49.008 70l1.924-1.067 13.047-7.281z" transform="translate(0 16)"/>
                            <g fill="#40596B" opacity=".1">
                                <path d="M.187 9.98c-.012-.005-.023-.01-.035-.013-.02-.009-.04-.015-.06-.022-.02-.01-.041-.012-.069-.023l7.349 5.902 11.54-7.037h.012L18.932.17c-.02.032-2.74 3.885-3.594 5.034l-1.91 2.277c-1.753 2.063-4.247 3.266-6.84 3.266H3.667c-.59 0-1.17-.07-1.737-.2-.6-.124-1.179-.318-1.742-.569" transform="translate(0 16) translate(45 53)"/>
                            </g>
                            <g fill="#E8CAAB">
                                <path d="M9.198 6.568c.318 3.775-1.458 7.02-3.964 7.244-2.51.227-4.804-2.653-5.128-6.428C-.212 3.61 1.564.368 4.074.14c2.51-.227 4.806 2.65 5.124 6.428M46.912 7.388c-.318 3.776-2.615 6.653-5.123 6.426-2.511-.227-4.288-3.468-3.964-7.244.318-3.775 2.614-6.655 5.123-6.427 2.51.222 4.286 3.468 3.964 7.245" transform="translate(0 16) translate(27 31)"/>
                            </g>
                            <path fill="#FFF0D6" d="M71.652 37.492c-.401 4.123-2.422 13.209-10.527 22.111l-2.08 2.215c-1.91 2.01-4.627 3.182-7.45 3.182H48.41c-2.823 0-5.543-1.17-7.451-3.182l-2.08-2.215c-8.11-8.902-10.105-17.99-10.531-22.11-.573-5.683-.34-12.903 0-14.77C30.28 11.79 39.96 5 50.002 5c10.039 0 19.719 6.79 21.65 17.723.34 1.867.573 9.09 0 14.77" transform="translate(0 16)"/>
                            <path fill="#132259" d="M31.96 10.087S32.102-3.48 52.045.854c0 0 9.896 3.075 16.262 12.17 0 0 5.974 8.58 2.726 15.797-1.055 2.343-2.188 5.025-2.058 7.179 0 0-1.106-4.572-1.766-8.382-.552-3.191-1.941-6.181-4.074-8.636l-.064-.074c-3.453-3.955-8.858-5.805-13.97-4.501-2.438.622-5.213 1.837-8.265 3.991 0 0-8.308-5.515-12.415 4.139 0 0-1.83 7.056-1.57 12.629 0-.002-11.436-23.681 5.109-25.08" transform="translate(0 16)"/>
                            <path fill="#ACB3BA" d="M77.422 72.17c-.042-.348-.126-3.545-.81-4.838-1.156-2.176-3.226-3.63-5.726-3.999L64.006 62v1.354h-.021l-.985.533 7.544 1.477c1.817.266 3.336 1.312 4.145 2.89.534 1.004.752 2.093.58 3.16l-.046.533c-9.037 7.527-11.601 14.316-11.708 14.623-.68 1.949-.639 3.487.109 4.595.835 1.25 2.199 1.394 2.37 1.415l.213-2.051c-.021 0-.534-.084-.81-.513-.342-.535-.301-1.518.15-2.771.021-.043 1.282-3.382 5.128-7.898 1.068-.513 2.262-.613 3.418-.287 1.111.328 2.05 1.048 2.628 2.008.426 5.929-.512 9.416-.534 9.436-.408 1.272-.964 2.113-1.58 2.338-.492.207-.943-.02-.943-.04l-.534.9-.556.888c.088.061.748.41 1.624.41.363 0 .752-.062 1.156-.226 1.282-.47 2.267-1.702 2.904-3.67.087-.308 2.072-7.468-.836-18.933m-2.837 5.312c-.643-.185-1.327-.265-1.97-.244.923-.966 1.944-1.948 3.1-2.951.32 1.433.555 2.807.726 4.102-.555-.394-1.177-.7-1.856-.907" transform="translate(0 16)"/>
                            <g fill="#F8B64C">
                                <path d="M2.037 1.859c-.145.794-.857 1.311-1.59 1.155C-.28 2.858.238-.02.97.136c.732.156 1.211.929 1.067 1.723M4.99 2.846c-.31.737-.015 1.606.664 1.944.68.338 1.807-2.327 1.127-2.666-.673-.338-1.478-.014-1.792.722" transform="translate(0 16) translate(65 90)"/>
                            </g>
                            <path fill="#ACB3BA" d="M34.053 63.3l-.032-.015V62l-4.401.877c-4.696.936-8.648 3.836-10.85 7.954-2.199 4.122-2.357 8.921-.43 13.169l1.865-.792c-1.677-3.7-1.547-7.88.375-11.47 1.915-3.587 5.36-6.115 9.447-6.928L35 63.819l-.947-.519z" transform="translate(0 16)"/>
                            <g fill="#CDD6E0">
                                <path d="M44.921 3.022L29.784 21.952 22.5 7.891 24.367 6.894 37.023.089 37.044.089 37.064.069zM.079 3.022L15.241 21.952 22.5 7.891 20.633 6.894 7.977.089 7.936.069z" transform="translate(0 16) translate(28 63)"/>
                            </g>
                            <path fill="#4AB8FF" d="M43 98L47.272 88.115 45.429 85.364 44.079 83.302 49.322 72.43 50.487 70 51.674 72.43 51.674 72.452 56.921 83.302 55.546 85.345 53.703 88.115 58 98z" transform="translate(0 16)"/>
                            <path fill="#218380" d="M57 82.986L55.608 84.981 50.509 74.762 45.366 85 44 82.986 49.307 72.373 50.487 70 51.689 72.373 51.689 72.394z" transform="translate(0 16)"/>
                            <path fill="#D02683" d="M27 87.999C27 90.759 24.757 93 21.998 93 19.238 93 17 90.759 17 87.999 17 85.239 19.238 83 21.998 83 24.757 83 27 85.239 27 87.999" transform="translate(0 16)"/>
                            <path fill="#F2F2F2" d="M23 86.5c0 1.38-1.117 2.5-2.498 2.5C19.12 89 18 87.879 18 86.5s1.12-2.5 2.502-2.5C21.882 84 23 85.12 23 86.5" transform="translate(0 16)"/>
                            <path fill="#ACB3BA" d="M22 86.999C22 88.106 21.105 89 20.004 89 18.897 89 18 88.105 18 86.999c0-1.104.899-1.999 2.004-1.999 1.101 0 1.996.895 1.996 1.999" transform="translate(0 16)"/>
                        </g>
                    </g>
                </g>
            </g>
        </g>
    </g>
</svg>
