<svg xmlns="http://www.w3.org/2000/svg" xmlns:xlink="http://www.w3.org/1999/xlink" width="190" height="158" viewBox="0 0 190 158">
    <defs>
        <path id="0sbeql5uga" d="M0 0.5L188 0.5 188 151.5 0 151.5z"/>
        <path id="h6w5j5rhjc" d="M0 0.002L127.962 0.002 127.962 128 0 128z"/>
    </defs>
    <g fill="none" fill-rule="evenodd">
        <g opacity=".493" transform="translate(1 .23) translate(0 4.447)">
            <mask id="3udqff114b" fill="#fff">
                <use xlink:href="#0sbeql5uga"/>
            </mask>
            <path fill="#9CC4C2" d="M99.775.577s55.358-4.18 78.879 48.972c23.52 53.151 3.829 96.15-72.552 101.525C29.72 156.45-10.26 109.867 2.27 71.048 14.802 32.23 51.678 6.55 99.775.578" mask="url(#3udqff114b)"/>
        </g>
        <g>
            <path fill="#FFF" d="M0.056 94.445L96.495 0.763 129.056 130.763z" transform="translate(1 .23) rotate(-1 190.058 -1133.207)"/>
            <g>
                <g transform="translate(1 .23) rotate(-1 190.058 -1133.207) translate(.056 1.763) translate(.478)">
                    <mask id="rrgi9jzffd" fill="#fff">
                        <use xlink:href="#h6w5j5rhjc"/>
                    </mask>
                    <path fill="#A596A6" d="M7.968 89.725l113.532 31.73L92.843 7.876 7.968 89.725zM125.258 128c-.243 0-.488-.033-.729-.1L1.974 93.647C1.04 93.387.32 92.65.083 91.713c-.238-.936.045-1.927.74-2.598L92.446.76c.693-.67 1.693-.919 2.62-.655.929.264 1.646 1.001 1.881 1.934l30.935 122.609c.234.932-.046 1.918-.737 2.588-.511.496-1.19.764-1.886.764z" mask="url(#rrgi9jzffd)"/>
                </g>
                <path fill="#FF6F61" d="M68.362 98.21c-2.162-.66-3.384-2.962-2.73-5.142l.072-.24c.655-2.18 2.938-3.412 5.1-2.752 2.162.66 3.384 2.963 2.73 5.143l-.072.239c-.655 2.18-2.938 3.412-5.1 2.752m4.848-16.242c-1.623-.496-2.572-2.193-2.151-3.85l11.083-43.671c.722-2.844 3.65-4.508 6.436-3.657 2.786.85 4.307 3.872 3.343 6.642L77.119 79.968c-.562 1.614-2.285 2.496-3.909 2" transform="translate(1 .23) rotate(-1 190.058 -1133.207) translate(.056 1.763)"/>
                <path fill="#FF6F61" d="M73.657 80.358c.742.224 1.524-.174 1.78-.906l14.967-42.718c.31-.888.248-1.838-.177-2.677-.425-.838-1.154-1.45-2.052-1.723-.9-.273-1.844-.168-2.662.294-.818.461-1.397 1.217-1.63 2.128l-11.206 43.86c-.192.751.239 1.517.98 1.742m.427 3.59c-.478 0-.965-.07-1.447-.215-2.551-.774-4.031-3.406-3.37-5.992l11.205-43.859c.473-1.852 1.65-3.388 3.312-4.327 1.663-.938 3.584-1.15 5.41-.596 1.827.554 3.309 1.798 4.173 3.502.863 1.705.991 3.637.36 5.44L78.76 80.62c-.716 2.043-2.62 3.328-4.676 3.328m-4.572 7.825c-.385 0-.767.095-1.117.282-.56.3-.969.8-1.152 1.408l-.073.24c-.184.609-.12 1.252.179 1.812.3.56.799.97 1.406 1.155 1.253.379 2.582-.332 2.961-1.588l.073-.24c.184-.608.12-1.252-.179-1.812-.3-.56-.799-.97-1.406-1.154-.227-.07-.46-.103-.692-.103m-.072 8.526c-.564 0-1.138-.082-1.705-.255-1.508-.456-2.747-1.474-3.49-2.865-.743-1.39-.901-2.988-.445-4.497l.073-.24c.456-1.51 1.472-2.752 2.86-3.496 1.39-.744 2.984-.902 4.491-.445 1.508.457 2.747 1.474 3.49 2.865.743 1.39.901 2.988.445 4.498l-.073.24c-.77 2.548-3.115 4.195-5.646 4.195" transform="translate(1 .23) rotate(-1 190.058 -1133.207) translate(.056 1.763)"/>
            </g>
        </g>
    </g>
</svg>
