<svg xmlns="http://www.w3.org/2000/svg" width="98" height="114" viewBox="0 0 98 114">
    <g fill="none" fill-rule="evenodd">
        <g>
            <g>
                <g>
                    <g transform="translate(-80 -1363) translate(34 967) translate(34 384) translate(12 12)">
                        <rect width="98" height="114" fill="#F3F5F7" rx="5"/>
                        <g fill-rule="nonzero" transform="translate(17 14)">
                            <path fill="#E9F3FB" d="M31 80.5v8h3v-8c-.497.027-.997.042-1.5.042s-1.003-.015-1.5-.042z"/>
                            <ellipse cx="32.5" cy="46.5" fill="#FFF" rx="28.5" ry="29"/>
                            <g fill="#B3B6B9">
                                <path d="M.102 11.776l7.194 7.062c.778-.8 1.597-1.561 2.451-2.283L2.491 9.431.102 11.776zM13.914 1.937l4.002 9.485c1.02-.457 2.068-.866 3.139-1.226L17.035.668l-3.12 1.27z" transform="translate(0 3.5)"/>
                            </g>
                            <path fill="#B3B6B9" d="M50 4.798L46.941 3.5 43 13.246c1.05.368 2.076.787 3.077 1.254L50 4.798zM56.542 22.5L64 14.993 61.524 12.5 54 20.074c.886.767 1.735 1.576 2.542 2.426zM31 80.5v8h3v-8c-.497.027-.997.042-1.5.042s-1.003-.015-1.5-.042zM5.756 68.5L0 74.212 2.305 76.5 8 70.849c-.786-.746-1.534-1.53-2.244-2.349zM44 78.87l2.984 7.63L50 85.177 46.997 77.5c-.973.507-1.973.964-2.997 1.37zM56 70.849l5.695 5.651L64 74.212 58.244 68.5c-.71.819-1.458 1.603-2.244 2.349zM14 85.177l3.016 1.323L20 78.87c-1.024-.405-2.024-.863-2.997-1.37L14 85.177zM31 11.457c1.006 0 2.006.015 3 .043V.5h-3v10.957z"/>
                            <path fill="#B3B6B9" d="M61 46.5c0 16.016-12.984 29-29 29v-58c16.016 0 29 12.984 29 29z" opacity=".507"/>
                            <circle cx="32.5" cy="46" r="18.5" fill="#00B8EC"/>
                            <path fill="#294ABF" d="M51 46c0 10.217-8.507 18.5-19 18.5v-37c10.493 0 19 8.283 19 18.5z" opacity=".364"/>
                            <circle cx="31.5" cy="46" r="9.5" fill="#132259"/>
                            <path fill="#000" d="M42 46c0 5.247-4.477 9.5-10 9.5v-19c5.523 0 10 4.253 10 9.5z"/>
                            <circle cx="25.5" cy="39" r="2.5" fill="#E9F3FB"/>
                        </g>
                    </g>
                </g>
            </g>
        </g>
    </g>
</svg>
