<?xml version="1.0" encoding="UTF-8"?>
<svg width="25px" height="21px" viewBox="0 0 25 21" version="1.1" xmlns="http://www.w3.org/2000/svg" xmlns:xlink="http://www.w3.org/1999/xlink">
    <title>health grades</title>
    <defs>
        <polygon id="path-1" points="1.93233193e-06 0.0233830043 24.9758115 0.0233830043 24.9758115 21 1.93233193e-06 21"></polygon>
        <polygon id="path-3" points="4.37131687e-06 0.0233797857 22.9886082 0.0233797857 22.9886082 21 4.37131687e-06 21"></polygon>
        <polygon id="path-5" points="0.00445648095 0.00441696126 1.98109756 0.00441696126 1.98109756 1.97799659 0.00445648095 1.97799659"></polygon>
    </defs>
    <g id="Doctor's-profile" stroke="none" stroke-width="1" fill="none" fill-rule="evenodd">
        <g id="HK_Provider'sProfile_CreateAccount_1920px" transform="translate(-213.000000, -1730.000000)">
            <g id="health-grades" transform="translate(213.000000, 1730.000000)">
                <g id="Group-3">
                    <g id="Fill-1-Clipped">
                        <mask id="mask-2" fill="white">
                            <use xlink:href="#path-1"></use>
                        </mask>
                        <g id="path-1"></g>
                        <path d="M24.9657147,8.35136233 C25.0231429,7.98429647 24.8266074,7.71136079 24.6055711,7.45903921 C24.3690231,7.18903002 24.0498596,7.03508361 23.7081304,7.04965176 C23.0361892,7.07836998 22.4679307,7.58098713 22.4468944,8.33045881 C22.4263265,9.06282174 23.0531679,9.65349097 23.6957397,9.65093492 C24.0432117,9.64953538 24.3532615,9.52623675 24.5880306,9.26642205 C24.8140606,9.01628729 25.0205212,8.74077887 24.9657147,8.35136233 M17.8252965,7.06788607 C17.8308208,7.14847718 17.8277933,7.21961348 17.8424625,7.28656907 C17.8594101,7.36368699 17.8914326,7.43739602 17.9180243,7.51213415 C18.2229869,8.36872833 19.3062265,8.69466248 19.9796661,8.00925206 C21.4771692,6.48525667 22.9644662,4.95052006 24.4497971,3.41385391 C24.8150281,3.0360147 24.9473315,2.56298407 24.7735487,2.05843736 C24.4771379,1.19782328 23.4614389,0.849474119 22.7347846,1.50703461 C22.5475187,1.67641746 22.3771379,1.86570689 22.2007022,2.04756754 C20.8699907,3.41932098 19.540309,4.79200704 18.2088796,6.16295651 C17.9620318,6.41714333 17.8372815,6.72124135 17.8252965,7.06788607 M5.57991574,0.0295736601 C5.18328651,0.0425016845 4.73169475,0.0228523736 4.27176967,0.169209188 C3.6071005,0.380688515 2.97460986,0.635679327 2.40766229,1.05207749 C1.73547129,1.54585084 1.18391074,2.15247106 0.765777154,2.88991515 C0.529385143,3.30692435 0.348923221,3.74580184 0.214435081,4.20596876 C0.140995631,4.45716478 0.0196473158,4.71279878 0.0234238451,4.96476662 C0.0322877653,5.55392435 -0.0650280899,6.14510812 0.0821317104,6.73571301 C0.173080525,7.10055987 0.244116729,7.46823675 0.372112983,7.82420765 C0.621925718,8.51894425 0.977294007,9.14846187 1.47501561,9.6780928 C2.291495,10.546811 3.12919787,11.3943041 3.95953496,12.2491296 C5.43291199,13.765857 6.90769351,15.281105 8.38144507,16.7974465 C9.61602685,18.0677375 10.8487047,19.3400224 12.0855025,20.60803 C12.3161829,20.8444971 12.5672753,21.0452031 12.9304463,20.9911111 C13.0628745,20.9713976 13.2004526,20.9888279 13.3356898,20.9885385 C13.3667759,20.9884741 13.4060705,20.9971892 13.4275749,20.9814634 C13.5862203,20.8656258 13.7583802,20.7622981 13.8949907,20.6225338 C15.4964264,18.98418 17.0919944,17.3397483 18.6898721,15.6977283 C19.8423689,14.513367 20.9955836,13.3297773 22.1495475,12.1469274 C22.3389982,11.9526855 22.5020443,11.7420423 22.5859707,11.47586 C22.6995162,11.1157084 22.652731,10.7710897 22.4811018,10.443226 C22.2377497,9.97829953 21.7952403,9.7353363 21.3338171,9.74948638 C20.9947097,9.75990597 20.691495,9.91221225 20.4385611,10.1738279 C18.3399344,12.3447069 16.2351279,14.5092828 14.1335986,16.6772353 C13.9772315,16.8384818 13.7994226,16.9394618 13.5770131,16.9662506 C13.2285424,17.0082184 12.8600343,16.831857 12.6856586,16.5276947 C12.4953964,16.1958432 12.5016074,15.8004129 12.741495,15.5078279 C12.962063,15.2387514 13.2127809,14.9954986 13.4547597,14.7455246 C14.7763265,13.3806211 16.0998596,12.0177436 17.4213015,10.6527115 C17.6722067,10.3934757 17.8659644,10.098543 17.8796036,9.71729494 C17.8982054,9.19744043 17.6876249,8.79535314 17.2610018,8.51955528 C17.0457397,8.3804343 16.8033551,8.32335161 16.5504214,8.33602235 C16.1535736,8.3559611 15.8530743,8.56850169 15.582756,8.85147106 C15.1012953,9.35553538 14.6061329,9.84570689 14.1258894,10.3509933 C13.7876873,10.7068677 13.2694601,10.7330775 12.9357522,10.4785048 C12.5121567,10.1554006 12.3982678,9.49636079 12.8711454,9.0270928 C13.3052278,8.59631945 13.7282928,8.15371148 14.15451,7.71460889 C15.5322253,6.29529188 16.9081929,4.87417396 18.2870006,3.45598254 C18.6695849,3.06248177 18.8664638,2.62132098 18.6853464,2.05679725 C18.5188358,1.53771454 18.1203339,1.20827504 17.6245786,1.1494879 C17.1951467,1.09854763 16.8401842,1.26075896 16.5350968,1.57788147 C15.6710206,2.47599327 14.8001404,3.36719081 13.9279494,4.25694119 C13.4146536,4.78052618 12.6534176,4.79718469 12.1685237,4.29993813 C11.4576623,3.57098407 10.7439295,2.84482787 10.0422753,2.10657979 C9.34661361,1.37466708 8.60185706,0.719357734 7.64258739,0.382071362 C7.13060237,0.202108116 6.62420412,-0.0112364472 6.06421661,0.0281264931 C5.92445381,0.0379350689 5.78344257,0.0295736601 5.57991574,0.0295736601" id="Fill-1" fill="#0001E9" fill-rule="nonzero" mask="url(#mask-2)"></path>
                    </g>
                </g>
                <g id="Group-6">
                    <g id="Fill-4-Clipped">
                        <mask id="mask-4" fill="white">
                            <use xlink:href="#path-3"></use>
                        </mask>
                        <g id="path-3"></g>
                        <path d="M5.66384188,0.0295865237 C5.87043003,0.0295865237 6.01356226,0.0379479327 6.15545895,0.0281071976 C6.72383774,-0.0112557427 7.2378529,0.202088821 7.75753885,0.382084227 C8.73123719,0.719338438 9.48719587,1.37464778 10.1933212,2.10659266 C10.9055292,2.84484074 11.6299975,3.57096478 12.3515512,4.29991884 C12.8437386,4.79719755 13.6164246,4.78050689 14.137441,4.2569219 C15.022751,3.36717151 15.9067303,2.47597396 16.7838033,1.57789433 C17.0934796,1.26073966 17.4537812,1.09852833 17.8896725,1.14946861 C18.3928846,1.20825574 18.7973805,1.53772741 18.9663956,2.05677795 C19.1502371,2.62133385 18.9504287,3.06249464 18.5620581,3.45599541 C17.1625112,4.87418683 15.7658473,6.29530475 14.3674093,7.71462174 C13.9347812,8.15372435 13.5053846,8.59633232 13.0647413,9.02707351 C12.584751,9.49637366 12.7003529,10.1553813 13.1303198,10.4784855 C13.4690471,10.7330582 13.9951009,10.7068805 14.3383584,10.350974 C14.8258253,9.8456876 15.3284355,9.35551609 15.817138,8.85145176 C16.0915223,8.56851454 16.3965416,8.3559418 16.7993584,8.33603522 C17.0560967,8.32333232 17.3021271,8.38044717 17.5206271,8.51956815 C17.953667,8.79533385 18.1674149,9.19742113 18.1485333,9.71727565 C18.134689,10.0985559 17.9380169,10.3934885 17.6833377,10.6526922 C16.3420512,12.0177243 14.9985788,13.3806018 13.6571655,14.7455375 C13.4115154,14.9954794 13.1570264,15.2387641 12.9331408,15.5078407 C12.6896449,15.8003936 12.6833405,16.1958238 12.8764645,16.5277076 C13.0534631,16.8318699 13.4275141,17.008199 13.7812578,16.9662312 C14.0070127,16.9394425 14.1874645,16.8384947 14.3461834,16.6772159 C16.4793543,14.5092955 18.6157882,12.3446876 20.7459811,10.1738086 C21.0027192,9.91222512 21.3104948,9.75988668 21.6547028,9.74946707 C22.1230664,9.73534916 22.5722317,9.97828024 22.8192441,10.4432067 C22.9934549,10.7711026 23.0409438,11.1157213 22.9256904,11.4758729 C22.8405333,11.742023 22.675003,11.9526983 22.4827028,12.1469403 C21.3113818,13.329758 20.1408212,14.5133797 18.9709892,15.697709 C17.3490774,17.339761 15.7295099,18.9841609 14.1039865,20.6225467 C13.9653212,20.7622787 13.7905719,20.8656064 13.6295402,20.9814763 C13.6077124,20.99717 13.5678268,20.988487 13.5362729,20.9885514 C13.3990017,20.9888085 13.2593543,20.9713783 13.1249342,20.991124 C12.7563005,21.0451837 12.5014314,20.8444778 12.2672813,20.6080428 C11.0118804,19.3400353 9.76066143,18.0677182 8.50750991,16.7974272 C7.01159118,15.2811179 5.514627,13.7658698 4.01908843,12.2491424 C3.17626198,11.394317 2.32595895,10.5467917 1.49719862,9.67807351 C0.991990633,9.14847473 0.631277135,8.51895712 0.377738568,7.82422052 C0.247785399,7.46824961 0.175680716,7.10057274 0.0833955923,6.73569372 C-0.0660093664,6.14508882 0.0327702479,5.55390506 0.0237730028,4.96477948 C0.0199396694,4.71281164 0.143113223,4.45717765 0.2176573,4.20594947 C0.35416832,3.7458147 0.537344629,3.30690506 0.777292287,2.88989586 C1.20171515,2.15248391 1.76157189,1.54583155 2.44387355,1.05209035 C3.01934876,0.63569219 3.6613529,0.380701378 4.33601956,0.169222052 C4.80286253,0.0228652374 5.26124683,0.042482389 5.66384188,0.0295865237" id="Fill-4" fill="#0001E9" fill-rule="nonzero" mask="url(#mask-4)"></path>
                    </g>
                </g>
                <g id="Group-11" transform="translate(23.000000, 8.000000)">
                    <g id="Fill-9-Clipped">
                        <mask id="mask-6" fill="white">
                            <use xlink:href="#path-5"></use>
                        </mask>
                        <g id="path-5"></g>
                        <path d="M1.97320732,0.992380488 C2.01603659,1.28772195 1.85469512,1.49667317 1.67806098,1.68638049 C1.49459756,1.88342927 1.25230488,1.97694146 0.980768293,1.9780029 C0.478621951,1.97994146 -0.0112317073,1.53196585 0.00484146341,0.976526829 C0.0212804878,0.408112195 0.465353659,0.0269170732 0.99045122,0.00513658537 C1.2575,-0.00591219512 1.50691463,0.110843902 1.69176829,0.31562439 C1.8645,0.506990244 2.01808537,0.713990244 1.97320732,0.992380488" id="Fill-9" fill="#0001E9" fill-rule="nonzero" mask="url(#mask-6)"></path>
                    </g>
                </g>
            </g>
        </g>
    </g>
</svg>