<svg xmlns="http://www.w3.org/2000/svg" width="23.433" height="78.5" viewBox="0 0 23.433 78.5">
    <path fill="#0d1e4f" d="M161.924 103.3s-.274-.581-.313-.674a18.589 18.589 0 0 1 .215-14.256c.033-.08.105-.236.143-.314 2.069-4.319 6.245-12.9 7.93-16.277a6.742 6.742 0 0 0 .709-3.029v-4.219a8.406 8.406 0 0 0-8.406-8.406h-6.621a8.406 8.406 0 0 0-8.406 8.406v61.688a8.406 8.406 0 0 0 8.406 8.406h6.619a8.406 8.406 0 0 0 8.406-8.406v-3.577a6.8 6.8 0 0 0-.7-3.015c-1.681-3.409-5.954-12.091-7.982-16.327z" transform="translate(-147.176 -56.125)"/>
</svg>
