<svg xmlns="http://www.w3.org/2000/svg" width="67" height="67" viewBox="0 0 67 67">
    <defs>
        <filter id="dde1r85wba">
            <feColorMatrix in="SourceGraphic" values="0 0 0 0 0.000000 0 0 0 0 0.000000 0 0 0 0 0.000000 0 0 0 1.000000 0"/>
        </filter>
    </defs>
    <g fill="none" fill-rule="evenodd">
        <circle cx="33.5" cy="33.5" r="33.5" fill="#FFE8E8"/>
        <g>
            <path fill="#FFF" d="M3.444 9.333H20.666V33.833H3.444z" transform="translate(19 16)"/>
            <path fill="#FFF" d="M10.333 2.333H27.555V26.833H10.333z" transform="translate(19 16)"/>
            <g filter="url(#dde1r85wba)" transform="translate(19 16)">
                <path fill="#000" fill-rule="nonzero" d="M28.577 4.508L25.25.96C24.672.346 23.89 0 23.073 0H12.034c-1.7 0-3.078 1.47-3.078 3.281v3.281H3.825c-1.7 0-3.079 1.47-3.079 3.282v21.875C.746 33.53 2.125 35 3.825 35H18.19c1.7 0 3.078-1.47 3.078-3.281v-3.282H26.4c1.7 0 3.079-1.469 3.079-3.28V6.826c0-.87-.325-1.704-.902-2.32zM23.322 2.22c.18.048.345.147.476.287l3.328 3.547c.13.14.224.315.269.508h-4.073V2.22zm-4.105 29.498c0 .604-.46 1.093-1.026 1.093H3.825c-.567 0-1.026-.49-1.026-1.093V9.844c0-.604.459-1.094 1.026-1.094h5.13v16.406c0 1.812 1.379 3.282 3.079 3.282h7.183v3.28zm8.21-6.563c0 .604-.46 1.094-1.027 1.094H12.034c-.567 0-1.026-.49-1.026-1.094V3.281c0-.604.46-1.094 1.026-1.094h9.235V7.11c.003.905.69 1.638 1.54 1.641h4.617v16.406z"/>
            </g>
            <g fill="#FF6F61">
                <path d="M4.175 0H7.305999999999999V11.667H4.175z" transform="translate(19 16) translate(13.778 11.667)"/>
                <path d="M4.15 0.093L7.332 0.093 7.332 11.574 4.15 11.574z" transform="translate(19 16) translate(13.778 11.667) rotate(90 5.74 5.833)"/>
            </g>
        </g>
    </g>
</svg>
