<?xml version="1.0" encoding="UTF-8"?>
<svg width="42px" height="42px" viewBox="0 0 42 42" version="1.1" xmlns="http://www.w3.org/2000/svg" xmlns:xlink="http://www.w3.org/1999/xlink">
    <title>D1417DB7-E63E-4B53-8D9B-9F5CB6F1A4EB</title>
    <g id="In-Between-Dashboard" stroke="none" stroke-width="1" fill="none" fill-rule="evenodd">
        <g id="MedicalRecords_coming-soon" transform="translate(-51.000000, -87.000000)">
            <g id="icon" transform="translate(51.000000, 87.000000)">
                <circle id="Oval" fill="#FEE7E9" cx="21" cy="21" r="21"></circle>
                <rect id="Rectangle" fill="#FFFFFF" x="9" y="14" width="24" height="16"></rect>
                <g id="Medical/Linear/Briefcase-medical" transform="translate(9.000000, 8.500000)" fill="#000000" fill-rule="nonzero">
                    <g id="Shape">
                        <path d="M21.75,4.5 L16.5,4.5 L16.5,1.125 C16.5,0.5015625 15.9984375,0 15.375,0 L8.625,0 C8.0015625,0 7.5,0.5015625 7.5,1.125 L7.5,4.5 L2.25,4.5 C1.0078125,4.5 0,5.5078125 0,6.75 L0,20.25 C0,21.4921875 1.0078125,22.5 2.25,22.5 L21.75,22.5 C22.9921875,22.5 24,21.4921875 24,20.25 L24,6.75 C24,5.5078125 22.9921875,4.5 21.75,4.5 Z M9,1.5 L15,1.5 L15,4.5 L9,4.5 L9,1.5 Z M22.5,20.25 C22.5,20.6625 22.1625,21 21.75,21 L2.25,21 C1.8375,21 1.5,20.6625 1.5,20.25 L1.5,6.75 C1.5,6.3375 1.8375,6 2.25,6 L21.75,6 C22.1625,6 22.5,6.3375 22.5,6.75 L22.5,20.25 Z"></path>
                    </g>
                </g>
                <path d="M25.125,20.5 L22.5,20.5 L22.5,17.875 C22.5,17.66875 22.33125,17.5 22.125,17.5 L19.875,17.5 C19.66875,17.5 19.5,17.66875 19.5,17.875 L19.5,20.5 L16.875,20.5 C16.66875,20.5 16.5,20.66875 16.5,20.875 L16.5,23.125 C16.5,23.33125 16.66875,23.5 16.875,23.5 L19.5,23.5 L19.5,26.125 C19.5,26.33125 19.66875,26.5 19.875,26.5 L22.125,26.5 C22.33125,26.5 22.5,26.33125 22.5,26.125 L22.5,23.5 L25.125,23.5 C25.33125,23.5 25.5,23.33125 25.5,23.125 L25.5,20.875 C25.5,20.66875 25.33125,20.5 25.125,20.5 Z" id="Path" fill="#DF3838"></path>
            </g>
        </g>
    </g>
</svg>