<svg xmlns="http://www.w3.org/2000/svg" xmlns:xlink="http://www.w3.org/1999/xlink" width="179" height="41" viewBox="0 0 179 41">
    <defs>
        <path id="iqer7ia58a" d="M0.601 0.663L178.162 0.663 178.162 40.729 0.601 40.729z"/>
    </defs>
    <g fill="none" fill-rule="evenodd">
        <g>
            <g>
                <g transform="translate(-448 -366) translate(408 198) translate(40 168)">
                    <mask id="6wsk6qzxfb" fill="#fff">
                        <use xlink:href="#iqer7ia58a"/>
                    </mask>
                    <path fill="#B8CE37" d="M21.89 17.647v-5.453c.917-.319 1.897-.488 2.947-.488s2.03.17 2.947.488v5.453h5.414c.313.923.48 1.91.48 2.972 0 1.056-.171 2.043-.493 2.97h-5.401v5.448c-.917.323-1.897.494-2.947.494s-2.03-.17-2.947-.494V23.59h-5.401c-.322-.927-.493-1.914-.493-2.97 0-1.062.166-2.049.48-2.972h5.414z" mask="url(#6wsk6qzxfb)"/>
                    <path fill="#38A1CE" d="M36.113 31.834c-2.873 3.031-6.632 4.546-11.276 4.546-4.643 0-8.403-1.515-11.276-4.546-2.755-2.912-4.133-6.631-4.133-11.159 0-4.524 1.378-8.244 4.133-11.158 2.873-3.03 6.633-4.545 11.276-4.545 4.644 0 8.403 1.515 11.276 4.545 2.755 2.915 4.133 6.634 4.133 11.159 0 4.527-1.378 8.247-4.133 11.159m3.07-25.328C35.444 2.613 30.662.663 24.837.663c-5.824 0-10.607 1.95-14.346 5.846C6.831 10.286 5 15.008 5 20.675c0 3.818.831 7.208 2.491 10.168.245.435.514.858.794 1.276l-.003.008-3.67 8.423c-.046.106.063.212.168.166l8.224-3.666c3.297 2.422 7.24 3.64 11.833 3.64 5.825 0 10.607-1.95 14.346-5.846 3.66-3.778 5.491-8.502 5.491-14.17 0-5.667-1.831-10.39-5.491-14.168" mask="url(#6wsk6qzxfb)"/>
                    <path fill="#38A0CE" d="M88.945 5.545L88.945 35.854 85.511 35.854 85.511 10.765 74.294 25.186 62.894 10.765 62.894 35.854 59.46 35.854 59.46 5.545 63.443 5.545 74.294 19.921 84.961 5.545z" mask="url(#6wsk6qzxfb)"/>
                    <path stroke="#38A0CE" stroke-width="1.153" d="M88.945 5.545L88.945 35.854 85.511 35.854 85.511 10.765 74.294 25.186 62.894 10.765 62.894 35.854 59.46 35.854 59.46 5.545 63.443 5.545 74.294 19.921 84.961 5.545z" mask="url(#6wsk6qzxfb)"/>
                    <path fill="#38A0CE" d="M147.852 5.545L147.852 35.854 144.418 35.854 144.418 10.765 133.202 25.186 121.802 10.765 121.802 35.854 118.368 35.854 118.368 5.545 122.35 5.545 133.202 19.921 143.869 5.545z" mask="url(#6wsk6qzxfb)"/>
                    <path stroke="#38A0CE" stroke-width="1.153" d="M147.852 5.545L147.852 35.854 144.418 35.854 144.418 10.765 133.202 25.186 121.802 10.765 121.802 35.854 118.368 35.854 118.368 5.545 122.35 5.545 133.202 19.921 143.869 5.545z" mask="url(#6wsk6qzxfb)"/>
                    <path fill="#38A0CE" d="M163.891 32.604c3.175 0 5.754-1.175 7.738-3.525 1.923-2.26 2.884-5.052 2.884-8.38 0-3.325-.96-6.118-2.884-8.377-1.984-2.351-4.563-3.525-7.738-3.525h-9.203v23.807h9.203zm.138-27.058c1.801 0 3.54.343 5.22 1.029 1.678.688 3.158 1.688 4.44 3 2.84 2.899 4.258 6.608 4.258 11.125 0 4.518-1.419 8.226-4.258 11.125-1.282 1.313-2.762 2.313-4.44 3-1.68.686-3.419 1.03-5.22 1.03h-12.774V5.545h12.774z" mask="url(#6wsk6qzxfb)"/>
                    <path stroke="#38A0CE" stroke-width="1.153" d="M163.891 32.604c3.175 0 5.754-1.175 7.738-3.525 1.923-2.26 2.884-5.052 2.884-8.38 0-3.325-.96-6.118-2.884-8.377-1.984-2.351-4.563-3.525-7.738-3.525h-9.203v23.807h9.203zm.138-27.058c1.801 0 3.54.343 5.22 1.029 1.678.688 3.158 1.688 4.44 3 2.84 2.899 4.258 6.608 4.258 11.125 0 4.518-1.419 8.226-4.258 11.125-1.282 1.313-2.762 2.313-4.44 3-1.68.686-3.419 1.03-5.22 1.03h-12.774V5.545h12.774z" mask="url(#6wsk6qzxfb)"/>
                    <path fill="#B8CE37" d="M95.659 25.893c-.605-1.933-.58-3.752.075-5.456.71-1.798 2.007-3.157 3.89-4.075 1.882-.917 3.75-1.101 5.605-.554 1.745.534 3.194 1.634 4.345 3.3l-13.915 6.785zm11.792 5.9c-2.02.986-3.99 1.17-5.911.553-1.881-.602-3.39-1.791-4.525-3.568l17.148-8.36-.6-1.228c-1.475-3.028-3.593-5.086-6.352-6.172-2.908-1.115-5.89-.928-8.944.562-3.056 1.49-5.04 3.723-5.952 6.7-.843 2.843-.526 5.778.95 8.807 1.464 3 3.622 5.038 6.475 6.112 2.934 1.103 5.944.9 9.027-.602 2.309-1.125 3.956-2.577 4.958-4.348l-2.738-1.752c-.688 1.382-1.863 2.482-3.536 3.297z" mask="url(#6wsk6qzxfb)"/>
                    <path stroke="#B8CE37" stroke-width="1.118" d="M95.659 25.893c-.605-1.933-.58-3.752.075-5.456.71-1.798 2.007-3.157 3.89-4.075 1.882-.917 3.75-1.101 5.605-.554 1.745.534 3.194 1.634 4.345 3.3l-13.915 6.785zm11.792 5.9c-2.02.986-3.99 1.17-5.911.553-1.881-.602-3.39-1.791-4.525-3.568l17.148-8.36-.6-1.228c-1.475-3.028-3.593-5.086-6.352-6.172-2.908-1.115-5.89-.928-8.944.562-3.056 1.49-5.04 3.723-5.952 6.7-.843 2.843-.526 5.778.95 8.807 1.464 3 3.622 5.038 6.475 6.112 2.934 1.103 5.944.9 9.027-.602 2.309-1.125 3.956-2.577 4.958-4.348l-2.738-1.752c-.688 1.382-1.863 2.482-3.536 3.297z" mask="url(#6wsk6qzxfb)"/>
                    <path stroke="#1E76A7" stroke-width=".291" d="M182.162 6.673c0 .948-.769 1.716-1.717 1.716-.948 0-1.716-.768-1.716-1.716s.768-1.717 1.716-1.717 1.717.77 1.717 1.717z" mask="url(#6wsk6qzxfb)"/>
                </g>
            </g>
        </g>
    </g>
</svg>
