<?xml version="1.0" encoding="UTF-8"?>
<svg width="224px" height="40px" viewBox="0 0 224 40" version="1.1" xmlns="http://www.w3.org/2000/svg" xmlns:xlink="http://www.w3.org/1999/xlink">
    <title>8641A8B5-8D04-430D-821E-709444DD2194</title>
    <g id="Symbols" stroke="none" stroke-width="1" fill="none" fill-rule="evenodd">
        <g id="Footer/HKC/Desktop" transform="translate(-34.000000, -200.000000)" fill-rule="nonzero">
            <g id="Medixall_Group_Logo_White" transform="translate(34.000000, 200.000000)">
                <g id="Medixall-Logo" transform="translate(0.000000, 0.190724)">
                    <path d="M23.255414,13.6225401 L23.255414,14.0565583 C23.255414,18.3792631 23.2580032,22.7019679 23.2631816,27.0246727 C23.2631816,27.3538275 23.2068661,27.4664586 22.8495535,27.4548071 C21.9310273,27.4256784 21.0105592,27.4373299 20.091062,27.4499523 C19.8551192,27.4499523 19.7997746,27.3810143 19.7997746,27.1508973 C19.806895,21.1406675 19.806895,15.1301141 19.7997746,9.1192371 C19.7997746,8.88038145 19.8725964,8.82781089 20.0998006,8.82781089 C21.4863286,8.8376593 22.8718856,8.84154313 24.2584135,8.82781089 C24.524456,8.82781089 24.6361162,8.90853923 24.7215605,9.15419159 C26.2589106,13.5623407 27.8014391,17.9688716 29.3491461,22.3737841 C29.4074036,22.5398179 29.4714868,22.7048808 29.557902,22.9379107 C30.0812484,21.429042 30.5832336,19.9813437 31.0861899,18.5346164 C32.1707499,15.4149285 33.2601647,12.2962115 34.3330733,9.17166883 C34.4301691,8.90077156 34.5437711,8.82406589 34.8185522,8.82781089 C36.1778934,8.84348505 37.5372345,8.84348505 38.8965756,8.82781089 C39.1529085,8.82781089 39.2412657,8.87649762 39.2412657,9.15807542 C39.2315561,15.1411183 39.2315561,21.1241612 39.2412657,27.1072042 C39.2412657,27.412085 39.1441699,27.4596619 38.8723017,27.4548071 C37.9663979,27.4373299 37.0604941,27.433446 36.1536194,27.4548071 C35.8448548,27.4625748 35.770091,27.3819853 35.771062,27.0732206 C35.7827135,22.7362751 35.7853027,18.3993296 35.7788296,14.062384 L35.7788296,13.6108886 L35.7263979,13.5934114 C35.6827048,13.7118682 35.6351279,13.8283832 35.5953186,13.9468401 C34.1110475,18.3019101 32.630013,22.6573039 31.152215,27.0130212 C31.037642,27.3528565 30.8919983,27.4761682 30.5220633,27.4557781 C29.8249155,27.4179107 29.1229129,27.4305332 28.4238231,27.4557781 C28.1480711,27.4645167 28.0296142,27.387811 27.9383442,27.1169137 C26.4430689,22.722358 24.9397024,18.3310389 23.4282445,13.9429562 C23.3903771,13.832267 23.3495969,13.7235197 23.3107586,13.6138015 L23.255414,13.6225401 Z" id="Path" fill="#FFFFFF"></path>
                    <path d="M69.1292935,14.8109926 C69.1292935,12.8875249 69.139003,11.0660078 69.1205548,9.24546164 C69.1205548,8.9046554 69.1953186,8.81047248 69.5409796,8.82212397 C70.4041612,8.85028175 71.2692848,8.8376593 72.1334374,8.82212397 C72.3771478,8.82212397 72.4926918,8.84736888 72.4917269,9.14642393 C72.4820113,15.1424129 72.4820113,21.1377547 72.4917269,27.1324491 C72.4917269,27.3955787 72.4101604,27.4509233 72.165479,27.4470394 C71.3421066,27.4324751 70.5148505,27.4305332 69.6963329,27.4470394 C69.4370871,27.4470394 69.3681491,27.3751886 69.3807716,27.1237104 C69.4021326,26.6896922 69.3865973,26.2498483 69.3865973,25.7041699 C69.0729779,26.117798 68.8098483,26.4391851 68.4806935,26.694547 C67.1708713,27.71114 65.6649155,27.9975726 64.0618639,27.8101777 C60.9314954,27.4441266 58.3671955,24.985661 57.8797746,21.6271175 C57.2622453,17.3723797 60.0663719,13.6429302 64.2579974,13.139003 C66.0659211,12.9263632 67.7485912,13.3390204 69.1292935,14.8109926 Z M69.3778587,20.4775033 C69.371351,20.0794832 69.3135889,19.6839603 69.2059991,19.3007022 C68.6234244,17.1480884 66.4533333,15.7868054 64.4201474,16.2907326 C61.911192,16.9092328 60.5411704,19.5240225 61.4383355,21.9805462 C62.0908192,23.7680798 63.7579541,24.9283745 65.4590724,24.778847 C67.6950587,24.6024466 69.4098926,22.7202082 69.3778587,20.4775033 L69.3778587,20.4775033 Z" id="Shape" fill="#FFFFFF"></path>
                    <path d="M55.6669614,23.0019939 C55.405766,23.9117299 54.9280166,24.7446265 54.2746077,25.4293888 C52.2181188,27.596567 49.7111053,28.3830429 46.8351279,27.5548158 C43.9766277,26.7304725 42.2463806,24.7574859 41.704586,21.8261638 C40.9491808,17.7384309 43.3989077,14.0585002 47.4478023,13.2458084 C51.7200173,12.3913654 55.6252102,15.2391851 56.0961248,19.4978067 C56.1629633,20.1815132 56.1328902,20.8712336 56.0067967,21.546528 C55.9582488,21.8251929 55.8495015,21.914521 55.5533593,21.9125791 C52.9599306,21.8980147 50.366502,21.9038405 47.7730733,21.9048114 C46.9904811,21.9048114 46.20886,21.914521 45.4262679,21.8989857 C45.1349805,21.8931599 45.100997,21.9960815 45.2068314,22.2339662 C45.8059124,23.577772 46.8030863,24.4671695 48.2624361,24.7060251 C49.7907239,24.9516775 51.1180234,24.5506719 52.0239272,23.184534 C52.0918942,23.0825834 52.1501517,22.9903424 52.3064759,22.9903424 C53.414339,23.0049068 54.522202,23.0019939 55.6669614,23.0019939 Z M45.0446814,19.2094322 C47.5138275,19.2094322 49.9810316,19.2094322 52.4472648,19.2094322 C52.6890334,19.2094322 52.6802948,19.1035977 52.6366016,18.9336801 C52.2880277,17.574339 51.4598006,16.6771738 50.0839532,16.3247161 C49.4827041,16.1843589 48.8611357,16.153116 48.2488427,16.2324751 C46.6788036,16.4033637 45.2874209,17.6792024 45.0446814,19.2094322 Z" id="Shape" fill="#FFFFFF"></path>
                    <path d="M108.885167,25.7226181 C107.73264,26.8829129 106.440295,27.5674382 104.931426,27.7752232 C102.304014,28.1325358 100.173732,27.2237191 98.65127,25.056541 C96.3860251,21.846554 96.8831556,17.2762549 99.7193238,14.7643866 C102.052539,12.6946169 105.520713,12.554542 108.013247,14.4294062 C108.34156,14.6811517 108.635363,14.9749549 108.887109,15.3032683 C108.887109,14.7371998 108.903615,14.2847334 108.880312,13.8342089 C108.86769,13.5739922 108.950221,13.5137928 109.200728,13.5186476 C110.024101,13.5351539 110.851357,13.533212 111.670845,13.5186476 C111.907759,13.5186476 111.962133,13.5885566 111.962133,13.8167317 C111.955012,18.2637191 111.955012,22.7107065 111.962133,27.157694 C111.962133,27.3946077 111.893195,27.4489814 111.66502,27.4489814 C110.828054,27.4366826 109.990764,27.4366826 109.153151,27.4489814 C108.932744,27.4489814 108.874486,27.3829562 108.881283,27.1712874 C108.896818,26.7246467 108.885167,26.2750932 108.885167,25.7226181 Z M108.765739,20.5182835 C108.812345,17.2413004 105.916948,15.4158994 103.155544,16.4985176 C101.378691,17.1946944 100.380546,19.1404941 100.663095,21.2562115 C100.977685,23.6088427 103.318665,25.2293715 105.622748,24.6904898 C107.545245,24.2380234 108.755059,22.6340009 108.76671,20.5182835 L108.765739,20.5182835 Z" id="Shape" fill="#FFFFFF"></path>
                    <path d="M117.886918,18.1452622 C117.886918,21.1222193 117.886918,24.0991764 117.895657,27.0780754 C117.895657,27.3897529 117.817009,27.4664586 117.513099,27.4548071 C116.639237,27.4324751 115.757607,27.4392718 114.879861,27.4548071 C114.630325,27.4548071 114.524491,27.4198526 114.524491,27.1275943 C114.5342,21.1328999 114.5342,15.1382055 114.524491,9.14351105 C114.524491,8.87843953 114.609935,8.82697876 114.852674,8.83086259 C115.757607,8.84348505 116.663511,8.85028175 117.571357,8.83086259 C117.862644,8.82309493 117.894686,8.93572605 117.893715,9.18137841 C117.885947,12.1667505 117.883682,15.1547117 117.886918,18.1452622 Z" id="Path" fill="#FFFFFF"></path>
                    <path d="M120.54443,18.1404075 C120.54443,15.1634504 120.549285,12.1874642 120.536662,9.20759428 C120.536662,8.9046554 120.601717,8.81144343 120.917278,8.8192111 C121.808617,8.84251409 122.700928,8.83863026 123.592267,8.8192111 C123.852484,8.81435631 123.904915,8.88912007 123.904915,9.13865626 C123.897795,15.1333507 123.897795,21.1280451 123.904915,27.1227395 C123.904915,27.4140269 123.800052,27.4489814 123.5544,27.4450975 C122.680537,27.4324751 121.797937,27.4256784 120.920191,27.4450975 C120.613368,27.4528652 120.531808,27.3751886 120.531808,27.0635111 C120.549285,24.0943216 120.54443,21.1173645 120.54443,18.1404075 Z" id="Path" fill="#FFFFFF"></path>
                    <path d="M74.8123104,20.4697356 C74.8123104,18.2743997 74.8123104,16.0800347 74.8055137,13.8856697 C74.8055137,13.6118596 74.8501777,13.509909 75.1540876,13.5176766 C76.0590204,13.5400087 76.9639532,13.532241 77.8727698,13.5176766 C78.1019159,13.5176766 78.1766797,13.5730212 78.175718,13.808964 C78.1692357,18.2520676 78.1692357,22.6958185 78.175718,27.1402167 C78.175718,27.4188817 78.0679324,27.4450975 77.8387863,27.4431556 C76.9474469,27.4315041 76.0561075,27.4247074 75.1647681,27.4431556 C74.8734807,27.4499523 74.8055137,27.3722757 74.8064846,27.0839012 C74.8181361,24.8856524 74.8123104,22.677694 74.8123104,20.4697356 Z" id="Path" fill="#FFFFFF"></path>
                    <path d="M92.0613784,8.54248808 C91.3953013,9.20079757 90.754469,9.80473342 90.1515041,10.438769 C89.5485392,11.0728045 89.0048028,11.7252883 88.3814478,12.4282618 C88.0726831,10.5164456 88.1183182,8.66385782 88.2532813,6.81321196 C88.3503771,6.75883832 88.4173732,6.82874729 88.4863112,6.85981795 C89.2718162,7.21324664 89.2630776,7.21227568 89.6669961,6.47143476 C90.6204768,4.70914608 91.6535761,3.00026008 93.017772,1.5195492 C93.4800192,1.03295215 93.9959851,0.600374661 94.5557694,0.230117035 C95.5558561,-0.456350238 97.4016472,0.511694842 97.3259124,1.84676203 C97.2356134,3.46146511 96.7957694,4.96450802 96.2772779,6.46560902 C96.209529,6.61458259 96.1511578,6.76764504 96.1025054,6.92390117 C96.0267707,7.27732987 95.8782141,7.28024274 95.5723624,7.13751192 C95.3140876,7.01711313 95.4752666,6.88700477 95.5053663,6.7869961 C95.9339714,5.60457423 96.2461576,4.38314571 96.4374859,3.14007802 C96.5413784,2.40700477 96.6035197,1.67101864 96.4200087,0.934061552 C96.3520416,0.662193325 96.250091,0.642774166 96.0248288,0.756376246 C95.5198686,1.03664831 95.0703761,1.40683794 94.6985002,1.84870394 C93.1284612,3.62167317 92.0594365,5.70049415 91.0671175,7.82592111 C90.9923537,7.98515821 91.0195405,8.0686606 91.1855743,8.13759861 C91.4622974,8.25022974 91.7302818,8.38713481 92.0613784,8.54248808 Z" id="Path" fill="#FFFFFF"></path>
                    <path d="M84.9073602,28.7296749 C86.2220373,27.525687 87.3794192,26.2275163 88.5669007,24.8225401 C88.8921717,26.7460078 88.8397399,28.5927698 88.7038058,30.4647768 C88.4562115,30.4443866 88.2445427,30.3162202 88.0454963,30.1967924 C87.7697443,30.0297876 87.6386649,30.0783355 87.4949632,30.3705938 C86.8525316,31.672339 86.1056872,32.9198939 85.2617599,34.1010143 C84.5752926,35.0632336 83.8383355,35.9827308 82.8887386,36.7070655 C82.6409746,36.9017974 82.3653903,37.0582455 82.071192,37.1711834 C80.9924577,37.5683052 79.7282705,36.7468747 79.6651582,35.6059991 C79.5806849,34.0660598 80.0535414,32.6368097 80.5322237,31.2065886 C80.6438838,30.8706372 80.7749632,30.5395405 80.9089554,30.2113567 C80.9507065,30.1084352 80.9584742,29.8909406 81.1672302,30.0501777 C81.2973385,30.1472735 81.6051322,30.0861032 81.4759948,30.4307932 C81.0960657,31.4409842 80.8084571,32.4835247 80.616697,33.5456264 C80.4681404,34.3816212 80.3312354,35.2205288 80.4836758,36.0769137 C80.5904811,36.6750238 80.6438838,36.7128912 81.1633463,36.3788817 C81.9401127,35.8798093 82.5129779,35.1797486 83.0518596,34.4495882 C84.1869094,32.9125618 85.0646554,31.2279497 85.8676376,29.4977026 C85.9647334,29.2782661 85.9326918,29.1850542 85.7229649,29.1005808 C85.4569224,28.9947464 85.2025314,28.865609 84.9073602,28.7296749 Z" id="Path" fill="#FFFFFF"></path>
                    <path d="M76.4910967,8.82697876 C76.9571565,8.82697876 77.4232163,8.83571738 77.8883052,8.82212397 C78.0960902,8.81726918 78.1795925,8.87164283 78.1718249,9.09496316 C78.1601734,9.94455137 78.1630863,10.7941396 78.1718249,11.6427568 C78.1718249,11.8369484 78.1135674,11.9068574 77.914521,11.9058964 C76.9558619,11.8981188 75.9972027,11.8981188 75.0385436,11.9058964 C74.8550325,11.9058964 74.8084265,11.8447161 74.8093827,11.6699436 C74.8171651,10.7960815 74.8191071,9.91736454 74.8093827,9.04058951 C74.8093827,8.84639792 74.8948418,8.82115301 75.0550498,8.82406589 C75.5327612,8.83086259 76.0124144,8.82697876 76.4910967,8.82697876 Z" id="Path" fill="#FFFFFF"></path>
                    <path d="M88.7863372,21.0251235 C87.4027221,23.0748158 86.0346424,25.0924664 84.681127,27.1207976 C84.5562318,27.3468955 84.309085,27.4773341 84.0519463,27.4528652 C82.8450455,27.434417 81.6371738,27.4450975 80.4215345,27.4450975 C80.3962896,27.2606155 80.5361075,27.1674036 80.6157261,27.0567143 C82.579003,24.1975668 84.5487531,21.3439214 86.5249762,18.4957781 C86.7046034,18.2375033 86.6939228,18.0802081 86.5181795,17.826788 C84.5451929,14.9715243 82.5825632,12.1127005 80.6302904,9.25031643 C80.5526138,9.13768531 80.47785,9.02311227 80.4030863,8.9114521 C80.4797919,8.77163416 80.6031036,8.83474642 80.7001994,8.83474642 C81.8255397,8.82892068 82.9508799,8.84057217 84.0762202,8.82406589 C84.3200578,8.80235487 84.5536433,8.92695919 84.6714174,9.14156914 C86.0259038,11.1864066 87.3900997,13.2195925 88.7659471,15.2692848 C88.9601387,15.1294668 89.0494668,14.9255657 89.1708366,14.7498223 C90.4654472,12.8778153 91.7548794,11.0032192 93.0391331,9.12603381 C93.1516803,8.92335015 93.3721345,8.80496511 93.6032596,8.82309493 C94.7917122,8.84057217 95.9801647,8.83086259 97.2375553,8.83086259 C96.5433203,9.84065886 95.8879237,10.7960815 95.2305852,11.7515041 C93.8382315,13.7710967 92.4497616,15.795544 91.0447854,17.8063979 C90.8603034,18.0714694 90.8505938,18.2394452 91.0399306,18.5132553 C93.0278052,21.3549256 95.0053229,24.2030689 96.9724837,27.0576853 C97.0482185,27.1674036 97.1220113,27.2771218 97.2346424,27.4460685 C95.9160815,27.4460685 94.6606329,27.4460685 93.4042133,27.4460685 C93.1857477,27.4460685 93.1371998,27.2751799 93.0507846,27.1547811 C91.716041,25.2413466 90.3851813,23.3259702 89.0582055,21.4086519 C88.9737321,21.2872822 88.883433,21.1668834 88.7863372,21.0251235 Z" id="Path" fill="#F1F2F2"></path>
                    <path d="M93.987759,30.5871175 C95.0975639,30.5871175 95.8976333,31.1425054 96.2520329,31.7969311 L96.2520329,30.6871261 L97.2734807,30.6871261 L97.2734807,36.901257 C97.2734807,38.5771305 96.1529952,39.7646121 94.3654616,39.7646121 C92.7672648,39.7646121 91.6234764,38.9548331 91.42443,37.6556914 L92.4225748,37.6556914 C92.6449241,38.3887646 93.3663459,38.887837 94.3644907,38.887837 C95.4412831,38.887837 96.251062,38.1994278 96.251062,36.901257 L96.251062,35.6244473 C95.8850108,36.279844 95.096593,36.8682445 93.986788,36.8682445 C92.3555787,36.8682445 91.101101,35.5914348 91.101101,33.7048635 C91.101101,31.8182922 92.3565496,30.5871175 93.987759,30.5871175 Z M94.1877763,31.4609796 C93.0779714,31.4609796 92.1342003,32.2717295 92.1342003,33.7038925 C92.1342003,35.1360555 93.0779714,35.978847 94.1877763,35.978847 C95.2975813,35.978847 96.2520329,35.146736 96.2520329,33.714573 C96.2520329,32.307655 95.2975813,31.4638925 94.1877763,31.4638925 L94.1877763,31.4609796 Z" id="Shape" fill="#F1F2F2"></path>
                    <path d="M99.9931339,36.7701777 L98.9813958,36.7701777 L98.9813958,30.6871261 L99.991192,30.6871261 L99.991192,31.6745904 C100.334911,30.9949198 100.990308,30.5764369 101.956411,30.5764369 L101.956411,31.6192458 L101.689397,31.6192458 C100.724265,31.6192458 99.991192,32.052293 99.991192,33.4640659 L99.9931339,36.7701777 Z" id="Path" fill="#F1F2F2"></path>
                    <path d="M105.778101,36.8701864 C104.057564,36.8701864 102.747742,35.6487213 102.747742,33.7174859 C102.747742,31.7862505 104.107083,30.5871175 105.822765,30.5871175 C107.538448,30.5871175 108.896818,31.7969311 108.896818,33.7174859 C108.896818,35.6380407 107.507378,36.8701864 105.778101,36.8701864 Z M105.778101,35.9817599 C106.832562,35.9817599 107.86469,35.2603381 107.86469,33.7174859 C107.86469,32.1746337 106.854894,31.4638925 105.811114,31.4638925 C104.74306,31.4638925 103.77987,32.1853143 103.77987,33.7174859 C103.77987,35.2496576 104.721699,35.9817599 105.778101,35.9817599 L105.778101,35.9817599 Z" id="Shape" fill="#F1F2F2"></path>
                    <path d="M115.621673,36.7701777 L114.613819,36.7701777 L114.613819,35.8759254 C114.225436,36.5080191 113.481682,36.8633897 112.671903,36.8633897 C111.273723,36.8633897 110.174599,35.9972952 110.174599,34.2553966 L110.174599,30.6919809 L111.173715,30.6919809 L111.173715,34.1214044 C111.173715,35.3535501 111.853385,35.9866147 112.87192,35.9866147 C113.9157,35.9866147 114.619645,35.3428695 114.619645,34.0330472 L114.619645,30.6919809 L115.629441,30.6919809 L115.621673,36.7701777 Z" id="Path" fill="#F1F2F2"></path>
                    <path d="M120.617252,30.5871175 C122.248461,30.5871175 123.502939,31.8085826 123.502939,33.7068054 C123.502939,35.6050282 122.248461,36.8701864 120.617252,36.8701864 C119.697261,36.8888246 118.834321,36.4256941 118.341326,35.6487213 L118.341326,39.6558648 L117.332501,39.6558648 L117.332501,30.6871261 L118.342297,30.6871261 L118.342297,31.8085826 C118.707378,31.1648375 119.506476,30.5871175 120.617252,30.5871175 Z M120.405583,31.4609796 C119.30743,31.4609796 118.341326,32.3047421 118.341326,33.714573 C118.341326,35.146736 119.30743,35.978847 120.405583,35.978847 C121.527039,35.978847 122.470811,35.1350845 122.470811,33.7038925 C122.470811,32.2727005 121.527039,31.4638925 120.405583,31.4638925 L120.405583,31.4609796 Z" id="Shape" fill="#F1F2F2"></path>
                    <path d="M139.247022,11.8447161 C142.051149,11.8447161 144.331929,13.346788 145.181517,15.934391 L142.268643,15.934391 C141.671504,14.7216645 140.585973,14.1245254 139.228574,14.1245254 C137.021586,14.1245254 135.441838,15.7353446 135.441838,18.2996446 C135.441838,20.8503511 137.016732,22.4796186 139.228574,22.4796186 C140.587915,22.4796186 141.671504,21.8824794 142.268643,20.6513047 L145.181517,20.6513047 C144.331929,23.2573559 142.051149,24.7409796 139.247022,24.7409796 C135.609814,24.7409796 132.8387,22.0815258 132.8387,18.2996446 C132.8387,14.5177633 135.609814,11.8447161 139.247022,11.8447161 Z" id="Path" fill="#F1F2F2"></path>
                    <path d="M151.801508,24.8002081 C148.906112,24.8002081 146.716602,22.7738188 146.716602,19.6250022 C146.716602,16.4587083 148.978934,14.4497963 151.873359,14.4497963 C154.767785,14.4497963 157.03012,16.4587083 157.03012,19.6250022 C157.03303,22.7738188 154.714382,24.8002081 151.801508,24.8002081 Z M151.801508,22.5922497 C153.140459,22.5922497 154.423095,21.615466 154.423095,19.6250022 C154.423095,17.6170611 153.174443,16.6577547 151.835492,16.6577547 C150.496541,16.6577547 149.283814,17.6170611 149.283814,19.6250022 C149.288669,21.615466 150.447022,22.5922497 151.801508,22.5922497 Z" id="Shape" fill="#F1F2F2"></path>
                    <path d="M172.919844,19.1006849 C172.919844,17.5083138 172.033359,16.67329 170.694408,16.67329 C169.335067,16.67329 168.450524,17.505401 168.450524,19.1006849 L168.450524,24.6351452 L165.917295,24.6351452 L165.917295,19.1006849 C165.917295,17.5083138 165.030811,16.67329 163.69186,16.67329 C162.316983,16.67329 161.430498,17.505401 161.430498,19.1006849 L161.430498,24.6351452 L158.897269,24.6351452 L158.897269,14.6119463 L161.430498,14.6119463 L161.430498,15.8246727 C162.063563,14.9925618 163.130646,14.4653316 164.379298,14.4653316 C165.932831,14.4653316 167.220321,15.1352926 167.907759,16.3829736 C168.559272,15.2430689 169.879775,14.4653316 171.345921,14.4653316 C173.751955,14.4653316 175.453073,15.9848808 175.453073,18.7540529 L175.453073,24.6341743 L172.919844,24.6341743 L172.919844,19.1006849 Z" id="Path" fill="#F1F2F2"></path>
                    <path d="M183.704274,14.4497963 C186.273429,14.4497963 188.28137,16.4587083 188.28137,19.5890767 C188.28137,22.7194452 186.273429,24.8002081 183.704274,24.8002081 C182.12938,24.8002081 181.007924,24.0234417 180.392336,23.207837 L180.392336,29.4142003 L177.859107,29.4142003 L177.859107,14.6119463 L180.392336,14.6119463 L180.392336,16.0596446 C180.989476,15.2100564 182.147828,14.4497963 183.704274,14.4497963 Z M183.034313,16.6762029 C181.674972,16.6762029 180.392336,17.7248375 180.392336,19.6250022 C180.392336,21.5251669 181.676914,22.5738015 183.034313,22.5738015 C184.409189,22.5738015 185.693767,21.4882705 185.693767,19.5881058 C185.693767,17.687941 184.409189,16.6762029 183.034313,16.6762029 L183.034313,16.6762029 Z" id="Shape" fill="#F1F2F2"></path>
                    <path d="M194.053715,14.4497963 C195.664534,14.4497963 196.767542,15.2100564 197.364681,16.0421673 L197.364681,14.6119463 L199.916359,14.6119463 L199.916359,24.6361162 L197.364681,24.6361162 L197.364681,23.1709406 C196.767542,24.038977 195.627638,24.7992371 194.035267,24.7992371 C191.502037,24.7992371 189.471764,22.7184742 189.471764,19.5881058 C189.471764,16.4577373 191.502037,14.4497963 194.053715,14.4497963 Z M194.705228,16.6762029 C193.345886,16.6762029 192.063251,17.688912 192.063251,19.5890767 C192.063251,21.4892414 193.347828,22.5738015 194.705228,22.5738015 C196.098552,22.5738015 197.364681,21.5241959 197.364681,19.6240312 C197.364681,17.7238665 196.098552,16.6762029 194.705228,16.6762029 L194.705228,16.6762029 Z" id="Shape" fill="#F1F2F2"></path>
                    <path d="M209.415241,19.1006849 C209.415241,17.4898656 208.528756,16.6218292 207.189805,16.6218292 C205.814928,16.6218292 204.928444,17.4898656 204.928444,19.1006849 L204.928444,24.6351452 L202.395215,24.6351452 L202.395215,14.6119463 L204.928444,14.6119463 L204.928444,15.8605982 C205.579957,15.010039 206.665488,14.4672735 207.950065,14.4672735 C210.280364,14.4672735 211.94847,15.9868227 211.94847,18.7559948 L211.94847,24.6361162 L209.415241,24.6361162 L209.415241,19.1006849 Z" id="Path" fill="#F1F2F2"></path>
                    <polygon id="Path" fill="#F1F2F2" points="221.249276 14.6119463 223.943684 14.6119463 217.737321 29.3773039 215.041942 29.3773039 217.213004 24.3826961 213.197122 14.6119463 216.038145 14.6119463 218.625748 21.614495"></polygon>
                    <path d="M8.52209796,22.2310533 L3.49253576,22.2310533 L2.66236671,24.6370871 L0.00291287386,24.6370871 L4.54117035,11.9903598 L7.49094062,11.9903598 L12.0330819,24.6370871 L9.35517989,24.6370871 L8.52209796,22.2310533 Z M6.00731686,14.9207109 L4.17997399,20.2046641 L7.83465973,20.2046641 L6.00731686,14.9207109 Z" id="Shape" fill="#F1F2F2"></path>
                </g>
            </g>
        </g>
    </g>
</svg>