<svg xmlns="http://www.w3.org/2000/svg" xmlns:xlink="http://www.w3.org/1999/xlink" width="191" height="213" viewBox="0 0 191 213">
    <defs>
        <path id="m2ktz2xhxa" d="M0 0.302L190.809 0.302 190.809 173.163 0 173.163z"/>
    </defs>
    <g fill="none" fill-rule="evenodd">
        <g>
            <g>
                <g>
                    <g transform="translate(-726 -223) translate(408 198) translate(318 25) translate(0 39)">
                        <mask id="oz4fl0j2wb" fill="#fff">
                            <use xlink:href="#m2ktz2xhxa"/>
                        </mask>
                        <path fill="#F8D7D7" d="M190.77 133.57l-.052.202v.01c-.049.175-.089.35-.128.53l-.013.058c-.035.167-.07.334-.101.505-.005.009-.005.023-.01.036-.034.18-.065.36-.091.54-.123.783-.207 1.583-.264 2.392-.013.171-.026.342-.03.514-.049.77-.075 1.547-.098 2.334-.017.822-.03 1.648-.057 2.475-.039 1.525-.123 3.042-.33 4.51-1.73 12.074-12.4 11.516-21.181 14.844-4.535 1.714-6.469 3.864-8.956 7.965-.391.646-.699 1.328-.94 2.04-.216.628-.994.848-1.499.408-2.887-2.518-5.775-5.032-8.635-7.564-9.642-8.541-18.971-21.526-30.41-27.505-4.8-2.505-10.662-1.327-16.124-2.065-13.28-1.803-22.233-10.475-33.874-16.089-5.084-2.448-10.727-4.004-15.42-7.213-2.154-1.473-3.902-3.336-5.594-5.275-.506-.58-1.002-1.165-1.508-1.75-.246-.285-.492-.57-.743-.856-.254-.295-.514-.585-.777-.87 0-.005 0-.005-.005-.005-.171-.19-.347-.378-.518-.563-.15-.163-.304-.32-.457-.479-.233-.242-.466-.475-.703-.703-.242-.238-.488-.47-.739-.695-.343-.312-.681-.637-1.006-.962-.765-.774-1.464-1.605-2.057-2.48-.171-.25-.33-.505-.483-.76-.15-.26-.294-.523-.426-.787-.132-.268-.255-.54-.365-.813-.945-2.351-1.05-4.976.294-7.82l.576-.409c.224-.022.457-.048.686-.07-.053-.145-.119-.286-.18-.422-.084-.158-.168-.303-.251-.453 0 0-.005.005-.005-.004-.079-.124-.158-.242-.25-.356-.106-.154-.224-.303-.347-.449-1.688-1.986-4.395-3.261-4.817-6.272v-.005c-.017-.1-.03-.206-.04-.312-.22-2.597 1.587-7.82 4.944-6.712-.237-.255-.478-.492-.72-.725l-.004-.005c-.203-.193-.413-.382-.616-.563-1.74-1.538-3.502-2.751-4.43-4.83-.276-1.178-.36-2.554-.254-3.97.114-1.569.465-3.186 1.041-4.602 0-.004.004-.008.004-.008.132-.252.273-.506.418-.752.281-.475.58-.945.888-1.412.1-.153.207-.307.312-.46.044-.071.092-.142.14-.208 0-.004.005-.008.005-.008.37-.541.747-1.082 1.116-1.613-4.746-1.53-10.046-3.416-14.752-5.539C17.07 45.775 2.05 39.08.44 34.926c-.039-.096-.07-.193-.105-.29-.057-.167-.105-.33-.15-.488-.012-.04-.021-.074-.026-.11-.351-1.38-.11-2.386.576-3.094.158-.167.343-.317.545-.449 5.107-3.345 23.937 2.717 27.51 3.24 2.808.409 5.963.989 9.255 1.68 1.375.285 2.773.593 4.175.913 2.667.607 5.366 1.267 7.98 1.934 1.468.383 2.91.77 4.307 1.152 2.149.594 4.184 1.183 6.042 1.754 9.783 2.99 16.766 4.027 26.329 7.763.847.33 1.691.673 2.54 1.024 1.318.54 2.623 1.095 3.941 1.644 1.917.8 3.841 1.582 5.797 2.295.804.294 1.635.523 2.47.72.97-.034 1.894.049 2.781.23.888.184 1.745.47 2.567.83.751.202 1.397.519 1.977.884.528.343 1.01.738 1.472 1.151.11.14.224.286.348.435.821 1.016 1.876 2.114 2.97 2.813.11.07.216.132.326.194.092.053.184.101.276.145.203.097.405.18.602.237.062.022.123.04.185.053.027.01.053.018.08.018.052.013.1.022.149.03.013.005.026.01.043.01.062.008.128.017.19.021.28.022.557 0 .826-.074.1-.031.197-.066.294-.11.101-.044.198-.097.29-.159.07-.044.14-.096.206-.15 1.702-1.7 0-5.098-.202-7.612-.118-.695-.25-1.394-.4-2.084-.153-.695-.316-1.38-.5-2.07-.229-.906-.449-1.816-.664-2.726-.171-.716-.334-1.437-.497-2.158-.87-3.842-1.639-7.692-2.315-11.49-.176-1.038-.348-2.075-.506-3.121-1.099-7.315-1.459-14.844.66-22.005.47-1.587 1.182-3.235 2.161-4.594 1.117-1.538 2.58-2.698 4.443-2.967.396-.052.743-.057 1.055-.013 1.797.242 2.276 2.005 2.588 3.89.014.075.027.159.04.233.15.915.277 1.842.404 2.77.005.017.005.04.01.057.35 2.641.68 5.319 1.33 7.89.25.971.541 1.925.897 2.862.36.923.756 1.832 1.187 2.734.009.013.013.026.017.04 1.323 2.97 2.883 5.859 4.342 8.76 1.732 3.45 3.327 6.976 4.781 10.554l.106.268.303.787.088.21c2.145 5.553 4.008 11.21 5.55 16.964.005.005.005.009.005.013 2.267 8.998 2.715 18.374 5.08 27.293.053.202.105.404.162.602.725 2.638 1.609 5.214 2.633 7.745 1.023 2.532 2.188 5.003 3.476 7.425 1.222 2.18 2.544 4.272 3.955 6.286 1.59 2.228 3.335 4.263 5.199 6.153 1.872 1.895 3.871 3.636 6.016 5.218 2.224 1.398 4.491 2.752 6.772 4.106l2.491 1.468c.541.32 1.086.641 1.626.963 1.332.791 2.66 1.582 3.982 2.387.075.047.154.096.237.145.783.478 1.56.958 2.338 1.45 1.38.862 2.743 1.745 4.092 2.655.004.005.013.01.017.014l.158.104c.387.265.568.743.444 1.192" mask="url(#oz4fl0j2wb)"/>
                    </g>
                    <path fill="#EEB3D3" d="M33.273 95c.744-1.258 1.625-2.47 2.463-3.664-4.752-1.514-10.061-3.382-14.775-5.485-3.867-1.729-18.91-8.354-20.518-12.468-.85-2.179-.425-3.563.838-4.383 2.927 3.491 12.406 9.595 42.92 15.013C77.377 89.9 50.686 93.469 33.274 95M115.272 141H73.624c-24.763-4.23 26.901-33.596 40.45-41 1.11.712 2.262 1.005 3.25.365l1.638 30.531c.475 9.486-3.69 10.104-3.69 10.104" transform="translate(-726 -223) translate(408 198) translate(318 25)"/>
                    <path fill="#2E1D66" d="M109.575 138h-66.15C40.43 138 38 135.556 38 132.542V5.458C38 2.444 40.43 0 43.426 0h66.149C112.57 0 115 2.444 115 5.458v127.084c0 3.014-2.43 5.458-5.425 5.458" transform="translate(-726 -223) translate(408 198) translate(318 25)"/>
                    <path fill="#FFF" d="M42 129L111 129 111 12 42 12z" transform="translate(-726 -223) translate(408 198) translate(318 25)"/>
                    <path fill="#1F1440" d="M77.377 53.932c1.42-1.321 3.274-2.044 4.595-3.595 1.348-1.582 2.743-3.36 2.979-5.494.591-5.354-4.27-8.281-9.178-7.79-4.862.487-8.895 2.857-10.206 7.782-1.031 3.877-1.222 7.835-3.532 11.33-1.59 2.406-4.128 4.066-6.098 6.162-1.85 1.967-3.157 4.185-4.369 6.57-1.711 3.367-2.274 8.45-.399 11.852 1.24 2.251 2.947 4.156 5.07 5.575 1.838 1.23 3.688 3.09 5.898 3.559 4.963 1.054 8.477-5.263 10.538-8.841 2.119-3.677 4.625-8.513 4.418-12.88-.188-3.978-2.313-7.746-1.107-11.811.345-1.163 1.022-1.739 1.391-2.42" transform="translate(-726 -223) translate(408 198) translate(318 25)"/>
                    <path fill="#352364" d="M71.536 58.06c-4.654 3.427-8.378 9.784-9.369 15.724-.73 4.38.931 11.016 4.977 13.177.366.195.69-.392.322-.589-4.323-2.308-5.516-9.455-4.363-13.903 1.357-5.235 4.536-10.714 8.754-13.82.336-.248.018-.838-.321-.589" transform="translate(-726 -223) translate(408 198) translate(318 25)"/>
                    <path fill="#352364" d="M59.4 73.245c-1.579 6.996 1.67 13.11 7.133 16.704.347.228.663-.365.317-.593-5.217-3.433-8.355-9.231-6.845-15.929.097-.429-.509-.611-.606-.182" transform="translate(-726 -223) translate(408 198) translate(318 25)"/>
                    <path fill="#1F1440" d="M83.431 44.347c4.652-1.515 12.25 2.086 11.602 7.806-.559 4.921-4.854 9.365-1.453 14.212 1.539 2.194 4.276 3.732 5.117 6.41.84 2.674-.044 6.071-2.91 6.959-3.145.973-7.176-.94-10.032-2.241-2.65-1.208-5.372-3.601-6.24-6.496-1.021-3.407-.334-6.428.422-9.785.792-3.51 1.403-7.603 3.494-16.865" transform="translate(-726 -223) translate(408 198) translate(318 25)"/>
                    <path fill="#FFF" d="M76.526 73.428c-4.156 1.34-8.538 4.62-11.998 7.31-3.402 2.644-5.173 7.617-4.984 11.798.199 4.382-.262 8.738-.262 13.14 0 1.74-.196 3.39-.272 5.085-.068 1.526.172 1.284 1.485 1.467 1.12.157 2.24.358 3.388.412 11.225.531 22.523.57 33.667-.54 2.35-.233 4.361.204 6.592.408.79.073 5.215.04 5.71-.608.446-.583-.248-2.638-.345-3.345-.199-1.461-.447-2.803-.861-4.23-.78-2.688-1.469-5.34-2.215-8.02-2.707-9.718-9.698-22.26-20.988-23.23-1.715-.147-3.303-.104-8.917.353" transform="translate(-726 -223) translate(408 198) translate(318 25)"/>
                    <path fill="#38C0F2" d="M75.927 73.27s-2.807 7.716-1.646 38.629L92 112s-3.809-34.973-8.654-39.23c-4.845-4.256-7.419.5-7.419.5" transform="translate(-726 -223) translate(408 198) translate(318 25)"/>
                    <path fill="#FFADAE" d="M82.832 76.9c-1.028 3.19-4.929 2.216-6.238.557-1.737-2.196-.97-5.027-1.247-7.803-.16-1.577-.273-2.802-.322-3.742-.245-4.823 1.252-2.237 7.509-2.08-.755 1.664-.975 4.082-.608 6.08.008.077.025.158.04.235.384 1.849 1.441 4.963.866 6.752" transform="translate(-726 -223) translate(408 198) translate(318 25)"/>
                    <path fill="#2E1D66" d="M53.272 112c5.48 0 10.992-.279 16.032-2.454 1.935-.835 6.621-2.935 3.831-5.24-1.909-1.577-4.413-1.382-6.785-1.15-3.543.347-7.066.355-10.626.355-2.461 0-12.471-.322-12.722 3.894-.066 1.112 1.27 3.048 2.249 3.676 1.36.875 3.386.257 8.021.919" transform="translate(-726 -223) translate(408 198) translate(318 25)"/>
                    <path fill="#FF9395" d="M82.355 69.95c-4.007.431-6.207-2-7.329-4.022-.26-4.85 1.33-2.25 7.974-2.09-.801 1.672-1.035 4.103-.645 6.112" transform="translate(-726 -223) translate(408 198) translate(318 25)"/>
                    <path fill="#FFADAE" d="M88 54.1c.002.44-.006.903-.03 1.38.03 5.24-4.073 12.167-10.243 10.168-.515-.121-1.018-.286-1.498-.496-1.44-.628-2.665-1.656-3.396-3.108-.325-.465-.606-.96-.845-1.471-.383-.814-.661-1.667-.84-2.499-.222-1.038-.213-1.973.156-2.904.78-1.957 3.181-3.875 8.441-6.646 1.459-.77 3.136-1.606 5.064-2.524 1.263 2.264 2.484 3.784 2.967 6.01.142.631.219 1.315.224 2.09" transform="translate(-726 -223) translate(408 198) translate(318 25)"/>
                    <path fill="#D02683" d="M43 129L111 129 111 112 43 112z" transform="translate(-726 -223) translate(408 198) translate(318 25)"/>
                    <path fill="#BC2650" d="M79.542 129h-7.16c-.216-.086-.44-.167-.674-.24-1.392-.428-3.429-.274-4.838-.125-1.847.198-3.76.112-5.628.365h-6.7l-.128-.108c-1.12-.983-2.53-2.882-2.406-4.55.148-1.962 2.262-3.341 3.776-4.004 2.959-1.304 6.333-2.047 9.134-4.338 1.714.428 3.526 1.655 5.156 2.43 1.307.619 2.563 1.056 3.921 1.511 2.054.69 4.109 1.628 5.085 3.73.904 1.938 1.294 4.021.462 5.329" transform="translate(-726 -223) translate(408 198) translate(318 25)"/>
                    <path fill="#FFF" d="M102 120.5c0 3.59-2.91 6.5-6.5 6.5s-6.5-2.91-6.5-6.5 2.91-6.5 6.5-6.5 6.5 2.91 6.5 6.5" transform="translate(-726 -223) translate(408 198) translate(318 25)"/>
                    <path fill="#FF9395" d="M88 52.185c-.752-1.693-1.686-2.429-2.687.054-1.96 4.875-9.667 7.848-12.37 8.761-.366-.838-.631-1.716-.801-2.571-.213-1.07-.204-2.032.148-2.99l5.634-2.857 2.416-3.984c1.392-.793 2.991-1.653 4.83-2.598 1.204 2.33 2.37 3.895 2.83 6.185" transform="translate(-726 -223) translate(408 198) translate(318 25)"/>
                    <path fill="#1F1440" d="M69.724 68c-1.758-3.117 1.04-8.034 3.662-9.892 1.586-1.125 3.556-1.631 5.171-2.689 1.69-1.106 3.424-2.394 4.847-3.838 2.047-2.076 3.929-7.057 1.326-9.568-3.12-3.01-8.8 1.436-11.108 3.614-2.069 1.953-3.9 4.383-4.994 7.023-1.145 2.763-.693 5.283 1.096 15.35" transform="translate(-726 -223) translate(408 198) translate(318 25)"/>
                    <path fill="#352364" d="M76.337 40.657c2.234-.233 5.17.247 6.461 1.996 1.171 1.587.064 3.487-.937 4.9-.236.332.377.635.612.303 1.15-1.624 2.234-3.708.938-5.506-1.397-1.937-4.598-2.552-7.074-2.294-.447.046-.452.648 0 .601" transform="translate(-726 -223) translate(408 198) translate(318 25)"/>
                    <path fill="#FFF" d="M84 120.5c0 3.59-2.91 6.5-6.5 6.5s-6.5-2.91-6.5-6.5 2.91-6.5 6.5-6.5 6.5 2.91 6.5 6.5" transform="translate(-726 -223) translate(408 198) translate(318 25)"/>
                    <path fill="#F8D7D7" d="M73 104.81c-.27.107-.538.215-.807.317-2.606 1.009-5.195 1.754-7.788 2.312-2.152.464-4.309.804-6.487 1.062-3.559.42-7.18.617-10.937.8-.322.013-.649.03-.975.044-.705.031-1.402.107-2.086.192-.467.058-.926.12-1.38.183-1.473.196-2.875.366-4.19.232-.335-.036-.661-.09-.983-.17-.366-.089-.728-.214-1.08-.374-1.182-.536-2.272-1.51-3.255-3.174-.318-.54-.565-1.196-.732-1.932-.278-1.197-.362-2.594-.256-4.031.115-1.594.468-3.237 1.045-4.673 0-.005.005-.01.005-.01.45-1.124 1.036-2.12 1.764-2.874 0-.004.004-.009.004-.009.256-.268.53-.504.82-.705.724.334 1.654.49 2.668.589 1.354.12 2.854.13 4.19.299.446.054.873.125 1.27.223.52.13 1.102.259 1.733.389 3.48.718 8.304 1.455 11.197 2.222.005 0 .014 0 .018.005 2.266.607 6.002 1.433 9.332 2.816 2.98 1.241 5.64 2.928 6.636 5.298.018.04.036.085.049.125.106.273.181.554.225.844" transform="translate(-726 -223) translate(408 198) translate(318 25)"/>
                    <path fill="#F8D7D7" d="M76.167 130.338c-.077.08-.157.161-.246.242-1.996 1.804-16.012-2.768-19.391-3.073-6.458-.586-14.385-.297-19.82-4.143-3.303-2.335-4.662-4.636-4.708-6.834-.064-2.674 1.817-5.192 4.492-7.424 10.945-.437 18.562.382 26.018 4.266 3.219 1.68 18.138 12.106 13.655 16.966" transform="translate(-726 -223) translate(408 198) translate(318 25)"/>
                    <path fill="#EEB3D3" d="M62.346 147.775c-4.634-.037-9.315-.308-13.795-1.547-.414-.104-.824-.216-1.229-.346-.162-.05-.324-.104-.482-.162-1.763-1.98-3.46-4.035-5.47-5.808-1.852-1.634-3.47-3.544-4.357-5.694-.15-2.289.977-4.353 3.9-6.054.913-.53 4.331.38 5.41.522 1.635.212 3.26.479 4.874.82 2.812.593 5.59 1.397 8.218 2.543 2.466 1.072 4.672 2.598 6.972 3.961 2.364 1.397 4.869 2.66 6.789 4.648.78.806 1.464 1.748 1.707 2.827 1.349 5.954-9.34 4.315-12.537 4.29" transform="translate(-726 -223) translate(408 198) translate(318 25)"/>
                    <path fill="#F8D7D7" d="M36.914 124.164c-5.397 3.135-4.665 7.516-1.116 12.253 2.217 2.96 4.702 4.566 7.524 5.466.403.128.813.243 1.23.344 4.479 1.238 9.159 1.511 13.791 1.549 3.198.025 13.889 1.66 12.54-4.29-.245-1.082-.927-2.024-1.706-2.83-1.922-1.985-4.428-3.248-6.792-4.648-2.3-1.361-4.503-2.885-6.97-3.959-2.631-1.145-5.409-1.95-8.22-2.543-1.613-.34-3.24-.607-4.874-.82-1.079-.142-4.496-1.051-5.407-.522" transform="translate(-726 -223) translate(408 198) translate(318 25)"/>
                    <path fill="#3863FF" d="M79 6c0 1.105-.895 2-2 2-1.104 0-2-.895-2-2s.896-2 2-2c1.105 0 2 .895 2 2" transform="translate(-726 -223) translate(408 198) translate(318 25)"/>
                    <path fill="#EEB3D3" d="M168.791 157.879c7.08 4.438 14.59 8.476 21.593 13.193.496.335.72.946.57 1.524-.748 2.915-.695 6.175-.791 9.404-1.649-1.077-3.315-2.103-4.972-3.111-1.95-1.184-3.897-2.367-5.848-3.546-2.433-1.468-5.806-2.12-8.443-3.256-2.829-1.217-5.606-2.554-8.315-4.026-5.159-2.81-10.083-6.117-14.44-10.067-8.265-7.483-14.139-17.333-15.187-28.561-.66-7.032 1.64-13.625 2.152-20.559 1.418-19.218-8.247-36.18-14.416-53.746-1.836-5.219-2.607-11.203-.097-16.128 1.247.03 1.934 1.443 2.231 2.651.115.465.214.933.299 1.406.17.919.294 1.842.404 2.77.004.022.004.043.009.06.213 1.788.379 3.584.72 5.346.166.864.375 1.715.617 2.558.55 1.916 1.274 3.775 2.088 5.606.008.013.012.025.017.038 1.324 2.976 2.892 5.87 4.353 8.777 1.738 3.456 3.336 6.985 4.792 10.569.04.09.073.179.107.268 2.232 5.52 4.132 11.178 5.683 16.924.097.358.187.71.277 1.068.003.005.003.009.003.013 2.275 9.015 2.723 18.405 5.095 27.34.051.204.107.404.162.604.729 2.639 1.615 5.222 2.641 7.755 1.027 2.537 2.194 5.014 3.485 7.44 1.222 2.184 2.552 4.278 3.966 6.295 1.593 2.23 3.343 4.27 5.213 6.164 1.875 1.898 3.881 3.64 6.032 5.227M76 130.36c-.076.077-.157.156-.245.234-1.989 1.745-15.952-2.678-19.319-2.974-6.434-.567-14.33-.287-19.745-4.008C33.4 121.353 32.047 119.127 32 117c2.115 1.766 5.947 3.614 12.508 3.04 10.486-.92 27.545 5.198 31.492 10.32M73 105.199c-.27.1-.538.199-.807.294-2.606.932-5.195 1.622-7.788 2.138-2.152.43-4.309.743-6.487.983-3.559.388-7.18.57-10.937.739-.322.012-.649.029-.975.041-.705.03-1.402.1-2.086.178-.467.054-.926.111-1.38.17-1.473.18-2.875.338-4.19.214-.335-.033-.661-.083-.983-.157-.366-.083-.728-.199-1.08-.347-1.182-.495-2.272-1.396-3.255-2.936-.318-.5-.565-1.106-.732-1.787-.278-1.107-.362-2.4-.256-3.729 1.509 1.036 3.594 2.13 6.306 2.828 1.257.322 2.655.558 4.19.661 3.06.206 6.681-.111 10.897-1.321 1.861-.533 3.594-.897 5.2-1.12 6.359-.887 10.778.418 13.657 2.007l.005.005c.146.078.286.16.427.243.018.037.036.078.049.116.106.252.181.512.225.78" transform="translate(-726 -223) translate(408 198) translate(318 25)"/>
                    <path fill="#FFF" d="M57.665 108.989c2.785-.493 5.573-.915 8.376-1.295 1.49-.201 3.002-.412 4.425-.913 2.917-1.025 3.393-3.065 1.025-5.144-3.541-3.11-7.995-5.397-12.708-6.095-5.212-.772-10.55-.973-15.463 1.132-.72.309-.098 1.346.618 1.039 4.252-1.821 8.75-1.654 13.262-1.154 4.505.5 8.413 2.176 12.022 4.841 1.1.812 3.856 2.6 1.845 3.818-1.035.627-2.429.851-3.605 1.058-3.36.592-6.76.957-10.122 1.553-.775.137-.447 1.297.325 1.16M32.208 122.538c8.752 6.981 21.052 3.005 30.734 7.095 2.407 1.018 4.818 1.888 7.43 2.2 1.69.203 4.358.493 5.616-.987 3.3-3.888-2.308-8.52-4.874-10.694-.59-.5-1.45.352-.854.857 1.807 1.53 4.105 3.232 5.071 5.47.35.813.495 1.999.135 2.84-.65 1.518-2.346 1.47-3.78 1.413-4.873-.192-8.944-3.043-13.708-3.671-4.152-.548-8.339-.721-12.494-1.236-4.285-.532-8.956-1.378-12.422-4.143-.602-.48-1.462.37-.854.856" transform="translate(-726 -223) translate(408 198) translate(318 25)"/>
                    <path fill="#EEB3D3" d="M59.655 141.744c-1.02-.416-2.228-1.193-2.49-2.487-.246-1.212.382-2.2 1.333-2.645 1.366-.638 3.366-.367 4.519.695.554.51 1.352-.377.793-.891-1.73-1.592-4.917-2.031-6.715-.326-.985.933-1.351 2.493-.91 3.857.5 1.548 1.864 2.48 3.173 3.012.679.278.972-.94.297-1.215M66.77 125.866c-.591-.663-2.372-3.2-.702-3.502 1.21-.22 2.878.48 3.76 1.25.643.564 1.604-.354.958-.918-1.325-1.157-4.088-2.3-5.808-1.332-2.133 1.202-.274 4.178.834 5.421.567.637 1.522-.286.958-.919M62.287 102.761c-1.192.243-2.426-.795-2.935-1.888-.743-1.592.739-1.74 1.897-1.594.726.092.72-1.13 0-1.221-.948-.12-2.15-.127-2.837.72-.53.654-.492 1.561-.207 2.324.676 1.812 2.544 3.21 4.385 2.837.718-.146.414-1.323-.303-1.178M94.58 140.221c5.883-.42 11.628 1.716 17.035 3.687 3.091 1.126 6.323 2.205 9.096 3.98 2.531 1.621 4.574 3.816 7.368 5.054.7.309 1.314-.696.609-1.008-2.981-1.32-5.136-3.754-7.905-5.387-2.745-1.617-5.853-2.672-8.847-3.764-5.504-2.006-11.368-4.157-17.357-3.728-.769.055-.775 1.222 0 1.166" transform="translate(-726 -223) translate(408 198) translate(318 25)"/>
                    <path fill="#3853CC" d="M81.7 119.144l-1.434.361c-.154.04-.3-.094-.3-.273v-.952c0-.154-.11-.28-.247-.28h-5.473c-.136 0-.246.126-.246.28v4.44c0 .155.11.28.246.28h5.473c.137 0 .247-.125.247-.28v-1.027c0-.184.153-.318.309-.272l1.417.42c.156.046.308-.088.308-.272v-2.151c0-.18-.146-.313-.3-.274" transform="translate(-726 -223) translate(408 198) translate(318 25)"/>
                    <path fill="#D02683" d="M93.185 118.429l2.658 4.168c.718 1.127 2.02 1.687 3.21 1.26.081-.03.165-.064.249-.103 1.19-.555.595-1.591.144-2.15-.19-.238-.502-.306-.765-.174l-.685.342c-.218.11-.477.033-.617-.182l-1.763-2.714c-.16-.248-.11-.591.115-.77l.332-.264c.316-.252.374-.753.11-1.07-.47-.57-1.328-1.193-2.518-.387-.121.083-.22.199-.3.329-.25.414-.56.687-.17 1.715" transform="translate(-726 -223) translate(408 198) translate(318 25)"/>
                    <path fill="#38C0F2" d="M83.091 73.53c1.415 1.413 2.542 3.04 4.041 4.383 1.467 1.315 2.956 2.598 4.348 3.997.279.28.709-.159.43-.44-1.392-1.4-2.881-2.683-4.348-3.997-1.5-1.342-2.626-2.97-4.041-4.383-.28-.28-.71.16-.43.44" transform="translate(-726 -223) translate(408 198) translate(318 25)"/>
                    <path fill="#38C0F2" d="M91.232 82.126c-.72.805-1.221 1.69-2.138 2.423-.321.257.259.622.584.361.966-.772 1.508-1.678 2.267-2.525.258-.29-.455-.547-.713-.259M90.071 85.478c1.228 1.39 2.98 2.253 4.41 3.448.284.237.71-.147.425-.385-1.43-1.195-3.182-2.058-4.41-3.448-.241-.273-.665.114-.425.385M95.4 88.16c-.573 1.212-.828 2.483-1.182 3.759-.475 1.707-1.189 3.336-1.81 4.999-.577 1.542-1.188 3.08-1.725 4.635-.573 1.66-.846 3.391-1.648 4.98-.18.355.388.666.568.31 1.325-2.623 1.925-5.685 2.948-8.43.586-1.569 1.227-3.124 1.786-4.701.612-1.728.842-3.573 1.632-5.243.17-.357-.398-.67-.569-.31M74.456 74.133c-.623.927-1.023 2.046-1.533 3.045-.924 1.812-1.975 3.546-2.887 5.365-.172.344.319.65.491.306.913-1.82 1.96-3.556 2.887-5.366.513-.999.91-2.117 1.534-3.045.213-.317-.28-.62-.492-.305" transform="translate(-726 -223) translate(408 198) translate(318 25)"/>
                    <path fill="#38C0F2" d="M70.008 82.395c.254 1.226 1.141 2.16 1.404 3.378.085.397.665.23.58-.168-.264-1.222-1.151-2.157-1.404-3.378-.083-.398-.663-.23-.58.168" transform="translate(-726 -223) translate(408 198) translate(318 25)"/>
                    <path fill="#38C0F2" d="M71.59 86.047c-1.05.668-1.689 1.669-2.518 2.52-.236.242.164.594.401.35.791-.81 1.403-1.806 2.404-2.442.293-.186.01-.617-.287-.428" transform="translate(-726 -223) translate(408 198) translate(318 25)"/>
                    <path fill="#FFF" d="M95.032 94.356c.332.588.386 1.3.554 1.918.13.48.193 1.277.71 1.64.38.268.96-.153.58-.42-.419-.296-.473-1.276-.577-1.672-.138-.526-.194-1.126-.476-1.624-.197-.35-.992-.197-.79.158" transform="translate(-726 -223) translate(408 198) translate(318 25)"/>
                    <path fill="#38C0F2" d="M96.564 93.204c-1.104 2.792-.327 5.236.142 8.119.55 3.39 1.589 6.954 1.682 10.384.01.39.622.391.612 0-.074-2.73-.842-5.538-1.31-8.226-.572-3.271-1.792-6.941-.537-10.116.144-.364-.447-.522-.59-.161" transform="translate(-726 -223) translate(408 198) translate(318 25)"/>
                    <path fill="#FFF" d="M83.001 73.295c.248 3.255 1.401 6.55 2.097 9.743.744 3.418 1.653 6.786 2.22 10.24.553 3.362 1.258 6.639 2.255 9.903.52 1.702 1.123 3.383 1.59 5.1.184.681.306 1.378.563 2.036.254.653.603.427.649 1.387.018.393.643.396.625 0-.05-1.033-.708-1.854-1.035-2.825-.57-1.692-1.036-3.443-1.568-5.148-.975-3.125-1.757-6.261-2.291-9.488-.55-3.319-1.325-6.55-2.065-9.83-.406-1.794-.75-3.603-1.16-5.396-.438-1.91-1.105-3.756-1.255-5.722-.03-.392-.655-.395-.625 0M75.314 74.223c-.524 2.501-.093 5.104-.31 7.638-.276 3.223-.208 6.449-.286 9.678-.162 6.571.015 13.654-1.707 20.076-.104.386.575.552.679.164 1.608-6 1.476-12.495 1.684-18.63.106-3.133.03-6.27.202-9.4.078-1.427.284-2.851.292-4.278.01-1.716-.232-3.377.125-5.084.082-.388-.597-.555-.679-.164M79.25 61l4.53.262c.157.01.26.155.205.292-.286.703-1.147 2.515-2.427 2.444-1.503-.083-2.63-1.555-2.554-2.804.006-.116.121-.2.246-.194" transform="translate(-726 -223) translate(408 198) translate(318 25)"/>
                    <path fill="#5652E8" d="M90.393 19H49.607c-.335 0-.607-.224-.607-.5s.272-.5.607-.5h40.786c.335 0 .607.224.607.5s-.272.5-.607.5M85.608 24H63.392c-.216 0-.392-.224-.392-.5s.176-.5.392-.5h22.216c.217 0 .392.224.392.5s-.175.5-.392.5M59.6 24h-7.2c-.221 0-.4-.224-.4-.5s.179-.5.4-.5h7.2c.221 0 .4.224.4.5s-.179.5-.4.5M100 25L103 25 103 16 100 16z" transform="translate(-726 -223) translate(408 198) translate(318 25)"/>
                    <path fill="#5652E8" d="M96 22L105 22 105 19 96 19z" transform="translate(-726 -223) translate(408 198) translate(318 25)"/>
                    <path fill="#38C0F2" d="M65 95L72 95 72 92 65 92z" transform="translate(-726 -223) translate(408 198) translate(318 25)"/>
                </g>
            </g>
        </g>
    </g>
</svg>
