<svg xmlns="http://www.w3.org/2000/svg" xmlns:xlink="http://www.w3.org/1999/xlink" width="94" height="80" viewBox="0 0 94 80">
    <defs>
        <path id="dtunugbdka" d="M0 0.252L94 0.252 94 76.232 0 76.232z"/>
        <path id="aw5tbdf8rc" d="M0 0.001L63.981 0.001 63.981 64.408 0 64.408z"/>
    </defs>
    <g fill="none" fill-rule="evenodd">
        <g>
            <g>
                <g>
                    <g opacity=".493" transform="translate(-650 -1001) translate(364 950) translate(286 51) translate(0 2.238)">
                        <mask id="9wpumxjbib" fill="#fff">
                            <use xlink:href="#dtunugbdka"/>
                        </mask>
                        <path fill="#F2C66D" d="M49.888.29s27.678-2.103 39.439 24.642c11.76 26.745 1.914 48.382-36.276 51.086C14.86 78.723-5.13 55.283 1.135 35.75 7.401 16.217 25.84 3.296 49.888.29" mask="url(#9wpumxjbib)"/>
                    </g>
                    <g>
                        <path fill="#FFF" d="M0.028 47.523L48.247 0.384 64.528 65.798z" transform="translate(-650 -1001) translate(364 950) translate(286 51) rotate(-1 95.394 -566.392)"/>
                        <g>
                            <g transform="translate(-650 -1001) translate(364 950) translate(286 51) rotate(-1 95.394 -566.392) translate(.028 .887) translate(.239)">
                                <mask id="fd9nlvo7nd" fill="#fff">
                                    <use xlink:href="#aw5tbdf8rc"/>
                                </mask>
                                <path fill="#A596A6" d="M3.984 45.148L60.75 61.115 46.422 3.962 3.984 45.148zm58.645 19.26c-.121 0-.244-.017-.364-.05L.987 47.121C.52 46.99.16 46.619.04 46.149c-.118-.471.023-.97.37-1.308L46.224.382c.346-.336.846-.462 1.31-.33.464.134.822.505.94.974L63.94 62.721c.118.469-.022.965-.368 1.302-.256.25-.595.385-.943.385z" mask="url(#fd9nlvo7nd)"/>
                            </g>
                            <path fill="#FF6F61" d="M34.18 49.418c-1.08-.332-1.691-1.49-1.364-2.588l.036-.12c.327-1.097 1.469-1.717 2.55-1.385 1.081.332 1.692 1.49 1.365 2.588l-.036.12c-.327 1.097-1.47 1.717-2.55 1.385m2.424-8.173c-.812-.25-1.286-1.104-1.076-1.937l5.542-21.975c.36-1.431 1.825-2.268 3.218-1.84 1.393.428 2.154 1.948 1.671 3.342l-7.4 21.403c-.282.813-1.143 1.256-1.955 1.007" transform="translate(-650 -1001) translate(364 950) translate(286 51) rotate(-1 95.394 -566.392) translate(.028 .887)"/>
                            <path fill="#FF6F61" d="M36.829 40.435c.37.113.762-.087.89-.456l7.483-21.495c.155-.447.124-.925-.088-1.347-.213-.422-.577-.73-1.027-.867-.45-.137-.922-.085-1.33.148-.41.232-.7.612-.816 1.07l-5.602 22.07c-.097.378.119.764.49.877m.213 1.807c-.24 0-.482-.035-.723-.11-1.276-.388-2.016-1.713-1.686-3.014l5.603-22.069c.237-.932.825-1.705 1.656-2.177s1.792-.579 2.705-.3c.914.279 1.654.904 2.086 1.762.432.858.496 1.83.18 2.737L39.38 40.567c-.358 1.028-1.31 1.675-2.338 1.675m-2.286 3.937c-.193 0-.384.047-.558.142-.28.15-.485.402-.577.708l-.036.12c-.092.307-.06.631.09.913.15.282.399.488.702.58.627.191 1.291-.166 1.481-.798l.037-.121c.092-.306.06-.63-.09-.912-.15-.282-.4-.488-.703-.58-.114-.035-.23-.052-.346-.052m-.036 4.29c-.282 0-.569-.041-.853-.128-.753-.23-1.373-.742-1.745-1.442-.371-.7-.45-1.503-.222-2.263l.036-.12c.229-.76.737-1.385 1.43-1.76.695-.374 1.493-.454 2.246-.224.754.23 1.373.742 1.745 1.442.372.7.45 1.504.222 2.263l-.036.121c-.385 1.282-1.558 2.11-2.823 2.11" transform="translate(-650 -1001) translate(364 950) translate(286 51) rotate(-1 95.394 -566.392) translate(.028 .887)"/>
                        </g>
                    </g>
                </g>
            </g>
        </g>
    </g>
</svg>
