<svg xmlns="http://www.w3.org/2000/svg" xmlns:xlink="http://www.w3.org/1999/xlink" width="72" height="72" viewBox="0 0 72 72">
    <defs>
        <rect id="6cegkx4a5a" width="71.431" height="70" x=".284" y="0" rx="4"/>
    </defs>
    <g fill="none" fill-rule="evenodd">
        <g>
            <g>
                <g>
                    <g transform="translate(-1241 -78) translate(992 50) translate(253 31) translate(-4 -3)">
                        <mask id="g17tsjo6qb" fill="#fff">
                            <use xlink:href="#6cegkx4a5a"/>
                        </mask>
                        <use fill="#888C8F" xlink:href="#6cegkx4a5a"/>
                        <path fill="#F3F5F7" fill-rule="nonzero" d="M12.832 69.46c13.466 10.189 32.09 10.25 45.623.148-.084-.045-.166-.088-.25-.13l-12.577-6.259c-2.135-1.052-3.482-3.221-3.473-5.591v-4.912c0-.359.13-.705.368-.975.388-.449.753-.917 1.094-1.403 1.61-2.277 2.86-4.786 3.708-7.44.148-.458.513-.816.976-.958 1.03-.315 1.74-1.256 1.754-2.329v-5.24c-.003-.694-.304-1.352-.827-1.808-.312-.28-.49-.68-.49-1.098v-7.578c0-.065.004-.13.012-.193.174-2.349-.58-4.672-2.099-6.477C44.5 14.799 40.83 13.57 35.74 13.57c-5.11 0-8.79 1.238-10.938 3.676-1.516 1.794-2.26 4.11-2.073 6.447.009.064.013.128.013.193v7.578c0 .419-.178.817-.49 1.098-.524.456-.825 1.114-.827 1.807v5.241c.003.835.433 1.61 1.142 2.057.324.21.554.536.64.911.828 3.34 2.346 6.47 4.459 9.19.221.267.343.601.344.947v4.79c0 2.288-1.256 4.394-3.276 5.49L12.988 69.37l-.156.088z" mask="url(#g17tsjo6qb)"/>
                    </g>
                </g>
            </g>
        </g>
    </g>
</svg>
