<svg xmlns="http://www.w3.org/2000/svg" width="488" height="931" viewBox="0 0 688 1131">
    <path fill="#EDF0F4" fill-rule="evenodd" d="M421.222.027c-103.94.241-181.76 43.566-232.702 128.012-5.236 8.665-10.503 17.3-15.134 26.84-52.243 106.999-103.73 214.33-155.246 321.66-35.353 85.835-10.654 165.57 3.905 200.049 50.245 104.613 100.43 209.227 151.34 313.539 4.632 9.54 9.899 18.175 15.135 26.84 50.941 84.415 128.761 127.77 232.702 128.012 24.608.06 49.247-.03 73.885 0 91.591-.423 160.512-54.858 184.06-128.012 14.166-43.929 11.957-94.59-11.47-144.346-38.653-82.03-78.062-163.698-118.138-245.034-1.664-3.411-3.692-6.25-5.448-9.51l.424-.151s-30.632-43.053 0-90.846c.03-.332-.09-.453-.09-.755 1.634-3.05 3.54-5.736 5.114-8.907 40.076-81.335 79.485-163.003 118.137-245.034 23.428-49.755 25.637-100.417 11.472-144.345C655.619 54.855 586.698.449 495.107.027c-24.638 0-49.277-.06-73.885 0"/>
</svg>
