<svg xmlns="http://www.w3.org/2000/svg" width="24" height="24" viewBox="0 0 24 24">
    <g fill="none" fill-rule="evenodd" transform="translate(0 -2)">
        <path fill="#d02683" fill-rule="nonzero" d="M12.5 24.5c-.828 0-1.5-.674-1.5-1.501H9.5c0 1.655 1.346 3.001 3 3.001s3-1.346 3-3.001H14c0 .827-.672 1.501-1.5 1.501zm9.815-6.806c-1.31-1.248-2.313-2.554-2.313-6.98 0-3.73-2.972-6.773-6.752-7.141V2.75c0-.414-.336-.75-.75-.75s-.75.336-.75.75v.823c-3.78.368-6.752 3.41-6.752 7.141 0 4.426-1.003 5.732-2.313 6.98-.655.624-.862 1.566-.528 2.402C2.5 20.949 3.32 21.5 4.25 21.5h16.5c.93 0 1.751-.552 2.093-1.405.334-.835.127-1.777-.528-2.4zM20.75 20H4.25c-.667 0-1-.772-.53-1.22 1.633-1.555 2.778-3.296 2.778-8.065C6.498 7.556 9.183 5 12.5 5c3.317 0 6.002 2.556 6.002 5.714 0 4.75 1.135 6.502 2.779 8.066.471.45.133 1.22-.531 1.22z"/>
    </g>
</svg>
