<svg xmlns="http://www.w3.org/2000/svg" width="24" height="24" viewBox="0 0 24 24">
    <defs>
        <filter id="i58tm9wfqa">
            <feColorMatrix in="SourceGraphic" values="0 0 0 0 0.556863 0 0 0 0 0.745098 0 0 0 0 0.733333 0 0 0 1.000000 0"/>
        </filter>
    </defs>
    <g fill="none" fill-rule="evenodd" filter="url(#i58tm9wfqa)" transform="translate(0 -4)">
        <path fill="#000" fill-rule="nonzero" d="M20.75 7H18.5V4.562c0-.309-.253-.562-.563-.562h-.375c-.309 0-.562.253-.562.563V7H8V4.562C8 4.253 7.747 4 7.437 4h-.375c-.309 0-.562.253-.562.563V7H4.25C3.008 7 2 8.008 2 9.25v16.5C2 26.992 3.008 28 4.25 28h16.5c1.242 0 2.25-1.008 2.25-2.25V9.25C23 8.008 21.992 7 20.75 7zM4.25 8.5h16.5c.413 0 .75.338.75.75v2.25h-18V9.25c0-.412.337-.75.75-.75zm16.5 18H4.25c-.413 0-.75-.337-.75-.75V13h18v12.75c0 .413-.337.75-.75.75zM8.937 19H7.063c-.31 0-.563-.253-.563-.563v-1.875c0-.309.253-.562.563-.562h1.875c.309 0 .562.253.562.563v1.875c0 .309-.253.562-.563.562zm4.5 0h-1.874c-.31 0-.563-.253-.563-.563v-1.875c0-.309.253-.562.563-.562h1.874c.31 0 .563.253.563.563v1.875c0 .309-.253.562-.563.562zm4.5 0h-1.875c-.309 0-.562-.253-.562-.563v-1.875c0-.309.253-.562.563-.562h1.875c.309 0 .562.253.562.563v1.875c0 .309-.253.562-.563.562zm-4.5 4.5h-1.874c-.31 0-.563-.253-.563-.563v-1.875c0-.309.253-.562.563-.562h1.874c.31 0 .563.253.563.563v1.875c0 .309-.253.562-.563.562zm-4.5 0H7.063c-.31 0-.563-.253-.563-.563v-1.875c0-.309.253-.562.563-.562h1.875c.309 0 .562.253.562.563v1.875c0 .309-.253.562-.563.562zm9 0h-1.875c-.309 0-.562-.253-.562-.563v-1.875c0-.309.253-.562.563-.562h1.875c.309 0 .562.253.562.563v1.875c0 .309-.253.562-.563.562z"/>
    </g>
</svg>
