<svg xmlns="http://www.w3.org/2000/svg" width="46" height="46" viewBox="0 0 46 46">
    <defs>
        <filter id="prefix__a-card-icon">
            <feColorMatrix in="SourceGraphic" values="0 0 0 0 1.000000 0 0 0 0 1.000000 0 0 0 0 1.000000 0 0 0 1.000000 0"/>
        </filter>
    </defs>
    <g fill="none" fill-rule="evenodd">
        <circle cx="23" cy="23" r="23" fill="#F2C66D"/>
        <g filter="url(#prefix__a-card-icon)">
            <path fill="#000" fill-rule="nonzero" d="M26 26h4.667c.183 0 .333-.15.333-.333V25c0-.183-.15-.333-.333-.333H26c-.183 0-.333.15-.333.333v.667c0 .183.15.333.333.333zm0-2.667h4.667c.183 0 .333-.15.333-.333v-.667c0-.183-.15-.333-.333-.333H26c-.183 0-.333.15-.333.333V23c0 .183.15.333.333.333zm0 5.334h4.667c.183 0 .333-.15.333-.334v-.666c0-.184-.15-.334-.333-.334H26c-.183 0-.333.15-.333.334v.666c0 .184.15.334.333.334zm-7-1.334c1.842 0 3.333-1.491 3.333-3.333S20.842 20.667 19 20.667 15.667 22.158 15.667 24s1.491 3.333 3.333 3.333zM19 22c1.104 0 2 .896 2 2s-.896 2-2 2-2-.896-2-2 .896-2 2-2zm13.333-8H13.667C12.196 14 11 15.196 11 16.667V30c0 1.47 1.196 2.667 2.667 2.667h18.666C33.804 32.667 35 31.47 35 30V16.667C35 15.196 33.804 14 32.333 14zm-10 17.333h-6.666v-.629c0-.291.087-.575.25-.817.233-.345.658-.55 1.137-.55.517 0 .867.292 1.95.292 1.08 0 1.43-.292 1.95-.292.48 0 .904.209 1.138.55.162.242.25.525.25.817v.63h-.009zM33.667 30c0 .733-.6 1.333-1.334 1.333h-8.666v-.629c0-.579-.175-1.117-.475-1.562C22.687 28.396 21.829 28 20.95 28c-.813 0-1.017.292-1.95.292S17.862 28 17.05 28c-.883 0-1.742.392-2.242 1.142-.3.446-.475.983-.475 1.562v.63h-.666c-.734 0-1.334-.6-1.334-1.334V19.333h21.334V30zm0-12H12.333v-1.333c0-.734.6-1.334 1.334-1.334h18.666c.734 0 1.334.6 1.334 1.334V18z"/>
        </g>
    </g>
</svg>
