<svg xmlns="http://www.w3.org/2000/svg" width="108" height="93" viewBox="0 0 108 93">
    <defs>
        <filter id="l9i3lw95wa">
            <feColorMatrix in="SourceGraphic" values="0 0 0 0 0.998379 0 0 0 0 0.547413 0 0 0 0 0.486339 0 0 0 1.000000 0"/>
        </filter>
    </defs>
    <g fill="none" fill-rule="evenodd">
        <path fill="#8EBEBB" d="M57.318 6.544s31.8-2.38 45.313 27.891c13.512 30.272 2.2 54.761-41.679 57.823-43.879 3.06-66.846-23.47-59.647-45.578C8.503 24.57 29.687 9.945 57.318 6.544" opacity=".465"/>
        <g filter="url(#l9i3lw95wa)">
            <path fill="#000" fill-rule="nonzero" d="M102.291 10.944L53.1 60.136 35.709 42.745c-.824-.823-2.158-.823-2.982 0l-1.987 1.987c-.823.824-.823 2.158 0 2.982l20.869 20.869c.823.823 2.158.823 2.981 0l52.67-52.67c.823-.823.823-2.158 0-2.981l-1.987-1.988c-.824-.823-2.158-.823-2.982 0z"/>
        </g>
    </g>
</svg>
