<svg xmlns="http://www.w3.org/2000/svg" width="24" height="24" viewBox="0 0 24 24">
    <defs>
        <filter id="prefix__a-clock">
            <feColorMatrix in="SourceGraphic" values="0 0 0 0 0.998379 0 0 0 0 0.547413 0 0 0 0 0.486339 0 0 0 1.000000 0"/>
        </filter>
    </defs>
    <g fill="none" fill-rule="evenodd" transform="translate(-18 -137)">
        <path fill="#d02683" fill-rule="nonzero" d="M30 137c-6.629 0-12 5.371-12 12s5.371 12 12 12 12-5.371 12-12-5.371-12-12-12zm10.452 12c0 5.744-4.65 10.452-10.452 10.452-5.744 0-10.452-4.65-10.452-10.452 0-5.744 4.65-10.452 10.452-10.452 5.744 0 10.452 4.65 10.452 10.452zm-7.205 4.273l-3.93-2.855c-.15-.112-.236-.286-.236-.47v-7.722c0-.32.26-.58.58-.58h.678c.32 0 .58.26.58.58v7.079l3.412 2.482c.26.189.314.552.125.813l-.396.547c-.189.256-.552.314-.813.126z"/>
    </g>
</svg>
