<svg xmlns="http://www.w3.org/2000/svg" width="126" height="126" viewBox="0 0 126 126">
    <defs>
        <filter id="prefix__a">
            <feColorMatrix in="SourceGraphic" values="0 0 0 0 0.999063 0 0 0 0 0.434148 0 0 0 0 0.382140 0 0 0 1.000000 0"/>
        </filter>
    </defs>
    <g fill="none" fill-rule="evenodd">
        <circle cx="63" cy="63" r="63" fill="#DCEBEA"/>
        <path fill="#FFF" d="M39.864 77.013c-2.661-1.993-3.991-6.656-3.991-13.989 0-10.998-.191-11.992 3.99-11.992 4.183 0 4.142-13.986 8.983-13.986 4.84 0 11.971-4.604 12.969 0 .665 3.07 3.493 6.4 8.483 9.992v8.968c0 2.88.665 5.218 1.995 7.018h12.472l2.992 5.746L91 75.514l-3.243 3.996-2.992 4.247L82.518 91H57.324l-8.478-2.997c-2.918 2.831-6.578 2.831-10.979 0-4.4-2.83-3.735-6.494 1.997-10.99z"/>
        <g filter="url(#prefix__a)">
            <path fill="#000" fill-rule="nonzero" d="M78.69 51.988c0 4.195 3.401 7.596 7.596 7.596s7.595-3.4 7.595-7.596c0-4.194-3.4-7.595-7.595-7.595-4.193.004-7.591 3.402-7.595 7.595zm11.394 0c0 2.098-1.7 3.798-3.798 3.798-2.097 0-3.798-1.7-3.798-3.798 0-2.097 1.7-3.797 3.798-3.797 2.097 0 3.798 1.7 3.798 3.797zm-9.495-7.595c3.147 0 5.697-2.55 5.697-5.697 0-3.146-2.55-5.696-5.697-5.696-3.146 0-5.696 2.55-5.696 5.696.003 3.145 2.552 5.694 5.696 5.697zm0-7.595c1.05 0 1.9.85 1.9 1.898 0 1.05-.85 1.9-1.9 1.9-1.048 0-1.898-.85-1.898-1.9 0-1.048.85-1.898 1.898-1.898zm9.877 31.805c.13-.757.122-1.53-.024-2.284-.565-2.938-3.207-5.074-6.267-5.074H73.936c.073-1.321-.272-2.633-.985-3.748l.291-.92 1.595-5.048c.558-1.766.31-3.688-.679-5.254-.989-1.566-2.618-2.617-4.452-2.872-.467-2.701-2.626-4.791-5.34-5.17-.475-2.76-2.713-4.874-5.494-5.191-.237-.028-.475-.042-.712-.042-1.67.014-3.265.689-4.437 1.877-.684-.354-1.428-.58-2.194-.669-.236-.027-.474-.041-.712-.041-2.712 0-5.187 1.845-6.023 4.488l-3.085 9.762c-.698-.263-1.436-.401-2.182-.407-3.505 0-6.366 2.793-6.408 6.226v11.756c.063 3.956 1.577 7.623 4.035 10.53-3.39 2.377-4.845 6.677-3.596 10.623 1.25 3.947 4.916 6.626 9.055 6.618 2.859 0 5.396-1.297 7.138-3.304 2.686 2.031 5.966 3.304 9.595 3.304h21.6c1.852 0 3.61-.816 4.805-2.231 1.195-1.415 1.706-3.285 1.397-5.11 2.435-1.258 3.778-3.944 3.323-6.647 2.097-1.072 3.416-3.228 3.416-5.583 0-2.356-1.32-4.512-3.416-5.584l-.005-.005zM68.84 47.14c.09 0 .18.005.27.016.742.081 1.409.491 1.817 1.117.407.626.513 1.401.287 2.113l-1.453 4.598c-1.266-.469-2.651-.508-3.942-.112l-1.385.427 1.999-6.325c.338-1.062 1.31-1.834 2.407-1.834zM36.916 65.992V54.286c.018-1.38 1.207-2.478 2.577-2.478h.01c.66.004 1.293.27 1.758.74.465.47.723 1.106.72 1.768l.215 5.196L48.428 39.8c.336-1.068 1.305-1.835 2.4-1.835.09 0 .18.006.27.016.743.079 1.412.488 1.821 1.114.41.626.516 1.403.29 2.116l-4.007 12.677c-.139.438.104.904.542 1.043.437.138.904-.105 1.042-.542l4.976-15.756c.336-1.068 1.306-1.834 2.401-1.834.09 0 .18.005.27.015.743.08 1.412.489 1.821 1.115.41.626.516 1.402.29 2.115l-4.504 14.31c-.138.437.104.904.542 1.042.437.138.904-.104 1.042-.542L61.1 43.8c.335-1.068 1.306-1.834 2.401-1.834.09 0 .18.005.268.015.744.08 1.413.49 1.822 1.115.409.626.515 1.403.29 2.116l-3.375 10.68-7.894 2.44c-6.925 2.308-11.523 8.665-11.523 15.849v.644c-.16-.007-.313-.047-.475-.047-.61.002-1.218.064-1.816.184-2.432-2.357-3.828-5.584-3.88-8.97zm5.697 23.973c-3.146 0-5.697-2.55-5.697-5.697 0-3.146 2.55-5.696 5.697-5.696 3.146 0 5.696 2.55 5.696 5.696 0 3.147-2.55 5.697-5.696 5.697zM87.59 76.673H70.977c-.46 0-.831.372-.831.83 0 .46.372.832.83.832h13.199c1.205 0 2.31.814 2.538 1.998.148.733-.04 1.494-.514 2.073-.474.578-1.183.914-1.93.913H70.976c-.46 0-.831.372-.831.83 0 .46.372.832.83.832h9.876c1.206 0 2.31.814 2.538 1.998.148.733-.04 1.494-.514 2.073-.474.578-1.183.914-1.93.913h-21.6c-2.824-.008-5.56-.99-7.746-2.778.323-.94.494-1.925.507-2.919 0-3.69-2.136-6.86-5.222-8.426v-1.661c-.001-5.558 3.567-10.488 8.846-12.224l11.186-3.452c.239-.072.487-.108.737-.108 1.233-.002 2.282.899 2.467 2.118.185 1.219-.549 2.39-1.727 2.755L63.5 65.043h20.675c1.205 0 2.31.814 2.538 1.998.148.733-.04 1.494-.514 2.073-.474.579-1.183.914-1.93.913H70.976c-.46 0-.831.372-.831.831 0 .459.372.83.83.83h16.522c1.205 0 2.31.815 2.538 2 .148.732-.04 1.493-.514 2.072-.474.578-1.183.914-1.93.913z"/>
        </g>
    </g>
</svg>
