<svg xmlns="http://www.w3.org/2000/svg" width="126" height="126" viewBox="0 0 126 126">
    <defs>
        <filter id="prefix__a-covid-cough">
            <feColorMatrix in="SourceGraphic" values="0 0 0 0 0.999063 0 0 0 0 0.434148 0 0 0 0 0.382140 0 0 0 1.000000 0"/>
        </filter>
    </defs>
    <g fill="none" fill-rule="evenodd">
        <circle cx="63" cy="63" r="63" fill="#DCEBEA"/>
        <path fill="#FFF" d="M40.415 85V63.868s-8.731-12.37-5.821-20.57c2.91-8.2 16.893-19.596 31.882-11.553C76.469 37.107 81.643 47.25 82 62.177h-6.654v4.79c-7.207.06-10.81 1.187-10.81 3.382 0 3.292 6.477 6.288 10.81 4.79C79.68 73.64 74.378 85 69.112 85H40.415z"/>
        <g filter="url(#prefix__a-covid-cough)">
            <path fill="#000" fill-rule="nonzero" d="M85.69 68.998c-1.51 0-2.734 1.224-2.734 2.734s1.224 2.733 2.734 2.733 2.733-1.224 2.733-2.733c0-1.51-1.224-2.734-2.733-2.734zm-1.23-9.68c-2.384-5.366-5.516-17.28-8.322-21.268C71.703 31.75 64.48 28 56.774 28H52.52c-11.873 0-21.988 9.237-22.394 21.102-.227 6.475 2.44 12.716 7.276 17.028v19.268c0 .503.408.91.912.91h1.822c.503 0 .91-.407.91-.91V64.506l-.647-.582c-2.26-2.029-4.126-4.492-5.274-7.304-5.164-12.713 5.053-24.976 17.766-24.976h3.883c6.52.002 12.633 3.173 16.388 8.503 1.426 2.026 3.315 7.602 4.836 12.08 1.107 3.27 2.154 6.358 3.138 8.572h-7.29v5.466h-5.24c-2.992 0-5.602 2.306-5.693 5.298-.046 1.479.51 2.913 1.54 3.975 1.03 1.062 2.447 1.66 3.926 1.66h5.467v1.822c0 2.013-1.632 3.645-3.645 3.645h-6.377c-.503 0-.911.407-.911.91v1.823c0 .503.408.91.91.91h6.378c4.026 0 7.289-3.262 7.289-7.288v-3.644c0-1.006-.816-1.822-1.822-1.822h-7.192c-.911 0-1.748-.62-1.894-1.517-.09-.53.058-1.071.404-1.481.347-.41.856-.647 1.393-.646h7.289c1.006 0 1.822-.816 1.822-1.823v-3.644h3.644c1.233-.001 2.382-.626 3.053-1.66.67-1.035.773-2.338.273-3.465zm-17.903-9.452c0-2.013-1.632-3.644-3.644-3.644-2.013 0-3.645 1.631-3.645 3.644s1.632 3.644 3.645 3.644c2.012 0 3.644-1.631 3.644-3.644zm33.71 12.755c1.51 0 2.733-1.224 2.733-2.733 0-1.51-1.224-2.734-2.733-2.734-1.51 0-2.733 1.224-2.733 2.734s1.223 2.733 2.733 2.733zm0 6.377c-1.51 0-2.733 1.224-2.733 2.734s1.223 2.733 2.733 2.733S103 73.24 103 71.732c0-1.51-1.224-2.734-2.733-2.734zm0 11.844c-1.51 0-2.733 1.224-2.733 2.734s1.223 2.733 2.733 2.733S103 85.085 103 83.576c0-1.51-1.224-2.734-2.733-2.734zm-7.289-16.399c-1.51 0-2.733 1.224-2.733 2.733 0 1.51 1.224 2.734 2.733 2.734 1.51 0 2.733-1.224 2.733-2.734s-1.223-2.733-2.733-2.733zm0 10.933c-1.51 0-2.733 1.224-2.733 2.733 0 1.51 1.224 2.733 2.733 2.733 1.51 0 2.733-1.223 2.733-2.733s-1.223-2.733-2.733-2.733z"/>
        </g>
    </g>
</svg>
