<svg xmlns="http://www.w3.org/2000/svg" width="126" height="126" viewBox="0 0 126 126">
    <defs>
        <filter id="prefix__a">
            <feColorMatrix in="SourceGraphic" values="0 0 0 0 0.999063 0 0 0 0 0.434148 0 0 0 0 0.382140 0 0 0 1.000000 0"/>
        </filter>
    </defs>
    <g fill="none" fill-rule="evenodd">
        <circle cx="63" cy="63" r="63" fill="#DCEBEA"/>
        <g>
            <path fill="#FFF" d="M2.032 58.935l6.219-12.879C.37 31.63 1.428 21.752 11.424 16.422c3.492-1.862 3.607-4.812 7.409-6.119C31.354 6 48.369 7.347 57.463 21.1c11.856 17.928-8.785 31.716-25.93 31.716h-12.7l-16.8 6.12z" transform="translate(32 29)"/>
            <g filter="url(#prefix__a)" transform="translate(32 29)">
                <path fill="#000" fill-rule="nonzero" d="M42.368 26.864h-6.877v-6.877c0-.543-.44-.983-.982-.983h-5.895c-.543 0-.982.44-.982.983v6.877h-6.878c-.542 0-.982.44-.982.982v5.895c0 .543.44.983.982.983h6.878V41.6c0 .542.44.982.982.982h5.895c.542 0 .982-.44.982-.982v-6.877h6.877c.543 0 .983-.44.983-.983v-5.895c0-.542-.44-.982-.983-.982zM31.561 5.25C14.2 5.25.123 16.686.123 30.794c0 5.84 2.439 11.204 6.496 15.507C4.79 51.145.982 55.24.926 55.294c-.81.855-1.033 2.111-.566 3.193.466 1.082 1.532 1.782 2.71 1.78 7.554 0 13.509-3.158 17.089-5.69 3.688 1.168 7.534 1.762 11.402 1.76C48.924 56.338 63 44.903 63 30.795 63 16.686 48.924 5.25 31.561 5.25zm0 47.158c-3.467.002-6.913-.53-10.218-1.577l-1.862-.59-1.597 1.128c-2.824 2-7.188 4.34-12.603 4.862 1.473-1.858 3.664-4.966 5.015-8.541l.867-2.298-1.685-1.788C5.93 39.84 4.053 35.41 4.053 30.794c0-11.912 12.34-21.614 27.508-21.614s27.51 9.702 27.51 21.614-12.342 21.614-27.51 21.614z"/>
            </g>
        </g>
    </g>
</svg>
