<svg xmlns="http://www.w3.org/2000/svg" width="126" height="126" viewBox="0 0 126 126">
    <defs>
        <filter id="prefix__a">
            <feColorMatrix in="SourceGraphic" values="0 0 0 0 0.999063 0 0 0 0 0.434148 0 0 0 0 0.382140 0 0 0 1.000000 0"/>
        </filter>
    </defs>
    <g fill="none" fill-rule="evenodd">
        <circle cx="63" cy="63" r="63" fill="#DCEBEA"/>
        <circle cx="44.5" cy="41.5" r="4.5" fill="#FFF"/>
        <circle cx="84.5" cy="41.5" r="4.5" fill="#FFF"/>
        <path fill="#FFF" d="M55 75L55 59 47 67z"/>
        <path fill="#FFF" d="M82 75L82 59 74 67z" transform="matrix(-1 0 0 1 156 0)"/>
        <path fill="#FFF" d="M49 56L39.689 56 35.551 56 34 59.499 34 74.25 37.619 74.25 37.619 88 39.689 90 46.672 90 49 88 49 79.248z"/>
        <path fill="#FFF" d="M92 56L82.689 56 78.551 56 77 59.499 77 74.25 80.619 74.25 80.619 88 82.689 90 89.672 90 92 88 92 79.248z" transform="matrix(-1 0 0 1 169 0)"/>
        <g filter="url(#prefix__a)">
            <path fill="#000" fill-rule="nonzero" d="M83.833 49.097c3.744 0 6.778-3.034 6.778-6.778 0-3.743-3.034-6.777-6.778-6.777-3.743 0-6.777 3.034-6.777 6.777 0 3.744 3.034 6.778 6.777 6.778zm0-10.166c1.872 0 3.39 1.517 3.39 3.388 0 1.872-1.518 3.39-3.39 3.39-1.871 0-3.389-1.518-3.389-3.39 0-1.871 1.518-3.388 3.39-3.388zm3.39 13.555h-6.779c-2.075 0-4.035.958-5.31 2.596 1.265.132 2.466.625 3.46 1.42.54-.364 1.151-.627 1.85-.627h6.778c1.872 0 3.39 1.517 3.39 3.389v13.555h-3.39v13.556h-6.778v-9.129l-1.27 1.25c-.612.603-1.33 1.086-2.118 1.424v6.455c0 1.872 1.517 3.389 3.388 3.389h6.778c.899 0 1.761-.357 2.397-.993.635-.635.992-1.497.992-2.396V76.208c1.872 0 3.389-1.517 3.389-3.389V59.264c0-3.743-3.035-6.778-6.778-6.778zM46.555 77.247v9.128h-6.778V72.819h-3.39V59.264c0-1.872 1.518-3.389 3.39-3.389h6.778c.699 0 1.312.264 1.852.627.995-.794 2.198-1.284 3.464-1.413-1.275-1.642-3.237-2.603-5.316-2.603h-6.778c-3.743 0-6.778 3.035-6.778 6.778v13.555c0 1.872 1.517 3.39 3.389 3.39v10.166c0 1.872 1.517 3.389 3.389 3.389h6.778c1.871 0 3.388-1.517 3.388-3.389v-6.453c-.788-.34-1.506-.823-2.118-1.425l-1.27-1.25zm-3.39-28.15c3.744 0 6.778-3.034 6.778-6.778 0-3.743-3.034-6.777-6.777-6.777-3.744 0-6.778 3.034-6.778 6.777 0 3.744 3.034 6.778 6.778 6.778zm0-10.166c1.872 0 3.39 1.517 3.39 3.388 0 1.872-1.518 3.39-3.39 3.39-1.871 0-3.388-1.518-3.388-3.39 0-1.871 1.517-3.388 3.389-3.388zM83.08 67.736c0-.908-.364-1.778-1.011-2.414l-6.025-5.931c-2.204-2.17-5.766-.496-5.766 2.415v4.236H56.722v-4.236c0-2.903-3.581-4.566-5.766-2.415l-6.025 5.93c-.647.637-1.011 1.507-1.011 2.415 0 .908.364 1.778 1.011 2.415l6.025 5.93c2.256 2.224 5.766.424 5.766-2.414V69.43h13.556v4.236c0 2.859 3.533 4.614 5.766 2.414l6.025-5.93c.647-.637 1.011-1.507 1.011-2.415zm-29.747 5.93l-6.024-5.93 6.024-5.93v11.86zm20.334 0v-11.86l6.024 5.93-6.024 5.93z"/>
        </g>
    </g>
</svg>
