<svg xmlns="http://www.w3.org/2000/svg" width="126" height="126" viewBox="0 0 126 126">
    <defs>
        <filter id="prefix__a-covid-disinfect">
            <feColorMatrix in="SourceGraphic" values="0 0 0 0 0.999063 0 0 0 0 0.434148 0 0 0 0 0.382140 0 0 0 1.000000 0"/>
        </filter>
    </defs>
    <g fill="none" fill-rule="evenodd">
        <circle cx="63" cy="63" r="63" fill="#DCEBEA"/>
        <path fill="#FFF" d="M43.625 92h29.232L78 87.232l-2.164-32.574-5.415-6.093-2.977-1.853V34H52.285v14.565l-5.954 1.59-2.706 4.503L42 87.232 43.625 92z"/>
        <g filter="url(#prefix__a-covid-disinfect)">
            <path fill="#000" fill-rule="nonzero" d="M87.414 44.586l-6-6C81.039 38.211 80.53 38 80 38H70v-2c0-2.21-1.79-4-4-4H54c-2.21 0-4 1.79-4 4v12.051c-3.913.258-7.06 3.32-7.421 7.225l-2.545 32c-.204 2.238.544 4.459 2.06 6.119C43.608 95.055 45.752 96 48 96h24c2.248 0 4.392-.945 5.907-2.605 1.516-1.66 2.264-3.88 2.06-6.119l-2.544-32c-.363-3.905-3.51-6.968-7.423-7.225V42h9.172l5.414 5.414c.787.747 2.025.731 2.792-.036.767-.767.783-2.005.036-2.792zM54 36h12v12H54V36zm19.434 19.593l2.549 32.044c.101 1.12-.272 2.23-1.03 3.06C74.195 91.527 73.123 92 72 92H48c-1.132 0-2.21-.48-2.97-1.32-.758-.84-1.125-1.961-1.01-3.087l2.543-31.956c.173-1.96 1.747-3.503 3.71-3.637h19.453c1.947.133 3.514 1.651 3.708 3.593zm-16.031 5.706c-4.58 6.115-6.903 10.61-6.903 13.357C50.5 79.81 54.761 84 60 84s9.5-4.191 9.5-9.344c0-2.75-2.323-7.242-6.904-13.357-1.238-1.653-3.951-1.653-5.194 0zM60 80c-3.034 0-5.5-2.396-5.5-5.344 0-1.236 1.455-4.614 5.5-10.142 4.045 5.529 5.5 8.906 5.5 10.142C65.5 77.604 63.034 80 60 80z"/>
        </g>
    </g>
</svg>
