<svg xmlns="http://www.w3.org/2000/svg" xmlns:xlink="http://www.w3.org/1999/xlink" width="110" height="110" viewBox="0 0 110 110">
    <defs>
        <filter id="antjfsvo2a" width="136.7%" height="136.7%" x="-15%" y="-17.2%" filterUnits="objectBoundingBox">
            <feOffset dx="3" dy="1" in="SourceAlpha" result="shadowOffsetOuter1"/>
            <feGaussianBlur in="shadowOffsetOuter1" result="shadowBlurOuter1" stdDeviation="5"/>
            <feColorMatrix in="shadowBlurOuter1" values="0 0 0 0 0.937254902 0 0 0 0 0.964705882 0 0 0 0 1 0 0 0 1 0"/>
        </filter>
        <circle id="f91siu48cb" cx="45" cy="45" r="45"/>
    </defs>
    <g fill="none" fill-rule="evenodd">
        <g>
            <g>
                <g>
                    <g transform="translate(-37 -611) translate(36 582) translate(8 38)">
                        <use fill="#000" filter="url(#antjfsvo2a)" xlink:href="#f91siu48cb"/>
                        <use fill="#FFF" xlink:href="#f91siu48cb"/>
                    </g>
                    <g fill-rule="nonzero" transform="translate(-37 -611) translate(36 582) translate(8 38) translate(19 19)">
                        <g transform="translate(0 .5)">
                            <g fill="#F79595">
                                <path d="M50.683 26.357c.884.178 1.46 1.05 1.286 1.948l-.645 3.343c-.178.925-1.08 1.518-1.99 1.29-.852-.212-1.369-1.098-1.2-1.975l.018-.09-4.25.198c-.128.006-.24.092-.28.217-.415 1.276-.96 2.493-1.622 3.63-.067.116-.057.262.028.364l1.88 2.274c.373-.362.86-.55 1.353-.55.416 0 .835.133 1.19.41.861.671 1.025 1.925.366 2.802l-.545.725c-.64.851-1.832 1.08-2.7.47-.747-.523-1.018-1.466-.747-2.284l-2.708-1.212c-.123-.054-.265-.022-.354.078-1.254 1.401-2.713 2.607-4.33 3.57-.11.066-.17.194-.15.323l.693 4.303.6-.244c.86-.35 1.84.098 2.147 1 .288.844-.163 1.767-.978 2.098l-3.065 1.249c-.86.35-1.838-.098-2.146-1-.287-.844.164-1.768.979-2.1l.082-.033-2.472-3.526c-.074-.106-.205-.153-.33-.12-1.477.39-3.027.599-4.625.599-1.264 0-2.497-.132-3.69-.38-.125-.025-.254.03-.323.14l-2.474 3.95.087.031c.806.299 1.305 1.073 1.305 1.897 0 .23-.04.464-.12.692 0 1.182-.893 1.818-1.983 1.412l-3.04-1.128c-1.017-.377-1.547-1.513-1.196-2.552.36-1.07 1.559-1.61 2.603-1.223l.07.026.504-4.628c.014-.13-.053-.254-.167-.315-1.925-1.012-3.652-2.36-5.106-3.968-.088-.097-.225-.13-.345-.08l-3.71 1.55c.42.798.184 1.81-.581 2.322-.8.534-1.878.286-2.423-.513l-.95-1.392c-.532-.778-.408-1.863.324-2.45.78-.625 1.892-.463 2.476.324l2.613-3.005c.087-.1.102-.246.038-.362-1.073-1.968-1.807-4.154-2.122-6.475-.018-.13-.111-.236-.236-.265l-4.175-.981-.004.498c-.004.498-.206.95-.53 1.275-.323.327-.767.527-1.258.527-.975 0-1.764-.81-1.755-1.802l.027-3.087c.009-1.01.829-1.86 1.82-1.834.96.026 1.728.83 1.723 1.812l4.145-.99c.125-.029.219-.135.235-.265.325-2.454 1.12-4.759 2.286-6.816.065-.115.054-.26-.031-.362l-1.977-2.363-.172.23c-.532.718-1.55.843-2.236.261-.644-.546-.722-1.526-.217-2.206L6.92 9.848c.306-.411.77-.628 1.241-.628.326 0 .655.105.936.32.652.501.805 1.42.375 2.11l2.763 1.217c.122.053.263.021.353-.078 1.304-1.456 2.832-2.7 4.528-3.679.111-.065.173-.192.154-.32l-.636-4.313-.604.237c-.864.338-1.838-.124-2.133-1.03-.277-.848.187-1.764 1.006-2.085l3.08-1.206c.865-.338 1.838.123 2.133 1.03.276.847-.186 1.763-1.006 2.085l-.083.032 2.424 3.558c.074.107.204.157.328.126 1.407-.352 2.876-.537 4.39-.537h.001c.132 0 .25-.082.295-.21l.803-2.285c-.93-.297-1.55-1.23-1.431-2.249C25.972.79 27.057-.03 28.19.115l1.103.14c1.124.145 1.966 1.17 1.844 2.317-.097.893-.728 1.589-1.529 1.802l.279 2.478c.015.134.112.242.242.271 1.864.418 3.623 1.123 5.227 2.067.112.066.25.056.35-.027l3.327-2.748-.506-.41c-.726-.586-.83-1.674-.213-2.392.577-.673 1.589-.733 2.276-.177l2.584 2.089c.727.585.83 1.674.213 2.392-.577.673-1.589.732-2.275.177l-.07-.056-1.782 3.937c-.054.118-.03.258.06.352 1.255 1.307 2.322 2.801 3.159 4.436.06.119.188.186.318.168l2.525-.36c-.37-1.054.18-2.223 1.238-2.576 1.01-.337 2.098.234 2.47 1.248l.581 1.588c.367 1.004-.073 2.153-1.038 2.58-.924.409-1.968.04-2.464-.795l-2.096 1.447c-.11.076-.16.215-.124.345.43 1.59.662 3.263.662 4.992 0 .29-.007.576-.02.861-.006.132.067.252.184.305l3.93 1.747.123-.646c.174-.9 1.031-1.486 1.914-1.31z"/>
                            </g>
                            <ellipse cx="34.151" cy="16.187" fill="#D02683" rx="2.596" ry="2.209"/>
                            <ellipse cx="24.785" cy="29.943" fill="#D02683" rx="2.837" ry="2.888"/>
                            <ellipse cx="35.841" cy="28.439" fill="#F8D7D7" rx="2.031" ry="2.068"/>
                            <ellipse cx="28.339" cy="38.529" fill="#F8D7D7" rx="1.975" ry="2.01"/>
                            <path fill="#D02683" d="M14.988 24.504c0-7.194 3.371-13.588 8.592-17.633-.61.087-1.212.206-1.8.353-.125.03-.255-.019-.329-.126L19.027 3.54l.083-.032c.82-.322 1.282-1.238 1.006-2.086C19.82.516 18.848.055 17.983.393L14.903 1.6c-.82.32-1.283 1.237-1.006 2.086.295.905 1.269 1.367 2.133 1.029l.604-.237.636 4.312c.019.13-.043.256-.154.321-1.696.979-3.224 2.223-4.528 3.679-.09.1-.231.131-.353.078L9.472 11.65c.43-.69.277-1.609-.375-2.11-.28-.215-.61-.32-.936-.32-.47 0-.935.217-1.241.628l-1.317 1.771c-.505.68-.427 1.66.217 2.206.687.582 1.704.457 2.236-.26l.172-.23 1.977 2.362c.085.103.096.247.031.362-1.167 2.057-1.96 4.362-2.286 6.816-.016.13-.11.236-.235.266l-4.145.99c.005-.983-.762-1.787-1.724-1.813-.99-.027-1.81.824-1.819 1.834L0 27.239c-.01.992.78 1.802 1.755 1.802.49 0 .935-.2 1.258-.527.324-.325.526-.777.53-1.275l.004-.498 4.175.981c.125.03.218.135.236.265.315 2.321 1.05 4.507 2.122 6.475.064.116.05.261-.038.362L7.43 37.829c-.584-.787-1.696-.949-2.476-.324-.732.587-.856 1.672-.324 2.45l.95 1.392c.545.799 1.624 1.047 2.423.513.765-.513 1.001-1.524.582-2.323l3.71-1.548c.119-.05.256-.018.344.079 1.454 1.608 3.181 2.956 5.106 3.968.114.06.181.184.167.315l-.504 4.628-.07-.026c-1.044-.387-2.242.153-2.603 1.223-.351 1.039.18 2.175 1.196 2.552l3.04 1.128c1.09.406 1.982-.23 1.982-1.412.082-.228.12-.462.12-.692 0-.824-.498-1.598-1.304-1.897l-.087-.032 2.474-3.95c.069-.11.198-.164.324-.138 1.192.247 2.425.379 3.69.379.148 0 .3-.002.447-.006-6.912-3.71-11.628-11.097-11.628-19.604z" opacity=".263"/>
                            <ellipse cx="15.982" cy="33.721" fill="#D02683" rx="2.057" ry="2.094"/>
                            <path fill="#F8D7D7" d="M31.208 24.504h-.695c-.435 0-.787-.358-.787-.8 0-.443.352-.8.787-.8h.695c.434 0 .786.357.786.8 0 .442-.352.8-.786.8zM21.947 38.495h-.714c-.434 0-.786-.358-.786-.8 0-.443.352-.8.786-.8h.714c.435 0 .787.357.787.8 0 .442-.352.8-.787.8z"/>
                            <path fill="#D02683" d="M14.613 26.839h-.688c-.434 0-.786-.359-.786-.8 0-.443.352-.801.786-.801h.688c.434 0 .786.358.786.8 0 .442-.352.8-.786.8z"/>
                            <path fill="#F8D7D7" d="M28.579 12.835h-.958c-.434 0-.786-.358-.786-.8 0-.442.352-.8.786-.8h.958c.434 0 .786.358.786.8 0 .442-.352.8-.786.8z"/>
                            <path fill="#D02683" d="M34.867 35.89H33.81c-.435 0-.786-.359-.786-.801 0-.442.351-.8.786-.8h1.057c.434 0 .786.358.786.8 0 .442-.352.8-.786.8z"/>
                        </g>
                        <ellipse cx="20.074" cy="19.391" fill="#D02683" rx="5.451" ry="4.572" transform="rotate(-38.257 20.074 19.391)"/>
                    </g>
                </g>
            </g>
        </g>
    </g>
</svg>
