<svg xmlns="http://www.w3.org/2000/svg" width="126" height="126" viewBox="0 0 126 126">
    <defs>
        <filter id="prefix__a">
            <feColorMatrix in="SourceGraphic" values="0 0 0 0 0.999063 0 0 0 0 0.434148 0 0 0 0 0.382140 0 0 0 1.000000 0"/>
        </filter>
    </defs>
    <g fill="none" fill-rule="evenodd">
        <circle cx="63" cy="63" r="63" fill="#DCEBEA"/>
        <path fill="#FFF" d="M43 93h39l11-23.06-11-25.565c-3.07-7.463-11.32-10.47-24.752-9.022C37.102 37.526 35 51.73 35 53.65c0 1.921 1.057 14.955 8 17.545 2.746 1.024.512 3.526 0 8.454-.235 2.25-.235 6.701 0 13.351z"/>
        <g filter="url(#prefix__a)">
            <path fill="#000" fill-rule="nonzero" d="M94 67.313c0-.534-.112-1.062-.33-1.55-2.502-5.613-5.778-18.079-8.712-22.249C80.317 36.926 72.763 33.004 64.705 33h-8.153c-12.415 0-23.075 9.604-23.537 22.01-.263 7.108 2.735 13.51 7.61 17.888v20.149c0 .526.427.953.953.953h1.906c.527 0 .954-.427.954-.953v-21.85l-1.265-1.136c-4.475-3.996-6.805-9.868-6.289-15.846l.081-.037L59.688 70.71v22.338c0 .526.426.953.953.953h20.24c3.281 0 6.194-2.1 7.232-5.214l5.692-17.074c.13-.388.195-.796.195-1.205v-3.195zm-5.287 7.624H73.03c-1.053 0-1.906.854-1.906 1.907s.853 1.906 1.906 1.906h14.41l-1.272 3.813H73.03c-1.053 0-1.906.853-1.906 1.906s.853 1.906 1.906 1.906h11.867l-.403 1.206c-.519 1.556-1.975 2.606-3.615 2.606H63.5V71.126h26.481l-1.268 3.813zm1.448-7.624H61.5L37.848 50.11c2.608-7.65 10.182-13.297 18.98-13.297h7.881c6.817.007 13.206 3.323 17.135 8.895 1.487 2.114 3.455 7.93 5.046 12.605 1.165 3.434 2.263 6.679 3.275 8.992l-.004.007zm-19.036-15.25c-2.106 0-3.813 1.706-3.813 3.812s1.707 3.813 3.813 3.813 3.813-1.707 3.813-3.813c-.005-2.104-1.71-3.808-3.813-3.813z"/>
        </g>
    </g>
</svg>
