<svg xmlns="http://www.w3.org/2000/svg" width="47" height="48" viewBox="0 0 47 48">
    <defs>
        <filter id="tqh17xkjza">
            <feColorMatrix in="SourceGraphic" values="0 0 0 0 0.999063 0 0 0 0 0.434148 0 0 0 0 0.382140 0 0 0 1.000000 0"/>
        </filter>
    </defs>
    <g fill="none" fill-rule="evenodd">
        <ellipse cx="23.5" cy="24" fill="#FFF" rx="23.5" ry="24"/>
        <g filter="url(#tqh17xkjza)">
            <path fill="#000" fill-rule="nonzero" d="M25.37 24l5.648-5.769 1.165-1.19c.172-.175.172-.46 0-.636l-1.246-1.273c-.172-.175-.451-.175-.623 0L23.5 22.091l-6.814-6.96c-.172-.175-.45-.175-.623 0l-1.247 1.274c-.171.175-.171.46 0 .636L21.631 24l-6.815 6.959c-.171.175-.171.46 0 .636l1.247 1.273c.172.175.45.175.623 0l6.814-6.959 5.649 5.77 1.165 1.189c.172.175.45.175.623 0l1.246-1.273c.172-.176.172-.46 0-.636L25.37 24z"/>
        </g>
    </g>
</svg>
