<svg xmlns="http://www.w3.org/2000/svg" xmlns:xlink="http://www.w3.org/1999/xlink" width="110" height="110" viewBox="0 0 110 110">
    <defs>
        <filter id="ghwos2pgwb" width="136.7%" height="136.7%" x="-15%" y="-17.2%" filterUnits="objectBoundingBox">
            <feOffset dx="3" dy="1" in="SourceAlpha" result="shadowOffsetOuter1"/>
            <feGaussianBlur in="shadowOffsetOuter1" result="shadowBlurOuter1" stdDeviation="5"/>
            <feColorMatrix in="shadowBlurOuter1" values="0 0 0 0 0.937254902 0 0 0 0 0.964705882 0 0 0 0 1 0 0 0 1 0"/>
        </filter>
        <circle id="4bd4yr244a" cx="45" cy="45" r="45"/>
    </defs>
    <g fill="none" fill-rule="evenodd">
        <g>
            <g>
                <g>
                    <g transform="translate(-244 -263) translate(36 225) translate(0 47) translate(215)">
                        <mask id="wsrb1tg7mc" fill="#fff">
                            <use xlink:href="#4bd4yr244a"/>
                        </mask>
                        <g>
                            <use fill="#000" filter="url(#ghwos2pgwb)" xlink:href="#4bd4yr244a"/>
                            <use fill="#FFF" xlink:href="#4bd4yr244a"/>
                        </g>
                        <g mask="url(#wsrb1tg7mc)">
                            <g fill-rule="nonzero">
                                <g>
                                    <path fill="#F8D7D7" d="M103 6.13c-13.496-.338-21.26-1.19-23.291-2.556-3.047-2.05-7.434-1.601-9.846 1.005h-9.448c-1.578 0-3.058-.66-3.976-1.769-1.567-1.898-4.618-2.338-6.814-.983-.439.27-.824.604-1.137.983-.918 1.11-2.398 1.769-3.976 1.769-4.69 1.737-7.84 1.737-9.448 0-2.412-2.606-6.798-3.055-9.846-1.005C23.187 4.94 14.781 5.902 0 6.459v41.172l106 .412V6.87l-3-.74z" transform="translate(-8 20) translate(0 22.37)"/>
                                    <path fill="#EEB3D3" d="M8 24.576v23.581l98-.114V1.382l-.823-.507C83.59 18.465 28.876 23.314 8 24.575z" opacity=".509" transform="translate(-8 20) translate(0 22.37)"/>
                                </g>
                                <g>
                                    <path fill="#E9F2FF" d="M23.324 2.13c-1.309-.571-2.716-.867-4.14-.867-5.804 0-10.51 4.801-10.51 10.723 0 5.057 1.394 10.013 4.021 14.302l.503.822 2.374 19.367c.194 1.592 1.521 2.786 3.094 2.786 1.539 0 2.848-1.145 3.082-2.698L24.548 28c.239-1.573 1.566-2.736 3.127-2.737 1.56.001 2.888 1.164 3.126 2.737l2.8 18.565c.234 1.553 1.543 2.698 3.082 2.698 1.573 0 2.9-1.194 3.095-2.786L42.15 27.11l.503-.822c2.627-4.289 4.02-9.245 4.02-14.302 0-5.922-4.705-10.723-10.509-10.723-1.423 0-2.831.296-4.14.867-2.778 1.215-5.923 1.215-8.701 0z" transform="translate(-8 20) translate(24.79 .738)"/>
                                    <path fill="#00B8EC" d="M39.633 1.943C34.09 17.101 20.46 24.654 12.675 28.266l2.913 18.167c.218 1.768 2.342 3.008 4.087 2.789 1.411-.18 2.534-1.284 2.753-2.708l2.424-18.8c.861-2.227 1.596-2.736 3.359-2.45 1.38.223 2.036 1.052 2.257 2.45l2.858 18.813c.269 1.76 1.895 2.967 3.633 2.695 1.406-.22 2.497-1.359 2.674-2.789l2.423-19.626.513-.833c2.683-4.347 4.106-9.37 4.106-14.497-.003-4.578-2.79-7.983-7.042-9.534z" opacity=".151" transform="translate(-8 20) translate(24.79 .738)"/>
                                    <g fill="#B3B6B9">
                                        <path d="M2.382 6.081H.446c0-4.056 3.678-5.698 5.613-6l.387 1.474-.193-.737.193.736c-.164.028-4.064.714-4.064 4.527zM8.446.081H10.446V2.081H8.446z" transform="translate(-8 20) translate(24.79 .738) translate(11.228 5.182)"/>
                                    </g>
                                    <g fill="#06A77D">
                                        <path d="M52.844 13.842H54.775V19.672H52.844z" transform="translate(-8 20) translate(24.79 .738)"/>
                                        <path d="M51.557 15.786H56.706V17.729H51.557zM1.931 0H3.862V5.83H1.931z" transform="translate(-8 20) translate(24.79 .738)"/>
                                        <path d="M0 1.943H5.792V3.886H0z" transform="translate(-8 20) translate(24.79 .738)"/>
                                    </g>
                                </g>
                            </g>
                        </g>
                    </g>
                </g>
            </g>
        </g>
    </g>
</svg>
