<svg xmlns="http://www.w3.org/2000/svg" xmlns:xlink="http://www.w3.org/1999/xlink" width="110" height="110" viewBox="0 0 110 110">
    <defs>
        <filter id="w5zaftdadb" width="136.7%" height="136.7%" x="-15%" y="-17.2%" filterUnits="objectBoundingBox">
            <feOffset dx="3" dy="1" in="SourceAlpha" result="shadowOffsetOuter1"/>
            <feGaussianBlur in="shadowOffsetOuter1" result="shadowBlurOuter1" stdDeviation="5"/>
            <feColorMatrix in="shadowBlurOuter1" values="0 0 0 0 0.937254902 0 0 0 0 0.964705882 0 0 0 0 1 0 0 0 1 0"/>
        </filter>
        <circle id="37oeyq268a" cx="45" cy="45" r="45"/>
    </defs>
    <g fill="none" fill-rule="evenodd">
        <g>
            <g>
                <g>
                    <g transform="translate(-855 -263) translate(36 225) translate(817 47) translate(9)">
                        <mask id="2cxujbfqmc" fill="#fff">
                            <use xlink:href="#37oeyq268a"/>
                        </mask>
                        <g>
                            <use fill="#000" filter="url(#w5zaftdadb)" xlink:href="#37oeyq268a"/>
                            <use fill="#FFF" xlink:href="#37oeyq268a"/>
                        </g>
                        <g mask="url(#2cxujbfqmc)">
                            <g fill-rule="nonzero">
                                <path fill="#FFF0D6" d="M99 30.807V75.09c0 .474-.346.86-.773.86H.773c-.427 0-.773-.386-.773-.86V30.807c0-.474.346-.859.773-.859h97.454c.427 0 .773.385.773.86z" transform="translate(-3.5 14.604)"/>
                                <path fill="#EEB3D3" d="M93 29.948v46h5.223c.43 0 .777-.385.777-.86v-44.28c0-.475-.348-.86-.777-.86H93z" opacity=".411" transform="translate(-3.5 14.604)"/>
                                <path fill="#FFB734" d="M99 30.759v13.193c-3.35 1.233-5.504 2.996-11.653 2.996-9.464 0-9.464-4.173-18.926-4.173-9.461 0-9.461 4.173-18.923 4.173-9.462 0-9.462-4.173-18.922-4.173-9.461 0-9.461 4.173-18.923 4.173-6.15 0-8.302-1.763-11.653-2.996V30.759c0-.448.346-.81.773-.81h97.453c.428 0 .774.362.774.81z" opacity=".431" transform="translate(-3.5 14.604)"/>
                                <path fill="#EEB3D3" d="M94 29.948v17c2.193-.76 3.86-1.408 5-1.947V30.82c0-.482-.29-.872-.647-.872H94z" opacity=".656" transform="translate(-3.5 14.604)"/>
                                <g fill="#132259">
                                    <path d="M13.831.364c.087-.278-.199-.498-.348-.267C6.526 10.934.041 32.254.041 45.861c0 5.539 2.181 6.481 4.44 6.481 3.01 0 4.437-2.147 3.93-6.407-2.267-19.077 3.633-39.86 5.42-45.571zM40.714.364c.087-.278-.2-.498-.348-.267-6.958 10.837-13.442 32.157-13.442 45.764 0 5.539 2.18 6.481 4.44 6.481 3.01 0 4.436-2.147 3.93-6.407-2.267-19.077 3.632-39.86 5.42-45.571z" transform="translate(-3.5 14.604) translate(29.878)"/>
                                </g>
                            </g>
                        </g>
                    </g>
                </g>
            </g>
        </g>
    </g>
</svg>
