<svg xmlns="http://www.w3.org/2000/svg" xmlns:xlink="http://www.w3.org/1999/xlink" width="83" height="82" viewBox="0 0 83 82">
    <defs>
        <path id="prefix__c" d="M0.302 0.062L20.895 0.062 20.895 29.943 0.302 29.943z"/>
        <path id="prefix__e" d="M0 0.153L55.718 0.153 55.718 24.107 0 24.107z"/>
        <filter id="prefix__a" width="117.6%" height="117.6%" x="-7.4%" y="-7.4%" filterUnits="objectBoundingBox">
            <feOffset dx="1" dy="1" in="SourceAlpha" result="shadowOffsetOuter1"/>
            <feGaussianBlur in="shadowOffsetOuter1" result="shadowBlurOuter1" stdDeviation="2"/>
            <feColorMatrix in="shadowBlurOuter1" values="0 0 0 0 0.321537435 0 0 0 0 0.321588576 0 0 0 0 0.321526349 0 0 0 0.6 0"/>
        </filter>
        <circle id="prefix__b" cx="37.948" cy="37" r="37"/>
    </defs>
    <g fill="none" fill-rule="evenodd" transform="translate(3 3)">
        <use fill="#000" filter="url(#prefix__a)" xlink:href="#prefix__b"/>
        <use fill="#FFF" xlink:href="#prefix__b"/>
        <g>
            <path fill="#E5E5E5" d="M20.882 22.552s1.413 9.668-.232 12.382c-2.713 3.387-7.222 4.358-13.65 7.431 4.4 10.073 9.24 16.226 14.111 19.168 1.95.306 3.95.467 5.987.467 3.135 0 6.181-.379 9.094-1.088 4.926-3.375 9.375-9.731 12.808-18.15-9.962-5.55-10.472-5.189-12.96-7.802-1.37-1.439-1.877-5.105-2.084-12.96l-13.074.552zM17.366 13c-1.091-.003-1.744 2.102-1.128 4.136.616 2.034.953 3.861 2.045 3.864 1.092.003.61-1.317.617-3.692.007-2.375-.442-4.305-1.534-4.308z" transform="translate(10 12)"/>
            <path fill="#E5E5E5" d="M18.177 14.002c-.58-.052-.958 1.108-1.099 1.702-.141.594-.123 2.179.323 2.988.362.654.903 2.407 1.16.306.067-.54-.302-.65-.447-1.316-.144-.664.285-1.094.505-1.28.837-.707.114-2.35-.442-2.4M39.66 13c1.083.003 1.717 2.112 1.095 4.144-.622 2.032-.968 3.859-2.05 3.856-1.083-.003-.597-1.32-.59-3.697.007-2.377.463-4.306 1.546-4.303" transform="translate(10 12)"/>
            <path fill="#E5E5E5" d="M39.836 14.002c.583-.05.954 1.113 1.091 1.707.138.594.109 2.18-.344 2.987-.367.652-.922 2.402-1.167.3-.062-.54.308-.649.458-1.313.15-.665-.279-1.096-.498-1.282-.835-.712-.098-2.352.46-2.4" transform="translate(10 12)"/>
            <g transform="translate(10 12) translate(18)">
                <mask id="prefix__d" fill="#fff">
                    <use xlink:href="#prefix__c"/>
                </mask>
                <path fill="#E5E5E5" d="M10.58.062c11.286.002 10.308 6.503 10.284 15.401-.026 8.898-6.297 14.822-10.476 14.465C6.615 29.8.318 24.635.343 15.736.362 8.934-.457 3.387 4.42 1.134 5.923.44 7.922.062 10.58.062" mask="url(#prefix__d)"/>
            </g>
            <g transform="translate(10 12) translate(0 38)">
                <mask id="prefix__f" fill="#fff">
                    <use xlink:href="#prefix__e"/>
                </mask>
                <path fill="#E5E5E5" d="M55.718 10.933c-.531-2.606-3.426-5.367-6.137-6.457-3.627-1.772-6.238-2.383-9.56-4.323C36 16.862 17.924 11.937 17.206.234c-4.77 1.757-5.474 2.292-10.403 4.216.001.005-5.292 1.732-6.63 7.045L0 12.208C6.827 19.53 16.527 24.107 27.29 24.107c11.375 0 21.564-5.11 28.427-13.174" mask="url(#prefix__f)"/>
            </g>
        </g>
    </g>
</svg>
