<svg xmlns="http://www.w3.org/2000/svg" width="24" height="24" viewBox="0 0 24 24">
    <path fill="#8EBEBB" fill-rule="nonzero" d="M14.995 12.155l-5.54-1.74C8.306 10.056 7.5 8.86 7.5 7.516 7.5 5.85 8.7 4.5 10.172 4.5h3.46c1.04 0 2.029.403 2.816 1.148.146.136.366.15.516.014l.558-.506c.16-.145.169-.393.019-.543-1.07-1.032-2.47-1.618-3.905-1.618h-.886V.375c0-.206-.169-.375-.375-.375h-.75c-.206 0-.375.169-.375.375V3h-1.078C7.87 3 6 5.025 6 7.514c0 1.997 1.238 3.778 3.005 4.331l5.54 1.74c1.153.36 1.955 1.556 1.955 2.9 0 1.66-1.2 3.015-2.672 3.015h-3.46c-1.04 0-2.029-.403-2.816-1.148-.146-.136-.366-.15-.516-.015l-.553.507c-.155.14-.169.393-.014.539C7.538 20.414 8.939 21 10.373 21h.877v2.625c0 .206.169.375.375.375h.75c.206 0 .375-.169.375-.375V21h1.078C16.13 21 18 18.975 18 16.486c0-1.992-1.238-3.774-3.005-4.331z"/>
</svg>
