<svg xmlns="http://www.w3.org/2000/svg" width="16" height="16" viewBox="0 0 16 16">
    <defs>
        <filter id="6xwaspldya">
            <feColorMatrix in="SourceGraphic" values="0 0 0 0 0.495492 0 0 0 0 0.497452 0 0 0 0 0.495064 0 0 0 1.000000 0"/>
        </filter>
    </defs>
    <g fill="none" fill-rule="evenodd" filter="url(#6xwaspldya)" transform="translate(-12 -12)">
        <path fill="#000" fill-rule="nonzero" d="M23.606 21.43l.555-.555c.106-.106.283-.03.283.117v4.564c0 .736-.597 1.333-1.333 1.333h-9.778c-.736 0-1.333-.597-1.333-1.333v-9.778c0-.736.597-1.334 1.333-1.334h8.12c.147 0 .222.181.116.284l-.555.555c-.03.03-.075.05-.117.05h-7.564c-.244 0-.444.2-.444.445v9.778c0 .244.2.444.444.444h9.778c.245 0 .445-.2.445-.444v-4.009c0-.044.016-.086.05-.116zm4.052-5.31l-8.68 8.68-2.775.308c-.372.042-.686-.272-.645-.644l.309-2.775 8.68-8.68c.456-.456 1.195-.456 1.65 0l1.461 1.46c.456.456.456 1.195 0 1.65zm-2.6 1.344l-1.852-1.853-6.49 6.486-.23 2.086 2.086-.23 6.486-6.49zm1.973-2.367l-1.462-1.46c-.105-.106-.283-.112-.391 0l-1.345 1.344 1.853 1.852 1.345-1.344c.108-.106.108-.283 0-.392z"/>
    </g>
</svg>
