<svg xmlns="http://www.w3.org/2000/svg" width="24" height="24" viewBox="0 0 24 24">
    <path d="M14.667 11.667c0 1.472-1.195 2.666-2.667 2.666-1.472 0-2.667-1.194-2.667-2.666C9.333 10.194 10.528 9 12 9c1.472 0 2.667 1.194 2.667 2.667zM21.333 9c-1.472 0-2.666 1.194-2.666 2.667 0 1.472 1.194 2.666 2.666 2.666 1.473 0 2.667-1.194 2.667-2.666C24 10.194 22.806 9 21.333 9zM2.667 9C1.194 9 0 10.194 0 11.667c0 1.472 1.194 2.666 2.667 2.666 1.472 0 2.666-1.194 2.666-2.666C5.333 10.194 4.14 9 2.667 9z"/>
</svg>
