<svg xmlns="http://www.w3.org/2000/svg" width="93" height="72" viewBox="0 0 93 72">
    <g fill="none" fill-rule="evenodd">
        <g fill-rule="nonzero">
            <g>
                <g>
                    <path fill="#FF6F61" d="M89.7 18.338C85.726 8.283 73.486 2.254 63.12 6.244c-11.834 4.554-7.91 23.272-18.66 27.057-5.806 2.044-14.39-5.593-20.255-6.764-10.81-2.158-20.596 5.427-23.006 15.93-2.459 10.716 1.484 25.028 13.324 27.937 14.103 3.464 21.45-9.143 33.28-12.763 12.142-3.715 25.641 5.059 35.692-5.616 7.426-7.886 10.14-23.731 6.206-33.687z" opacity=".304" transform="translate(-921 -305) translate(653 271) translate(268.5 34)"/>
                    <g>
                        <path fill="#2626BC" d="M74.769 22.34c0-6.97-5.714-12.62-12.763-12.62-5.46 0-10.117 3.392-11.94 8.161H3.918c-1.97 0-3.569 1.58-3.569 3.53v39.072c0 1.95 1.598 3.53 3.57 3.53h62.88c1.971 0 3.57-1.58 3.57-3.53V31.87c2.693-2.314 4.4-5.724 4.4-9.53z" opacity=".1" transform="translate(-921 -305) translate(653 271) translate(268.5 34) translate(11.5)"/>
                        <g transform="translate(-921 -305) translate(653 271) translate(268.5 34) translate(11.5) translate(0 5.091)">
                            <g>
                                <path fill="#FFF0D6" d="M66.595 46.189H3.714c-1.971 0-3.57-1.58-3.57-3.53V3.587c0-1.95 1.599-3.53 3.57-3.53h62.88c1.972 0 3.57 1.58 3.57 3.53v39.072c0 1.95-1.598 3.53-3.569 3.53z" transform="translate(.204 8.32)"/>
                                <g fill="#FFB734">
                                    <path d="M70.164 3.588V18.5c-2.24 1.921-5.162 3.086-8.362 3.086-7.049 0-12.762-5.65-12.762-12.62 0-3.476 1.422-6.626 3.722-8.908h13.833c1.97 0 3.57 1.58 3.57 3.53z" transform="translate(.204 8.32)"/>
                                    <path d="M70.164 3.588v4.449L38.416 32.155c-.931.708-2.09 1.096-3.262 1.096-1.172 0-2.33-.388-3.262-1.096L.145 8.037v-4.45c0-1.95 1.598-3.529 3.569-3.529h62.881c1.97 0 3.57 1.58 3.57 3.53z" opacity=".528" transform="translate(.204 8.32)"/>
                                    <path d="M36.242 16.89l33.922 25.77c0 1.949-1.598 3.529-3.569 3.529H3.714c-1.971 0-3.57-1.58-3.57-3.53L34.068 16.89c.641-.487 1.533-.487 2.175 0z" transform="translate(.204 8.32)"/>
                                </g>
                                <path fill="#FFB734" d="M47.376 25.348l-8.96 6.807c-.931.708-2.09 1.096-3.262 1.096-1.172 0-2.33-.388-3.262-1.096l-8.96-6.807 11.136-8.458c.64-.487 1.533-.487 2.173 0l11.135 8.458z" opacity=".528" transform="translate(.204 8.32)"/>
                                <path fill="#FFF0D6" d="M34.067 29.356L.145 3.586C.145 1.639 1.743.059 3.714.059h62.88c1.972 0 3.57 1.58 3.57 3.529l-33.922 25.77c-.642.486-1.534.486-2.175 0z" transform="translate(.204 8.32)"/>
                            </g>
                            <g>
                                <path fill="#06A77D" d="M28.9 5.846h-5.735c-.493 0-.892-.396-.892-.883v-3.91c0-.487.4-.882.892-.882H28.9c.493 0 .893.395.893.883v3.91c0 .487-.4.882-.893.882z" transform="translate(26.972 43.968)"/>
                                <g fill="#FFF">
                                    <path d="M18.357 1.896H13.39c-.492 0-.892-.395-.892-.883 0-.487.4-.882.892-.882h4.967c.493 0 .892.395.892.882 0 .488-.399.883-.892.883zM18.357 5.493H.9c-.493 0-.892-.395-.892-.883 0-.487.4-.882.892-.882h17.458c.493 0 .892.395.892.882 0 .488-.399.883-.892.883z" transform="translate(26.972 43.968) translate(0 .353)"/>
                                </g>
                            </g>
                            <ellipse cx="13.153" cy="12.837" fill="#FF6F61" rx="12.762" ry="12.621" transform="translate(48.853)"/>
                            <path fill="#FFF" d="M56.436 8.533l1.821 4.304-1.821 4.304c-.31.731.437 1.463 1.173 1.152l10.996-4.644c.723-.306.723-1.318 0-1.623L57.61 7.38c-.736-.311-1.482.421-1.173 1.152z"/>
                            <path fill="#FFDBED" d="M62.412 13.66l-5.483 2.318 1.328-3.141-1.33-3.141 5.485 2.317c.684.29.684 1.36 0 1.648z"/>
                        </g>
                        <path fill="#06A77D" d="M48.712 5.236c-.663 0-1.326-.25-1.83-.748-1.009-.998-1.009-2.621 0-3.619 1.008-.997 2.65-.998 3.659 0s1.009 2.621 0 3.619c-.504.499-1.167.748-1.83.748zm0-3.351c-.206 0-.412.077-.568.232-.313.31-.313.813 0 1.123.313.31.822.31 1.135 0 .313-.31.313-.813 0-1.123-.156-.155-.362-.232-.567-.232zM28.674 71.88c-.663 0-1.326-.25-1.83-.75-1.009-.997-1.009-2.62 0-3.618 1.009-.997 2.65-.997 3.66 0 1.008.998 1.008 2.621 0 3.619-.505.499-1.168.748-1.83.748zm0-3.352c-.206 0-.412.077-.568.232-.313.31-.313.813 0 1.123.313.31.822.31 1.135 0 .313-.31.313-.813 0-1.123-.156-.155-.362-.232-.567-.232z" transform="translate(-921 -305) translate(653 271) translate(268.5 34) translate(11.5)"/>
                        <path fill="#EEB3D3" d="M42.279 7.508c-.228 0-.457-.086-.631-.258l-1.064-1.053-1.065 1.053c-.348.344-.913.344-1.261 0-.349-.345-.349-.903 0-1.248l1.695-1.676c.348-.345.913-.345 1.261 0l1.696 1.676c.348.345.348.903 0 1.248-.174.172-.403.258-.631.258zM68.148 68.527c-.228 0-.457-.086-.63-.258l-1.065-1.052-1.065 1.052c-.348.345-.913.345-1.261 0-.349-.345-.349-.903 0-1.248l1.695-1.676c.348-.345.913-.345 1.261 0l1.696 1.676c.348.345.348.904 0 1.248-.174.172-.403.258-.631.258z" transform="translate(-921 -305) translate(653 271) translate(268.5 34) translate(11.5)"/>
                        <path fill="#00B8EC" d="M21.597 69.366c-.228 0-.456-.086-.63-.259l-1.065-1.052-1.064 1.052c-.349.345-.914.345-1.262 0-.349-.344-.349-.903 0-1.248l1.695-1.676c.348-.344.914-.344 1.262 0l1.695 1.676c.349.345.349.904 0 1.248-.174.172-.402.259-.63.259z" transform="translate(-921 -305) translate(653 271) translate(268.5 34) translate(11.5)"/>
                    </g>
                </g>
            </g>
        </g>
    </g>
</svg>
