<svg xmlns="http://www.w3.org/2000/svg" width="24" height="24" viewBox="0 0 24 24" fill="#8ebebb">
    <path d="M12 13.333c1.473 0 2.667-1.194 2.667-2.666C14.667 9.194 13.473 8 12 8c-.042 0-.078.01-.119.012.263.723.083 1.532-.46 2.075-.544.544-1.353.723-2.076.46 0 .043-.012.08-.012.12 0 1.472 1.194 2.666 2.667 2.666zm11.855-1.941C21.595 6.982 17.122 4 12 4 6.878 4 2.403 6.985.145 11.392c-.193.382-.193.834 0 1.216C2.405 17.018 6.878 20 12 20c5.122 0 9.597-2.985 11.855-7.392.193-.382.193-.834 0-1.216zM12 5.333c2.946 0 5.333 2.388 5.333 5.334C17.333 13.612 14.946 16 12 16s-5.333-2.388-5.333-5.333C6.67 7.722 9.056 5.337 12 5.333zm0 13.334c-4.473 0-8.56-2.555-10.667-6.667 1.185-2.325 3.079-4.212 5.408-5.389-.87 1.126-1.408 2.521-1.408 4.056 0 3.682 2.985 6.666 6.667 6.666s6.667-2.984 6.667-6.666c0-1.535-.538-2.93-1.408-4.056 2.33 1.177 4.223 3.064 5.408 5.389-2.106 4.112-6.194 6.667-10.667 6.667z"/>
</svg>
