<svg xmlns="http://www.w3.org/2000/svg" width="39" height="40" viewBox="0 0 39 40">
    <defs>
        <filter id="wejf77j2za">
            <feColorMatrix in="SourceGraphic" values="0 0 0 0 0.999063 0 0 0 0 0.434148 0 0 0 0 0.382140 0 0 0 1.000000 0"/>
        </filter>
    </defs>
    <g fill="none" fill-rule="evenodd">
        <ellipse cx="19.5" cy="20" fill="#FFF" rx="19.5" ry="20"/>
        <g filter="url(#wejf77j2za)">
            <path fill="#000" fill-rule="nonzero" d="M21.09 20.5l4.808-4.808.992-.99c.146-.147.146-.385 0-.531l-1.06-1.06c-.147-.147-.385-.147-.531 0L19.5 18.908l-5.799-5.8c-.146-.146-.384-.146-.53 0L12.11 14.17c-.147.147-.147.384 0 .53l5.8 5.8-5.8 5.799c-.147.146-.147.384 0 .53l1.06 1.06c.147.147.384.147.53 0l5.8-5.798 4.807 4.807.992.992c.146.146.384.146.53 0l1.06-1.06c.147-.147.147-.385 0-.531L21.092 20.5z"/>
        </g>
    </g>
</svg>
