<svg xmlns="http://www.w3.org/2000/svg" width="112" height="113" viewBox="0 0 112 113">
    <defs>
        <filter id="prefix__a">
            <feColorMatrix in="SourceGraphic" values="0 0 0 0 0.999063 0 0 0 0 0.434148 0 0 0 0 0.382140 0 0 0 1.000000 0"/>
        </filter>
    </defs>
    <g fill="none" fill-rule="evenodd">
        <circle cx="55" cy="55" r="55" fill="#DCEBEA"/>
        <g>
            <path fill="#FFF" d="M27.753 53.175L0 24.021C3.042 13.967 6.115 8.358 9.22 7.194c3.104-1.164 9.282.816 18.533 5.939 11.262-6.287 17.295-8.849 18.1-7.685 1.206 1.746 12.066 10.372 6.636 18.573-3.62 5.467-11.865 15.185-24.736 29.154z" transform="translate(28 28)"/>
            <g fill="#FF6F61" filter="url(#prefix__a)" transform="translate(28 28)">
                <path fill="#000" fill-rule="nonzero" d="M50.575 8.116c-5.95-4.968-14.846-4.143-20.37 1.445l-2.15 2.185-2.15-2.174C21.45 5.054 12.465 2.335 5.534 8.116c-6.856 5.739-7.216 16.038-1.081 22.248l21.123 21.39c.676.686 1.572 1.04 2.467 1.04s1.79-.343 2.467-1.04l21.123-21.39c6.156-6.21 5.796-16.51-1.06-22.248zm-1.43 19.87L28.098 49.379 6.965 27.987c-4.192-4.24-5.066-12.323.84-17.259 5.982-5.01 13.012-1.38 15.588 1.232l4.662 4.721 4.66-4.721c2.533-2.57 9.629-6.21 15.59-1.232 5.894 4.925 5.031 13.009.84 17.259z"/>
            </g>
        </g>
        <g>
            <path fill="#FFF" d="M30.974 50.071L23 22.5 54.152 32.5 45.408 36.286 56.654 48.99 49 55 37.024 43.019z" transform="translate(55 56)"/>
            <g fill="#8EBEBB">
                <path d="M22 14c.552 0 1-.514 1-1.148V1.148C23 .514 22.552 0 22 0s-1 .514-1 1.148v11.704c0 .634.448 1.148 1 1.148M14 22.5c0-.828-.514-1.5-1.148-1.5H1.148C.514 21 0 21.672 0 22.5S.514 24 1.148 24h11.704c.634 0 1.148-.672 1.148-1.5M28.194 17c.306 0 .611-.117.844-.35L37.65 8.04c.467-.467.467-1.223 0-1.69-.466-.466-1.222-.466-1.689 0l-8.611 8.612c-.467.467-.467 1.223 0 1.69.233.232.539.349.844.349M8.039 6.35c-.467-.467-1.223-.467-1.69 0-.466.466-.466 1.222 0 1.689l8.612 8.611c.234.233.54.35.845.35.305 0 .611-.117.844-.35.467-.466.467-1.222 0-1.689L8.04 6.35M14.961 27.35L6.35 35.962c-.467.466-.467 1.222 0 1.688.233.233.539.35.844.35.306 0 .611-.117.845-.35l8.611-8.611c.467-.467.467-1.223 0-1.69-.466-.466-1.222-.466-1.689 0M48.156 54.151L37.024 43.02c-.222-.222-.523-.345-.834-.345-.046 0-.091.003-.138.008-.358.042-.677.246-.867.553l-4.211 6.836-7.116-26.213 26.213 7.116-6.836 4.211c-.307.19-.51.509-.553.868-.042.358.083.716.338.97l11.132 11.133-5.996 5.995zm8.498-6.83l-10.91-10.91 7.885-4.858c.4-.246.616-.707.549-1.173-.068-.465-.405-.846-.859-.97l-30.83-8.369c-.408-.11-.844.006-1.143.305-.3.299-.415.735-.305 1.143l8.37 30.83c.123.454.504.791.97.859.466.067.926-.149 1.172-.55l4.858-7.884 10.911 10.91c.23.23.532.346.834.346.302 0 .604-.115.834-.346l7.664-7.664c.461-.46.461-1.208 0-1.668z" transform="translate(55 56)"/>
            </g>
        </g>
    </g>
</svg>
