<svg xmlns="http://www.w3.org/2000/svg" xmlns:xlink="http://www.w3.org/1999/xlink" width="83" height="82" viewBox="0 0 83 82">
    <defs>
        <path id="prefix__c" d="M35.278.187C15.795.187 0 15.981 0 35.465c0 19.483 15.795 35.277 35.278 35.277 19.483 0 35.277-15.794 35.277-35.277C70.555 15.981 54.761.187 35.278.187z"/>
        <path id="prefix__e" d="M35.278.187C15.795.187 0 15.981 0 35.465c0 19.483 15.795 35.277 35.278 35.277 19.483 0 35.277-15.794 35.277-35.277"/>
        <path id="prefix__g" d="M35.278.187C15.795.187 0 15.981 0 35.465c0 19.483 15.795 35.277 35.278 35.277 19.483 0 35.277-15.794 35.277-35.277"/>
        <path id="prefix__i" d="M35.278.187C15.795.187 0 15.981 0 35.465c0 19.483 15.795 35.277 35.278 35.277 19.483 0 35.277-15.794 35.277-35.277C70.555 15.981 54.761.187 35.278.187z"/>
        <path id="prefix__k" d="M35.278.187C15.795.187 0 15.981 0 35.465c0 19.483 15.795 35.277 35.278 35.277 19.483 0 35.277-15.794 35.277-35.277"/>
        <path id="prefix__m" d="M35.278.187C15.795.187 0 15.981 0 35.465c0 19.483 15.795 35.277 35.278 35.277 19.483 0 35.277-15.794 35.277-35.277"/>
        <filter id="prefix__a" width="117.6%" height="117.6%" x="-7.4%" y="-7.4%" filterUnits="objectBoundingBox">
            <feOffset dx="1" dy="1" in="SourceAlpha" result="shadowOffsetOuter1"/>
            <feGaussianBlur in="shadowOffsetOuter1" result="shadowBlurOuter1" stdDeviation="2"/>
            <feColorMatrix in="shadowBlurOuter1" values="0 0 0 0 0.321537435 0 0 0 0 0.321588576 0 0 0 0 0.321526349 0 0 0 0.6 0"/>
        </filter>
        <circle id="prefix__b" cx="37.948" cy="37" r="37"/>
    </defs>
    <g fill="none" fill-rule="evenodd" transform="translate(3 3)">
        <use fill="#000" filter="url(#prefix__a)" xlink:href="#prefix__b"/>
        <use fill="#FFF" xlink:href="#prefix__b"/>
        <g transform="translate(3 4)">
            <mask id="prefix__d" fill="#fff">
                <use xlink:href="#prefix__c"/>
            </mask>
            <path fill="#3F3F3F" d="M30.814 42.922L21.662 44.959 22.137 28.939 30.814 28.939z" mask="url(#prefix__d)"/>
            <mask id="prefix__f" fill="#fff">
                <use xlink:href="#prefix__e"/>
            </mask>
            <path fill="#E5E5E5" d="M39.474 41.456L34.3 48.955l-5.174-7.499c-13.942 0-16.146 5.527-17.542 12.163-.099.47-.15.96-.133 1.44v9.03c5.904 5.728 13.95 9.26 22.824 9.26 8.885 0 16.94-3.54 22.845-9.278V55.54c.01-.16.023-.317.029-.48.018-.48-.034-.97-.133-1.44-1.395-6.636-3.6-12.163-17.542-12.163" mask="url(#prefix__f)"/>
            <g>
                <mask id="prefix__h" fill="#fff">
                    <use xlink:href="#prefix__g"/>
                </mask>
                <path fill="#3F3F3F" d="M34.3 8.982c-16.26 0-15.432 16.44-15.432 34.078.332 4.305-1.288 7.587-3.887 10.355 6.523.44 10.234-4.63 11.495-11.563.085-.463-.613-.833-.868-1.227-2.555-3.94-4.623-7.631.562-10.27l.135-5.836c.06-2.617 1.008-5.172 2.813-7.07 1.365-1.435 2.904-2.249 4.565-2.628.373-.086.762-.06 1.116.085l-.499 23.47c3.019 7.648 8.668 6.408 14.556 4.36 0-18.028-.373-33.754-14.556-33.754" mask="url(#prefix__h)"/>
            </g>
            <g>
                <mask id="prefix__j" fill="#fff">
                    <use xlink:href="#prefix__i"/>
                </mask>
                <path fill="#EAEAEA" d="M34.3 33.186L28.685 33.186 28.685 48.954 34.3 48.954 39.915 48.954 39.915 33.186z" mask="url(#prefix__j)"/>
            </g>
            <g>
                <mask id="prefix__l" fill="#fff">
                    <use xlink:href="#prefix__k"/>
                </mask>
                <path fill="#3F3F3F" d="M22.474 51.685l5.37-4.289c.027-.02.065-.009.075.024l2.936 27.819h6.89l2.936-27.82c.01-.032.049-.043.075-.023l5.37 4.289c.16.127.386-.036.328-.232-2.235-7.465-5.06-11.997-6.539-11.922L34.3 48.858l-5.615-9.327c-1.478-.076-4.304 4.457-6.539 11.922-.059.196.169.36.328.232" mask="url(#prefix__l)"/>
            </g>
            <g>
                <mask id="prefix__n" fill="#fff">
                    <use xlink:href="#prefix__m"/>
                </mask>
                <path fill="#F4F4F4" d="M43.117 24.436c-1.533-5.689-4.835-9.737-8.817-9.721 0 0 .003-.013 0-.015-.008-.007-.063.015-.063.015-2.498.216-4.317 1.474-5.806 3.324-1.372 1.702-2.065 3.852-2.116 6.037l-.115 4.977c-.022.944.153 1.883.5 2.76 1.745 4.419 4.02 6.534 7.537 6.56v.002l.028-.001.035.001v-.003c3.892-.028 6.316-2.588 8.13-8.017 2.187.429 3.297-5.576.687-5.919" mask="url(#prefix__n)"/>
            </g>
        </g>
    </g>
</svg>
