<svg xmlns="http://www.w3.org/2000/svg" width="18" height="18" viewBox="0 0 18 18">
    <defs>
        <filter id="fsima2zina">
            <feColorMatrix in="SourceGraphic" values="0 0 0 0 0.219608 0 0 0 0 0.388235 0 0 0 0 1.000000 0 0 0 1.000000 0"/>
        </filter>
    </defs>
    <g fill="none" fill-rule="evenodd">
        <g>
            <g>
                <g filter="url(#fsima2zina)" transform="translate(-145 -181) translate(46 104) translate(0 67)">
                    <g>
                        <g fill="#000" fill-rule="nonzero">
                            <path d="M17.421 8.229h-6.107C11.08 7.136 10.093 6.32 8.936 6.32s-2.143.815-2.379 1.908H.6c-.3 0-.536.235-.536.535 0 .3.236.536.536.536h5.957c.236 1.093 1.222 1.907 2.379 1.907s2.143-.814 2.378-1.907h6.107c.3 0 .536-.236.536-.536 0-.278-.257-.535-.536-.535zm-8.485 1.907c-.75 0-1.372-.622-1.372-1.372 0-.75.622-1.371 1.372-1.371.75 0 1.371.621 1.371 1.371s-.621 1.372-1.371 1.372zM2.529 5.014c1.157 0 2.142-.814 2.378-1.907H17.4c.3 0 .536-.236.536-.536 0-.3-.236-.535-.536-.535H4.907C4.671.943 3.686.129 2.53.129 1.179.129.086 1.243.086 2.57c0 1.329 1.093 2.443 2.443 2.443zm0-3.814c.75 0 1.371.621 1.371 1.371s-.621 1.372-1.371 1.372S1.157 3.32 1.157 2.57c0-.75.622-1.371 1.372-1.371zM15.493 12.557c-1.157 0-2.122.814-2.379 1.886H.6c-.3 0-.536.236-.536.536 0 .3.236.535.536.535h12.514c.236 1.093 1.222 1.929 2.379 1.929 1.35 0 2.443-1.093 2.443-2.443s-1.115-2.443-2.443-2.443zm0 3.793c-.75 0-1.372-.621-1.372-1.371s.622-1.372 1.372-1.372c.75 0 1.371.622 1.371 1.372 0 .75-.621 1.371-1.371 1.371z" transform="translate(99 10)"/>
                        </g>
                    </g>
                </g>
            </g>
        </g>
    </g>
</svg>
