<svg xmlns="http://www.w3.org/2000/svg" width="29" height="29" viewBox="0 0 29 29">
    <defs>
        <filter id="prefix__a">
            <feColorMatrix in="SourceGraphic" values="0 0 0 0 0.556863 0 0 0 0 0.745098 0 0 0 0 0.733333 0 0 0 1.000000 0"/>
        </filter>
    </defs>
    <g fill="none" fill-rule="evenodd" filter="url(#prefix__a)">
        <path fill="#000" fill-rule="nonzero" d="M14.5 0C6.49 0 0 6.49 0 14.5S6.49 29 14.5 29 29 22.51 29 14.5 22.51 0 14.5 0zm0 27.129c-6.964 0-12.629-5.665-12.629-12.629 0-6.964 5.665-12.629 12.629-12.629 6.964 0 12.629 5.665 12.629 12.629 0 6.964-5.665 12.629-12.629 12.629zm0-8.887c-2.596 0-5.04 1.146-6.712 3.145-.333.398-.28.989.117 1.316.397.333.988.28 1.315-.117 1.31-1.567 3.234-2.467 5.274-2.467s3.964.9 5.274 2.467c.31.374.9.468 1.315.117.398-.333.45-.924.117-1.316-1.66-2-4.104-3.145-6.7-3.145zm-4.677-4.677c1.034 0 1.87-.837 1.87-1.871 0-1.035-.836-1.871-1.87-1.871-1.035 0-1.871.836-1.871 1.87 0 1.035.836 1.872 1.87 1.872zm9.354 0c1.035 0 1.871-.837 1.871-1.871 0-1.035-.836-1.871-1.87-1.871-1.035 0-1.872.836-1.872 1.87 0 1.035.837 1.872 1.871 1.872z"/>
    </g>
</svg>
