<svg xmlns="http://www.w3.org/2000/svg" width="24" height="24" viewBox="0 0 24 24">
    <defs>
        <filter id="prefix__a">
            <feColorMatrix in="SourceGraphic" values="0 0 0 0 0.999063 0 0 0 0 0.434148 0 0 0 0 0.382140 0 0 0 1.000000 0"/>
        </filter>
    </defs>
    <g fill="none" fill-rule="evenodd" transform="translate(0 -2)">
        <path fill="#d02683" fill-rule="nonzero" d="M21.75 9h-1.842c.445-.628.717-1.402.717-2.25 0-2.067-1.566-3.75-3.492-3.75C15.15 3 14.002 4.19 12 7.49 9.998 4.19 8.85 3 6.867 3 4.941 3 3.375 4.683 3.375 6.75c0 .848.272 1.622.717 2.25H2.25C1.008 9 0 10.008 0 11.25v4.5c0 .412.338.75.75.75h.75v6.75c0 1.242 1.008 2.25 2.25 2.25h16.5c1.242 0 2.25-1.008 2.25-2.25V16.5h.75c.413 0 .75-.338.75-.75v-4.5C24 10.008 22.992 9 21.75 9zm-8.803-.169C15.267 4.927 16.04 4.5 17.133 4.5c1.097 0 1.992 1.008 1.992 2.25S18.23 9 17.133 9h-4.29l.104-.169zM6.867 4.5c1.097 0 1.866.427 4.186 4.331l.099.169h-4.29C5.766 9 4.87 7.992 4.87 6.75c.005-1.242.9-2.25 1.997-2.25zM9 24H3.75c-.413 0-.75-.337-.75-.75V16.5h6V24zm0-9H1.5v-3.75c0-.412.337-.75.75-.75H9V15zm4.5 9h-3V10.5h3V24zm7.5-.75c0 .413-.337.75-.75.75H15v-7.5h6v6.75zM22.5 15H15v-4.5h6.75c.413 0 .75.338.75.75V15z"/>
    </g>
</svg>
