<svg xmlns="http://www.w3.org/2000/svg" width="113" height="110" viewBox="0 0 113 110">
    <defs>
        <filter id="prefix__a">
            <feColorMatrix in="SourceGraphic" values="0 0 0 0 0.999063 0 0 0 0 0.434148 0 0 0 0 0.382140 0 0 0 1.000000 0"/>
        </filter>
    </defs>
    <g fill="none" fill-rule="evenodd">
        <circle cx="55" cy="55" r="55" fill="#DCEBEA"/>
        <g>
            <path fill="#FFF" d="M7 13H39V56H7z" transform="translate(23 26)"/>
            <path fill="#FFF" d="M21 2L45.621 2 55 10.815 53.828 45 21 45z" transform="translate(23 26)"/>
            <g fill="#FF6F61" filter="url(#prefix__a)" transform="translate(23 26)">
                <path fill="#000" fill-rule="nonzero" d="M53.99 7.47l-5.877-5.877C47.093.573 45.711 0 44.27 0H24.77c-3.003 0-5.438 2.434-5.438 5.438v5.437h-9.062c-3.003 0-5.438 2.434-5.438 5.438v36.25c0 3.003 2.435 5.437 5.438 5.437h25.375c3.003 0 5.437-2.434 5.437-5.438v-5.437h9.063c3.003 0 5.437-2.434 5.437-5.438V11.316c0-1.442-.573-2.825-1.592-3.845zm-9.282-3.79c.319.08.61.244.842.476l5.877 5.877c.233.232.397.523.476.842h-7.195V3.681zm-7.25 48.883c0 .999-.813 1.812-1.812 1.812H10.27c-1 0-1.813-.813-1.813-1.813v-36.25c0-.999.813-1.812 1.813-1.812h9.062v27.188c0 3.003 2.435 5.437 5.438 5.437h12.687v5.438zm14.5-10.876c0 1-.813 1.813-1.812 1.813H24.77c-1 0-1.813-.813-1.813-1.813V5.438c0-.999.813-1.812 1.813-1.812h16.312v8.156c0 1.496 1.224 2.719 2.72 2.719h8.155v27.188z"/>
            </g>
        </g>
        <g>
            <path fill="#FFF" d="M30.974 50.071L23 22.5 54.152 32.5 45.408 36.286 56.654 48.99 49 55 37.024 43.019z" transform="translate(56 51)"/>
            <g fill="#8EBEBB">
                <path d="M22 14c.552 0 1-.514 1-1.148V1.148C23 .514 22.552 0 22 0s-1 .514-1 1.148v11.704c0 .634.448 1.148 1 1.148M14 22.5c0-.828-.514-1.5-1.148-1.5H1.148C.514 21 0 21.672 0 22.5S.514 24 1.148 24h11.704c.634 0 1.148-.672 1.148-1.5M28.194 17c.306 0 .611-.117.844-.35L37.65 8.04c.467-.467.467-1.223 0-1.69-.466-.466-1.222-.466-1.689 0l-8.611 8.612c-.467.467-.467 1.223 0 1.69.233.232.539.349.844.349M8.039 6.35c-.467-.467-1.223-.467-1.69 0-.466.466-.466 1.222 0 1.689l8.612 8.611c.234.233.54.35.845.35.305 0 .611-.117.844-.35.467-.466.467-1.222 0-1.689L8.04 6.35M14.961 27.35L6.35 35.962c-.467.466-.467 1.222 0 1.688.233.233.539.35.844.35.306 0 .611-.117.845-.35l8.611-8.611c.467-.467.467-1.223 0-1.69-.466-.466-1.222-.466-1.689 0M48.156 54.151L37.024 43.02c-.222-.222-.523-.345-.834-.345-.046 0-.091.003-.138.008-.358.042-.677.246-.867.553l-4.211 6.836-7.116-26.213 26.213 7.116-6.836 4.211c-.307.19-.51.509-.553.868-.042.358.083.716.338.97l11.132 11.133-5.996 5.995zm8.498-6.83l-10.91-10.91 7.885-4.858c.4-.246.616-.707.549-1.173-.068-.465-.405-.846-.859-.97l-30.83-8.369c-.408-.11-.844.006-1.143.305-.3.299-.415.735-.305 1.143l8.37 30.83c.123.454.504.791.97.859.466.067.926-.149 1.172-.55l4.858-7.884 10.911 10.91c.23.23.532.346.834.346.302 0 .604-.115.834-.346l7.664-7.664c.461-.46.461-1.208 0-1.668z" transform="translate(56 51)"/>
            </g>
        </g>
    </g>
</svg>
