<svg xmlns="http://www.w3.org/2000/svg" width="75" height="75" viewBox="0 0 75 75">
    <g fill="none" fill-rule="evenodd">
        <g>
            <g>
                <g transform="translate(-646 -276) translate(376 252) translate(270 24)">
                    <circle cx="37.5" cy="37.5" r="37.5" fill="#DFECFF"/>
                    <g fill-rule="nonzero">
                        <g>
                            <path fill="#132259" d="M9.61 30.414s-.18-.373-.205-.433c-1.62-3.902-.605-7.432.14-9.192.02-.053.069-.154.093-.203 1.121-2.311 3.187-6.52 4.484-9.131.753-1.514 1.145-3.178 1.145-4.865V5.42C15.271 2.429 12.817 0 9.794 0H5.478C2.45 0 0 2.425 0 5.42v39.772c0 2.995 2.45 5.42 5.478 5.42h4.316c3.027 0 5.477-2.425 5.477-5.42v-.761c0-1.692-.392-3.356-1.145-4.874-1.313-2.63-3.42-6.877-4.516-9.143z" transform="translate(21 13)"/>
                            <path fill="#D02683" d="M29.405 6.78h-3.162c-3.1 0-5.928 1.748-7.286 4.505l-5.212 10.568c-1.145 2.323-1.145 5.035 0 7.359l5.212 10.572c1.358 2.756 4.185 4.505 7.286 4.505h3.162c4.562 0 7.565-4.711 5.6-8.783l-4.237-8.784c-.364-.752-.364-1.627 0-2.38l4.234-8.779c1.968-4.076-1.035-8.783-5.597-8.783z" transform="translate(21 13)"/>
                        </g>
                    </g>
                </g>
            </g>
        </g>
    </g>
</svg>
