<svg xmlns="http://www.w3.org/2000/svg" width="24" height="24" viewBox="0 0 24 24">
    <defs>
        <filter id="prefix__a">
            <feColorMatrix in="SourceGraphic" values="0 0 0 0 0.999063 0 0 0 0 0.434148 0 0 0 0 0.382140 0 0 0 1.000000 0"/>
        </filter>
    </defs>
    <g fill="none" fill-rule="evenodd" transform="translate(0 -1)">
        <path fill="#d02683" fill-rule="nonzero" d="M12 10.667c-1.842 0-3.333 1.491-3.333 3.333s1.491 3.333 3.333 3.333 3.333-1.491 3.333-3.333-1.491-3.333-3.333-3.333zM12 16c-1.104 0-2-.896-2-2s.896-2 2-2 2 .896 2 2-.896 2-2 2zm9.333-11.333h-6.666V3.333c0-.737-.596-1.333-1.334-1.333h-2.666c-.738 0-1.334.596-1.334 1.333v1.334H2.667C1.196 4.667 0 5.862 0 7.333v13.334c0 1.47 1.196 2.666 2.667 2.666h18.666c1.471 0 2.667-1.195 2.667-2.666V7.333c0-1.47-1.196-2.666-2.667-2.666zM10.667 3.333h2.666v4h-2.666v-4zM16 22H8v-.913c0-.375.108-.733.317-1.041.3-.446.845-.717 1.458-.717.662 0 .98.334 2.225.334 1.246 0 1.567-.334 2.225-.334.613 0 1.154.267 1.458.717.209.308.317.666.317 1.041V22zm6.667-1.333c0 .733-.6 1.333-1.334 1.333h-4v-.913c0-.662-.2-1.274-.541-1.783C16.217 18.45 15.237 18 14.229 18c-.925 0-1.158.333-2.225.333-1.066 0-1.3-.333-2.225-.333-1.008 0-1.987.45-2.562 1.304-.342.509-.542 1.125-.542 1.784V22H2.667c-.734 0-1.334-.6-1.334-1.333V7.333C1.333 6.6 1.933 6 2.667 6h6.666v2.667h5.334V6h6.666c.734 0 1.334.6 1.334 1.333v13.334z"/>
    </g>
</svg>
