<svg xmlns="http://www.w3.org/2000/svg" fill="#8EBEBB" width="54" height="54" viewBox="0 0 25 38">
    <defs>
        <filter id="prefix__a">
            <feColorMatrix in="SourceGraphic" values="0 0 0 0 0.556863 0 0 0 0 0.745098 0 0 0 0 0.733333 0 0 0 1.000000 0"/>
        </filter>
    </defs>
    <g fill="none" fill-rule="evenodd" filter="url(#prefix__a)" transform="translate(-28)">
        <path fill="#000" fill-rule="nonzero" d="M29.465 13.777l-.906.846c-.59.549-.725 1.424-.348 2.137.74 1.394.74 3.056 0 4.436-.377.712-.241 1.588.348 2.137l.906.845c.846.802 2.236.609 2.825-.385 1.782-2.968 1.782-6.677 0-9.66-.59-.964-1.964-1.157-2.825-.356zm9.788-6.484c-.665-.83-1.918-.935-2.704-.193l-.876.831c-.665.623-.755 1.647-.196 2.36 4.002 5.133 4.002 12.255 0 17.374-.56.712-.469 1.736.196 2.36l.876.83c.786.727 2.04.638 2.704-.193 5.453-6.855 5.453-16.484 0-23.369zM46.186.631c-.68-.786-1.888-.846-2.659-.133l-.876.83c-.694.653-.755 1.707-.136 2.434 7.507 8.828 7.492 21.648 0 30.476-.604.712-.543 1.78.136 2.434l.876.83c.756.713 1.98.653 2.659-.133 9.093-10.653 9.078-26.13 0-36.738z"/>
    </g>
</svg>
