<svg xmlns="http://www.w3.org/2000/svg" width="24" height="24" viewBox="0 0 24 24">
    <path d="M23.114 16.467l-5.081-2.18c-.6-.255-1.296-.085-1.711.418l-2.067 2.526c-3.252-1.599-5.882-4.23-7.482-7.481L9.3 7.683c.503-.415.673-1.111.417-1.71L7.537.885C7.257.236 6.55-.12 5.86.038L1.134 1.13C.47 1.28-.003 1.873 0 2.555 0 14.428 9.623 24 21.445 24c.684.001 1.278-.472 1.43-1.14l1.087-4.72c.16-.689-.198-1.394-.848-1.673zM21.417 22.5C10.425 22.486 1.514 13.58 1.505 2.588L6.173 1.51 8.33 6.544 4.917 9.333c2.269 4.837 4.899 7.476 9.755 9.754l2.789-3.412 5.034 2.156-1.078 4.669z"/>
</svg>
