<svg xmlns="http://www.w3.org/2000/svg" width="24" height="24" viewBox="0 0 24 24">
    <path d="M21.675 3.436c-2.55-2.17-6.363-1.81-8.73.632l-.922.954-.921-.95C9.193 2.099 5.342.91 2.372 3.437c-2.938 2.508-3.092 7.008-.463 9.722l9.052 9.347c.29.3.674.454 1.058.454.383 0 .767-.15 1.057-.454l9.053-9.347c2.638-2.714 2.484-7.214-.454-9.722zm-.613 8.683l-9.02 9.348-9.057-9.348c-1.797-1.852-2.171-5.384.36-7.541 2.564-2.19 5.577-.604 6.68.538l1.998 2.063 1.998-2.063c1.085-1.123 4.126-2.714 6.68-.538 2.527 2.152 2.157 5.684.361 7.541z"/>
</svg>
