<svg xmlns="http://www.w3.org/2000/svg" fill="#8EBEBB" width="54" height="54" viewBox="0 0 24 24">
    <path d="M19.5 17h-1.667c-.275 0-.5.225-.5.5v1.667c0 .275.225.5.5.5H19.5c.275 0 .5-.225.5-.5V17.5c0-.275-.225-.5-.5-.5zm0-5.333h-1.667c-.275 0-.5.225-.5.5v1.666c0 .275.225.5.5.5H19.5c.275 0 .5-.225.5-.5v-1.666c0-.275-.225-.5-.5-.5zM12.833 17h-1.666c-.275 0-.5.225-.5.5v1.667c0 .275.225.5.5.5h1.666c.275 0 .5-.225.5-.5V17.5c0-.275-.225-.5-.5-.5zm0-5.333h-1.666c-.275 0-.5.225-.5.5v1.666c0 .275.225.5.5.5h1.666c.275 0 .5-.225.5-.5v-1.666c0-.275-.225-.5-.5-.5zM6.167 17H4.5c-.275 0-.5.225-.5.5v1.667c0 .275.225.5.5.5h1.667c.275 0 .5-.225.5-.5V17.5c0-.275-.225-.5-.5-.5zm0-5.333H4.5c-.275 0-.5.225-.5.5v1.666c0 .275.225.5.5.5h1.667c.275 0 .5-.225.5-.5v-1.666c0-.275-.225-.5-.5-.5zm7.583-6h-1.083V4.583c0-.137-.113-.25-.25-.25h-.834c-.137 0-.25.113-.25.25v1.084H10.25c-.137 0-.25.112-.25.25v.833c0 .138.113.25.25.25h1.083v1.083c0 .138.113.25.25.25h.834c.137 0 .25-.112.25-.25V7h1.083c.137 0 .25-.112.25-.25v-.833c0-.138-.113-.25-.25-.25zm8.25.666h-4.667V3c0-1.104-.895-2-2-2H8.667c-1.104 0-2 .896-2 2v3.333H2c-1.104 0-2 .896-2 2V22c0 .183.15.333.333.333H1c.183 0 .333-.15.333-.333V8.333c0-.366.3-.666.667-.666h6V3c0-.367.3-.667.667-.667h6.666c.367 0 .667.3.667.667v4.667h6c.367 0 .667.3.667.666V22c0 .183.15.333.333.333h.667c.183 0 .333-.15.333-.333V8.333c0-1.104-.896-2-2-2z"/>
</svg>
