<svg xmlns="http://www.w3.org/2000/svg" fill="#8EBEBB" width="54" height="54" viewBox="0 0 24 24">
    <path d="M22.341 3.091L19.909.659C19.487.237 18.915 0 18.318 0H10.25C9.007 0 8 1.007 8 2.25V4.5H4.25C3.007 4.5 2 5.507 2 6.75v15C2 22.993 3.007 24 4.25 24h10.5c1.243 0 2.25-1.007 2.25-2.25V19.5h3.75c1.243 0 2.25-1.007 2.25-2.25V4.682c0-.597-.237-1.17-.659-1.591zM18.5 1.523c.132.033.252.1.348.197l2.432 2.432c.096.096.164.216.197.348H18.5V1.523zm-3 20.227c0 .414-.336.75-.75.75H4.25c-.414 0-.75-.336-.75-.75v-15c0-.414.336-.75.75-.75H8v11.25c0 1.243 1.007 2.25 2.25 2.25h5.25v2.25zm6-4.5c0 .414-.336.75-.75.75h-10.5c-.414 0-.75-.336-.75-.75v-15c0-.414.336-.75.75-.75H17v3.375C17 5.494 17.506 6 18.125 6H21.5v11.25z"/>
</svg>
