<svg xmlns="http://www.w3.org/2000/svg" fill="#8EBEBB" width="54" height="54" viewBox="0 0 24 24">
    <path d="M5.55 9.2h-1.5c-.249 0-.45.201-.45.45v1.5c0 .249.201.45.45.45h1.5c.249 0 .45-.201.45-.45v-1.5c0-.249-.201-.45-.45-.45zm0 3.6h-1.5c-.249 0-.45.201-.45.45v1.5c0 .249.201.45.45.45h1.5c.249 0 .45-.201.45-.45v-1.5c0-.249-.201-.45-.45-.45zm0 3.6h-1.5c-.249 0-.45.201-.45.45v1.5c0 .249.201.45.45.45h1.5c.249 0 .45-.201.45-.45v-1.5c0-.249-.201-.45-.45-.45zm3.6-3.6h-1.5c-.249 0-.45.201-.45.45v1.5c0 .249.201.45.45.45h1.5c.249 0 .45-.201.45-.45v-1.5c0-.249-.201-.45-.45-.45zm0-3.6h-1.5c-.249 0-.45.201-.45.45v1.5c0 .249.201.45.45.45h1.5c.249 0 .45-.201.45-.45v-1.5c0-.249-.201-.45-.45-.45zm0 7.2h-1.5c-.249 0-.45.201-.45.45v1.5c0 .249.201.45.45.45h1.5c.249 0 .45-.201.45-.45v-1.5c0-.249-.201-.45-.45-.45zM7.2 6.8h.975c.124 0 .225-.1.225-.225v-.75c0-.124-.1-.225-.225-.225H7.2v-.975c0-.124-.1-.225-.225-.225h-.75c-.124 0-.225.1-.225.225V5.6h-.975c-.124 0-.225.1-.225.225v.75c0 .124.1.225.225.225H6v.975c0 .124.1.225.225.225h.75c.124 0 .225-.1.225-.225V6.8zM18 14c1.988 0 3.6-1.612 3.6-3.6S19.988 6.8 18 6.8s-3.6 1.612-3.6 3.6S16.012 14 18 14zm0-6c1.325 0 2.4 1.075 2.4 2.4s-1.075 2.4-2.4 2.4-2.4-1.075-2.4-2.4c.001-1.325 1.075-2.399 2.4-2.4zm5.388 8.292c-.646-.96-1.75-1.467-2.883-1.467-1.042 0-1.305.375-2.505.375s-1.46-.375-2.505-.375c-1.133 0-2.236.506-2.883 1.467-.4.593-.613 1.293-.612 2.008v1.4c0 .828.672 1.5 1.5 1.5h9c.828 0 1.5-.672 1.5-1.5v-1.4c.001-.715-.212-1.414-.612-2.008zM22.8 19.7c0 .166-.134.3-.3.3h-9c-.166 0-.3-.134-.3-.3v-1.4c-.001-.476.14-.942.407-1.337.395-.587 1.1-.938 1.888-.938.818 0 1.125.375 2.505.375s1.688-.375 2.505-.375c.787 0 1.493.35 1.888.938.266.395.408.86.407 1.337v1.4zM12 6.8v8.337c.344-.38.75-.696 1.2-.938V6.8c0-.663-.537-1.2-1.2-1.2h-.6V3.2c0-.663-.537-1.2-1.2-1.2H3c-.663 0-1.2.537-1.2 1.2v2.4h-.6C.537 5.6 0 6.137 0 6.8v14.1c0 .166.134.3.3.3h.6c.166 0 .3-.134.3-.3V6.8H3V3.2h7.2v3.6H12z"/>
</svg>
