<svg xmlns="http://www.w3.org/2000/svg" fill="#8EBEBB" width="54" height="54" viewBox="0 0 24 24">
    <path d="M15 15h4.667c.183 0 .333-.15.333-.333V14c0-.183-.15-.333-.333-.333H15c-.183 0-.333.15-.333.333v.667c0 .183.15.333.333.333zm0-2.667h4.667c.183 0 .333-.15.333-.333v-.667c0-.183-.15-.333-.333-.333H15c-.183 0-.333.15-.333.333V12c0 .183.15.333.333.333zm0 5.334h4.667c.183 0 .333-.15.333-.334v-.666c0-.184-.15-.334-.333-.334H15c-.183 0-.333.15-.333.334v.666c0 .184.15.334.333.334zm-7-1.334c1.842 0 3.333-1.491 3.333-3.333S9.842 9.667 8 9.667 4.667 11.158 4.667 13 6.158 16.333 8 16.333zM8 11c1.104 0 2 .896 2 2s-.896 2-2 2-2-.896-2-2 .896-2 2-2zm13.333-8H2.667C1.196 3 0 4.196 0 5.667V19c0 1.47 1.196 2.667 2.667 2.667h18.666C22.804 21.667 24 20.47 24 19V5.667C24 4.196 22.804 3 21.333 3zm-10 17.333H4.667v-.629c0-.291.087-.575.25-.817.233-.345.658-.55 1.137-.55.517 0 .867.292 1.95.292 1.08 0 1.43-.292 1.95-.292.48 0 .904.209 1.138.55.162.242.25.525.25.817v.63h-.009zM22.667 19c0 .733-.6 1.333-1.334 1.333h-8.666v-.629c0-.579-.175-1.117-.475-1.562C11.687 17.396 10.829 17 9.95 17c-.813 0-1.017.292-1.95.292S6.862 17 6.05 17c-.883 0-1.742.392-2.242 1.142-.3.446-.475.983-.475 1.562v.63h-.666c-.734 0-1.334-.6-1.334-1.334V8.333h21.334V19zm0-12H1.333V5.667c0-.734.6-1.334 1.334-1.334h18.666c.734 0 1.334.6 1.334 1.334V7z"/>
</svg>
