<svg xmlns="http://www.w3.org/2000/svg" fill="#8EBEBB" width="54" height="54" viewBox="0 0 24 24">
    <path d="M12 4.5C9.519 4.5 7.5 6.519 7.5 9s2.019 4.5 4.5 4.5 4.5-2.019 4.5-4.5-2.019-4.5-4.5-4.5zm0 7.5c-1.654 0-3-1.346-3-3s1.346-3 3-3 3 1.346 3 3-1.346 3-3 3zm0-12C7.03 0 3 4.03 3 9c0 3.629 1.264 4.642 8.075 14.516.447.645 1.403.645 1.85 0C19.735 13.642 21 12.629 21 9c0-4.97-4.03-9-9-9zm0 22.216C5.47 12.773 4.5 12.023 4.5 9c0-2.003.78-3.887 2.197-5.303C8.113 2.28 9.997 1.5 12 1.5s3.887.78 5.303 2.197C18.72 5.113 19.5 6.997 19.5 9c0 3.023-.97 3.772-7.5 13.216z"/>
</svg>
