<svg xmlns="http://www.w3.org/2000/svg" width="189" height="32" viewBox="0 0 189 32">
    <g fill="none" fill-rule="evenodd">
        <g fill-rule="nonzero">
            <g>
                <path fill="#D02683" d="M17.949 4.057c1.696-.059 3.23 1.006 3.765 2.617.302.977.218 2.032-.234 2.949-.789 1.672-1.59 3.34-2.406 5.006-.418.61-.458 1.403-.103 2.051.035.063 1.715 3.514 2.515 5.189.454.922.536 1.984.228 2.965-.549 1.598-2.077 2.651-3.765 2.595H16.44c-1.946.083-3.776-.927-4.743-2.618-.103-.177-2.423-4.925-3.468-7.12-.515-1.318-.486-2.788.08-4.085 1.022-2.137 3.285-6.777 3.388-6.955.967-1.69 2.797-2.7 4.743-2.617l1.509.023z" transform="translate(-36 -9) translate(36 9)"/>
                <path fill="#202658" d="M5.931 18.966s-.114-.229-.125-.269c-.731-1.84-.7-3.896.085-5.714.016-.044.035-.086.058-.126.697-1.457 1.988-4.114 2.788-5.714.451-.916.686-1.922.686-2.943v-.823C9.42 1.511 7.906 0 6.04 0H3.377C1.513.003.003 1.513 0 3.377v24.806c0 1.865 1.512 3.377 3.377 3.377H6.04c.897.002 1.757-.354 2.392-.987.634-.634.99-1.493.99-2.39v-.526c0-1.02-.234-2.027-.685-2.943-.806-1.64-2.126-4.32-2.806-5.748zM41.377 25.52H37.48v-8.377c0-2.063-.771-3.092-2.286-3.092-.93-.077-1.83.345-2.365 1.109-.488.762-.732 1.966-.732 3.611v6.749h-3.914V5.617h3.897v4.057c0 .315 0 1.057-.086 2.223l-.091 1.143h.206c.868-1.402 2.25-2.101 4.142-2.097 1.68 0 2.955.451 3.823 1.354.869.903 1.303 2.198 1.303 3.886v9.337zM51.366 25.777c-2.286 0-4.084-.636-5.395-1.908-1.31-1.273-1.958-3.07-1.942-5.395 0-2.4.598-4.253 1.794-5.56 1.196-1.306 2.853-1.96 4.971-1.96 2.017 0 3.595.572 4.72 1.715C56.64 13.81 57.2 15.406 57.2 17.44v1.891H48c-.015.96.34 1.888.989 2.595.688.65 1.614.988 2.56.931.82.006 1.64-.084 2.44-.268.829-.2 1.635-.486 2.405-.852v3.017c-.695.344-1.43.6-2.188.76-.935.186-1.887.274-2.84.263zm-.549-12.063c-.732-.039-1.444.25-1.943.789-.509.632-.793 1.417-.805 2.228h5.474c.035-.81-.234-1.605-.754-2.228-.512-.537-1.231-.824-1.972-.789zM68.954 25.52l-.754-1.943h-.103c-.534.72-1.229 1.308-2.028 1.714-.86.352-1.786.516-2.715.48-1.197.067-2.37-.359-3.245-1.177-.835-.91-1.263-2.121-1.183-3.354-.094-1.32.51-2.593 1.594-3.354 1.063-.72 2.663-1.12 4.8-1.2l2.486-.075V16c0-1.448-.743-2.171-2.229-2.171-1.4.06-2.771.41-4.028 1.028l-1.292-2.634c1.687-.87 3.56-1.315 5.457-1.297 1.905 0 3.376.417 4.412 1.251 1.036.834 1.554 2.109 1.554 3.823v9.52h-2.726zm-1.143-6.629l-1.514.052c-.884-.03-1.76.183-2.531.617-.56.385-.875 1.037-.829 1.714 0 1.097.63 1.646 1.892 1.646.796.04 1.576-.24 2.165-.777.554-.545.851-1.298.817-2.074V18.89zM79.097 25.52L75.194 25.52 75.194 5.617 79.097 5.617zM88.714 22.669c.837-.027 1.666-.179 2.457-.452v2.926c-1.135.468-2.355.691-3.582.657-1.559 0-2.701-.396-3.429-1.189-.728-.792-1.084-1.975-1.069-3.548v-6.914h-1.868v-1.652l2.148-1.303 1.143-3.017h2.492v3.046h4v2.926h-4v6.891c-.037.46.135.91.468 1.229.35.28.792.422 1.24.4zM106.76 25.52h-3.903v-8.377c0-2.061-.762-3.092-2.286-3.092-.93-.077-1.83.345-2.365 1.109-.488.762-.732 1.966-.732 3.611v6.749h-3.903V5.617h3.903v4.057c0 .315-.028 1.057-.091 2.223l-.086 1.143h.2c.874-1.4 2.252-2.097 4.149-2.097 1.674 0 2.954.451 3.823 1.354.868.903 1.302 2.2 1.302 3.886l-.011 9.337z" transform="translate(-36 -9) translate(36 9)"/>
                <path fill="#D02683" d="M112.571 18.343c.534-.713 1.106-1.396 1.715-2.046l4.525-4.794h2.52l-5.68 5.971 6.063 8.046h-2.571l-4.949-6.629-1.623 1.383v5.246h-2.102V5.617h2.102v10.554c0 .469-.034 1.195-.102 2.172h.102zM132.354 25.52l-.423-1.994h-.102c-.555.752-1.28 1.363-2.115 1.783-.824.335-1.71.494-2.6.468-1.186.07-2.354-.315-3.268-1.074-.822-.798-1.254-1.915-1.183-3.057 0-2.835 2.263-4.318 6.788-4.452l2.378-.08v-.868c.071-.871-.181-1.738-.709-2.435-.612-.581-1.446-.869-2.286-.788-1.385.057-2.74.424-3.965 1.074l-.652-1.623c.722-.387 1.49-.683 2.286-.88.807-.213 1.639-.32 2.474-.32 1.674 0 2.914.366 3.72 1.109s1.206 1.931 1.206 3.571v9.566h-1.549zM127.56 24c1.139.063 2.257-.327 3.109-1.086.791-.81 1.206-1.915 1.142-3.045v-1.246l-2.125.091c-1.686.063-2.903.32-3.652.789-.754.453-1.194 1.287-1.143 2.166-.04.664.223 1.311.715 1.76.56.42 1.255.623 1.954.571zM144.194 11.246c.564-.006 1.127.046 1.68.154l-.297 1.971c-.503-.12-1.019-.186-1.537-.194-1.124.003-2.188.51-2.897 1.383-.815.953-1.245 2.175-1.206 3.429v7.531h-2.126V11.503h1.755l.245 2.594h.098c.453-.833 1.093-1.55 1.868-2.097.71-.492 1.553-.756 2.417-.754zM165.863 25.52v-9.143c.06-.89-.194-1.772-.72-2.491-.578-.598-1.394-.904-2.223-.835-1.1-.09-2.178.332-2.926 1.143-.636.762-.952 1.93-.948 3.503v7.829h-2.126v-9.143c.068-.896-.185-1.788-.714-2.514-.584-.6-1.406-.906-2.24-.835-1.326 0-2.286.395-2.92 1.195-.635.8-.926 2.102-.926 3.92v7.371H148V11.503h1.714l.349 1.92h.103c.406-.687 1-1.242 1.714-1.6.758-.388 1.6-.584 2.451-.572 2.187 0 3.62.793 4.298 2.378h.102c.43-.731 1.059-1.325 1.812-1.715.836-.438 1.77-.658 2.714-.64 1.589 0 2.772.406 3.56 1.223.789.817 1.183 2.114 1.183 3.909v9.143l-2.137-.029zM180.48 25.52l-.423-1.994h-.103c-.548.75-1.264 1.36-2.091 1.783-.825.335-1.71.495-2.6.468-1.184.067-2.35-.317-3.263-1.074-.821-.798-1.253-1.915-1.183-3.057 0-2.835 2.263-4.318 6.789-4.452l2.394-.051v-.897c.069-.871-.183-1.737-.709-2.435-.612-.58-1.445-.867-2.285-.788-1.384.057-2.737.425-3.96 1.074l-.657-1.623c.722-.387 1.49-.683 2.285-.88.808-.213 1.64-.32 2.475-.32 1.668 0 2.908.366 3.714 1.109s1.206 1.931 1.206 3.571v9.566h-1.589zM175.686 24c1.14.063 2.26-.327 3.114-1.086.792-.81 1.207-1.915 1.143-3.045v-1.246l-2.126.091c-1.714.063-2.903.32-3.651.789-.742.461-1.17 1.294-1.115 2.166-.054.656.19 1.302.663 1.76.566.423 1.267.626 1.972.571z" transform="translate(-36 -9) translate(36 9)"/>
                <path fill="#000" d="M183.56 7.703L183.029 7.703 183.029 4.897 182.069 4.897 182.069 4.44 184.52 4.44 184.52 4.897 183.56 4.897zM186.434 7.703l-.948-2.726c0 .406.034.789.034 1.143v1.583h-.48V4.44h.749l.908 2.594.937-2.594h.755v3.263h-.515V6.09v-.634-.474l-.983 2.72h-.457z" transform="translate(-36 -9) translate(36 9)"/>
            </g>
        </g>
    </g>
</svg>
