<svg xmlns="http://www.w3.org/2000/svg" xmlns:xlink="http://www.w3.org/1999/xlink" width="83" height="82" viewBox="0 0 83 82">
    <defs>
        <filter id="prefix__a" width="117.6%" height="117.6%" x="-7.4%" y="-7.4%" filterUnits="objectBoundingBox">
            <feOffset dx="1" dy="1" in="SourceAlpha" result="shadowOffsetOuter1"/>
            <feGaussianBlur in="shadowOffsetOuter1" result="shadowBlurOuter1" stdDeviation="2"/>
            <feColorMatrix in="shadowBlurOuter1" values="0 0 0 0 0.321537435 0 0 0 0 0.321588576 0 0 0 0 0.321526349 0 0 0 0.6 0"/>
        </filter>
        <circle id="prefix__b" cx="37.948" cy="37" r="37"/>
        <path id="prefix__c" d="M37.313 0C16.687.1 0 16.851 0 37.5 0 58.21 16.79 75 37.5 75 58.211 75 75 58.21 75 37.5 75 16.852 58.313.1 37.687 0h-.374z"/>
    </defs>
    <g fill="none" fill-rule="evenodd" transform="translate(3 2)">
        <g transform="translate(0 1)">
            <use fill="#000" filter="url(#prefix__a)" xlink:href="#prefix__b"/>
            <use fill="#FFF" xlink:href="#prefix__b"/>
        </g>
        <mask id="prefix__d" fill="#fff">
            <use xlink:href="#prefix__c"/>
        </mask>
        <path fill="#559C94" d="M44 42L46 42 46 40 44 40zM29 42L31 42 31 40 29 40z" mask="url(#prefix__d)"/>
        <path fill="#EAEAEA" d="M38.992 33.003L38.992 33 39 33.001 39.008 33 39.008 33.003 46 34.193 46 48 32 48 32 34.193z" mask="url(#prefix__d)"/>
        <path fill="#3F3F3F" d="M60 58.853c-.62-.033-1.198-.373-1.319-1.082-.173-1.025-.353-2.048-.545-3.067-1.19-3.827-4.354-6.232-8.719-6.93-1.304-.209-1.37-1.569-.7-2.373-.09-.35-.08-.717.037-1.029L44.916 43l-4.878 1.777c-1.218 1.348-3.301 1-4.824 0l-4.562-1.662c.556.792-.511.364-1.664.711-3.291.991-6.68 2.712-9.431 4.932-2.068 1.668-3.388 4.16-5.198 6.09-.378 1.862-.463 3.817-.228 5.72.02.16.01.304-.013.438l.002.004c.563-.577 1.554-.754 2.217-.067 2.336 2.42 3.69 5.34 5.61 8.041 1.956 2.752 4.987 4.22 8.238 4.857 2.249-.01 4.549 1.32 6.625 1.143 1.525-.13 3.037-.174 4.546-.181 1.28-.325 2.558-.116 3.852-.423 2.835-.67 5.69-3.44 8.48-4.296.339-.104.714-.215 1.106-.333.328-.186.654-.374.978-.563-.136-.384-.124-.825.11-1.24 1.785-3.168 3.28-5.921 4.118-9.095" mask="url(#prefix__d)"/>
        <path fill="#E5E5E5" d="M12.245 57.757c0-2.348.447-4.678 1.322-6.888.377-.951 1.053-1.776 1.937-2.377.368-.249.775-.435 1.19-.593L27.519 44l2.975 31.85c4.757 1.545 9.524 1.53 14.298-.027l3.052-31.793 10.714 3.871c.412.158.815.342 1.179.588.886.601 1.564 1.427 1.942 2.38.874 2.21 1.322 4.54 1.322 6.888v8.092c-.19.207-.389.405-.584.608-.181.19-.36.383-.546.568-.227.226-.463.442-.697.662-.163.152-.321.31-.487.46-.276.25-.561.488-.845.728-.131.11-.257.226-.39.335-.322.264-.653.518-.985.77-.101.077-.198.159-.3.234-.368.274-.744.536-1.123.796-.07.047-.138.1-.208.147-.416.279-.838.547-1.266.808l-.11.07c-.454.275-.914.539-1.38.792l-.042.024c-4.333 2.349-9.234 3.796-14.445 4.09-.652.036-1.309.059-1.97.059-.662 0-1.317-.023-1.97-.06-5.211-.293-10.111-1.74-14.445-4.09l-.03-.016s-4.64-1.95-9.177-6.378l.245-8.7z" mask="url(#prefix__d)"/>
        <path fill="#F4F4F4" d="M28.808 27.208c-1.419-8.43-1.42-16.2 9.684-16.207V11h.016c11.103.008 11.103 7.779 9.684 16.208 1.384.53.958 3.529-1.03 4.34-.436 2.667-4.401 8.437-8.654 8.451V40h-.016c-4.253-.015-8.218-5.785-8.654-8.452-1.988-.811-2.414-3.81-1.03-4.34" mask="url(#prefix__d)"/>
        <path fill="#3F3F3F" d="M38.492 11h.016c11.274.008 11.274 7.646 9.833 15.932l-.42.99c-.055.13-.257.086-.248-.055.105-1.737-.729-6.533-1.11-8.606-.105-.564-.62-.976-1.221-.976H31.659c-.603 0-1.118.412-1.221.976-.382 2.073-1.216 6.869-1.11 8.606.008.141-.194.186-.25.056l-.419-.991c-1.44-8.286-1.441-15.924 9.833-15.932" mask="url(#prefix__d)"/>
        <path fill="#303030" d="M46.003 40.011c-1.902 1.595-.365 1.698-6.707 5.185-.241.132-.357.4-.264.637l1.922 4.945c.09.23.417.297.61.126l7.313-6.477c.172-.152.164-.404-.027-.536-1.45-1.007-1.807-4.1-2.847-3.88M28.998 40.011c1.9 1.595.364 1.698 6.706 5.185.24.132.357.4.264.637l-1.922 4.945c-.089.23-.416.297-.61.126l-7.313-6.477c-.172-.152-.164-.404.027-.536 1.451-1.007 1.807-4.1 2.848-3.88" mask="url(#prefix__d)"/>
        <path fill="#3F3F3F" d="M29.636 26.162c0-.422.428-.764.956-.764h5.274c.275 0 .498.178.498.398v1.179c0 1.45-1.47 2.627-3.285 2.627h-.02c-1.89 0-3.423-1.226-3.423-2.74v-.7zM29 25.91v.834C29 28.542 30.822 30 33.071 30h.024C35.252 30 37 28.601 37 26.875v-1.401c0-.262-.265-.474-.592-.474h-6.272c-.628 0-1.136.407-1.136.909z" mask="url(#prefix__d)"/>
        <path fill="#463F34" d="M28 25.908L28.809 26 29 25 28 25.591z" mask="url(#prefix__d)"/>
        <path fill="#3F3F3F" d="M46.364 26.863c0 1.513-1.533 2.74-3.424 2.74h-.02c-1.814 0-3.284-1.177-3.284-2.628v-1.179c0-.22.222-.398.498-.398h5.274c.528 0 .956.342.956.764v.7zm-.5-1.863h-6.272c-.327 0-.592.212-.592.474v1.4C39 28.602 40.748 30 42.905 30h.024C45.177 30 47 28.542 47 26.743v-.834c0-.502-.509-.909-1.137-.909z" mask="url(#prefix__d)"/>
        <path fill="#463F34" d="M48 25.908L47.191 26 47 25 48 25.591z" mask="url(#prefix__d)"/>
        <path fill="#3F3F3F" d="M37.128 26l.47-.27c.251-.144.553-.144.805 0l.47.27.127-1h-2l.128 1z" mask="url(#prefix__d)"/>
    </g>
</svg>
