<svg xmlns="http://www.w3.org/2000/svg" width="24" height="31" viewBox="0 0 24 31" fill="#d02683">
    <path d="M12.024 5.625c-3.04 0-5.512 2.523-5.512 5.625s2.473 5.625 5.512 5.625c3.04 0 5.512-2.523 5.512-5.625s-2.473-5.625-5.512-5.625zm0 9.375c-2.026 0-3.675-1.682-3.675-3.75S9.998 7.5 12.024 7.5s3.675 1.682 3.675 3.75S14.05 15 12.024 15zm0-15C5.936 0 1 5.037 1 11.25c0 4.536 1.549 5.803 9.891 18.145.547.807 1.718.807 2.266 0 8.342-12.342 9.89-13.61 9.89-18.145C23.048 5.037 18.113 0 12.025 0zm0 27.77C4.026 15.965 2.837 15.028 2.837 11.25c0-2.504.956-4.858 2.691-6.63 1.735-1.77 4.042-2.745 6.496-2.745 2.454 0 4.76.975 6.496 2.746 1.735 1.77 2.69 4.125 2.69 6.629 0 3.779-1.187 4.715-9.186 16.52z"/>
</svg>
