<svg xmlns="http://www.w3.org/2000/svg" width="24" height="24" viewBox="0 0 24 24">
    <defs>
        <filter id="prefix__a">
            <feColorMatrix in="SourceGraphic" values="0 0 0 0 0.999063 0 0 0 0 0.434148 0 0 0 0 0.382140 0 0 0 1.000000 0"/>
        </filter>
    </defs>
    <g fill="none" fill-rule="evenodd" transform="translate(0 -1)">
        <path fill="#d02683" fill-rule="nonzero" d="M18.75 4h-4.153c.019-.122.028-.248.028-.375C14.625 2.177 13.448 1 12 1S9.375 2.177 9.375 3.625c0 .127.01.253.028.375H5.25C4.008 4 3 5.008 3 6.25v16.5C3 23.992 4.008 25 5.25 25h13.5c1.242 0 2.25-1.008 2.25-2.25V6.25C21 5.008 19.992 4 18.75 4zM12 2.5c.623 0 1.125.502 1.125 1.125S12.623 4.75 12 4.75s-1.125-.502-1.125-1.125S11.377 2.5 12 2.5zm7.5 20.25c0 .413-.337.75-.75.75H5.25c-.413 0-.75-.337-.75-.75V6.25c0-.412.337-.75.75-.75H7.5v.938c0 .309.253.562.563.562h7.874c.31 0 .563-.253.563-.563V5.5h2.25c.413 0 .75.338.75.75v16.5zm-3.375-8.25H13.5v-2.625c0-.206-.169-.375-.375-.375h-2.25c-.206 0-.375.169-.375.375V14.5H7.875c-.206 0-.375.169-.375.375v2.25c0 .206.169.375.375.375H10.5v2.625c0 .206.169.375.375.375h2.25c.206 0 .375-.169.375-.375V17.5h2.625c.206 0 .375-.169.375-.375v-2.25c0-.206-.169-.375-.375-.375z"/>
    </g>
</svg>
