<svg xmlns="http://www.w3.org/2000/svg" width="32" height="32" viewBox="0 0 32 32">
    <defs>
        <filter id="xd2dd7khwa">
            <feColorMatrix in="SourceGraphic" values="0 0 0 0 0.556863 0 0 0 0 0.745098 0 0 0 0 0.733333 0 0 0 1.000000 0"/>
        </filter>
    </defs>
    <g fill="none" fill-rule="evenodd" filter="url(#xd2dd7khwa)" transform="translate(-265)">
        <path fill="#000" fill-rule="nonzero" d="M294.788 4.121L291.545.88C290.983.316 290.22 0 289.424 0h-10.757c-1.657 0-3 1.343-3 3v3h-5c-1.657 0-3 1.343-3 3v20c0 1.657 1.343 3 3 3h14c1.657 0 3-1.343 3-3v-3h5c1.657 0 3-1.343 3-3V6.243c0-.796-.316-1.56-.879-2.122zm-5.121-2.09c.176.043.336.134.464.262l3.243 3.243c.128.128.219.288.262.464h-3.97V2.03zm-4 26.969c0 .551-.449 1-1 1h-14c-.552 0-1-.449-1-1V9c0-.551.448-1 1-1h5v15c0 1.657 1.343 3 3 3h7v3zm8-6c0 .551-.449 1-1 1h-14c-.552 0-1-.449-1-1V3c0-.551.448-1 1-1h9v4.5c0 .825.675 1.5 1.5 1.5h4.5v15z"/>
    </g>
</svg>
