<?xml version="1.0" encoding="UTF-8"?>
<svg width="74px" height="74px" viewBox="0 0 74 74" version="1.1" xmlns="http://www.w3.org/2000/svg" xmlns:xlink="http://www.w3.org/1999/xlink">
    <title>tick</title>
    <g id="Account-Creation_1366px" stroke="none" stroke-width="1" fill="none" fill-rule="evenodd">
        <g id="0.1.-PasswordChanged_1366px" transform="translate(-909.000000, -277.000000)" fill-rule="nonzero">
            <g id="stock-photo-patient-having-consultation-with-female-doctor-in-office-534962014" transform="translate(648.000000, 237.000000)">
                <g id="tick" transform="translate(261.000000, 40.000000)">
                    <path d="M37,0 C16.6644531,0 0,16.6644531 0,37 C0,57.3355469 16.6644531,74 37,74 C57.3355469,74 74,57.3355469 74,37 C74,16.6644531 57.3355469,0 37,0 Z" id="Path" fill="#06A77D"></path>
                    <path d="M74,37 C74,57.3355469 57.3355469,74 37,74 L37,0 C57.3355469,0 74,16.6644531 74,37 Z" id="Path" fill="#048765"></path>
                    <polygon id="Path" fill="#FFFFFF" points="58 31.0124072 32.9772427 56 15 38.0907019 21.0638197 32.0356535 32.9772427 43.9751856 37.2473378 39.711067 51.9791659 25"></polygon>
                    <polygon id="Path" fill="#D3D3D8" points="58 31.0718026 37 52 37 39.8563948 51.9074074 25"></polygon>
                </g>
            </g>
        </g>
    </g>
</svg>