<svg xmlns="http://www.w3.org/2000/svg" width="24" height="24" viewBox="0 0 24 24">
    <defs>
        <filter id="prefix__a">
            <feColorMatrix in="SourceGraphic" values="0 0 0 0 0.998379 0 0 0 0 0.547413 0 0 0 0 0.486339 0 0 0 1.000000 0"/>
        </filter>
    </defs>
    <g fill="none" fill-rule="evenodd" transform="translate(-18 -189)">
        <path fill="#d02683" fill-rule="nonzero" d="M41.114 205.467l-5.081-2.18c-.6-.255-1.296-.085-1.711.418l-2.067 2.526c-3.252-1.599-5.882-4.23-7.482-7.481l2.527-2.067c.503-.415.673-1.111.417-1.71l-2.18-5.087c-.28-.65-.987-1.007-1.678-.848l-4.725 1.092c-.665.15-1.137.743-1.134 1.425C18 203.428 27.623 213 39.445 213c.684.001 1.278-.472 1.43-1.14l1.087-4.72c.16-.689-.198-1.394-.848-1.673zm-1.697 6.033c-10.992-.014-19.903-8.92-19.912-19.912l4.668-1.078 2.157 5.034-3.413 2.789c2.269 4.837 4.899 7.476 9.755 9.755l2.789-3.413 5.034 2.156-1.078 4.669z"/>
    </g>
</svg>
