<svg xmlns="http://www.w3.org/2000/svg" width="112" height="113" viewBox="0 0 112 113">
    <defs>
        <filter id="prefix__a">
            <feColorMatrix in="SourceGraphic" values="0 0 0 0 0.999063 0 0 0 0 0.434148 0 0 0 0 0.382140 0 0 0 1.000000 0"/>
        </filter>
    </defs>
    <g fill="none" fill-rule="evenodd">
        <circle cx="55" cy="55" r="55" fill="#DCEBEA"/>
        <g>
            <path fill="#FFF" d="M7 6H38V43H7z" transform="translate(33 33)"/>
            <g fill="#FF6F61" filter="url(#prefix__a)" transform="translate(33 33)">
                <path fill="#000" fill-rule="nonzero" d="M35.156 5.625H27.37c.035-.229.053-.466.053-.703C27.422 2.206 25.216 0 22.5 0c-2.716 0-4.922 2.206-4.922 4.922 0 .237.018.474.053.703H9.844c-2.33 0-4.219 1.89-4.219 4.219V40.78c0 2.33 1.89 4.219 4.219 4.219h25.312c2.33 0 4.219-1.89 4.219-4.219V9.844c0-2.33-1.89-4.219-4.219-4.219zM22.5 2.812c1.169 0 2.11.94 2.11 2.11 0 1.169-.941 2.11-2.11 2.11s-2.11-.941-2.11-2.11c0-1.17.941-2.11 2.11-2.11zm14.063 37.97c0 .773-.633 1.406-1.407 1.406H9.844c-.774 0-1.406-.633-1.406-1.407V9.844c0-.774.632-1.406 1.406-1.406h4.219v1.757c0 .58.474 1.055 1.054 1.055h14.766c.58 0 1.055-.475 1.055-1.055V8.437h4.218c.774 0 1.407.633 1.407 1.407V40.78zm-6.329-15.47h-4.922v-4.921c0-.387-.316-.703-.703-.703h-4.218c-.387 0-.703.316-.703.703v4.922h-4.922c-.387 0-.704.316-.704.703v4.218c0 .387.317.703.704.703h4.921v4.922c0 .387.317.703.704.703h4.218c.387 0 .703-.316.703-.703v-4.922h4.922c.387 0 .703-.316.703-.703v-4.218c0-.387-.316-.703-.703-.703z"/>
            </g>
        </g>
        <g>
            <path fill="#FFF" d="M30.974 50.071L23 22.5 54.152 32.5 45.408 36.286 56.654 48.99 49 55 37.024 43.019z" transform="translate(55 56)"/>
            <g fill="#8EBEBB">
                <path d="M22 14c.552 0 1-.514 1-1.148V1.148C23 .514 22.552 0 22 0s-1 .514-1 1.148v11.704c0 .634.448 1.148 1 1.148M14 22.5c0-.828-.514-1.5-1.148-1.5H1.148C.514 21 0 21.672 0 22.5S.514 24 1.148 24h11.704c.634 0 1.148-.672 1.148-1.5M28.194 17c.306 0 .611-.117.844-.35L37.65 8.04c.467-.467.467-1.223 0-1.69-.466-.466-1.222-.466-1.689 0l-8.611 8.612c-.467.467-.467 1.223 0 1.69.233.232.539.349.844.349M8.039 6.35c-.467-.467-1.223-.467-1.69 0-.466.466-.466 1.222 0 1.689l8.612 8.611c.234.233.54.35.845.35.305 0 .611-.117.844-.35.467-.466.467-1.222 0-1.689L8.04 6.35M14.961 27.35L6.35 35.962c-.467.466-.467 1.222 0 1.688.233.233.539.35.844.35.306 0 .611-.117.845-.35l8.611-8.611c.467-.467.467-1.223 0-1.69-.466-.466-1.222-.466-1.689 0M48.156 54.151L37.024 43.02c-.222-.222-.523-.345-.834-.345-.046 0-.091.003-.138.008-.358.042-.677.246-.867.553l-4.211 6.836-7.116-26.213 26.213 7.116-6.836 4.211c-.307.19-.51.509-.553.868-.042.358.083.716.338.97l11.132 11.133-5.996 5.995zm8.498-6.83l-10.91-10.91 7.885-4.858c.4-.246.616-.707.549-1.173-.068-.465-.405-.846-.859-.97l-30.83-8.369c-.408-.11-.844.006-1.143.305-.3.299-.415.735-.305 1.143l8.37 30.83c.123.454.504.791.97.859.466.067.926-.149 1.172-.55l4.858-7.884 10.911 10.91c.23.23.532.346.834.346.302 0 .604-.115.834-.346l7.664-7.664c.461-.46.461-1.208 0-1.668z" transform="translate(55 56)"/>
            </g>
        </g>
    </g>
</svg>
