<svg xmlns="http://www.w3.org/2000/svg" width="52" height="66" viewBox="0 0 52 66">
    <g fill="none" fill-rule="evenodd">
        <g fill-rule="nonzero">
            <g>
                <g>
                    <path fill="#FBE812" d="M36 0H7.333C3.29 0 0 3.18 0 7.09v51.82C0 62.82 3.29 66 7.333 66h37.334C48.71 66 52 62.82 52 58.91V15.47L36 0z" transform="translate(-657 -226) translate(325 199) translate(332 27)"/>
                    <path fill="#FFB734" d="M26 0v66h18.667C48.71 66 52 62.82 52 58.91V15.47L36 0H26z" transform="translate(-657 -226) translate(325 199) translate(332 27)"/>
                    <g>
                        <path fill="#C271D8" d="M15 37c-.19 0-.379-.027-.562-.08-4.205-1.235-7.812-3.708-10.433-7.152C1.385 26.323 0 22.232 0 17.938V7.018C0 5.96.876 5.102 1.957 5.102c2.472 0 4.695-1.343 5.8-3.506l.276-.539C8.364.41 9.04 0 9.783 0h10.434c.742 0 1.419.41 1.75 1.058l.276.539c1.105 2.163 3.328 3.506 5.8 3.506 1.081 0 1.957.857 1.957 1.914v10.921c0 4.294-1.385 8.385-4.005 11.83-2.62 3.444-6.228 5.917-10.433 7.151-.183.054-.373.081-.562.081z" transform="translate(-657 -226) translate(325 199) translate(332 27) translate(11 22)"/>
                        <path fill="#294ABF" d="M28.043 5.103c-2.472 0-4.695-1.343-5.8-3.506l-.276-.539C21.636.41 20.96 0 20.217 0H15v37c.19 0 .379-.027.562-.08 4.205-1.235 7.812-3.708 10.433-7.152C28.615 26.323 30 22.232 30 17.938V7.018c0-1.058-.876-1.915-1.957-1.915z" opacity=".512" transform="translate(-657 -226) translate(325 199) translate(332 27) translate(11 22)"/>
                        <path fill="#F5F5FF" d="M3.913 8.753v9.185c0 6.923 4.431 12.936 11.087 15.14 6.656-2.204 11.087-8.217 11.087-15.14V8.753c-2.961-.547-5.535-2.322-7.06-4.925h-8.054C9.448 6.43 6.874 8.206 3.913 8.753z" transform="translate(-657 -226) translate(325 199) translate(332 27) translate(11 22)"/>
                        <path fill="#E2E7FA" d="M19.027 3.828H15v29.25c6.656-2.204 11.087-8.217 11.087-15.14V8.753c-2.961-.547-5.535-2.322-7.06-4.925z" transform="translate(-657 -226) translate(325 199) translate(332 27) translate(11 22)"/>
                        <path fill="#D02683" d="M13.155 24.022c-.5 0-1.001-.186-1.383-.56l-3.69-3.609c-.763-.747-.763-1.959 0-2.706.765-.748 2.004-.748 2.768 0l2.306 2.255 5.995-5.864c.764-.747 2.002-.747 2.766 0 .765.747.765 1.96 0 2.707l-7.378 7.217c-.382.374-.883.56-1.384.56z" transform="translate(-657 -226) translate(325 199) translate(332 27) translate(11 22)"/>
                        <path fill="#9B1C62" d="M19.15 13.538L15 17.598v5.413l6.917-6.766c.764-.748.764-1.96 0-2.707-.764-.747-2.003-.747-2.767 0z" transform="translate(-657 -226) translate(325 199) translate(332 27) translate(11 22)"/>
                    </g>
                    <path fill="#DF3838" d="M36 0v14.875c0 1.174.895 2.125 2 2.125h14L36 0z" opacity=".415" transform="translate(-657 -226) translate(325 199) translate(332 27)"/>
                </g>
            </g>
        </g>
    </g>
</svg>
