<svg xmlns="http://www.w3.org/2000/svg" xmlns:xlink="http://www.w3.org/1999/xlink" width="110" height="110" viewBox="0 0 110 110">
    <defs>
        <filter id="e4y107pxub" width="136.7%" height="136.7%" x="-15%" y="-17.2%" filterUnits="objectBoundingBox">
            <feOffset dx="3" dy="1" in="SourceAlpha" result="shadowOffsetOuter1"/>
            <feGaussianBlur in="shadowOffsetOuter1" result="shadowBlurOuter1" stdDeviation="5"/>
            <feColorMatrix in="shadowBlurOuter1" values="0 0 0 0 0.937254902 0 0 0 0 0.964705882 0 0 0 0 1 0 0 0 1 0"/>
        </filter>
        <circle id="5dtgaxhz1a" cx="45" cy="45" r="45"/>
    </defs>
    <g fill="none" fill-rule="evenodd">
        <g>
            <g>
                <g>
                    <g transform="translate(-37 -263) translate(36 225) translate(0 47) translate(8)">
                        <mask id="qakif6pcbc" fill="#fff">
                            <use xlink:href="#5dtgaxhz1a"/>
                        </mask>
                        <g>
                            <use fill="#000" filter="url(#e4y107pxub)" xlink:href="#5dtgaxhz1a"/>
                            <use fill="#FFF" xlink:href="#5dtgaxhz1a"/>
                        </g>
                        <g mask="url(#qakif6pcbc)">
                            <g>
                                <path fill="#DFECFF" fill-rule="nonzero" d="M64 70H0V54.696c0-2.461 1.56-4.68 3.932-5.567L19.426 43l8.534 12.187 3.305-6.508v-.013L32 47.21l.748 1.457 3.307 6.52L46.573 44l13.508 5.129C62.44 50.03 64 52.235 64 54.696V70z" transform="translate(13 20)"/>
                                <path fill="#E8CAAB" fill-rule="nonzero" d="M41.986 40.598H42v-5.563c-.74 1.078-1.6 2.171-2.6 3.265l-1.382 1.462c-1.269 1.325-3.073 2.098-4.949 2.098h-2.114c-1.876 0-3.682-.772-4.95-2.098L24.625 38.3c-1.011-1.103-1.88-2.212-2.624-3.3v5.589l.023.01 8.699 4.71 1.283.691 1.283-.69 8.698-4.712z" transform="translate(13 20)"/>
                                <g opacity=".1">
                                    <path fill="#40596B" fill-rule="nonzero" d="M.124 6.72l-.023-.008c-.013-.006-.027-.01-.04-.014-.013-.007-.027-.009-.045-.016l4.874 3.975 7.654-4.74h.008l.005-5.802c-.013.021-1.817 2.617-2.384 3.39L8.907 5.04c-1.163 1.39-2.818 2.2-4.537 2.2H2.431c-.391 0-.775-.047-1.151-.135C.882 7.02.498 6.89.124 6.72" transform="translate(13 20) translate(29 34)"/>
                                </g>
                                <g>
                                    <path fill="#E8CAAB" fill-rule="nonzero" d="M6.02 4.468c.208 2.568-.954 4.776-2.595 4.928C1.782 9.55.282 7.59.07 5.023-.138 2.455 1.023.25 2.666.096 4.308-.06 5.812 1.898 6.02 4.468M30.702 5.026c-.208 2.568-1.71 4.526-3.353 4.371-1.643-.154-2.806-2.36-2.594-4.928.208-2.568 1.711-4.527 3.353-4.372 1.643.152 2.805 2.36 2.594 4.929" transform="translate(13 20) translate(18 20)"/>
                                </g>
                                <path fill="#FFF0D6" fill-rule="nonzero" d="M46.77 24.12c-.264 2.68-1.596 8.585-6.937 14.372l-1.371 1.44C37.202 41.239 35.412 42 33.55 42h-2.099c-1.86 0-3.653-.76-4.91-2.068l-1.372-1.44c-5.345-5.787-6.66-11.693-6.94-14.372-.379-3.693-.225-8.387 0-9.6C19.501 7.413 25.883 3 32.501 3c6.616 0 12.996 4.413 14.269 11.52.224 1.213.378 5.908 0 9.6" transform="translate(13 20)"/>
                                <path fill="#132259" fill-rule="nonzero" d="M20.851 6.724S20.944-2.32 33.968.57c0 0 6.463 2.05 10.62 8.113 0 0 3.901 5.72 1.78 10.531-.689 1.562-1.428 3.35-1.343 4.786 0 0-.723-3.048-1.154-5.588-.36-2.128-1.268-4.121-2.66-5.757l-.042-.05c-2.255-2.637-5.785-3.87-9.123-3-1.593.414-3.405 1.224-5.398 2.66 0 0-5.426-3.676-8.108 2.76 0 0-1.195 4.704-1.026 8.419 0-.001-7.468-15.787 3.337-16.72" transform="translate(13 20)"/>
                                <path fill="#ACB3BA" fill-rule="nonzero" d="M50.014 46.78c-.027-.232-.079-2.364-.506-3.225-.723-1.45-2.017-2.42-3.58-2.666L41.63 40v.902h-.013l-.616.356 4.715.984c1.135.178 2.085.875 2.59 1.927.335.67.47 1.396.363 2.107l-.028.355c-5.649 5.018-7.251 9.544-7.318 9.75-.425 1.298-.4 2.324.068 3.062.522.834 1.374.93 1.48.944l.134-1.368c-.013 0-.333-.056-.506-.342-.213-.357-.188-1.011.094-1.847.013-.029.801-2.255 3.205-5.266.667-.341 1.414-.408 2.136-.19.695.218 1.28.698 1.643 1.338.266 3.953-.32 6.277-.334 6.29-.255.848-.602 1.41-.988 1.56-.307.138-.59-.014-.59-.028l-.333.6-.347.593c.055.04.467.273 1.015.273.227 0 .47-.041.722-.15.802-.314 1.417-1.135 1.815-2.448.055-.205 1.295-4.978-.522-12.621m-1.774 3.541c-.402-.123-.829-.176-1.23-.163.576-.644 1.214-1.299 1.937-1.967.2.956.347 1.872.454 2.734-.347-.262-.736-.466-1.16-.604" transform="translate(13 20)"/>
                                <g>
                                    <path fill="#F8B64C" fill-rule="nonzero" d="M1.247 1.138c-.089.486-.525.803-.973.707C-.172 1.75.146-.012.594.083c.448.096.741.569.653 1.055M3.055 1.743c-.19.45-.01.983.407 1.19.416.207 1.106-1.425.69-1.633-.413-.207-.905-.008-1.097.443" transform="translate(13 20) translate(43 59)"/>
                                </g>
                                <path fill="#ACB3BA" fill-rule="nonzero" d="M22.369 41.828l-.022-.01V41l-2.934.558c-3.13.596-5.765 2.441-7.233 5.062-1.466 2.623-1.572 5.677-.286 8.38l1.243-.504c-1.118-2.355-1.032-5.014.25-7.3 1.276-2.282 3.573-3.89 6.298-4.408l3.315-.63-.631-.33z" transform="translate(13 20)"/>
                                <g fill="#CDD6E0" fill-rule="nonzero">
                                    <path d="M29.467 1.982L19.538 14.4 14.759 5.176 14.5 5 24.286 0.058 24.3 0.058 24.313 0.045z" transform="translate(13 20) translate(18 41)"/>
                                    <path d="M0.052 1.982L9.997 14.4 14.759 5.176 13.535 4.522 5.233 0.058 5.206 0.045z" transform="translate(13 20) translate(18 41)"/>
                                </g>
                                <path fill="#294ABF" fill-rule="nonzero" d="M25.406 75L30.848 57.645 29.619 55.877 28.719 54.551 32.214 47.562 32.992 46 33.783 47.562 33.783 47.576 37.281 54.551 36.364 55.865 35.135 57.645 39.515 75z" transform="translate(13 20)"/>
                                <path fill="#218380" fill-rule="nonzero" d="M37 54.657L36.143 55.987 33.005 49.175 29.841 56 29 54.657 32.266 47.582 32.992 46 33.731 47.582 33.731 47.596z" transform="translate(13 20)"/>
                                <path fill="#D02683" fill-rule="nonzero" d="M18 57.5c0 1.931-1.57 3.5-3.502 3.5C12.567 61 11 59.431 11 57.5c0-1.933 1.567-3.5 3.498-3.5C16.43 54 18 55.567 18 57.5" transform="translate(13 20)"/>
                                <path fill="#F2F2F2" fill-rule="nonzero" d="M15 56.5c0 .828-.67 1.5-1.499 1.5-.83 0-1.501-.673-1.501-1.5s.672-1.5 1.501-1.5c.829 0 1.499.672 1.499 1.5" transform="translate(13 20)"/>
                                <path fill="#ACB3BA" fill-rule="nonzero" d="M15 56.5c0 .83-.671 1.5-1.497 1.5-.83 0-1.503-.672-1.503-1.5s.674-1.5 1.503-1.5c.826 0 1.497.672 1.497 1.5" transform="translate(13 20)"/>
                            </g>
                        </g>
                    </g>
                </g>
            </g>
        </g>
    </g>
</svg>
