<?xml version="1.0" encoding="UTF-8"?>
<svg width="17px" height="16px" viewBox="0 0 17 16" version="1.1" xmlns="http://www.w3.org/2000/svg" xmlns:xlink="http://www.w3.org/1999/xlink">
    <title>Linear/plus</title>
    <defs>
        <filter id="filter-1">
            <feColorMatrix in="SourceGraphic" type="matrix" values="0 0 0 0 0.999063 0 0 0 0 0.434148 0 0 0 0 0.382140 0 0 0 1.000000 0"></feColorMatrix>
        </filter>
    </defs>
    <g id="Dashboard-final" stroke="none" stroke-width="1" fill="none" fill-rule="evenodd">
        <g id="Dashboard_InsuredPeople" transform="translate(-1104.000000, -129.000000)" fill="#FF6F61">
            <g id="Heaader_insurance_card-info" transform="translate(98.000000, 89.000000)">
                <g id="Header_card_ifo">
                    <g id="print-card" transform="translate(1006.000000, 38.000000)">
                        <g id="Button/Terciary/IconLeft-and-Text">
                            <g id="Button/Terciary">
                                <g filter="url(#filter-1)" id="Linear/print">
                                    <g transform="translate(0.272189, 2.000000)">
                                        <g fill="none" fill-rule="nonzero" id="Shape">
                                            <path d="M13.5,6 L13,6 L13,3.4140625 C13,3.14875 12.8946875,2.8946875 12.7071875,2.706875 L10.2928125,0.2928125 C10.1053125,0.1053125 9.8509375,0 9.585625,0 L3.9525,0 C3.42625,0 3,0.4478125 3,1 L3,6 L2.5,6 C1.119375,6 0,7.119375 0,8.5 L0,11.5 C0,11.77625 0.22375,12 0.5,12 L3,12 L3,15.5 C3,15.77625 3.22375,16 3.5,16 L12.5,16 C12.77625,16 13,15.77625 13,15.5 L13,12 L15.5,12 C15.77625,12 16,11.77625 16,11.5 L16,8.5 C16,7.119375 14.880625,6 13.5,6 Z M10,1.4140625 L11.5859375,3 L10,3 L10,1.4140625 Z M4.00375,1 L9,1 L9,3 C9,3.5521875 9.4478125,4 10,4 L12,4 L12,6 L4.000625,6 L4.00375,1 Z M12,15 L4,15 L4,12 L12,12 L12,15 Z M15,11 L1,11 L1,8.5 C1,7.6728125 1.6728125,7 2.5,7 L13.5,7 C14.3271875,7 15,7.6728125 15,8.5 L15,11 Z M12.5,8.25 C12.0859375,8.25 11.75,8.585625 11.75,9 C11.75,9.4140625 12.0859375,9.75 12.5,9.75 C12.9140625,9.75 13.25,9.4140625 13.25,9 C13.25,8.585625 12.9140625,8.25 12.5,8.25 Z" fill="#000000"></path>
                                        </g>
                                    </g>
                                </g>
                            </g>
                        </g>
                    </g>
                </g>
            </g>
        </g>
    </g>
</svg>