<svg xmlns="http://www.w3.org/2000/svg" width="20" height="20" viewBox="0 0 20 20">
    <defs>
        <filter id="qu88l9vjva">
            <feColorMatrix in="SourceGraphic" values="0 0 0 0 0.247059 0 0 0 0 0.643137 0 0 0 0 0.619608 0 0 0 1.000000 0"/>
        </filter>
    </defs>
    <g fill="none" fill-rule="evenodd" filter="url(#qu88l9vjva)" transform="translate(-96)">
        <path fill="#000" fill-rule="nonzero" d="M106 13.387c-.624 0-1.129.506-1.129 1.13 0 .623.505 1.128 1.129 1.128s1.129-.505 1.129-1.129c0-.623-.505-1.129-1.129-1.129zm.31-.968h-.646c-.267 0-.484-.216-.484-.484v-.015c0-2.836 3.123-2.565 3.123-4.33 0-.808-.716-1.622-2.316-1.622-1.175 0-1.785.389-2.388 1.157-.157.2-.446.241-.655.095l-.53-.368c-.226-.158-.276-.475-.106-.693.856-1.098 1.871-1.804 3.679-1.804 2.11 0 3.929 1.2 3.929 3.234 0 2.718-3.123 2.575-3.123 4.331v.015c0 .268-.217.484-.484.484zM106 1.29c4.783 0 8.71 3.874 8.71 8.71 0 4.81-3.896 8.71-8.71 8.71-4.808 0-8.71-3.894-8.71-8.71 0-4.807 3.896-8.71 8.71-8.71M106 0c-5.522 0-10 4.48-10 10 0 5.524 4.478 10 10 10s10-4.476 10-10c0-5.52-4.478-10-10-10z"/>
    </g>
</svg>
