<?xml version="1.0" encoding="UTF-8"?>
<svg width="52px" height="66px" viewBox="0 0 52 66" version="1.1" xmlns="http://www.w3.org/2000/svg" xmlns:xlink="http://www.w3.org/1999/xlink">
    <title>7DF898F1-99C8-4F23-9004-8656BBE8E6DB</title>
    <g id="Account-Creation_1366px" stroke="none" stroke-width="1" fill="none" fill-rule="evenodd">
        <g id="AddInaurance_WhyInsurance_1366px" transform="translate(-657.000000, -226.000000)" fill-rule="nonzero">
            <g id="almost-there-copy" transform="translate(325.000000, 199.000000)">
                <g id="policy" transform="translate(332.000000, 27.000000)">
                    <path d="M36,0 L7.33333333,0 C3.28973333,0 0,3.18050391 0,7.08984375 L0,58.9101562 C0,62.8194961 3.28973333,66 7.33333333,66 L44.6666667,66 C48.7102667,66 52,62.8194961 52,58.9101562 L52,15.46875 L36,0 Z" id="Path" fill="#FBE812"></path>
                    <path d="M26,0 L26,66 L44.6666667,66 C48.7102667,66 52,62.8194961 52,58.9101562 L52,15.46875 L36,0 L26,0 Z" id="Path" fill="#FFB734"></path>
                    <g id="Group" transform="translate(11.000000, 22.000000)">
                        <path d="M15,37 C14.8106087,37 14.6212174,36.9730793 14.4378261,36.9192379 C10.2332609,35.6854793 6.62569565,33.2123483 4.0053913,29.7675207 C1.38508696,26.3225655 0,22.2320241 0,17.9382379 L0,7.01724138 C0,5.96031724 0.876,5.10344828 1.95652174,5.10344828 C4.42891304,5.10344828 6.65165217,3.75971034 7.75721739,1.59674138 L8.03256522,1.05807241 C8.364,0.409551724 9.04147826,-3.6262181e-15 9.7826087,-3.6262181e-15 L20.2173913,-3.6262181e-15 C20.9585217,-3.6262181e-15 21.636,0.409551724 21.9674348,1.05794483 L22.2427826,1.59674138 C23.3483478,3.75971034 25.571087,5.10344828 28.0434783,5.10344828 C29.124,5.10344828 30,5.96031724 30,7.01724138 L30,17.9382379 C30,22.2320241 28.614913,26.3225655 25.9946087,29.7675207 C23.3743043,33.2123483 19.7667391,35.6854793 15.5621739,36.9192379 C15.3787826,36.9730793 15.1893913,37 15,37 L15,37 Z" id="Path" fill="#C271D8"></path>
                        <path d="M28.0434783,5.10344828 C25.571087,5.10344828 23.3483478,3.75971034 22.2427826,1.59686897 L21.9674348,1.05807241 C21.636,0.409551724 20.9585217,-3.6262181e-15 20.2173913,-3.6262181e-15 L15,-3.6262181e-15 L15,37 C15.1893913,37 15.3787826,36.9730793 15.5621739,36.9192379 C19.7667391,35.6854793 23.3743043,33.2123483 25.9946087,29.7675207 C28.614913,26.3225655 30,22.2320241 30,17.9382379 L30,7.01724138 C30,5.96031724 29.124,5.10344828 28.0434783,5.10344828 Z" id="Path" fill="#294ABF" opacity="0.512230283"></path>
                        <path d="M3.91304348,8.75279655 L3.91304348,17.9383655 C3.91304348,24.8606828 8.34404348,30.8736931 15,33.0777448 C21.6559565,30.8736931 26.0869565,24.8606828 26.0869565,17.9383655 L26.0869565,8.75279655 C23.1259565,8.20608966 20.5516957,6.43072759 19.0271739,3.82758621 L10.9728261,3.82758621 C9.44830435,6.43072759 6.87404348,8.20608966 3.91304348,8.75279655 L3.91304348,8.75279655 Z" id="Path" fill="#F5F5FF"></path>
                        <path d="M19.0271739,3.82758621 L15,3.82758621 L15,33.0776172 C21.6559565,30.8735655 26.0869565,24.8605552 26.0869565,17.9382379 L26.0869565,8.75266897 C23.1259565,8.20608966 20.5516957,6.4306 19.0271739,3.82758621 Z" id="Path" fill="#E2E7FA"></path>
                        <path d="M13.1553913,24.0224414 C12.6546522,24.0224414 12.153913,23.8356552 11.772,23.4618276 L8.08278261,19.8531793 C7.31869565,19.1057793 7.31869565,17.8940931 8.08278261,17.1466931 C8.84673913,16.3992931 10.0856087,16.3992931 10.8496957,17.1466931 L13.1555217,19.4020345 L19.1505652,13.5380448 C19.9145217,12.7906448 21.1533913,12.7906448 21.9174783,13.5380448 C22.6815652,14.2854448 22.6815652,15.497131 21.9174783,16.244531 L14.5390435,23.4618276 C14.1568696,23.8356552 13.6561304,24.0224414 13.1553913,24.0224414 L13.1553913,24.0224414 Z" id="Path" fill="#D02683"></path>
                        <path d="M19.1504348,13.5380448 L15,17.5978379 L15,23.0108103 L21.9173478,16.244531 C22.6814348,15.497131 22.6814348,14.2854448 21.9173478,13.5380448 C21.1532609,12.7906448 19.9143913,12.7906448 19.1504348,13.5380448 L19.1504348,13.5380448 Z" id="Path" fill="#9B1C62"></path>
                    </g>
                    <path d="M36,0 L36,14.875 C36,16.0485667 36.8954667,17 38,17 L52,17 L36,0 Z" id="Path" fill="#DF3838" opacity="0.414597284"></path>
                </g>
            </g>
        </g>
    </g>
</svg>