<svg xmlns="http://www.w3.org/2000/svg" width="15" height="17" viewBox="0 0 15 17">
    <path d="M1.875 13.596v-3.86c0-.192.158-.35.35-.35h.235c.193 0 .35.158.35.35v3.86c0 .258.211.468.469.468h8.42c.258 0 .468-.21.468-.468v-3.86c0-.192.158-.35.351-.35h.234c.193 0 .351.158.351.35v3.86c0 .775-.629 1.404-1.403 1.404H3.279c-.775 0-1.404-.629-1.404-1.404zm.57-8.157l.208.207c.137.138.36.138.497 0l3.842-3.86v8.185c0 .193.158.35.35.35h.293c.193 0 .351-.157.351-.35V1.787l3.842 3.856c.138.138.36.138.497 0l.208-.207c.137-.138.137-.36 0-.497L7.738.129c-.138-.138-.36-.138-.498 0L2.445 4.942c-.137.137-.137.36 0 .497z"/>
</svg>