<svg xmlns="http://www.w3.org/2000/svg" width="25" height="27" viewBox="0 0 25 27" fill="#d02683">
    <path d="M22.679 4.185l-9.621-4c-.592-.245-1.257-.245-1.85 0l-9.62 4C.69 4.555.105 5.43.105 6.4c0 9.925 5.737 16.785 11.099 19.015.591.245 1.257.245 1.849 0 4.294-1.785 11.104-7.95 11.104-19.015 0-.97-.586-1.845-1.478-2.215zM12.44 23.94c-.195.08-.416.08-.616 0C6.92 22 1.708 15.2 1.708 6.4c0-.325.195-.615.491-.74l9.621-4c.19-.08.416-.085.616 0l9.621 4c.301.125.491.415.491.74.005 8.8-5.206 15.6-10.107 17.54z"/>
</svg>
