<svg xmlns="http://www.w3.org/2000/svg" width="24" height="25" viewBox="0 0 24 25">
    <g fill="none" fill-rule="evenodd" transform="translate(0 -.272)">
        <path fill="#d02683" fill-rule="nonzero" d="M2.246 3.982H8.42c.309 0 .561.252.561.561v.374c0 .309-.252.562-.56.562H2.245c-.412 0-.749.337-.749.748v13.474c0 .412.337.748.749.748H8.42c.309 0 .561.253.561.562v.374c0 .309-.252.562-.56.562H2.245C1.006 21.947 0 20.94 0 19.7V6.227c0-1.24 1.006-2.245 2.246-2.245zm13.052.912l-.332.332c-.22.22-.22.575 0 .795l6.176 6.148H8.047c-.309 0-.562.252-.562.561v.468c0 .309.253.561.562.561h13.095l-6.171 6.148c-.22.22-.22.575 0 .795l.332.332c.22.22.575.22.795 0l7.696-7.672c.22-.22.22-.576 0-.796l-7.7-7.672c-.22-.22-.576-.22-.796 0z"/>
    </g>
</svg>
