<svg xmlns="http://www.w3.org/2000/svg" width="24" height="24" viewBox="0 0 24 24">
    <path d="M8.834 14.272c.102 0 .204.051.28.128.077.077.129.204.103.306-.102.97-.153 1.762-.102 2.4v.128c0 .051.025.128.025.179 0 .05.026.076.026.127 0 .051.025.128.025.18 0 .025.026.076.026.101.026.102.051.179.077.256.51 1.48 1.787 2.017 2.706 2.017.306 0 .92-.051 1.506-.383.792-.434 1.251-1.226 1.303-2.222v-.383c-.026-.663-.18-1.378-.332-2.144l-.051-.205c-.026-.127 0-.23.076-.331.077-.103.179-.154.307-.154h8.68c.205 0 .383.18.383.383v8.834c0 .205-.178.383-.383.383H.511c-.205 0-.383-.178-.383-.383v-8.834c0-.204.178-.383.383-.383zm-3.728 2.911c-.434 0-.612.179-.893.408-.307.281-.69.613-1.404.613-.715 0-1.098-.332-1.405-.613-.178-.153-.306-.28-.51-.357v5.872h22.161V17.26c-.204.076-.332.204-.51.357-.307.28-.69.613-1.405.613-.714 0-1.097-.332-1.404-.613-.28-.23-.46-.408-.893-.408-.434 0-.613.178-.894.408-.306.28-.69.613-1.404.613-.46 0-.792-.153-1.047-.332v.05c0 .078-.026.129-.026.18 0 .102-.025.178-.05.255-.026.077-.026.128-.052.179l-.076.23-.077.153c-.026.076-.077.127-.102.204l-.077.153c-.025.077-.076.128-.127.204-.026.051-.077.077-.102.128-.052.051-.103.128-.154.179l-.102.102c-.05.076-.127.128-.204.179l-.102.076-.358.23c-.74.434-1.506.485-1.889.485-1.174 0-2.783-.664-3.421-2.528-.026-.102-.051-.178-.077-.28-.025-.026-.025-.051-.025-.077 0-.051-.026-.077-.026-.128-.255.18-.562.332-1.047.332-.715 0-1.098-.332-1.404-.613-.28-.23-.46-.408-.894-.408zm4.366 4.264c.212 0 .383.171.383.383 0 .211-.171.383-.383.383-.211 0-.383-.172-.383-.383 0-.212.172-.383.383-.383zm10.417 0c.212 0 .383.171.383.383 0 .211-.171.383-.383.383-.211 0-.383-.172-.383-.383 0-.212.172-.383.383-.383zm-14.604-.23c.212 0 .383.171.383.383s-.171.383-.383.383c-.211 0-.383-.171-.383-.383s.172-.383.383-.383zm10.851-.383c.212 0 .383.172.383.383 0 .212-.171.383-.383.383-.211 0-.383-.171-.383-.383 0-.211.172-.383.383-.383zm5.566-.996c.212 0 .383.172.383.383 0 .212-.171.383-.383.383-.211 0-.383-.171-.383-.383 0-.211.172-.383.383-.383zm-18.919-.383c.211 0 .383.172.383.383 0 .212-.172.383-.383.383-.212 0-.383-.171-.383-.383 0-.211.171-.383.383-.383zm15.983-.51c.211 0 .383.171.383.383 0 .211-.172.383-.383.383-.212 0-.383-.172-.383-.383 0-.212.171-.383.383-.383zm-13.098-.256c.212 0 .383.172.383.383 0 .212-.171.383-.383.383-.211 0-.383-.171-.383-.383 0-.211.172-.383.383-.383zM14.323.357c.077-.178.307-.28.486-.204.178.077.28.281.23.46-2.656 8.068-1.839 11.923-1.303 14.476.179.894.332 1.634.307 2.35-.077 1.404-1.098 1.889-2.043 1.889-.664 0-1.583-.383-1.966-1.481-.843-2.451 1.583-11.183 4.29-17.49zm-1.685 6.715c-1.506 4.775-2.349 9.14-1.89 10.52.307.919 1.099.97 1.252.97.46 0 1.226-.153 1.277-1.15.025-.612-.128-1.301-.307-2.144-.383-1.787-.919-4.213-.332-8.196zm10.468 7.966h-7.812c.127.664.255 1.251.28 1.864.052.026.077.077.128.102.281.23.46.409.894.409s.613-.179.893-.409c.307-.28.69-.613 1.405-.613.715 0 1.097.332 1.404.613.28.23.46.409.893.409.435 0 .613-.179.894-.409.255-.204.536-.46 1.021-.561v-1.405zm-14.68 0H.894v1.405c.485.076.766.331 1.02.561.282.23.46.409.895.409.434 0 .612-.179.893-.409.307-.28.69-.613 1.404-.613.715 0 1.098.332 1.405.613.28.23.46.409.893.409.434 0 .613-.179.894-.409 0-.025.025-.025.05-.05-.025-.537 0-1.175.078-1.916z"/>
</svg>
