<svg xmlns="http://www.w3.org/2000/svg" width="24" height="24" viewBox="0 0 24 24">
    <path d="M22.75 7.724L16.21 6.77 13.285.842c-.524-1.057-2.042-1.07-2.57 0L7.79 6.77l-6.542.954C.076 7.894-.394 9.34.457 10.169L5.19 14.78l-1.12 6.515c-.201 1.177 1.039 2.06 2.078 1.508L12 19.728l5.852 3.076c1.039.547 2.28-.33 2.078-1.508l-1.12-6.515 4.733-4.612c.851-.829.38-2.275-.792-2.445zm-6.246 6.304l1.062 6.197L12 17.301l-5.566 2.924 1.062-6.197L2.99 9.64l6.224-.904L12 3.094l2.785 5.642 6.224.904-4.505 4.388z"/>
</svg>
