<svg xmlns="http://www.w3.org/2000/svg" width="32" height="32" viewBox="0 0 32 32">
    <defs>
        <filter id="prefix__a">
            <feColorMatrix in="SourceGraphic" values="0 0 0 0 0.556863 0 0 0 0 0.745098 0 0 0 0 0.733333 0 0 0 1.000000 0"/>
        </filter>
    </defs>
    <g fill="none" fill-rule="evenodd" filter="url(#prefix__a)">
        <path fill="#000" fill-rule="nonzero" d="M30.334 10.299l-8.722-1.272-3.899-7.905c-.698-1.409-2.722-1.426-3.426 0l-3.899 7.905-8.722 1.272C.1 10.525-.525 12.454.609 13.559l6.31 6.148-1.492 8.687c-.269 1.57 1.385 2.746 2.77 2.012L16 26.304l7.803 4.102c1.385.728 3.039-.442 2.77-2.012l-1.492-8.687 6.31-6.149c1.134-1.104.508-3.033-1.057-3.26zm-7.301 8.74l1.66 9.671L16 24.15l-8.687 4.566 1.66-9.671-7.033-6.86 9.714-1.409L16 1.97l4.346 8.806 9.714 1.41-7.027 6.853z"/>
    </g>
</svg>
