<svg xmlns="http://www.w3.org/2000/svg" width="24" height="24" viewBox="0 0 24 24">
    <path d="M20.16 4.523c-2.043.047-3.688 1.758-3.66 3.802.023 1.79 1.303 3.277 3 3.619v4.95c0 3.089-2.69 5.601-6 5.601s-6-2.512-6-5.601v-.417c3.37-.375 6-3.24 6-6.708v-8.56c0-.257-.173-.482-.427-.543L10.477.019c-.3-.075-.605.108-.685.408l-.089.365c-.075.3.108.605.408.685L12 1.945v7.772c0 2.897-2.32 5.292-5.217 5.306-2.911.02-5.283-2.343-5.283-5.25V1.945l1.884-.473c.3-.075.483-.38.408-.684L3.703.426c-.075-.3-.38-.483-.684-.408L.427.666C.173.726 0 .952 0 1.209v8.56c0 3.469 2.63 6.333 6 6.708v.417C6 20.813 9.366 24 13.5 24s7.5-3.188 7.5-7.102v-4.95c1.71-.346 3-1.86 3-3.675 0-2.104-1.73-3.801-3.84-3.75zm.09 6c-1.242 0-2.25-1.007-2.25-2.25 0-1.242 1.008-2.25 2.25-2.25s2.25 1.008 2.25 2.25c0 1.243-1.008 2.25-2.25 2.25zm1.102-2.25c0 .61-.493 1.102-1.102 1.102-.61 0-1.102-.492-1.102-1.102 0-.609.493-1.101 1.102-1.101.61 0 1.102.492 1.102 1.101z"/>
</svg>
