<svg xmlns="http://www.w3.org/2000/svg" width="46" height="46" viewBox="0 0 46 46">
    <defs>
        <filter id="prefix__a">
            <feColorMatrix in="SourceGraphic" values="0 0 0 0 1.000000 0 0 0 0 1.000000 0 0 0 0 1.000000 0 0 0 1.000000 0"/>
        </filter>
    </defs>
    <g fill="none" fill-rule="evenodd">
        <circle cx="23" cy="23" r="23" fill="#F2C66D"/>
        <g filter="url(#prefix__a)">
            <path fill="#000" fill-rule="nonzero" d="M33.666 16.333c-.258 0-.52.075-.758.238l-4.572 2.912v-2.491c0-1.1-.967-1.992-2.158-1.992h-13.02C11.968 15 11 15.892 11 16.992v12.016c0 1.1.967 1.992 2.159 1.992h13.019c1.191 0 2.158-.892 2.158-1.992v-2.491l4.568 2.912c.237.167.504.238.758.238.692 0 1.338-.542 1.338-1.313V17.646c.004-.771-.642-1.313-1.334-1.313zm-6.663 4v8.675c0 .359-.38.659-.825.659h-13.02c-.445 0-.824-.3-.824-.659V16.992c0-.359.379-.659.825-.659h13.019c.446 0 .825.3.825.659v3.341zm6.668 8.021l-.05-.054-5.285-3.367v-3.87l5.335-3.396v10.687zm-10.336-6.02h-3v-3c0-.184-.15-.334-.333-.334h-.667c-.184 0-.334.15-.334.333v3h-3c-.184 0-.334.15-.334.334v.666c0 .184.15.334.334.334h3v3c0 .183.15.333.334.333h.667c.183 0 .333-.15.333-.333v-3h3c.184 0 .334-.15.334-.334v-.666c0-.184-.15-.334-.334-.334z"/>
        </g>
    </g>
</svg>
