<svg xmlns="http://www.w3.org/2000/svg" xmlns:xlink="http://www.w3.org/1999/xlink" width="77" height="98" viewBox="0 0 77 98">
    <defs>
        <path id="5101v7yp8a" d="M0.062 0.091L54.479 0.091 54.479 97.459 0.062 97.459z"/>
        <path id="5uwioj60gc" d="M0 0.073L10.676 0.073 10.676 13.382 0 13.382z"/>
        <path id="f8a5dyggke" d="M0 97.459L76 97.459 76 0.447 0 0.447z"/>
    </defs>
    <g fill="none" fill-rule="evenodd">
        <g transform="translate(21.459)">
            <mask id="yvfgnqk79b" fill="#fff">
                <use xlink:href="#5101v7yp8a"/>
            </mask>
            <path fill="#737373" d="M6.864.09h40.813c3.74 0 6.802 3.04 6.802 6.754v83.861c0 3.715-3.061 6.754-6.802 6.754H6.864c-3.74 0-6.802-3.04-6.802-6.754V6.845C.062 3.13 3.123.09 6.864.09" mask="url(#yvfgnqk79b)"/>
        </g>
        <path fill="#DCEBEA" d="M29 4.918c-1.928 0-3.518 1.602-3.518 3.545v76.956c0 1.944 1.59 3.546 3.519 3.546h40.351c1.929 0 3.519-1.602 3.519-3.546V8.463c0-1.944-1.59-3.545-3.519-3.545H29.001zM46.065 3.576c-.24 0-.434-.3-.434-.67 0-.37.195-.67.434-.67h8.042c.24 0 .434.3.434.67 0 .37-.194.67-.434.67h-8.042zm-1.448-1.34c.24 0 .434.3.434.67 0 .37-.195.67-.434.67h-.37c-.24 0-.435-.3-.435-.67 0-.37.194-.67.434-.67h.37z"/>
        <path fill="#000" d="M39.347 21.906c1.438 10.409-5.614 13.62 1.29 23.247 0 0 4.23-4.617 6.04-4.943 1.812-.326 2.052-5.975 2.052-6.264 0-.29-1.611-11.55-1.611-11.55l-7.771-.49z"/>
        <path fill="#FFF" d="M40.958 53.893c-2.856 6.176-6.398 13.252-14.572 14.452-6.63.973-16.333-11.323-17.287-13.329-.953-2.006 2.67-7.245 3.839-6.639 1.17.607 10.78 7.918 11.658 7.862 1.025-.065 4.525-11.03 10.873-14.64.99-.563 6.717 9.638 5.489 12.294"/>
        <path fill="#DCEBEA" d="M30.847 67.255c-1.356.739-2.882 1.273-4.617 1.536-6.02.91-14.567-9.409-16.842-12.909 3.979 4.45 7.523 7.681 10.72 9.393 2.947 1.579 5.469 1.802 10.74 1.98"/>
        <path fill="#FFF" d="M56.287 38.947c3.993 0 8.006 2.046 9.754 4.679 2.696 4.06-5.156 24.716-2.907 45.339h-33.6c-.205-8.536.723-29.897 2.633-44.364 4.184-6.65 17.69-5.654 24.12-5.654"/>
        <path fill="#94ACBB" d="M43.972 38.994c-4.938 2.716-5.953 19.012-7.313 49.97h12.538c.539-30.4 5.26-45.085 7.132-50.274-4.026-.27-7.427-.476-12.357.304"/>
        <path fill="#ABDEDB" d="M44.187 38.97c-5.083 2.693-6.128 18.852-7.528 49.548h1.488c-.485-9.778 1.07-45.786 6.559-49.624-.171.024-.344.05-.519.077"/>
        <path fill="#000" d="M53.716 48.924c.115-.312.664-2.007.893-3.999.154-1.339.163-2.806-.207-4.053-.354-1.198-1.065-2.198-2.352-2.674-.344-.128-.73-.22-1.162-.27-8.667-1.001-11.93 6.44-14.662 13.34l-.235.59-.673-.267.234-.591c2.82-7.122 6.201-14.86 15.42-13.795.49.056.932.162 1.328.309 1.538.57 2.383 1.746 2.799 3.153.401 1.356.395 2.921.232 4.34-.238 2.069-.812 3.842-.932 4.168l-.683-.25z"/>
        <path fill="#D0986E" d="M41.957 34.43c1.244 1.52 2.679 2.747 4.154 3.08v1.636l-.287.395c-1.05 1.859-.48 5.596 1.26 6.506 2.722-.994 6.403-3.444 7.142-6.887l-.485-.458-.663-.473-.325-4.08c.206-.06 1.52-1.296 1.938-1.544.418-.248.878-1.288.708-2.232-.169-.944-1.516-.306-1.516-.306 1.168-2.798 2.665-5.211-.348-6.766-3.012-1.555-9.088-1.439-9.088-1.439l-3.765-.403c.723 1.119.6 4.84.29 7.602-.28 2.476-.684 3.328.985 5.369"/>
        <path fill="#DAA786" d="M51.412 34.87s-1.345 4.302-3.103 5.068c-1.759.766-2.004.667-2.709.744V37.6c1.315-.09 3.059-.529 5.812-2.73"/>
        <path fill="#DCEBEA" d="M59.401 50.07c.358 1.505 1.43 10.449.256 11.372-1.549 1.22-8.635 1.626-6.51 2.154l4.94 1.228 9.419-5.582-5.217-7.04-2.888-2.131z"/>
        <path fill="#FFF" d="M59.455 49.803c-1.453-3-1.175-5.687 1.611-7.551 2.787-1.864 5.163.41 6.616 3.41 2.851 5.887 4.94 19.012 1.921 22.75-2.466 3.052-17.446 2.913-19.519 2.353-.485-.13-3.936-3.444-2.974-6.272.102-.302.72-.425 1.206-.428 2.824-.018 11.884-1.155 13.139-1.833 1.972-1.067-.982-10.326-2-12.43"/>
        <path fill="#A6A6A6" d="M47.5 64.795c1.136.678 2.098 2.178 2.609 3.694.575 1.706.804 2.56-1.115 1.95-1.345-.429-3.078-1.004-3.078-1.004-1.433-1.625-1.91-3.72-1.535-5.059l3.12.419z"/>
        <path fill="#94ACBB" d="M12.93 49.503c.31 2.046-1.503 5.347-2.88 5.932-.154-.288-1.074-1.537-1.684-2.497-1.31-2.062 1.782-6.37 2.688-5.413l1.876 1.978z"/>
        <g transform="translate(0 38.447)">
            <mask id="yw0gkv0ihd" fill="#fff">
                <use xlink:href="#5uwioj60gc"/>
            </mask>
            <path fill="#D0986E" d="M9.236 7.888c-.191-.868-.996-4.3-1.65-4.878-.333-.294-.412-.161-.56.026-.13.163-.24.608-.203.912.077.637.127 1.217.226 1.56C5.073 4.494 3.18 2.118 1.737.49 1.15-.17.217-.099.78 1.081c.461.965 2.287 3.127 2.287 3.127L.574 2.632c-.692-.367-.688.468-.358.818.541.575 2.208 2.113 2.208 2.113L.606 4.915c-.695-.249-.333.59-.147.738.426.34 1.935 1.283 1.935 1.283l-.834-.27c-.945-.306-.253.885.02.97.058.017 3.321 2.043 3.89 2.377 1.418.833 2.09 2.212 3.096 3.37.545-.41 1.915-1.971 2.11-3.892l-1.44-1.603z" mask="url(#yw0gkv0ihd)"/>
        </g>
        <mask id="74lw7zjolf" fill="#fff">
            <use xlink:href="#f8a5dyggke"/>
        </mask>
        <path fill="#DCEBEA" d="M52.306 81.812L61.247 81.812 61.247 80.471 52.306 80.471z" mask="url(#74lw7zjolf)"/>
        <path fill="#CFD2D3" d="M47.388 61.489c2.245 1.16 3.964 1.423 5.4.689 1.42-.726 2.522-2.42 3.541-5.177l-.525-.225c-.965 2.609-1.98 4.197-3.26 4.85-1.263.646-2.83.388-4.912-.689l-.244.552z" mask="url(#74lw7zjolf)"/>
        <path fill="#E6E6E7" d="M52.146 62.588c-2.193-.736-3.504-1.713-4.04-3.158-.528-1.43-.273-3.282.663-5.783l.486.203c-.885 2.366-1.136 4.092-.66 5.38.47 1.271 1.676 2.149 3.71 2.831l-.16.527z" mask="url(#74lw7zjolf)"/>
        <path fill="#000" d="M54.675 48.42c-2.904-.781-5.011 1.898-6.113 4.385-.18.406-.297.651-.278.867.057.64.84.583.972.206.793-2.272 2.924-5.524 5.65-4.392l.035.013c.06.023.772.306 1.254 1.224.49.933.821 2.702-.392 5.826-.08.207.014.445.212.577l.01.006.01.007h.001l.01.006.002.001.01.006h.001l.001.001.034.017h.002l.007.004h.001l.002.001h.001v.001h.002l.001.001h.001l.001.001h.001l.002.001h.002v.001h.002c.269.11.561.003.655-.237 1.079-2.78 1.185-5.008.314-6.62-.548-1.011-1.37-1.62-2.413-1.902M53.18 62.652c.068-.294-.043-.611-.247-.71l-.715-.245c-.233-.026-.265.139-.319.343-.052.223-.09.386.126.575l.66.391c.205.098.427-.06.495-.354M47.425 60.653c.093-.26.33-.372.529-.252l.649.483c.185.194.129.334.07.52-.07.197-.122.341-.374.273l-.68-.336c-.2-.12-.286-.428-.194-.688" mask="url(#74lw7zjolf)"/>
        <path fill="#006294" d="M34.553 51.357c-.368.948.076 1.94.992 2.218.916.277 1.957-.266 2.326-1.214.368-.948-.076-1.94-.992-2.218-.917-.277-1.958.267-2.326 1.214" mask="url(#74lw7zjolf)"/>
        <path fill="#D0986E" d="M34.504 51.035c-.23.711.048 1.456.62 1.664.573.208 1.224-.2 1.454-.91.23-.712-.048-1.456-.62-1.664-.573-.208-1.223.2-1.454.91" mask="url(#74lw7zjolf)"/>
        <path fill="#FFF" d="M34.92 51.447c-.139.355.028.728.371.832.344.104.734-.1.872-.455.138-.356-.028-.728-.372-.832-.343-.104-.734.1-.872.455" mask="url(#74lw7zjolf)"/>
        <path fill="#DCEBEA" d="M29.059 81.812L33.082 81.812 33.082 80.471 29.059 80.471z" mask="url(#74lw7zjolf)"/>
        <path fill="#000" d="M50.025 25.44s-6.409 1.481-9.714-.532c-2.167-1.51-1.924-5.296 1.253-7.552 4.092-2.907 11.22-2.127 14.233 2.506 1.05 1.616 2.234 5.245 3.482 8.109 2.9 6.659 11.299 7.728 11.802 14.677.038.526-.992-.313-2.627-.734 1.902 2.45.624 5.412.219 5.921-1.088-3.111-3.361-6.095-5.97-7.322-1.393-.655-3.114-1.19-5.398-1.296-.853-.04-1.667-.079-2.369-.197-.791-.736-1.647-1.083-1.843-1.137-.109-1.36-.274-2.628-.28-3.476 0 0 1.697-1.2 1.614-2.593-.084-1.392-.475-1.357-.633-1.323-.16.034-1.066.564-1.066.564-.321-1.809-.248-5.413-2.703-5.614" mask="url(#74lw7zjolf)"/>
        <path fill="#FF8D7C" d="M21.459 54.094L37.037 54.094 42.918 73.765 27.339 73.765z" mask="url(#74lw7zjolf)"/>
        <path fill="#D0986E" d="M44.468 64.662l-2.123-.36-2.426-1.653s-.963-1.095-1.316-.94c-.068.03.567 2.07.492 2.128-.632.5-4.693-.141-4.671-.068 1.943 6.679 6.203 3.448 10.842 4.964.684.224.815.143.774-.462-.064-.951-.602-2.508-1.572-3.61" mask="url(#74lw7zjolf)"/>
        <path fill="#FF6F61" d="M25.482 54.106h1.663c-.003-.012-.004-.024-.004-.036 0-.234.5-.423 1.116-.423.617 0 1.117.19 1.117.423 0 .012-.001.024-.004.036h1.958l.413 1.33h-5.734l-.525-1.33z" mask="url(#74lw7zjolf)"/>
        <path fill="#F2C66D" d="M22.13 12.965c4.567 0 8.27 3.703 8.27 8.27 0 4.568-3.703 8.27-8.27 8.27-4.568 0-8.271-3.702-8.271-8.27 0-4.567 3.703-8.27 8.27-8.27" mask="url(#74lw7zjolf)"/>
        <path fill="#FFF" d="M16.988 19.646L20.987 19.646 20.987 15.647 23.719 15.647 23.719 19.646 27.718 19.646 27.718 22.378 23.719 22.378 23.719 26.376 20.987 26.376 20.987 22.378 16.988 22.378z" mask="url(#74lw7zjolf)"/>
        <path fill="#DCEBEA" d="M48.506 90.306c1.358 0 2.459 1.1 2.459 2.459 0 1.358-1.101 2.459-2.46 2.459-1.357 0-2.458-1.101-2.458-2.46 0-1.357 1.1-2.458 2.459-2.458" mask="url(#74lw7zjolf)"/>
        <path fill="#000" d="M65.458 7.928c-.103 0-.187-.074-.187-.164 0-.09.084-.164.187-.164h4.096c.103 0 .187.073.187.164 0 .09-.084.164-.187.164h-4.096zm0 2.354c-.103 0-.187-.073-.187-.163 0-.09.084-.164.187-.164h4.096c.103 0 .187.073.187.164 0 .09-.084.163-.187.163h-4.096zm0-1.177c-.103 0-.187-.073-.187-.164 0-.09.084-.163.187-.163h4.096c.103 0 .187.073.187.163 0 .09-.084.164-.187.164h-4.096z" mask="url(#74lw7zjolf)"/>
    </g>
</svg>
