<svg xmlns="http://www.w3.org/2000/svg" xmlns:xlink="http://www.w3.org/1999/xlink" width="176" height="228" viewBox="0 0 176 228">
    <defs>
        <path id="prefix-telehealth__a" d="M0.144 0.212L125.958 0.212 125.958 228 0.144 228z"/>
        <path id="prefix-telehealth__c" d="M0 0.171L24.909 0.171 24.909 31.332 0 31.332z"/>
        <path id="prefix-telehealth__e" d="M0 228L176 228 176 0.722 0 0.722z"/>
    </defs>
    <g fill="none" fill-rule="evenodd">
        <g transform="translate(49.366)">
            <mask id="prefix-telehealth__b" fill="#fff">
                <use xlink:href="#prefix-telehealth__a"/>
            </mask>
            <path fill="#737373" d="M15.87.212h94.362c8.65 0 15.726 7.11 15.726 15.8V212.2c0 8.69-7.076 15.8-15.726 15.8H15.871C7.22 228 .144 220.89.144 212.2V16.012c0-8.69 7.077-15.8 15.727-15.8" mask="url(#prefix-telehealth__b)"/>
        </g>
        <path fill="#DCEBEA" d="M66.793 11.544c-4.455 0-8.126 3.755-8.126 8.309V200.21c0 4.556 3.671 8.309 8.126 8.309h93.21c4.455 0 8.127-3.753 8.127-8.309V19.853c0-4.556-3.672-8.309-8.127-8.309h-93.21zM106.137 7.937c-.559 0-1.012-.647-1.012-1.444 0-.797.453-1.442 1.012-1.442h18.769c.56 0 1.013.645 1.013 1.442 0 .797-.454 1.444-1.013 1.444h-18.769zm-3.38-2.886c.559 0 1.012.645 1.012 1.442 0 .797-.453 1.444-1.013 1.444h-.864c-.56 0-1.014-.647-1.014-1.444 0-.797.454-1.442 1.014-1.442h.864z"/>
        <path fill="#000" d="M90.703 51.228c3.314 24.23-12.936 31.706 2.975 54.114 0 0 9.745-10.747 13.918-11.507 4.174-.759 4.73-13.907 4.73-14.581 0-.675-3.715-26.887-3.715-26.887l-17.908-1.14z"/>
        <path fill="#FFF" d="M94.757 126.228c-6.6 14.453-14.789 31.013-33.683 33.821-15.326 2.278-37.756-26.499-39.96-31.193-2.205-4.694 6.17-16.955 8.873-15.536 2.703 1.419 24.919 18.53 26.948 18.399 2.371-.154 10.46-25.815 25.135-34.261 2.29-1.318 15.526 22.554 12.687 28.77"/>
        <path fill="#DCEBEA" d="M71.545 157.177c-3.12 1.728-6.63 2.977-10.621 3.59-13.85 2.126-33.511-21.992-38.745-30.172 9.153 10.402 17.307 17.954 24.66 21.955 6.78 3.69 12.582 4.21 24.706 4.627"/>
        <path fill="#FFF" d="M129.933 91.035c9.239 0 18.523 4.777 22.567 10.923 6.238 9.475-11.929 57.698-6.727 105.84h-77.74c-.476-19.926 1.672-69.791 6.092-103.565 9.68-15.524 40.928-13.198 55.808-13.198"/>
        <path fill="#94ACBB" d="M101.447 91.472c-11.495 6.36-13.858 44.532-17.024 117.047h29.186c1.254-71.208 12.243-105.606 16.602-117.76-9.372-.633-17.288-1.116-28.764.713"/>
        <path fill="#ABDEDB" d="M101.825 91.09c-11.75 6.304-14.165 44.129-17.402 115.986h3.44c-1.12-22.89 2.473-107.18 15.161-116.165-.395.057-.795.117-1.199.18"/>
        <path fill="#000" d="M124.091 114.326c.266-.732 1.534-4.711 2.063-9.388.356-3.143.377-6.587-.477-9.515-.819-2.812-2.463-5.159-5.438-6.278-.795-.3-1.687-.514-2.684-.631-20.035-2.352-27.58 15.118-33.895 31.314l-.542 1.387-1.557-.629.541-1.387c6.519-16.718 14.336-34.885 35.643-32.385 1.136.133 2.156.38 3.072.725 3.556 1.338 5.509 4.101 6.47 7.402.928 3.184.914 6.859.537 10.19-.55 4.856-1.877 9.018-2.155 9.784l-1.578-.589z"/>
        <path fill="#D0986E" d="M96.691 80.234c2.895 3.57 6.235 6.45 9.668 7.23v3.843l-.667.926c-2.445 4.364-1.116 13.136 2.933 15.273 6.336-2.332 14.906-8.085 16.624-16.168l-1.128-1.075-1.543-1.11-.756-9.576c.479-.145 3.536-3.044 4.51-3.625.973-.583 2.044-3.026 1.65-5.241-.395-2.216-3.531-.718-3.531-.718 2.72-6.568 6.204-12.233-.808-15.884-7.012-3.65-21.156-3.377-21.156-3.377l-8.763-.947c1.683 2.626 1.396 11.364.672 17.846-.648 5.813-1.59 7.812 2.295 12.603"/>
        <path fill="#DAA786" d="M118.764 81.532s-3.145 10.147-7.257 11.953c-4.113 1.806-4.688 1.574-6.336 1.756v-7.27c3.076-.214 7.155-1.248 13.593-6.44"/>
        <path fill="#DCEBEA" d="M137.101 116.886c.834 3.531 3.329 24.528.596 26.696-3.605 2.86-20.1 3.816-15.153 5.055l11.5 2.882 21.923-13.102-12.144-16.526-6.722-5.005z"/>
        <path fill="#FFF" d="M137.674 116.717c-3.359-7.043-2.715-13.351 3.725-17.726 6.442-4.376 11.934.962 15.293 8.004 6.592 13.82 11.42 44.633 4.442 53.405-5.7 7.166-40.33 6.84-45.12 5.526-1.122-.307-9.1-8.086-6.877-14.724.238-.708 1.666-.998 2.79-1.005 6.527-.042 27.471-2.71 30.371-4.303 4.56-2.505-2.269-24.24-4.624-29.177"/>
        <path fill="#A6A6A6" d="M109.72 151.761c2.597 1.565 4.795 5.023 5.963 8.518 1.315 3.935 1.84 5.903-2.55 4.495-3.073-.987-7.036-2.313-7.036-2.313-3.274-3.746-4.364-8.576-3.508-11.664l7.13.964z"/>
        <path fill="#94ACBB" d="M29.967 116.043c.72 4.77-3.497 12.465-6.703 13.83-.358-.672-2.501-3.584-3.92-5.82-3.05-4.807 4.148-14.849 6.258-12.621l4.365 4.61z"/>
        <g transform="translate(0 90.19)">
            <mask id="prefix-telehealth__d" fill="#fff">
                <use xlink:href="#prefix-telehealth__c"/>
            </mask>
            <path fill="#D0986E" d="M21.55 18.468c-.447-2.033-2.325-10.069-3.849-11.42-.778-.69-.963-.378-1.308.06-.302.383-.56 1.424-.474 2.136.18 1.49.297 2.848.527 3.651-4.61-2.372-9.024-7.936-12.394-11.745C2.682-.398.504-.23 1.822 2.53c1.077 2.26 5.337 7.322 5.337 7.322l-5.82-3.689C-.275 5.303-.266 7.257.503 8.078c1.264 1.346 5.152 4.946 5.152 4.946l-4.24-1.517c-1.623-.581-.777 1.384-.345 1.73.994.794 4.516 3.003 4.516 3.003l-1.946-.633c-2.204-.716-.591 2.072.046 2.269.136.042 7.75 4.785 9.075 5.567 3.31 1.951 4.878 5.18 7.225 7.889 1.271-.958 4.468-4.614 4.923-9.111l-3.359-3.753z" mask="url(#prefix-telehealth__d)"/>
        </g>
        <mask id="prefix-telehealth__f" fill="#fff">
            <use xlink:href="#prefix-telehealth__e"/>
        </mask>
        <path fill="#DCEBEA" d="M120.911 191.203L141.659 191.203 141.659 188.316 120.911 188.316z" mask="url(#prefix-telehealth__f)"/>
        <path fill="#CFD2D3" d="M109.463 143.875c5.208 2.738 9.198 3.356 12.531 1.625 3.297-1.713 5.85-5.706 8.217-12.21l-1.22-.53c-2.239 6.152-4.593 9.897-7.562 11.44-2.933 1.523-6.568.914-11.4-1.626l-.566 1.3z" mask="url(#prefix-telehealth__f)"/>
        <path fill="#E6E6E7" d="M120.551 146.468c-4.913-1.722-7.85-4.01-9.048-7.39-1.185-3.346-.613-7.682 1.484-13.534l1.089.476c-1.983 5.536-2.547 9.575-1.48 12.587 1.054 2.977 3.756 5.03 8.315 6.628l-.36 1.233z" mask="url(#prefix-telehealth__f)"/>
        <path fill="#000" d="M126.224 113.602c-6.638-1.83-11.456 4.44-13.976 10.261-.411.95-.677 1.523-.634 2.028.13 1.499 1.92 1.365 2.22.483 1.814-5.317 6.686-12.929 12.92-10.28.035.015.046.02.078.03.139.056 1.765.718 2.868 2.865 1.122 2.185 1.877 6.323-.896 13.635-.184.484.031 1.042.484 1.35l.024.015.024.016.024.015.003.001.023.013.003.002.003.002c.025.014.051.027.078.04l.003.001.016.007c.002 0 .003.002.003.002h.001l.003.002h.003v.001h.001l.003.002h.003l.002.001v.001h.003l.001.001.001.001h.001l.003.002h.001l.002.001.002.001h.002l.002.002h.001c.613.254 1.283.005 1.495-.558 2.468-6.507 2.71-11.719.718-15.489-1.251-2.369-3.129-3.795-5.516-4.454M123.014 146.365c.146-.632-.09-1.316-.528-1.526l-1.524-.53c-.498-.055-.565.3-.68.739-.112.48-.193.83.267 1.236l1.41.844c.436.21.91-.13 1.055-.763M109.542 142.064c.197-.558.702-.801 1.128-.543l1.385 1.04c.396.418.275.718.148 1.119-.15.424-.259.734-.796.586l-1.45-.723c-.426-.258-.612-.92-.415-1.479" mask="url(#prefix-telehealth__f)"/>
        <path fill="#006294" d="M79.726 120c-.885 2.295.181 4.698 2.38 5.369 2.2.671 4.7-.644 5.583-2.939.884-2.293-.182-4.698-2.381-5.369-2.2-.67-4.698.646-5.582 2.94" mask="url(#prefix-telehealth__f)"/>
        <path fill="#D0986E" d="M79.596 119.221c-.516 1.721.106 3.524 1.389 4.027 1.283.504 2.74-.483 3.257-2.204.515-1.72-.107-3.524-1.39-4.026-1.282-.504-2.74.483-3.256 2.203" mask="url(#prefix-telehealth__f)"/>
        <path fill="#FFF" d="M80.95 120.089c-.296.764.06 1.566.793 1.79.733.223 1.566-.216 1.86-.98.295-.765-.06-1.566-.793-1.79-.733-.224-1.566.215-1.86.98" mask="url(#prefix-telehealth__f)"/>
        <path fill="#DCEBEA" d="M67.252 191.203L76.553 191.203 76.553 188.316 67.252 188.316z" mask="url(#prefix-telehealth__f)"/>
        <path fill="#000" d="M115.876 59.63s-14.814 3.45-22.453-1.242c-5.01-3.523-4.449-12.347 2.895-17.607 9.46-6.776 25.937-4.957 32.9 5.842 2.43 3.769 5.166 12.227 8.05 18.903 6.704 15.524 26.118 18.018 27.282 34.218.089 1.225-2.295-.73-6.072-1.712 4.395 5.71 1.442 12.617.505 13.803-2.514-7.253-7.77-14.208-13.8-17.07-3.22-1.527-7.198-2.772-12.478-3.02-1.973-.093-3.854-.185-5.476-.46-1.83-1.716-3.808-2.524-4.26-2.65-.252-3.17-.635-6.126-.647-8.105 0 0 3.922-2.797 3.73-6.043-.194-3.247-1.097-3.163-1.464-3.084-.367.078-2.462 1.314-2.462 1.314-.743-4.217-.575-12.62-6.25-13.088" mask="url(#prefix-telehealth__f)"/>
        <path fill="#FF8D7C" d="M50.081 126.266L85.919 126.266 99.447 172.443 63.609 172.443z" mask="url(#prefix-telehealth__f)"/>
        <path fill="#D0986E" d="M102.909 151.189l-4.966-.835-5.674-3.836s-2.252-2.54-3.08-2.18c-.157.07 1.327 4.8 1.152 4.938-1.479 1.16-10.976-.328-10.926-.159 4.545 15.495 14.51 8 25.36 11.517 1.599.519 1.907.332 1.81-1.072-.15-2.207-1.407-5.819-3.676-8.373" mask="url(#prefix-telehealth__f)"/>
        <path fill="#FF6F61" d="M58.667 126.657h3.8c-.006-.03-.01-.06-.01-.09 0-.564 1.144-1.023 2.554-1.023s2.553.459 2.553 1.024c0 .03-.003.06-.01.089h4.476l.946 3.216h-13.11l-1.2-3.216z" mask="url(#prefix-telehealth__f)"/>
        <path fill="#F2C66D" d="M51.154 30.304c10.471 0 18.96 8.722 18.96 19.48 0 10.76-8.489 19.482-18.96 19.482-10.47 0-18.959-8.722-18.959-19.481 0-10.76 8.488-19.481 18.96-19.481" mask="url(#prefix-telehealth__f)"/>
        <path fill="#FFF" d="M39.35 46.209L48.681 46.209 48.681 36.797 55.058 36.797 55.058 46.209 64.39 46.209 64.39 52.64 55.058 52.64 55.058 62.051 48.681 62.051 48.681 52.64 39.35 52.64z" mask="url(#prefix-telehealth__f)"/>
        <path fill="#DCEBEA" d="M112.325 211.405c3.161 0 5.724 2.584 5.724 5.772s-2.563 5.772-5.724 5.772c-3.16 0-5.723-2.584-5.723-5.772s2.562-5.772 5.723-5.772" mask="url(#prefix-telehealth__f)"/>
        <path fill="#000" d="M151.379 18.11c-.231 0-.42-.178-.42-.397 0-.22.189-.397.42-.397h9.178c.23 0 .419.178.419.397 0 .22-.189.397-.42.397h-9.177zm0 5.7c-.231 0-.42-.177-.42-.396 0-.219.189-.397.42-.397h9.178c.23 0 .419.178.419.397 0 .219-.189.396-.42.396h-9.177zm0-2.85c-.231 0-.42-.178-.42-.397 0-.218.189-.396.42-.396h9.178c.23 0 .419.178.419.396 0 .22-.189.397-.42.397h-9.177z" mask="url(#prefix-telehealth__f)"/>
    </g>
</svg>
