<svg xmlns="http://www.w3.org/2000/svg" width="24" height="24" viewBox="0 0 24 24">
    <path d="M22.81 4.512C22.291 2.389 20.6.664 18.495.118c-1.31-.338-2.698.053-4.176 1.141-.59.433-2.071 1.148-3.637.003l-.018-.013-.01-.004C9.188.169 7.81-.218 6.503.119 4.4.665 2.706 2.39 2.19 4.512c-.45 1.85-.092 3.69 1.008 5.177.961 1.3 1.502 2.899 1.7 5.031.17 1.814.434 4.2.982 6.577l.366 1.592c.15.654.722 1.11 1.39 1.11.657 0 1.227-.447 1.384-1.085l1.617-6.489c.214-.86.98-1.46 1.863-1.46s1.649.6 1.863 1.461l1.617 6.488c.155.638.727 1.087 1.384 1.086.668 0 1.239-.456 1.39-1.11l.366-1.593c.548-2.377.811-4.764.98-6.577.201-2.135.742-3.734 1.703-5.031 1.1-1.489 1.458-3.327 1.006-5.177zm-2.214 4.284c-1.129 1.527-1.762 3.364-1.989 5.784-.164 1.767-.421 4.089-.949 6.38l-.297 1.293-1.542-6.19c-.38-1.53-1.746-2.598-3.319-2.598-1.572 0-2.938 1.068-3.318 2.598l-1.474 6.49-.366-1.593c-.527-2.29-.785-4.612-.949-6.379-.225-2.417-.858-4.255-1.99-5.785-.83-1.123-1.099-2.52-.755-3.93.387-1.592 1.655-2.886 3.231-3.295 1.14-.294 2.276.428 2.912.897.003.003.007.004.01.006l.003.004 3.765 2.636c.502.349.945-.04 1.045-.184.238-.34.155-.807-.183-1.045l-.923-.646c.611-.146 1.197-.4 1.702-.772 1.101-.813 2.05-1.12 2.91-.897 1.576.41 2.846 1.703 3.234 3.296.342 1.41.074 2.807-.758 3.93z"/>
</svg>
