<svg xmlns="http://www.w3.org/2000/svg" width="16" height="16" viewBox="0 0 16 16">
    <defs>
        <filter id="zu8v2d7t6a">
            <feColorMatrix in="SourceGraphic" values="0 0 0 0 0.495492 0 0 0 0 0.497452 0 0 0 0 0.495064 0 0 0 1.000000 0"/>
        </filter>
    </defs>
    <g fill="none" fill-rule="evenodd" filter="url(#zu8v2d7t6a)" transform="translate(-12 -12)">
        <path fill="#000" fill-rule="nonzero" d="M22.583 25.5h.5c.138 0 .25-.112.25-.25v-8.5c0-.138-.112-.25-.25-.25h-.5c-.138 0-.25.112-.25.25v8.5c0 .138.112.25.25.25zm-5 0h.5c.138 0 .25-.112.25-.25v-8.5c0-.138-.112-.25-.25-.25h-.5c-.138 0-.25.112-.25.25v8.5c0 .138.112.25.25.25zm9.5-11.5h-3.25l-1.05-1.4c-.283-.378-.728-.6-1.2-.6h-2.5c-.472 0-.916.222-1.2.6l-1.05 1.4h-3.25c-.138 0-.25.112-.25.25v.5c0 .138.112.25.25.25h.75v11.5c0 .828.672 1.5 1.5 1.5h9c.829 0 1.5-.672 1.5-1.5V15h.75c.138 0 .25-.112.25-.25v-.5c0-.138-.112-.25-.25-.25zm-8.4-.8c.095-.126.243-.2.4-.2h2.5c.158 0 .306.074.4.2l.6.8h-4.5l.6-.8zm6.65 13.3c0 .276-.224.5-.5.5h-9c-.276 0-.5-.224-.5-.5V15h10v11.5zm-5.25-1h.5c.138 0 .25-.112.25-.25v-8.5c0-.138-.112-.25-.25-.25h-.5c-.138 0-.25.112-.25.25v8.5c0 .138.112.25.25.25z"/>
    </g>
</svg>
