<svg xmlns="http://www.w3.org/2000/svg" width="24" height="24" viewBox="0 0 24 24">
    <defs>
        <filter id="prefix__a">
            <feColorMatrix in="SourceGraphic" values="0 0 0 0 0.999063 0 0 0 0 0.434148 0 0 0 0 0.382140 0 0 0 1.000000 0"/>
        </filter>
    </defs>
    <g fill="none" fill-rule="evenodd" transform="translate(0 -2)">
        <path fill="#d02683" fill-rule="nonzero" d="M23.561 17.436l-.619-.356c.03-.319.03-.641 0-.96l.623-.356c.356-.206.517-.626.394-1.013-.27-.877-.747-1.702-1.377-2.381-.277-.304-.723-.371-1.076-.165l-.619.356c-.262-.187-.54-.348-.832-.48v-.712c0-.413-.281-.761-.683-.851-.896-.203-1.848-.203-2.744 0-.402.09-.683.442-.683.85v.713c-.293.132-.57.293-.832.48l-.62-.356c-.356-.206-.798-.139-1.075.165-.627.679-1.103 1.504-1.377 2.378-.123.39.045.817.398 1.02l.618.356c-.03.319-.03.641 0 .96l-.622.356c-.349.203-.518.634-.394 1.016.27.878.746 1.703 1.377 2.382.277.3.72.367 1.076.165l.619-.357c.262.188.54.349.832.48v.713c0 .412.281.761.683.851.45.101.91.15 1.372.15.461 0 .926-.049 1.372-.15.402-.09.683-.442.683-.851v-.713c.293-.131.57-.292.832-.48l.62.357c.352.202.798.135 1.075-.165.627-.68 1.103-1.504 1.377-2.378.123-.39-.045-.821-.398-1.024zm-1.935.27l1.103.638c-.195.536-.488 1.042-.855 1.481l-1.103-.637c-.802.686-.919.753-1.916 1.106v1.275c-.566.097-1.148.097-1.71 0v-1.275c-1.009-.356-1.133-.439-1.916-1.106l-1.103.637c-.367-.442-.66-.945-.855-1.481l1.103-.638c-.184-1.005-.195-1.147 0-2.212l-1.103-.638c.195-.536.488-1.038.855-1.481l1.103.638c.802-.687.919-.754 1.916-1.107v-1.275c.566-.093 1.151-.093 1.71 0v1.275c1.005.357 1.133.435 1.916 1.107l1.103-.638c.367.443.66.945.855 1.481l-1.103.638c.184 1.005.195 1.147 0 2.212zM18 14.181c-1.335 0-2.419 1.088-2.419 2.419s1.084 2.419 2.419 2.419 2.419-1.088 2.419-2.419-1.084-2.419-2.419-2.419zm0 3.638c-.671 0-1.219-.548-1.219-1.219s.548-1.219 1.219-1.219 1.219.548 1.219 1.219-.548 1.219-1.219 1.219zM8.4 13.6c2.651 0 4.8-2.149 4.8-4.8S11.051 4 8.4 4 3.6 6.149 3.6 8.8s2.149 4.8 4.8 4.8zm0-8.4c1.984 0 3.6 1.616 3.6 3.6s-1.616 3.6-3.6 3.6-3.6-1.616-3.6-3.6 1.616-3.6 3.6-3.6zM1.8 22c-.33 0-.6-.27-.6-.6v-1.56C1.2 17.721 2.921 16 5.04 16c.735 0 1.466.6 3.36.6.72 0 1.425-.124 2.119-.326.018-.435.067-.863.157-1.275-.334.101-1.129.401-2.276.401-1.766 0-2.28-.6-3.36-.6C2.257 14.8 0 17.057 0 19.84v1.56c0 .994.806 1.8 1.8 1.8h12.637c-.6-.322-1.147-.731-1.63-1.2H1.8z"/>
    </g>
</svg>
