<svg xmlns="http://www.w3.org/2000/svg" width="24" height="24" viewBox="0 0 24 24">
    <defs>
        <filter id="prefix__a">
            <feColorMatrix in="SourceGraphic" values="0 0 0 0 0.999063 0 0 0 0 0.434148 0 0 0 0 0.382140 0 0 0 1.000000 0"/>
        </filter>
    </defs>
    <g fill="none" fill-rule="evenodd" transform="translate(0 -1)">
        <path fill="#d02683" fill-rule="nonzero" d="M8.25 12.429c2.604 0 4.714-2.11 4.714-4.715C12.964 5.11 10.854 3 8.25 3 5.646 3 3.536 5.11 3.536 7.714c0 2.604 2.11 4.715 4.714 4.715zm0-8.25c1.948 0 3.536 1.587 3.536 3.535 0 1.949-1.588 3.536-3.536 3.536S4.714 9.663 4.714 7.714c0-1.948 1.588-3.535 3.536-3.535zm-6.482 16.5c-.324 0-.59-.266-.59-.59v-1.532c0-2.08 1.691-3.771 3.772-3.771.722 0 1.44.589 3.3.589.707 0 1.4-.122 2.08-.32.02-.428.067-.848.156-1.253-.328.1-1.109.394-2.236.394-1.735 0-2.24-.589-3.3-.589-2.733 0-4.95 2.217-4.95 4.95v1.532c0 .976.792 1.768 1.768 1.768H14.18c-.59-.317-1.127-.718-1.602-1.178H1.768zm20.97-7.497c-1.383-1.139-3.453-.95-4.737.332l-.5.5-.5-.498c-1.037-1.036-3.126-1.66-4.739-.334-1.594 1.316-1.678 3.678-.251 5.103l4.913 4.905c.157.158.366.239.574.239.208 0 .416-.079.574-.239l4.913-4.905c1.432-1.425 1.348-3.787-.246-5.103zm-.494 4.568L17.51 22.43l-4.753-4.679c-.943-.927-1.14-2.695.19-3.774 1.345-1.096 2.926-.302 3.505.27l1.048 1.032 1.049-1.033c.57-.562 2.165-1.358 3.506-.269 1.326 1.077 1.132 2.845.189 3.774z"/>
    </g>
</svg>
