<svg xmlns="http://www.w3.org/2000/svg" width="308" height="185" viewBox="0 0 308 185">
    <g fill="none">
        <path fill="#E6E6E6" d="M308 144.306c.013 2.579-2.07 4.68-4.652 4.694H98.653c-1.24-.006-2.428-.505-3.3-1.385-.873-.88-1.36-2.07-1.353-3.31V4.696C93.987 2.114 96.07.012 98.652 0h204.695c1.24.006 2.428.505 3.3 1.385.873.88 1.36 2.07 1.353 3.31v139.61z"/>
        <path fill="#FFF" d="M306 141.494c0 2.489-2.045 4.506-4.567 4.506H100.567c-2.522 0-4.567-2.017-4.567-4.506V7.506c0-1.195.481-2.341 1.338-3.186.856-.845 2.018-1.32 3.229-1.32h200.875c2.519.005 4.558 2.02 4.558 4.506v133.988z"/>
        <path fill="#E6E6E6" d="M108.708 7h188.584C298.787 7 300 8.217 300 9.718v127.564c0 1.5-1.213 2.718-2.708 2.718H108.708c-1.495 0-2.708-1.217-2.708-2.718V9.718c0-1.5 1.213-2.718 2.708-2.718z"/>
        <path fill="#FFF" d="M109.708 11h183.584c1.496 0 2.708 1.206 2.708 2.693v119.614c0 1.487-1.212 2.693-2.708 2.693H109.708c-1.496 0-2.708-1.206-2.708-2.693V13.693c0-.714.285-1.4.793-1.904.508-.505 1.197-.789 1.915-.789z"/>
        <path fill="#3F3D56" d="M239.111 95c-.684 0-1.36-.159-1.986-.464-.145-.07-.284-.157-.414-.258l-12.636-9.75c-1.3-1.003-2.075-2.637-2.075-4.38V66.85c0-1.744.774-3.378 2.075-4.381l12.636-9.75c.13-.1.269-.187.414-.258 1.512-.737 3.262-.585 4.65.403 1.388.989 2.225 2.68 2.225 4.494v32.28c0 2.96-2.189 5.36-4.889 5.36V95zM207.4 96h-36.8c-7.508-.006-13.592-4.865-13.6-10.861V60.86c.008-5.996 6.092-10.855 13.6-10.861h36.896c7.454.007 13.495 4.831 13.504 10.784V85.14c-.008 5.996-6.092 10.855-13.6 10.861z"/>
        <circle cx="274" cy="119" r="11" fill="#E6E6E6"/>
        <path fill="#FFF" d="M279.889 116.814l-8.556-4.785c-.068-.039-.153-.039-.222 0-.069.038-.111.11-.111.186v9.57c0 .077.042.148.111.186.069.039.154.039.222 0l8.556-4.785c.069-.038.111-.11.111-.186 0-.077-.042-.148-.111-.186l-8.556-4.785c-.068-.039-.153-.039-.222 0-.069.038-.111.11-.111.186v9.57c0 .077.042.148.111.186.069.039.154.039.222 0l8.556-4.785c.069-.038.111-.11.111-.186 0-.077-.042-.148-.111-.186z"/>
        <path fill="#E6E6E6" d="M262 160.306c.013 2.579-2.07 4.68-4.652 4.694H52.653c-1.24-.006-2.428-.505-3.3-1.385-.873-.88-1.36-2.07-1.353-3.31V20.696c-.013-2.58 2.07-4.682 4.652-4.695h204.695c1.24.006 2.428.505 3.3 1.385.873.88 1.36 2.07 1.353 3.31v139.61z"/>
        <path fill="#FFF" d="M260 157.494c0 2.489-2.045 4.506-4.567 4.506H54.567c-2.522 0-4.567-2.017-4.567-4.506V23.506C50 21.017 52.045 19 54.567 19h200.875c2.519.005 4.558 2.02 4.558 4.506v133.988z"/>
        <path fill="#E6E6E6" d="M58.708 24h188.584c1.495 0 2.708 1.217 2.708 2.718v127.564c0 1.5-1.213 2.718-2.708 2.718H58.708c-1.495 0-2.708-1.217-2.708-2.718V26.718c0-1.5 1.213-2.718 2.708-2.718z"/>
        <path fill="#FFF" d="M60.708 29h183.584c1.496 0 2.708 1.206 2.708 2.693v119.614c0 1.487-1.212 2.693-2.708 2.693H60.708c-.718 0-1.407-.284-1.915-.789-.508-.505-.793-1.19-.793-1.904V31.693c0-.714.285-1.4.793-1.904.508-.505 1.197-.789 1.915-.789z"/>
        <path fill="#3F3D56" d="M192.111 112c-.684 0-1.36-.159-1.986-.464-.145-.07-.284-.157-.414-.258l-12.636-9.75c-1.3-1.003-2.075-2.637-2.075-4.38V83.85c0-1.744.774-3.378 2.075-4.381l12.636-9.75c.13-.1.269-.187.414-.258 1.512-.737 3.262-.585 4.65.403 1.388.989 2.225 2.68 2.225 4.494v32.28c0 2.96-2.189 5.36-4.889 5.36V112zM161.4 113h-36.8c-7.508-.006-13.592-4.865-13.6-10.861V77.86c.008-5.996 6.092-10.855 13.6-10.861h36.896c7.454.007 13.495 4.831 13.504 10.784v24.355c-.008 5.996-6.092 10.855-13.6 10.861z"/>
        <circle cx="228" cy="135" r="11" fill="#E6E6E6"/>
        <path fill="#FFF" d="M232.889 133.814l-8.556-4.785c-.068-.039-.153-.039-.222 0-.069.038-.111.11-.111.186v9.57c0 .077.042.148.111.186.069.039.154.039.222 0l8.556-4.785c.069-.038.111-.11.111-.186 0-.077-.042-.148-.111-.186l-8.556-4.785c-.068-.039-.153-.039-.222 0-.069.038-.111.11-.111.186v9.57c0 .077.042.148.111.186.069.039.154.039.222 0l8.556-4.785c.069-.038.111-.11.111-.186 0-.077-.042-.148-.111-.186z"/>
        <path fill="#E6E6E6" d="M214 180.306c.013 2.579-2.07 4.68-4.652 4.694H4.653c-1.24-.006-2.428-.505-3.3-1.385-.873-.88-1.36-2.07-1.353-3.31V40.696c-.013-2.58 2.07-4.682 4.652-4.695h204.695c1.24.006 2.428.505 3.3 1.385.873.88 1.36 2.07 1.353 3.31v139.61z"/>
        <path fill="#FFF" d="M212 177.494c0 2.489-2.045 4.506-4.567 4.506H6.567C4.045 182 2 179.983 2 177.494V43.506C2 41.017 4.045 39 6.567 39h200.875c2.519.005 4.558 2.02 4.558 4.506v133.988z"/>
        <path fill="#E6E6E6" d="M12.708 44h188.584c1.495 0 2.708 1.217 2.708 2.718v127.564c0 1.5-1.213 2.718-2.708 2.718H12.708c-.718 0-1.407-.286-1.915-.796S10 175.003 10 174.282V46.718c0-1.5 1.213-2.718 2.708-2.718z"/>
        <path fill="#FFF" d="M15.708 47h183.584c.718 0 1.407.284 1.915.789.508.505.793 1.19.793 1.904v119.614c0 .714-.285 1.4-.793 1.904-.508.505-1.197.789-1.915.789H15.708c-1.496 0-2.708-1.206-2.708-2.693V49.693c0-.714.285-1.4.793-1.904.508-.505 1.197-.789 1.915-.789z"/>
        <path fill="#8EBEBB" d="M144.111 131c-.684 0-1.36-.159-1.986-.464-.145-.07-.284-.157-.414-.258l-12.636-9.75c-1.3-1.003-2.075-2.637-2.075-4.38V102.85c0-1.744.774-3.378 2.075-4.381l12.636-9.75c.13-.1.269-.187.414-.258 1.512-.737 3.262-.585 4.65.403 1.388.989 2.225 2.68 2.225 4.494v32.28c0 2.96-2.189 5.36-4.889 5.36V131z"/>
        <path fill="#8EBEBB" d="M114.4 133H77.6c-7.508-.006-13.592-4.865-13.6-10.861V97.86c.008-5.996 6.092-10.855 13.6-10.861h36.896c7.454.007 13.495 4.831 13.504 10.784v24.355c-.008 5.996-6.092 10.855-13.6 10.861z"/>
        <circle cx="180" cy="152" r="11" fill="#3F3D56"/>
        <path fill="#FFF" d="M187.889 152.814l-8.556-4.785c-.068-.039-.153-.039-.222 0-.069.038-.111.11-.111.186v9.57c0 .077.042.148.111.186.069.039.154.039.222 0l8.556-4.785c.069-.038.111-.11.111-.186 0-.077-.042-.148-.111-.186l-8.556-4.785c-.068-.039-.153-.039-.222 0-.069.038-.111.11-.111.186v9.57c0 .077.042.148.111.186.069.039.154.039.222 0l8.556-4.785c.069-.038.111-.11.111-.186 0-.077-.042-.148-.111-.186z"/>
    </g>
</svg>
