<svg xmlns="http://www.w3.org/2000/svg" width="24" height="24" viewBox="0 0 24 24">
    <defs>
        <filter id="prefix__a">
            <feColorMatrix in="SourceGraphic" values="0 0 0 0 0.999063 0 0 0 0 0.434148 0 0 0 0 0.382140 0 0 0 1.000000 0"/>
        </filter>
    </defs>
    <g fill="none" fill-rule="evenodd" transform="translate(0 -2)">
        <path fill="#d02683" fill-rule="nonzero" d="M22.666 7.333c-.258 0-.52.075-.758.238l-4.572 2.912V7.992c0-1.1-.967-1.992-2.158-1.992H2.158C.968 6 0 6.892 0 7.992v12.016C0 21.108.967 22 2.159 22h13.019c1.191 0 2.158-.892 2.158-1.992v-2.491l4.568 2.912c.237.167.504.238.758.238.692 0 1.338-.542 1.338-1.313V8.646c.004-.771-.642-1.313-1.334-1.313zm-6.663 4v8.675c0 .359-.38.659-.825.659H2.158c-.445 0-.824-.3-.824-.659V7.992c0-.359.379-.659.825-.659h13.019c.446 0 .825.3.825.659v3.341zm6.668 8.021l-.05-.054-5.285-3.367v-3.87l5.335-3.396v10.687zm-10.336-6.02h-3v-3c0-.184-.15-.334-.333-.334h-.667c-.184 0-.334.15-.334.333v3h-3c-.184 0-.334.15-.334.334v.666c0 .184.15.334.334.334h3v3c0 .183.15.333.334.333h.667c.183 0 .333-.15.333-.333v-3h3c.184 0 .334-.15.334-.334v-.666c0-.184-.15-.334-.334-.334z"/>
    </g>
</svg>
