<svg xmlns="http://www.w3.org/2000/svg" xmlns:xlink="http://www.w3.org/1999/xlink" width="109" height="91" viewBox="0 0 109 91">
    <defs>
        <path id="007krfdiva" d="M0 0.29L109 0.29 109 87.812 0 87.812z"/>
        <path id="7yma51x1dc" d="M0 0.001L74.191 0.001 74.191 74.191 0 74.191z"/>
    </defs>
    <g fill="none" fill-rule="evenodd">
        <g opacity=".493" transform="translate(0 2.578)">
            <mask id="k01nlcnxcb" fill="#fff">
                <use xlink:href="#007krfdiva"/>
            </mask>
            <path fill="#3FA49E" d="M57.848.335s32.096-2.424 45.733 28.384 2.22 55.73-42.065 58.846c-44.285 3.116-67.465-23.884-60.2-46.384C8.583 18.68 29.963 3.796 57.849.335" mask="url(#k01nlcnxcb)"/>
        </g>
        <g>
            <path fill="#FFF" d="M0.032 54.742L55.946 0.442 74.825 75.793z" transform="rotate(-1 110.174 -657.03)"/>
            <g>
                <g transform="rotate(-1 110.174 -657.03) translate(.032 1.022) translate(.277)">
                    <mask id="caplwemafd" fill="#fff">
                        <use xlink:href="#7yma51x1dc"/>
                    </mask>
                    <path fill="#A596A6" d="M4.62 52.006l65.824 18.392L53.83 4.564 4.62 52.006zm68.003 22.185c-.14 0-.283-.019-.423-.058L1.144 54.28c-.54-.152-.958-.58-1.096-1.121-.138-.543.026-1.117.43-1.506L53.598.44c.403-.387.982-.532 1.52-.379.538.153.954.58 1.09 1.121l17.935 71.066c.137.54-.026 1.112-.426 1.5-.297.288-.69.443-1.094.443z" mask="url(#caplwemafd)"/>
                </g>
                <path fill="#d02683" d="M39.635 56.924c-1.253-.382-1.962-1.717-1.582-2.98l.041-.139c.38-1.264 1.704-1.978 2.957-1.595 1.254.382 1.962 1.717 1.583 2.98l-.042.14c-.38 1.263-1.703 1.977-2.957 1.594m2.811-9.414c-.941-.287-1.491-1.271-1.247-2.232l6.426-25.312c.418-1.649 2.116-2.613 3.731-2.12 1.616.493 2.498 2.245 1.939 3.85l-8.583 24.655c-.325.935-1.324 1.446-2.266 1.159" transform="rotate(-1 110.174 -657.03) translate(.032 1.022)"/>
                <path fill="#d02683" d="M42.706 46.577c.43.13.883-.1 1.032-.525l8.677-24.76c.18-.515.144-1.066-.102-1.552-.247-.486-.67-.84-1.19-.999-.522-.158-1.07-.097-1.544.17-.474.268-.81.706-.945 1.234l-6.497 25.422c-.111.436.139.88.569 1.01m.247 2.08c-.277 0-.56-.04-.839-.124-1.48-.449-2.337-1.974-1.954-3.473l6.497-25.421c.274-1.074.956-1.964 1.92-2.508s2.078-.667 3.137-.346c1.06.321 1.918 1.042 2.419 2.03.5.988.575 2.108.208 3.153l-8.677 24.76c-.415 1.185-1.52 1.93-2.71 1.93m-2.652 4.535c-.223 0-.445.055-.647.164-.325.174-.562.463-.669.816l-.042.139c-.106.353-.07.726.104 1.05.174.325.463.563.815.67.727.22 1.497-.193 1.717-.92l.043-.14c.106-.352.07-.725-.104-1.05-.174-.325-.463-.563-.815-.67-.133-.04-.267-.059-.402-.059m-.042 4.942c-.327 0-.66-.048-.988-.147-.874-.265-1.593-.855-2.024-1.661-.43-.806-.522-1.732-.257-2.607l.042-.139c.264-.876.853-1.595 1.658-2.026.806-.431 1.73-.523 2.604-.258.874.264 1.592.854 2.023 1.66.431.807.523 1.732.258 2.607l-.042.14c-.447 1.477-1.806 2.43-3.274 2.43" transform="rotate(-1 110.174 -657.03) translate(.032 1.022)"/>
            </g>
        </g>
    </g>
</svg>
