<svg xmlns="http://www.w3.org/2000/svg" width="63" height="78" viewBox="0 0 63 78">
    <g fill="none" fill-rule="evenodd" transform="translate(0 .052)">
        <circle cx="31.5" cy="45.5" r="31.5" fill="#FFF"/>
        <g fill-rule="nonzero" transform="rotate(16 8.77 86.865)">
            <ellipse cx="20.05" cy="52.823" fill="#FF6F61" rx="8.241" ry="8.361" transform="rotate(13 20.05 52.823)"/>
            <path fill="#FF6F61" d="M18.037 39.374c-3.346.313-6.4-1.973-7.055-5.28L6.67 12.29c-.478-2.42.084-4.923 1.549-6.892 1.464-1.97 3.696-3.222 6.145-3.451 2.461-.23 4.913.596 6.745 2.273 1.833 1.677 2.875 4.048 2.867 6.524l-.069 22.196c-.01 3.345-2.545 6.123-5.87 6.434z"/>
            <ellipse cx="20.05" cy="52.823" fill="#000" opacity=".1" rx="8.241" ry="8.361" transform="rotate(13 20.05 52.823)"/>
            <path fill="#000" d="M18.037 39.374c-3.346.313-6.4-1.973-7.055-5.28L6.67 12.29c-.478-2.42.084-4.923 1.549-6.892 1.464-1.97 3.696-3.222 6.145-3.451 2.461-.23 4.913.596 6.745 2.273 1.833 1.677 2.875 4.048 2.867 6.524l-.069 22.196c-.01 3.345-2.545 6.123-5.87 6.434z" opacity=".1"/>
            <ellipse cx="18.743" cy="52.012" fill="#FF6F61" rx="6.787" ry="6.885" transform="rotate(13 18.743 52.012)"/>
            <path fill="#FF6F61" d="M17.9 37.35c-3.056.291-5.843-1.805-6.436-4.841L7.553 12.484c-.434-2.222.083-4.522 1.423-6.333 1.34-1.81 3.38-2.964 5.617-3.178 2.248-.215 4.486.541 6.158 2.08 1.671 1.538 2.62 3.714 2.61 5.989l-.091 20.39c-.014 3.072-2.332 5.627-5.37 5.917z"/>
        </g>
    </g>
</svg>
