<svg xmlns="http://www.w3.org/2000/svg" width="46" height="46" viewBox="0 0 46 46">
    <defs>
        <filter id="prefix__a">
            <feColorMatrix in="SourceGraphic" values="0 0 0 0 1.000000 0 0 0 0 1.000000 0 0 0 0 1.000000 0 0 0 1.000000 0"/>
        </filter>
    </defs>
    <g fill="none" fill-rule="evenodd">
        <circle cx="23" cy="23" r="23" fill="#F2C66D"/>
        <g filter="url(#prefix__a)">
            <path fill="#000" fill-rule="nonzero" d="M39.558 19.28h-.002c-1.295.006-5.262.246-9.085 2.422-1.111-4.665-3.452-8.8-6.435-11.397-.137-.12-.322-.18-.506-.18s-.369.06-.506.18c-2.984 2.597-5.326 6.732-6.439 11.398-3.822-2.177-7.79-2.416-9.085-2.423h-.002c-.25 0-.444.195-.441.448.013 1.598.408 7.217 5.077 11.404 3.33 3.245 7.496 4.278 10.12 4.602 0 .017 2.547.017 2.547 0 2.624-.324 6.79-1.357 10.12-4.602 4.67-4.186 5.064-9.806 5.077-11.404.004-.253-.188-.448-.44-.448zM13.356 29.77c-3.158-2.832-4.096-6.422-4.365-8.574 2.336.234 6.343 1.104 9.519 4.2 1.45 1.3 2.54 2.857 3.327 4.763.486 1.176.776 2.362.776 3.764-2.446-.066-6.553-1.521-9.257-4.153zm6.374-5.739c-.486-.475-.998-.882-1.513-1.267.865-4.093 2.786-7.9 5.313-10.428 2.526 2.527 4.446 6.334 5.31 10.428-.515.385-1.026.792-1.513 1.267-1.894 1.695-3.052 3.622-3.798 5.428-.747-1.806-1.904-3.733-3.799-5.428zm13.916 5.79c-2.551 2.486-6.642 4.033-9.202 4.102 0-1.39.284-2.576.776-3.765.787-1.906 1.876-3.464 3.384-4.817 3.133-3.055 7.132-3.915 9.462-4.147-.271 2.155-1.218 5.755-4.42 8.627z"/>
        </g>
    </g>
</svg>
