<svg xmlns="http://www.w3.org/2000/svg" width="121" height="116" viewBox="0 0 121 116">
    <defs>
        <filter id="prefix__a">
            <feColorMatrix in="SourceGraphic" values="0 0 0 0 0.998379 0 0 0 0 0.547413 0 0 0 0 0.486339 0 0 0 1.000000 0"/>
        </filter>
    </defs>
    <g fill="none" fill-rule="evenodd">
        <circle cx="55" cy="55" r="55" fill="#DCEBEA"/>
        <g transform="translate(30 29)">
            <rect width="50" height="36" y="7.45" fill="#FFF" rx="10"/>
            <g fill="#FF8C7C" filter="url(#prefix__a)">
                <path fill="#000" fill-rule="nonzero" d="M31.875 31.875h9.917c.39 0 .708-.319.708-.708V29.75c0-.39-.319-.708-.708-.708h-9.917c-.39 0-.708.318-.708.708v1.417c0 .39.318.708.708.708zm0-5.667h9.917c.39 0 .708-.318.708-.708v-1.417c0-.39-.319-.708-.708-.708h-9.917c-.39 0-.708.319-.708.708V25.5c0 .39.318.708.708.708zm0 11.334h9.917c.39 0 .708-.32.708-.709v-1.416c0-.39-.319-.709-.708-.709h-9.917c-.39 0-.708.32-.708.709v1.416c0 .39.318.709.708.709zM17 34.708c3.914 0 7.083-3.17 7.083-7.083 0-3.914-3.17-7.083-7.083-7.083-3.914 0-7.083 3.17-7.083 7.083 0 3.914 3.17 7.083 7.083 7.083zm0-11.333c2.346 0 4.25 1.904 4.25 4.25s-1.904 4.25-4.25 4.25-4.25-1.904-4.25-4.25 1.904-4.25 4.25-4.25zm28.333-17H5.667C2.54 6.375 0 8.916 0 12.042v28.333c0 3.126 2.541 5.667 5.667 5.667h39.666C48.46 46.042 51 43.5 51 40.375V12.042c0-3.126-2.541-5.667-5.667-5.667zm-21.25 36.833H9.917v-1.337c0-.62.186-1.222.53-1.735.497-.735 1.4-1.169 2.418-1.169 1.098 0 1.842.62 4.144.62 2.293 0 3.037-.62 4.144-.62 1.018 0 1.921.443 2.417 1.169.345.513.531 1.116.531 1.735v1.337h-.018zm24.084-2.833c0 1.558-1.275 2.833-2.834 2.833H26.917v-1.337c0-1.23-.372-2.373-1.01-3.32-1.071-1.585-2.895-2.426-4.763-2.426-1.727 0-2.16.62-4.144.62-1.983 0-2.417-.62-4.144-.62-1.877 0-3.7.832-4.763 2.426-.638.947-1.01 2.09-1.01 3.32v1.337H5.667c-1.559 0-2.834-1.275-2.834-2.833V17.708h45.334v22.667zm0-25.5H2.833v-2.833c0-1.559 1.275-2.834 2.834-2.834h39.666c1.559 0 2.834 1.275 2.834 2.834v2.833z"/>
            </g>
        </g>
        <g>
            <path fill="#FFF" d="M30.974 50.071L23 22.5 54.152 32.5 45.408 36.286 56.654 48.99 49 55 37.024 43.019z" transform="translate(64 59)"/>
            <g fill="#8EBEBB">
                <path d="M22 14c.552 0 1-.514 1-1.148V1.148C23 .514 22.552 0 22 0s-1 .514-1 1.148v11.704c0 .634.448 1.148 1 1.148M14 22.5c0-.828-.514-1.5-1.148-1.5H1.148C.514 21 0 21.672 0 22.5S.514 24 1.148 24h11.704c.634 0 1.148-.672 1.148-1.5M28.194 17c.306 0 .611-.117.844-.35L37.65 8.04c.467-.467.467-1.223 0-1.69-.466-.466-1.222-.466-1.689 0l-8.611 8.612c-.467.467-.467 1.223 0 1.69.233.232.539.349.844.349M8.039 6.35c-.467-.467-1.223-.467-1.69 0-.466.466-.466 1.222 0 1.689l8.612 8.611c.234.233.54.35.845.35.305 0 .611-.117.844-.35.467-.466.467-1.222 0-1.689L8.04 6.35M14.961 27.35L6.35 35.962c-.467.466-.467 1.222 0 1.688.233.233.539.35.844.35.306 0 .611-.117.845-.35l8.611-8.611c.467-.467.467-1.223 0-1.69-.466-.466-1.222-.466-1.689 0M48.156 54.151L37.024 43.02c-.222-.222-.523-.345-.834-.345-.046 0-.091.003-.138.008-.358.042-.677.246-.867.553l-4.211 6.836-7.116-26.213 26.213 7.116-6.836 4.211c-.307.19-.51.509-.553.868-.042.358.083.716.338.97l11.132 11.133-5.996 5.995zm8.498-6.83l-10.91-10.91 7.885-4.858c.4-.246.616-.707.549-1.173-.068-.465-.405-.846-.859-.97l-30.83-8.369c-.408-.11-.844.006-1.143.305-.3.299-.415.735-.305 1.143l8.37 30.83c.123.454.504.791.97.859.466.067.926-.149 1.172-.55l4.858-7.884 10.911 10.91c.23.23.532.346.834.346.302 0 .604-.115.834-.346l7.664-7.664c.461-.46.461-1.208 0-1.668z" transform="translate(64 59)"/>
            </g>
        </g>
    </g>
</svg>
